<svg width="1052" height="39" viewBox="0 0 1052 39" fill="none" xmlns="http://www.w3.org/2000/svg">
<path d="M17.7727 16.2727C17.7045 15.697 17.428 15.25 16.9432 14.9318C16.4583 14.6136 15.8636 14.4545 15.1591 14.4545C14.6439 14.4545 14.1932 14.5379 13.8068 14.7045C13.4242 14.8712 13.125 15.1004 12.9091 15.392C12.697 15.6837 12.5909 16.0152 12.5909 16.3864C12.5909 16.697 12.6648 16.964 12.8125 17.1875C12.964 17.4072 13.1572 17.5909 13.392 17.7386C13.6269 17.8826 13.8731 18.0019 14.1307 18.0966C14.3883 18.1875 14.625 18.2614 14.8409 18.3182L16.0227 18.6364C16.3258 18.7159 16.6629 18.8258 17.0341 18.9659C17.4091 19.1061 17.767 19.2973 18.108 19.5398C18.4527 19.7784 18.7367 20.0852 18.9602 20.4602C19.1837 20.8352 19.2955 21.2955 19.2955 21.8409C19.2955 22.4697 19.1307 23.0379 18.8011 23.5455C18.4754 24.053 17.9981 24.4564 17.3693 24.7557C16.7443 25.0549 15.9848 25.2045 15.0909 25.2045C14.2576 25.2045 13.536 25.0701 12.9261 24.8011C12.3201 24.5322 11.8428 24.1572 11.4943 23.6761C11.1496 23.1951 10.9545 22.6364 10.9091 22H12.3636C12.4015 22.4394 12.5492 22.803 12.8068 23.0909C13.0682 23.375 13.3977 23.5871 13.7955 23.7273C14.197 23.8636 14.6288 23.9318 15.0909 23.9318C15.6288 23.9318 16.1117 23.8447 16.5398 23.6705C16.9678 23.4924 17.3068 23.2462 17.5568 22.9318C17.8068 22.6136 17.9318 22.2424 17.9318 21.8182C17.9318 21.4318 17.8239 21.1174 17.608 20.875C17.392 20.6326 17.108 20.4356 16.7557 20.2841C16.4034 20.1326 16.0227 20 15.6136 19.8864L14.1818 19.4773C13.2727 19.2159 12.553 18.8428 12.0227 18.358C11.4924 17.8731 11.2273 17.2386 11.2273 16.4545C11.2273 15.803 11.4034 15.2348 11.7557 14.75C12.1117 14.2614 12.589 13.8826 13.1875 13.6136C13.7898 13.3409 14.4621 13.2045 15.2045 13.2045C15.9545 13.2045 16.6212 13.339 17.2045 13.608C17.7879 13.8731 18.25 14.2367 18.5909 14.6989C18.9356 15.161 19.1174 15.6856 19.1364 16.2727H17.7727ZM21.4304 28.2727V16.2727H22.7259V17.6591H22.8849C22.9834 17.5076 23.1198 17.3144 23.294 17.0795C23.4721 16.8409 23.7259 16.6288 24.0554 16.4432C24.3887 16.2538 24.8395 16.1591 25.4077 16.1591C26.1425 16.1591 26.7902 16.3428 27.3509 16.7102C27.9115 17.0777 28.349 17.5985 28.6634 18.2727C28.9777 18.947 29.1349 19.7424 29.1349 20.6591C29.1349 21.5833 28.9777 22.3845 28.6634 23.0625C28.349 23.7367 27.9134 24.2595 27.3565 24.6307C26.7997 24.9981 26.1577 25.1818 25.4304 25.1818C24.8698 25.1818 24.4209 25.089 24.0838 24.9034C23.7467 24.714 23.4872 24.5 23.3054 24.2614C23.1236 24.0189 22.9834 23.8182 22.8849 23.6591H22.7713V28.2727H21.4304ZM22.7486 20.6364C22.7486 21.2955 22.8452 21.8769 23.0384 22.3807C23.2315 22.8807 23.5137 23.2727 23.8849 23.5568C24.2562 23.8371 24.7107 23.9773 25.2486 23.9773C25.8092 23.9773 26.277 23.8295 26.652 23.5341C27.0308 23.2348 27.3149 22.8333 27.5043 22.3295C27.6974 21.822 27.794 21.2576 27.794 20.6364C27.794 20.0227 27.6993 19.4697 27.5099 18.9773C27.3243 18.4811 27.0421 18.089 26.6634 17.8011C26.2884 17.5095 25.8168 17.3636 25.2486 17.3636C24.7031 17.3636 24.2448 17.5019 23.8736 17.7784C23.5024 18.0511 23.2221 18.4337 23.0327 18.9261C22.8433 19.4148 22.7486 19.9848 22.7486 20.6364ZM34.8395 25.1818C33.9986 25.1818 33.2732 24.9962 32.6634 24.625C32.0573 24.25 31.5895 23.7273 31.2599 23.0568C30.9342 22.3826 30.7713 21.5985 30.7713 20.7045C30.7713 19.8106 30.9342 19.0227 31.2599 18.3409C31.5895 17.6553 32.0478 17.1212 32.6349 16.7386C33.2259 16.3523 33.9152 16.1591 34.7031 16.1591C35.1577 16.1591 35.6065 16.2348 36.0497 16.3864C36.4929 16.5379 36.8963 16.7841 37.2599 17.125C37.6236 17.4621 37.9134 17.9091 38.1293 18.4659C38.3452 19.0227 38.4531 19.7083 38.4531 20.5227V21.0909H31.7259V19.9318H37.0895C37.0895 19.4394 36.991 19 36.794 18.6136C36.6009 18.2273 36.3243 17.9223 35.9645 17.6989C35.6084 17.4754 35.188 17.3636 34.7031 17.3636C34.169 17.3636 33.7069 17.4962 33.3168 17.7614C32.9304 18.0227 32.633 18.3636 32.4247 18.7841C32.2164 19.2045 32.1122 19.6553 32.1122 20.1364V20.9091C32.1122 21.5682 32.2259 22.1269 32.4531 22.5852C32.6842 23.0398 33.0043 23.3864 33.4134 23.625C33.8224 23.8598 34.2978 23.9773 34.8395 23.9773C35.1918 23.9773 35.5099 23.928 35.794 23.8295C36.0819 23.7273 36.33 23.5758 36.5384 23.375C36.7467 23.1705 36.9077 22.9167 37.0213 22.6136L38.3168 22.9773C38.1804 23.4167 37.9512 23.803 37.6293 24.1364C37.3073 24.4659 36.9096 24.7235 36.4361 24.9091C35.9626 25.0909 35.4304 25.1818 34.8395 25.1818ZM43.0611 25.2045C42.508 25.2045 42.0062 25.1004 41.5554 24.892C41.1046 24.6799 40.7467 24.375 40.4815 23.9773C40.2164 23.5758 40.0838 23.0909 40.0838 22.5227C40.0838 22.0227 40.1823 21.6174 40.3793 21.3068C40.5762 20.9924 40.8395 20.7462 41.169 20.5682C41.4986 20.3902 41.8622 20.2576 42.2599 20.1705C42.6615 20.0795 43.0649 20.0076 43.4702 19.9545C44.0005 19.8864 44.4304 19.8352 44.7599 19.8011C45.0933 19.7633 45.3357 19.7008 45.4872 19.6136C45.6425 19.5265 45.7202 19.375 45.7202 19.1591V19.1136C45.7202 18.553 45.5668 18.1174 45.2599 17.8068C44.9569 17.4962 44.4967 17.3409 43.8793 17.3409C43.2391 17.3409 42.7372 17.4811 42.3736 17.7614C42.0099 18.0417 41.7543 18.3409 41.6065 18.6591L40.3338 18.2045C40.5611 17.6742 40.8641 17.2614 41.2429 16.9659C41.6255 16.6667 42.0421 16.4583 42.4929 16.3409C42.9474 16.2197 43.3944 16.1591 43.8338 16.1591C44.1141 16.1591 44.4361 16.1932 44.7997 16.2614C45.1671 16.3258 45.5213 16.4602 45.8622 16.6648C46.2069 16.8693 46.4929 17.178 46.7202 17.5909C46.9474 18.0038 47.0611 18.5568 47.0611 19.25V25H45.7202V23.8182H45.652C45.5611 24.0076 45.4096 24.2102 45.1974 24.4261C44.9853 24.642 44.7031 24.8258 44.3509 24.9773C43.9986 25.1288 43.5687 25.2045 43.0611 25.2045ZM43.2656 24C43.7959 24 44.2429 23.8958 44.6065 23.6875C44.974 23.4792 45.2505 23.2102 45.4361 22.8807C45.6255 22.5511 45.7202 22.2045 45.7202 21.8409V20.6136C45.6634 20.6818 45.5384 20.7443 45.3452 20.8011C45.1558 20.8542 44.9361 20.9015 44.6861 20.9432C44.4399 20.9811 44.1993 21.0152 43.9645 21.0455C43.7334 21.072 43.5459 21.0947 43.402 21.1136C43.0535 21.1591 42.7277 21.233 42.4247 21.3352C42.1255 21.4337 41.883 21.5833 41.6974 21.7841C41.5156 21.9811 41.4247 22.25 41.4247 22.5909C41.4247 23.0568 41.5971 23.4091 41.9418 23.6477C42.2902 23.8826 42.7315 24 43.2656 24ZM50.7585 21.8182L50.7358 20.1591H51.0085L54.8267 16.2727H56.4858L52.4176 20.3864H52.304L50.7585 21.8182ZM49.5085 25V13.3636H50.8494V25H49.5085ZM55.054 25L51.6449 20.6818L52.5994 19.75L56.7585 25H55.054ZM68.2116 21.4318V16.2727H69.5526V25H68.2116V23.5227H68.1207C67.9162 23.9659 67.598 24.3428 67.1662 24.6534C66.7344 24.9602 66.1889 25.1136 65.5298 25.1136C64.9844 25.1136 64.4995 24.9943 64.0753 24.7557C63.651 24.5133 63.3177 24.1496 63.0753 23.6648C62.8329 23.1761 62.7116 22.5606 62.7116 21.8182V16.2727H64.0526V21.7273C64.0526 22.3636 64.2306 22.8712 64.5866 23.25C64.9465 23.6288 65.4048 23.8182 65.9616 23.8182C66.295 23.8182 66.634 23.733 66.9787 23.5625C67.3272 23.392 67.6188 23.1307 67.8537 22.7784C68.0923 22.4261 68.2116 21.9773 68.2116 21.4318ZM72.0085 28.2727V16.2727H73.304V17.6591H73.4631C73.5616 17.5076 73.6979 17.3144 73.8722 17.0795C74.0502 16.8409 74.304 16.6288 74.6335 16.4432C74.9669 16.2538 75.4176 16.1591 75.9858 16.1591C76.7206 16.1591 77.3684 16.3428 77.929 16.7102C78.4896 17.0777 78.9271 17.5985 79.2415 18.2727C79.5559 18.947 79.7131 19.7424 79.7131 20.6591C79.7131 21.5833 79.5559 22.3845 79.2415 23.0625C78.9271 23.7367 78.4915 24.2595 77.9347 24.6307C77.3778 24.9981 76.7358 25.1818 76.0085 25.1818C75.4479 25.1818 74.9991 25.089 74.6619 24.9034C74.3248 24.714 74.0653 24.5 73.8835 24.2614C73.7017 24.0189 73.5616 23.8182 73.4631 23.6591H73.3494V28.2727H72.0085ZM73.3267 20.6364C73.3267 21.2955 73.4233 21.8769 73.6165 22.3807C73.8097 22.8807 74.0919 23.2727 74.4631 23.5568C74.8343 23.8371 75.2888 23.9773 75.8267 23.9773C76.3873 23.9773 76.8551 23.8295 77.2301 23.5341C77.6089 23.2348 77.893 22.8333 78.0824 22.3295C78.2756 21.822 78.3722 21.2576 78.3722 20.6364C78.3722 20.0227 78.2775 19.4697 78.0881 18.9773C77.9025 18.4811 77.6203 18.089 77.2415 17.8011C76.8665 17.5095 76.3949 17.3636 75.8267 17.3636C75.2813 17.3636 74.8229 17.5019 74.4517 17.7784C74.0805 18.0511 73.8002 18.4337 73.6108 18.9261C73.4214 19.4148 73.3267 19.9848 73.3267 20.6364Z" fill="white"/>
<path d="M496.857 18H495.8C495.738 17.696 495.628 17.429 495.472 17.1989C495.319 16.9688 495.131 16.7756 494.909 16.6193C494.691 16.4602 494.448 16.3409 494.181 16.2614C493.914 16.1818 493.635 16.142 493.346 16.142C492.817 16.142 492.338 16.2756 491.909 16.5426C491.483 16.8097 491.144 17.2031 490.891 17.723C490.641 18.2429 490.516 18.8807 490.516 19.6364C490.516 20.392 490.641 21.0298 490.891 21.5497C491.144 22.0696 491.483 22.4631 491.909 22.7301C492.338 22.9972 492.817 23.1307 493.346 23.1307C493.635 23.1307 493.914 23.0909 494.181 23.0114C494.448 22.9318 494.691 22.8139 494.909 22.6577C495.131 22.4986 495.319 22.304 495.472 22.0739C495.628 21.8409 495.738 21.5739 495.8 21.2727H496.857C496.777 21.7187 496.632 22.1179 496.422 22.4702C496.212 22.8224 495.951 23.1222 495.638 23.3693C495.326 23.6136 494.975 23.7997 494.586 23.9276C494.199 24.0554 493.786 24.1193 493.346 24.1193C492.601 24.1193 491.939 23.9375 491.36 23.5739C490.78 23.2102 490.324 22.6932 489.992 22.0227C489.659 21.3523 489.493 20.5568 489.493 19.6364C489.493 18.7159 489.659 17.9205 489.992 17.25C490.324 16.5795 490.78 16.0625 491.36 15.6989C491.939 15.3352 492.601 15.1534 493.346 15.1534C493.786 15.1534 494.199 15.2173 494.586 15.3452C494.975 15.473 495.326 15.6605 495.638 15.9077C495.951 16.152 496.212 16.4503 496.422 16.8026C496.632 17.152 496.777 17.5511 496.857 18ZM501.087 24.1364C500.496 24.1364 499.978 23.9957 499.532 23.7145C499.089 23.4332 498.742 23.0398 498.492 22.5341C498.245 22.0284 498.121 21.4375 498.121 20.7614C498.121 20.0795 498.245 19.4844 498.492 18.9759C498.742 18.4673 499.089 18.0724 499.532 17.7912C499.978 17.5099 500.496 17.3693 501.087 17.3693C501.678 17.3693 502.195 17.5099 502.638 17.7912C503.085 18.0724 503.431 18.4673 503.678 18.9759C503.928 19.4844 504.053 20.0795 504.053 20.7614C504.053 21.4375 503.928 22.0284 503.678 22.5341C503.431 23.0398 503.085 23.4332 502.638 23.7145C502.195 23.9957 501.678 24.1364 501.087 24.1364ZM501.087 23.233C501.536 23.233 501.906 23.1179 502.195 22.8878C502.485 22.6577 502.7 22.3551 502.839 21.9801C502.978 21.6051 503.048 21.1989 503.048 20.7614C503.048 20.3239 502.978 19.9162 502.839 19.5384C502.7 19.1605 502.485 18.8551 502.195 18.6222C501.906 18.3892 501.536 18.2727 501.087 18.2727C500.638 18.2727 500.269 18.3892 499.979 18.6222C499.69 18.8551 499.475 19.1605 499.336 19.5384C499.197 19.9162 499.127 20.3239 499.127 20.7614C499.127 21.1989 499.197 21.6051 499.336 21.9801C499.475 22.3551 499.69 22.6577 499.979 22.8878C500.269 23.1179 500.638 23.233 501.087 23.233ZM505.588 26.4545V17.4545H506.56V18.4943H506.679C506.753 18.3807 506.855 18.2358 506.986 18.0597C507.12 17.8807 507.31 17.7216 507.557 17.5824C507.807 17.4403 508.145 17.3693 508.571 17.3693C509.123 17.3693 509.608 17.5071 510.029 17.7827C510.449 18.0582 510.777 18.4489 511.013 18.9545C511.249 19.4602 511.367 20.0568 511.367 20.7443C511.367 21.4375 511.249 22.0384 511.013 22.5469C510.777 23.0526 510.451 23.4446 510.033 23.723C509.615 23.9986 509.134 24.1364 508.588 24.1364C508.168 24.1364 507.831 24.0668 507.578 23.9276C507.326 23.7855 507.131 23.625 506.995 23.446C506.858 23.2642 506.753 23.1136 506.679 22.9943H506.594V26.4545H505.588ZM506.577 20.7273C506.577 21.2216 506.65 21.6577 506.794 22.0355C506.939 22.4105 507.151 22.7045 507.429 22.9176C507.708 23.1278 508.049 23.233 508.452 23.233C508.873 23.233 509.223 23.1222 509.505 22.9006C509.789 22.6761 510.002 22.375 510.144 21.9972C510.289 21.6165 510.361 21.1932 510.361 20.7273C510.361 20.267 510.29 19.8523 510.148 19.483C510.009 19.1108 509.797 18.8168 509.513 18.6009C509.232 18.3821 508.878 18.2727 508.452 18.2727C508.043 18.2727 507.699 18.3764 507.421 18.5838C507.142 18.7884 506.932 19.0753 506.79 19.4446C506.648 19.8111 506.577 20.2386 506.577 20.7273ZM513.314 26.4545C513.144 26.4545 512.992 26.4403 512.858 26.4119C512.725 26.3864 512.632 26.3608 512.581 26.3352L512.837 25.4489C513.081 25.5114 513.297 25.5341 513.485 25.517C513.672 25.5 513.838 25.4162 513.983 25.2656C514.131 25.1179 514.266 24.8778 514.388 24.5455L514.576 24.0341L512.155 17.4545H513.246L515.053 22.6705H515.121L516.928 17.4545H518.019L515.24 24.9545C515.115 25.2926 514.961 25.5724 514.776 25.794C514.591 26.0185 514.377 26.1847 514.132 26.2926C513.891 26.4006 513.618 26.4545 513.314 26.4545ZM519.346 24V17.4545H520.318V18.4432H520.386C520.505 18.1193 520.721 17.8565 521.034 17.6548C521.346 17.4531 521.699 17.3523 522.091 17.3523C522.164 17.3523 522.257 17.3537 522.368 17.3565C522.478 17.3594 522.562 17.3636 522.619 17.3693V18.392C522.585 18.3835 522.507 18.3707 522.385 18.3537C522.265 18.3338 522.139 18.3239 522.005 18.3239C521.687 18.3239 521.403 18.3906 521.153 18.5241C520.906 18.6548 520.71 18.8366 520.565 19.0696C520.423 19.2997 520.352 19.5625 520.352 19.858V24H519.346ZM523.811 24V17.4545H524.817V24H523.811ZM524.322 16.3636C524.126 16.3636 523.957 16.2969 523.815 16.1634C523.676 16.0298 523.607 15.8693 523.607 15.6818C523.607 15.4943 523.676 15.3338 523.815 15.2003C523.957 15.0668 524.126 15 524.322 15C524.518 15 524.686 15.0668 524.825 15.2003C524.967 15.3338 525.038 15.4943 525.038 15.6818C525.038 15.8693 524.967 16.0298 524.825 16.1634C524.686 16.2969 524.518 16.3636 524.322 16.3636ZM529.301 26.5909C528.815 26.5909 528.397 26.5284 528.048 26.4034C527.699 26.2812 527.407 26.1193 527.174 25.9176C526.944 25.7188 526.761 25.5057 526.625 25.2784L527.426 24.7159C527.517 24.8352 527.632 24.9716 527.771 25.125C527.91 25.2812 528.1 25.4162 528.342 25.5298C528.586 25.6463 528.906 25.7045 529.301 25.7045C529.829 25.7045 530.265 25.5767 530.609 25.321C530.953 25.0653 531.125 24.6648 531.125 24.1193V22.7898H531.039C530.966 22.9091 530.86 23.0568 530.724 23.233C530.591 23.4062 530.397 23.5611 530.145 23.6974C529.895 23.831 529.556 23.8977 529.13 23.8977C528.602 23.8977 528.127 23.7727 527.707 23.5227C527.289 23.2727 526.958 22.9091 526.714 22.4318C526.473 21.9545 526.352 21.375 526.352 20.6932C526.352 20.0227 526.47 19.4389 526.706 18.9418C526.941 18.4418 527.27 18.0554 527.69 17.7827C528.11 17.5071 528.596 17.3693 529.147 17.3693C529.574 17.3693 529.912 17.4403 530.162 17.5824C530.414 17.7216 530.608 17.8807 530.741 18.0597C530.877 18.2358 530.983 18.3807 531.056 18.4943H531.159V17.4545H532.13V24.1875C532.13 24.75 532.002 25.2074 531.747 25.5597C531.494 25.9148 531.153 26.1747 530.724 26.3395C530.298 26.5071 529.824 26.5909 529.301 26.5909ZM529.267 22.9943C529.67 22.9943 530.011 22.902 530.289 22.7173C530.568 22.5327 530.779 22.267 530.924 21.9205C531.069 21.5739 531.142 21.1591 531.142 20.6761C531.142 20.2045 531.071 19.7884 530.929 19.4276C530.787 19.0668 530.576 18.7841 530.298 18.5795C530.02 18.375 529.676 18.2727 529.267 18.2727C528.841 18.2727 528.485 18.3807 528.201 18.5966C527.92 18.8125 527.708 19.1023 527.566 19.4659C527.427 19.8295 527.358 20.233 527.358 20.6761C527.358 21.1307 527.429 21.5327 527.571 21.8821C527.716 22.2287 527.929 22.5014 528.21 22.7003C528.494 22.8963 528.846 22.9943 529.267 22.9943ZM534.977 20.0625V24H533.971V15.2727H534.977V18.4773H535.062C535.216 18.1392 535.446 17.8707 535.752 17.6719C536.062 17.4702 536.474 17.3693 536.988 17.3693C537.434 17.3693 537.825 17.4588 538.16 17.6378C538.495 17.8139 538.755 18.0852 538.94 18.4517C539.127 18.8153 539.221 19.2784 539.221 19.8409V24H538.216V19.9091C538.216 19.3892 538.081 18.9872 537.811 18.7031C537.544 18.4162 537.173 18.2727 536.699 18.2727C536.369 18.2727 536.074 18.3423 535.812 18.4815C535.554 18.6207 535.349 18.8239 535.199 19.0909C535.051 19.358 534.977 19.6818 534.977 20.0625ZM543.908 17.4545V18.3068H540.516V17.4545H543.908ZM541.504 15.8864H542.51V22.125C542.51 22.4091 542.551 22.6222 542.634 22.7642C542.719 22.9034 542.827 22.9972 542.957 23.0455C543.091 23.0909 543.232 23.1136 543.379 23.1136C543.49 23.1136 543.581 23.108 543.652 23.0966C543.723 23.0824 543.78 23.071 543.822 23.0625L544.027 23.9659C543.959 23.9915 543.864 24.017 543.741 24.0426C543.619 24.071 543.464 24.0852 543.277 24.0852C542.993 24.0852 542.714 24.0241 542.442 23.902C542.172 23.7798 541.947 23.5938 541.768 23.3438C541.592 23.0938 541.504 22.7784 541.504 22.3977V15.8864ZM550.875 19.6364C550.875 19.1705 550.989 18.7457 551.216 18.3622C551.443 17.9787 551.749 17.6733 552.132 17.446C552.516 17.2187 552.94 17.1051 553.406 17.1051C553.81 17.1051 554.182 17.1918 554.523 17.3651C554.866 17.5384 555.151 17.7756 555.375 18.0767C555.599 18.375 555.739 18.7131 555.793 19.0909H554.761C554.705 18.7983 554.547 18.5597 554.288 18.375C554.03 18.1875 553.736 18.0938 553.406 18.0938C553.122 18.0938 552.864 18.1634 552.631 18.3026C552.398 18.4418 552.212 18.6278 552.072 18.8608C551.933 19.0937 551.864 19.3523 551.864 19.6364C551.864 19.9205 551.933 20.179 552.072 20.4119C552.212 20.6449 552.398 20.831 552.631 20.9702C552.864 21.1094 553.122 21.179 553.406 21.179C553.736 21.179 554.014 21.0866 554.241 20.902C554.472 20.7145 554.616 20.4744 554.676 20.1818H555.707C555.653 20.5597 555.521 20.8991 555.311 21.2003C555.101 21.4986 554.831 21.7344 554.501 21.9077C554.175 22.081 553.81 22.1676 553.406 22.1676C552.94 22.1676 552.516 22.054 552.132 21.8267C551.749 21.5994 551.443 21.294 551.216 20.9105C550.989 20.527 550.875 20.1023 550.875 19.6364ZM553.364 24.1364C552.744 24.1364 552.162 24.0199 551.616 23.7869C551.074 23.554 550.595 23.2315 550.18 22.8196C549.768 22.4048 549.445 21.9261 549.209 21.3835C548.976 20.8409 548.861 20.2585 548.864 19.6364C548.866 19.0142 548.984 18.4318 549.217 17.8892C549.453 17.3466 549.777 16.8693 550.189 16.4574C550.601 16.0426 551.078 15.7187 551.621 15.4858C552.163 15.2528 552.744 15.1364 553.364 15.1364C553.986 15.1364 554.568 15.2528 555.111 15.4858C555.656 15.7187 556.134 16.0426 556.543 16.4574C556.955 16.8693 557.277 17.3466 557.51 17.8892C557.743 18.4318 557.861 19.0142 557.864 19.6364C557.866 20.2585 557.751 20.8409 557.518 21.3835C557.286 21.9261 556.963 22.4048 556.551 22.8196C556.139 23.2315 555.661 23.554 555.115 23.7869C554.57 24.0199 553.986 24.1364 553.364 24.1364ZM553.364 23.1477C553.849 23.1477 554.305 23.0568 554.732 22.875C555.158 22.6932 555.531 22.4418 555.852 22.1207C556.173 21.7997 556.425 21.4276 556.607 21.0043C556.788 20.5781 556.878 20.1236 556.875 19.6406C556.872 19.1548 556.78 18.6989 556.598 18.2727C556.416 17.8466 556.165 17.473 555.844 17.152C555.523 16.831 555.151 16.5795 554.727 16.3977C554.304 16.2159 553.849 16.125 553.364 16.125C552.881 16.125 552.428 16.2159 552.004 16.3977C551.581 16.5795 551.209 16.8324 550.888 17.1562C550.567 17.4773 550.314 17.8509 550.129 18.277C549.947 18.7003 549.855 19.1548 549.852 19.6406C549.849 20.1207 549.939 20.5739 550.121 21C550.303 21.4233 550.554 21.7955 550.875 22.1165C551.199 22.4375 551.572 22.6903 551.996 22.875C552.422 23.0568 552.878 23.1477 553.364 23.1477ZM563.134 24V23.233L566.015 20.0795C566.353 19.7102 566.631 19.3892 566.85 19.1165C567.069 18.8409 567.23 18.5824 567.336 18.3409C567.444 18.0966 567.498 17.8409 567.498 17.5739C567.498 17.267 567.424 17.0014 567.276 16.777C567.131 16.5526 566.932 16.3793 566.679 16.2571C566.426 16.1349 566.142 16.0739 565.827 16.0739C565.492 16.0739 565.199 16.1435 564.949 16.2827C564.702 16.419 564.51 16.6108 564.374 16.858C564.24 17.1051 564.174 17.3949 564.174 17.7273H563.168C563.168 17.2159 563.286 16.767 563.522 16.3807C563.757 15.9943 564.078 15.6932 564.485 15.4773C564.894 15.2614 565.353 15.1534 565.861 15.1534C566.373 15.1534 566.826 15.2614 567.221 15.4773C567.615 15.6932 567.925 15.9844 568.15 16.3509C568.374 16.7173 568.486 17.125 568.486 17.5739C568.486 17.8949 568.428 18.2088 568.311 18.5156C568.198 18.8196 567.999 19.1591 567.715 19.5341C567.434 19.9062 567.043 20.3608 566.543 20.8977L564.583 22.9943V23.0625H568.64V24H563.134ZM573.246 24.1193C572.604 24.1193 572.057 23.9446 571.605 23.5952C571.154 23.2429 570.809 22.733 570.57 22.0653C570.331 21.3949 570.212 20.5852 570.212 19.6364C570.212 18.6932 570.331 17.8878 570.57 17.2202C570.811 16.5497 571.158 16.0384 571.61 15.6861C572.064 15.331 572.61 15.1534 573.246 15.1534C573.882 15.1534 574.426 15.331 574.878 15.6861C575.333 16.0384 575.679 16.5497 575.918 17.2202C576.159 17.8878 576.28 18.6932 576.28 19.6364C576.28 20.5852 576.161 21.3949 575.922 22.0653C575.684 22.733 575.338 23.2429 574.887 23.5952C574.435 23.9446 573.888 24.1193 573.246 24.1193ZM573.246 23.1818C573.882 23.1818 574.377 22.875 574.729 22.2614C575.081 21.6477 575.257 20.7727 575.257 19.6364C575.257 18.8807 575.176 18.2372 575.015 17.706C574.855 17.1747 574.625 16.7699 574.324 16.4915C574.026 16.2131 573.667 16.0739 573.246 16.0739C572.615 16.0739 572.123 16.3849 571.767 17.0071C571.412 17.6264 571.235 18.5028 571.235 19.6364C571.235 20.392 571.314 21.0341 571.473 21.5625C571.632 22.0909 571.861 22.4929 572.159 22.7685C572.461 23.044 572.823 23.1818 573.246 23.1818ZM577.9 24V23.233L580.78 20.0795C581.118 19.7102 581.397 19.3892 581.615 19.1165C581.834 18.8409 581.996 18.5824 582.101 18.3409C582.209 18.0966 582.263 17.8409 582.263 17.5739C582.263 17.267 582.189 17.0014 582.042 16.777C581.897 16.5526 581.698 16.3793 581.445 16.2571C581.192 16.1349 580.908 16.0739 580.593 16.0739C580.257 16.0739 579.965 16.1435 579.715 16.2827C579.468 16.419 579.276 16.6108 579.14 16.858C579.006 17.1051 578.939 17.3949 578.939 17.7273H577.934C577.934 17.2159 578.051 16.767 578.287 16.3807C578.523 15.9943 578.844 15.6932 579.25 15.4773C579.659 15.2614 580.118 15.1534 580.627 15.1534C581.138 15.1534 581.591 15.2614 581.986 15.4773C582.381 15.6932 582.691 15.9844 582.915 16.3509C583.14 16.7173 583.252 17.125 583.252 17.5739C583.252 17.8949 583.194 18.2088 583.077 18.5156C582.963 18.8196 582.765 19.1591 582.48 19.5341C582.199 19.9062 581.809 20.3608 581.309 20.8977L579.348 22.9943V23.0625H583.405V24H577.9ZM588.012 24.1193C587.37 24.1193 586.823 23.9446 586.371 23.5952C585.919 23.2429 585.574 22.733 585.336 22.0653C585.097 21.3949 584.978 20.5852 584.978 19.6364C584.978 18.6932 585.097 17.8878 585.336 17.2202C585.577 16.5497 585.924 16.0384 586.375 15.6861C586.83 15.331 587.375 15.1534 588.012 15.1534C588.648 15.1534 589.192 15.331 589.644 15.6861C590.098 16.0384 590.445 16.5497 590.684 17.2202C590.925 17.8878 591.046 18.6932 591.046 19.6364C591.046 20.5852 590.926 21.3949 590.688 22.0653C590.449 22.733 590.104 23.2429 589.652 23.5952C589.201 23.9446 588.654 24.1193 588.012 24.1193ZM588.012 23.1818C588.648 23.1818 589.142 22.875 589.495 22.2614C589.847 21.6477 590.023 20.7727 590.023 19.6364C590.023 18.8807 589.942 18.2372 589.78 17.706C589.621 17.1747 589.391 16.7699 589.09 16.4915C588.792 16.2131 588.432 16.0739 588.012 16.0739C587.381 16.0739 586.888 16.3849 586.533 17.0071C586.178 17.6264 586 18.5028 586 19.6364C586 20.392 586.08 21.0341 586.239 21.5625C586.398 22.0909 586.627 22.4929 586.925 22.7685C587.226 23.044 587.588 23.1818 588.012 23.1818ZM596.432 19.1676V20.1051H592.614V19.1676H596.432ZM597.775 24V23.233L600.655 20.0795C600.993 19.7102 601.272 19.3892 601.49 19.1165C601.709 18.8409 601.871 18.5824 601.976 18.3409C602.084 18.0966 602.138 17.8409 602.138 17.5739C602.138 17.267 602.064 17.0014 601.917 16.777C601.772 16.5526 601.573 16.3793 601.32 16.2571C601.067 16.1349 600.783 16.0739 600.468 16.0739C600.132 16.0739 599.84 16.1435 599.59 16.2827C599.343 16.419 599.151 16.6108 599.015 16.858C598.881 17.1051 598.814 17.3949 598.814 17.7273H597.809C597.809 17.2159 597.926 16.767 598.162 16.3807C598.398 15.9943 598.719 15.6932 599.125 15.4773C599.534 15.2614 599.993 15.1534 600.502 15.1534C601.013 15.1534 601.466 15.2614 601.861 15.4773C602.256 15.6932 602.566 15.9844 602.79 16.3509C603.015 16.7173 603.127 17.125 603.127 17.5739C603.127 17.8949 603.069 18.2088 602.952 18.5156C602.838 18.8196 602.64 19.1591 602.355 19.5341C602.074 19.9062 601.684 20.3608 601.184 20.8977L599.223 22.9943V23.0625H603.28V24H597.775ZM607.887 24.1193C607.245 24.1193 606.698 23.9446 606.246 23.5952C605.794 23.2429 605.449 22.733 605.211 22.0653C604.972 21.3949 604.853 20.5852 604.853 19.6364C604.853 18.6932 604.972 17.8878 605.211 17.2202C605.452 16.5497 605.799 16.0384 606.25 15.6861C606.705 15.331 607.25 15.1534 607.887 15.1534C608.523 15.1534 609.067 15.331 609.519 15.6861C609.973 16.0384 610.32 16.5497 610.559 17.2202C610.8 17.8878 610.921 18.6932 610.921 19.6364C610.921 20.5852 610.801 21.3949 610.563 22.0653C610.324 22.733 609.979 23.2429 609.527 23.5952C609.076 23.9446 608.529 24.1193 607.887 24.1193ZM607.887 23.1818C608.523 23.1818 609.017 22.875 609.37 22.2614C609.722 21.6477 609.898 20.7727 609.898 19.6364C609.898 18.8807 609.817 18.2372 609.655 17.706C609.496 17.1747 609.266 16.7699 608.965 16.4915C608.667 16.2131 608.307 16.0739 607.887 16.0739C607.256 16.0739 606.763 16.3849 606.408 17.0071C606.053 17.6264 605.875 18.5028 605.875 19.6364C605.875 20.392 605.955 21.0341 606.114 21.5625C606.273 22.0909 606.502 22.4929 606.8 22.7685C607.101 23.044 607.463 23.1818 607.887 23.1818ZM612.54 24V23.233L615.421 20.0795C615.759 19.7102 616.037 19.3892 616.256 19.1165C616.475 18.8409 616.637 18.5824 616.742 18.3409C616.85 18.0966 616.904 17.8409 616.904 17.5739C616.904 17.267 616.83 17.0014 616.682 16.777C616.537 16.5526 616.338 16.3793 616.086 16.2571C615.833 16.1349 615.549 16.0739 615.233 16.0739C614.898 16.0739 614.605 16.1435 614.355 16.2827C614.108 16.419 613.917 16.6108 613.78 16.858C613.647 17.1051 613.58 17.3949 613.58 17.7273H612.574C612.574 17.2159 612.692 16.767 612.928 16.3807C613.164 15.9943 613.485 15.6932 613.891 15.4773C614.3 15.2614 614.759 15.1534 615.267 15.1534C615.779 15.1534 616.232 15.2614 616.627 15.4773C617.022 15.6932 617.331 15.9844 617.556 16.3509C617.78 16.7173 617.892 17.125 617.892 17.5739C617.892 17.8949 617.834 18.2088 617.718 18.5156C617.604 18.8196 617.405 19.1591 617.121 19.5341C616.84 19.9062 616.449 20.3608 615.949 20.8977L613.989 22.9943V23.0625H618.046V24H612.54ZM619.414 22.2102V21.3409L623.249 15.2727H623.88V16.6193H623.453L620.556 21.2045V21.2727H625.721V22.2102H619.414ZM623.522 24V21.946V21.5412V15.2727H624.527V24H623.522ZM632.21 22.8068L632.141 23.267C632.093 23.5909 632.019 23.9375 631.92 24.3068C631.823 24.6761 631.722 25.0241 631.617 25.3509C631.512 25.6776 631.425 25.9375 631.357 26.1307H630.59C630.627 25.9489 630.675 25.7088 630.735 25.4105C630.795 25.1122 630.854 24.7784 630.914 24.4091C630.977 24.0426 631.028 23.6676 631.067 23.2841L631.119 22.8068H632.21ZM642.357 17.4545C642.306 17.0227 642.098 16.6875 641.735 16.4489C641.371 16.2102 640.925 16.0909 640.397 16.0909C640.01 16.0909 639.672 16.1534 639.382 16.2784C639.096 16.4034 638.871 16.5753 638.709 16.794C638.55 17.0128 638.471 17.2614 638.471 17.5398C638.471 17.7727 638.526 17.973 638.637 18.1406C638.75 18.3054 638.895 18.4432 639.071 18.554C639.248 18.6619 639.432 18.7514 639.625 18.8224C639.819 18.8906 639.996 18.946 640.158 18.9886L641.044 19.2273C641.272 19.2869 641.525 19.3693 641.803 19.4744C642.084 19.5795 642.353 19.723 642.608 19.9048C642.867 20.0838 643.08 20.3139 643.248 20.5952C643.415 20.8764 643.499 21.2216 643.499 21.6307C643.499 22.1023 643.375 22.5284 643.128 22.9091C642.884 23.2898 642.526 23.5923 642.054 23.8168C641.586 24.0412 641.016 24.1534 640.346 24.1534C639.721 24.1534 639.179 24.0526 638.722 23.8509C638.267 23.6491 637.909 23.3679 637.648 23.0071C637.39 22.6463 637.243 22.2273 637.209 21.75H638.3C638.328 22.0795 638.439 22.3523 638.632 22.5682C638.828 22.7812 639.076 22.9403 639.374 23.0455C639.675 23.1477 639.999 23.1989 640.346 23.1989C640.749 23.1989 641.111 23.1335 641.432 23.0028C641.753 22.8693 642.007 22.6847 642.195 22.4489C642.382 22.2102 642.476 21.9318 642.476 21.6136C642.476 21.3239 642.395 21.0881 642.233 20.9062C642.071 20.7244 641.858 20.5767 641.594 20.4631C641.33 20.3494 641.044 20.25 640.738 20.1648L639.664 19.858C638.982 19.6619 638.442 19.3821 638.044 19.0185C637.647 18.6548 637.448 18.179 637.448 17.5909C637.448 17.1023 637.58 16.6761 637.844 16.3125C638.111 15.946 638.469 15.6619 638.918 15.4602C639.37 15.2557 639.874 15.1534 640.431 15.1534C640.993 15.1534 641.493 15.2543 641.931 15.456C642.368 15.6548 642.715 15.9276 642.971 16.2741C643.229 16.6207 643.365 17.0142 643.38 17.4545H642.357ZM645.1 26.4545V17.4545H646.072V18.4943H646.191C646.265 18.3807 646.367 18.2358 646.498 18.0597C646.631 17.8807 646.822 17.7216 647.069 17.5824C647.319 17.4403 647.657 17.3693 648.083 17.3693C648.634 17.3693 649.12 17.5071 649.54 17.7827C649.961 18.0582 650.289 18.4489 650.525 18.9545C650.761 19.4602 650.879 20.0568 650.879 20.7443C650.879 21.4375 650.761 22.0384 650.525 22.5469C650.289 23.0526 649.962 23.4446 649.545 23.723C649.127 23.9986 648.646 24.1364 648.1 24.1364C647.68 24.1364 647.343 24.0668 647.09 23.9276C646.837 23.7855 646.643 23.625 646.506 23.446C646.37 23.2642 646.265 23.1136 646.191 22.9943H646.106V26.4545H645.1ZM646.089 20.7273C646.089 21.2216 646.161 21.6577 646.306 22.0355C646.451 22.4105 646.663 22.7045 646.941 22.9176C647.219 23.1278 647.56 23.233 647.964 23.233C648.384 23.233 648.735 23.1222 649.016 22.9006C649.3 22.6761 649.513 22.375 649.656 21.9972C649.8 21.6165 649.873 21.1932 649.873 20.7273C649.873 20.267 649.802 19.8523 649.66 19.483C649.521 19.1108 649.309 18.8168 649.025 18.6009C648.744 18.3821 648.39 18.2727 647.964 18.2727C647.555 18.2727 647.211 18.3764 646.933 18.5838C646.654 18.7884 646.444 19.0753 646.302 19.4446C646.16 19.8111 646.089 20.2386 646.089 20.7273ZM655.157 24.1364C654.526 24.1364 653.982 23.9972 653.525 23.7188C653.07 23.4375 652.719 23.0455 652.472 22.5426C652.228 22.0369 652.106 21.4489 652.106 20.7784C652.106 20.108 652.228 19.517 652.472 19.0057C652.719 18.4915 653.063 18.0909 653.504 17.804C653.947 17.5142 654.464 17.3693 655.055 17.3693C655.396 17.3693 655.732 17.4261 656.065 17.5398C656.397 17.6534 656.7 17.8381 656.972 18.0938C657.245 18.3466 657.462 18.6818 657.624 19.0994C657.786 19.517 657.867 20.0312 657.867 20.642V21.0682H652.822V20.1989H656.844C656.844 19.8295 656.771 19.5 656.623 19.2102C656.478 18.9205 656.271 18.6918 656.001 18.5241C655.734 18.3565 655.418 18.2727 655.055 18.2727C654.654 18.2727 654.308 18.3722 654.015 18.571C653.725 18.767 653.502 19.0227 653.346 19.3381C653.19 19.6534 653.112 19.9915 653.112 20.3523V20.9318C653.112 21.4261 653.197 21.8452 653.367 22.1889C653.54 22.5298 653.781 22.7898 654.087 22.9688C654.394 23.1449 654.751 23.233 655.157 23.233C655.421 23.233 655.66 23.196 655.873 23.1222C656.089 23.0455 656.275 22.9318 656.431 22.7812C656.587 22.6278 656.708 22.4375 656.793 22.2102L657.765 22.483C657.663 22.8125 657.491 23.1023 657.249 23.3523C657.008 23.5994 656.71 23.7926 656.354 23.9318C655.999 24.0682 655.6 24.1364 655.157 24.1364ZM661.323 24.1534C660.908 24.1534 660.532 24.0753 660.194 23.919C659.856 23.7599 659.587 23.5312 659.388 23.233C659.19 22.9318 659.09 22.5682 659.09 22.142C659.09 21.767 659.164 21.4631 659.312 21.2301C659.46 20.9943 659.657 20.8097 659.904 20.6761C660.151 20.5426 660.424 20.4432 660.722 20.3778C661.023 20.3097 661.326 20.2557 661.63 20.2159C662.028 20.1648 662.35 20.1264 662.597 20.1009C662.847 20.0724 663.029 20.0256 663.143 19.9602C663.259 19.8949 663.317 19.7812 663.317 19.6193V19.5852C663.317 19.1648 663.202 18.8381 662.972 18.6051C662.745 18.3722 662.4 18.2557 661.937 18.2557C661.457 18.2557 661.08 18.3608 660.808 18.571C660.535 18.7812 660.343 19.0057 660.232 19.2443L659.278 18.9034C659.448 18.5057 659.675 18.196 659.96 17.9744C660.246 17.75 660.559 17.5937 660.897 17.5057C661.238 17.4148 661.573 17.3693 661.903 17.3693C662.113 17.3693 662.354 17.3949 662.627 17.446C662.903 17.4943 663.168 17.5952 663.424 17.7486C663.683 17.902 663.897 18.1335 664.067 18.4432C664.238 18.7528 664.323 19.1676 664.323 19.6875V24H663.317V23.1136H663.266C663.198 23.2557 663.085 23.4077 662.925 23.5696C662.766 23.7315 662.555 23.8693 662.29 23.983C662.026 24.0966 661.704 24.1534 661.323 24.1534ZM661.477 23.25C661.874 23.25 662.21 23.1719 662.482 23.0156C662.758 22.8594 662.965 22.6577 663.104 22.4105C663.246 22.1634 663.317 21.9034 663.317 21.6307V20.7102C663.275 20.7614 663.181 20.8082 663.036 20.8509C662.894 20.8906 662.729 20.9261 662.542 20.9574C662.357 20.9858 662.177 21.0114 662.001 21.0341C661.827 21.054 661.687 21.071 661.579 21.0852C661.317 21.1193 661.073 21.1747 660.846 21.2514C660.621 21.3253 660.44 21.4375 660.3 21.5881C660.164 21.7358 660.096 21.9375 660.096 22.1932C660.096 22.5426 660.225 22.8068 660.484 22.9858C660.745 23.1619 661.076 23.25 661.477 23.25ZM667.096 21.6136L667.079 20.3693H667.284L670.147 17.4545H671.392L668.341 20.5398H668.255L667.096 21.6136ZM666.159 24V15.2727H667.164V24H666.159ZM670.318 24L667.761 20.7614L668.477 20.0625L671.596 24H670.318ZM681.925 15.2727H682.982V21.0511C682.982 21.6477 682.841 22.1804 682.56 22.6491C682.281 23.1151 681.888 23.483 681.379 23.7528C680.871 24.0199 680.274 24.1534 679.589 24.1534C678.905 24.1534 678.308 24.0199 677.8 23.7528C677.291 23.483 676.896 23.1151 676.615 22.6491C676.337 22.1804 676.197 21.6477 676.197 21.0511V15.2727H677.254V20.9659C677.254 21.392 677.348 21.7713 677.536 22.1037C677.723 22.4332 677.99 22.6932 678.337 22.8835C678.686 23.071 679.104 23.1648 679.589 23.1648C680.075 23.1648 680.493 23.071 680.842 22.8835C681.192 22.6932 681.459 22.4332 681.643 22.1037C681.831 21.7713 681.925 21.392 681.925 20.9659V15.2727ZM684.956 26.4545V17.4545H685.927V18.4943H686.047C686.12 18.3807 686.223 18.2358 686.353 18.0597C686.487 17.8807 686.677 17.7216 686.924 17.5824C687.174 17.4403 687.512 17.3693 687.939 17.3693C688.49 17.3693 688.975 17.5071 689.396 17.7827C689.816 18.0582 690.145 18.4489 690.38 18.9545C690.616 19.4602 690.734 20.0568 690.734 20.7443C690.734 21.4375 690.616 22.0384 690.38 22.5469C690.145 23.0526 689.818 23.4446 689.4 23.723C688.983 23.9986 688.501 24.1364 687.956 24.1364C687.535 24.1364 687.199 24.0668 686.946 23.9276C686.693 23.7855 686.498 23.625 686.362 23.446C686.225 23.2642 686.12 23.1136 686.047 22.9943H685.961V26.4545H684.956ZM685.944 20.7273C685.944 21.2216 686.017 21.6577 686.162 22.0355C686.306 22.4105 686.518 22.7045 686.797 22.9176C687.075 23.1278 687.416 23.233 687.819 23.233C688.24 23.233 688.591 23.1222 688.872 22.9006C689.156 22.6761 689.369 22.375 689.511 21.9972C689.656 21.6165 689.728 21.1932 689.728 20.7273C689.728 20.267 689.657 19.8523 689.515 19.483C689.376 19.1108 689.164 18.8168 688.88 18.6009C688.599 18.3821 688.245 18.2727 687.819 18.2727C687.41 18.2727 687.066 18.3764 686.788 18.5838C686.51 18.7884 686.299 19.0753 686.157 19.4446C686.015 19.8111 685.944 20.2386 685.944 20.7273ZM693.768 22.8068L693.7 23.267C693.652 23.5909 693.578 23.9375 693.478 24.3068C693.382 24.6761 693.281 25.0241 693.176 25.3509C693.071 25.6776 692.984 25.9375 692.916 26.1307H692.149C692.186 25.9489 692.234 25.7088 692.294 25.4105C692.353 25.1122 692.413 24.7784 692.473 24.4091C692.535 24.0426 692.586 23.6676 692.626 23.2841L692.677 22.8068H693.768ZM699.501 24H698.393L701.597 15.2727H702.688L705.893 24H704.785L702.177 16.6534H702.109L699.501 24ZM699.91 20.5909H704.376V21.5284H699.91V20.5909ZM708.121 15.2727V24H707.116V15.2727H708.121ZM710.969 15.2727V24H709.963V15.2727H710.969ZM716.186 24V17.4545H717.158V18.4432H717.226C717.345 18.1193 717.561 17.8565 717.874 17.6548C718.186 17.4531 718.538 17.3523 718.93 17.3523C719.004 17.3523 719.097 17.3537 719.207 17.3565C719.318 17.3594 719.402 17.3636 719.459 17.3693V18.392C719.425 18.3835 719.347 18.3707 719.224 18.3537C719.105 18.3338 718.979 18.3239 718.845 18.3239C718.527 18.3239 718.243 18.3906 717.993 18.5241C717.746 18.6548 717.55 18.8366 717.405 19.0696C717.263 19.2997 717.192 19.5625 717.192 19.858V24H716.186ZM720.651 24V17.4545H721.657V24H720.651ZM721.162 16.3636C720.966 16.3636 720.797 16.2969 720.655 16.1634C720.516 16.0298 720.446 15.8693 720.446 15.6818C720.446 15.4943 720.516 15.3338 720.655 15.2003C720.797 15.0668 720.966 15 721.162 15C721.358 15 721.526 15.0668 721.665 15.2003C721.807 15.3338 721.878 15.4943 721.878 15.6818C721.878 15.8693 721.807 16.0298 721.665 16.1634C721.526 16.2969 721.358 16.3636 721.162 16.3636ZM726.141 26.5909C725.655 26.5909 725.237 26.5284 724.888 26.4034C724.538 26.2812 724.247 26.1193 724.014 25.9176C723.784 25.7188 723.601 25.5057 723.464 25.2784L724.266 24.7159C724.357 24.8352 724.472 24.9716 724.611 25.125C724.75 25.2812 724.94 25.4162 725.182 25.5298C725.426 25.6463 725.746 25.7045 726.141 25.7045C726.669 25.7045 727.105 25.5767 727.449 25.321C727.793 25.0653 727.964 24.6648 727.964 24.1193V22.7898H727.879C727.805 22.9091 727.7 23.0568 727.564 23.233C727.43 23.4062 727.237 23.5611 726.984 23.6974C726.734 23.831 726.396 23.8977 725.97 23.8977C725.442 23.8977 724.967 23.7727 724.547 23.5227C724.129 23.2727 723.798 22.9091 723.554 22.4318C723.313 21.9545 723.192 21.375 723.192 20.6932C723.192 20.0227 723.31 19.4389 723.545 18.9418C723.781 18.4418 724.109 18.0554 724.53 17.7827C724.95 17.5071 725.436 17.3693 725.987 17.3693C726.413 17.3693 726.751 17.4403 727.001 17.5824C727.254 17.7216 727.447 17.8807 727.581 18.0597C727.717 18.2358 727.822 18.3807 727.896 18.4943H727.999V17.4545H728.97V24.1875C728.97 24.75 728.842 25.2074 728.587 25.5597C728.334 25.9148 727.993 26.1747 727.564 26.3395C727.138 26.5071 726.663 26.5909 726.141 26.5909ZM726.107 22.9943C726.51 22.9943 726.851 22.902 727.129 22.7173C727.408 22.5327 727.619 22.267 727.764 21.9205C727.909 21.5739 727.982 21.1591 727.982 20.6761C727.982 20.2045 727.911 19.7884 727.768 19.4276C727.626 19.0668 727.416 18.7841 727.138 18.5795C726.859 18.375 726.516 18.2727 726.107 18.2727C725.68 18.2727 725.325 18.3807 725.041 18.5966C724.76 18.8125 724.548 19.1023 724.406 19.4659C724.267 19.8295 724.197 20.233 724.197 20.6761C724.197 21.1307 724.268 21.5327 724.411 21.8821C724.555 22.2287 724.768 22.5014 725.05 22.7003C725.334 22.8963 725.686 22.9943 726.107 22.9943ZM731.817 20.0625V24H730.811V15.2727H731.817V18.4773H731.902C732.055 18.1392 732.286 17.8707 732.592 17.6719C732.902 17.4702 733.314 17.3693 733.828 17.3693C734.274 17.3693 734.665 17.4588 735 17.6378C735.335 17.8139 735.595 18.0852 735.78 18.4517C735.967 18.8153 736.061 19.2784 736.061 19.8409V24H735.055V19.9091C735.055 19.3892 734.92 18.9872 734.651 18.7031C734.384 18.4162 734.013 18.2727 733.538 18.2727C733.209 18.2727 732.913 18.3423 732.652 18.4815C732.393 18.6207 732.189 18.8239 732.038 19.0909C731.891 19.358 731.817 19.6818 731.817 20.0625ZM740.748 17.4545V18.3068H737.355V17.4545H740.748ZM738.344 15.8864H739.35V22.125C739.35 22.4091 739.391 22.6222 739.473 22.7642C739.559 22.9034 739.667 22.9972 739.797 23.0455C739.931 23.0909 740.071 23.1136 740.219 23.1136C740.33 23.1136 740.421 23.108 740.492 23.0966C740.563 23.0824 740.62 23.071 740.662 23.0625L740.867 23.9659C740.799 23.9915 740.703 24.017 740.581 24.0426C740.459 24.071 740.304 24.0852 740.117 24.0852C739.833 24.0852 739.554 24.0241 739.282 23.902C739.012 23.7798 738.787 23.5938 738.608 23.3438C738.432 23.0938 738.344 22.7784 738.344 22.3977V15.8864ZM746.779 18.9205L745.876 19.1761C745.819 19.0256 745.735 18.8793 745.625 18.7372C745.517 18.5923 745.369 18.473 745.181 18.3793C744.994 18.2855 744.754 18.2386 744.461 18.2386C744.061 18.2386 743.727 18.331 743.46 18.5156C743.196 18.6974 743.064 18.929 743.064 19.2102C743.064 19.4602 743.154 19.6577 743.336 19.8026C743.518 19.9474 743.802 20.0682 744.189 20.1648L745.16 20.4034C745.745 20.5455 746.181 20.7628 746.468 21.0554C746.755 21.3452 746.899 21.7187 746.899 22.1761C746.899 22.5511 746.791 22.8864 746.575 23.1818C746.362 23.4773 746.064 23.7102 745.68 23.8807C745.297 24.0511 744.85 24.1364 744.342 24.1364C743.674 24.1364 743.122 23.9915 742.684 23.7017C742.247 23.4119 741.97 22.9886 741.853 22.4318L742.808 22.1932C742.899 22.5455 743.071 22.8097 743.324 22.9858C743.579 23.1619 743.913 23.25 744.325 23.25C744.794 23.25 745.166 23.1506 745.441 22.9517C745.72 22.75 745.859 22.5085 745.859 22.2273C745.859 22 745.779 21.8097 745.62 21.6562C745.461 21.5 745.217 21.3835 744.887 21.3068L743.797 21.0511C743.197 20.9091 742.757 20.6889 742.475 20.3906C742.197 20.0895 742.058 19.7131 742.058 19.2614C742.058 18.892 742.162 18.5653 742.369 18.2812C742.579 17.9972 742.865 17.7741 743.225 17.6122C743.589 17.4503 744.001 17.3693 744.461 17.3693C745.109 17.3693 745.618 17.5114 745.987 17.7955C746.359 18.0795 746.623 18.4545 746.779 18.9205ZM751.788 24V17.4545H752.759V18.4432H752.827C752.947 18.1193 753.163 17.8565 753.475 17.6548C753.788 17.4531 754.14 17.3523 754.532 17.3523C754.606 17.3523 754.698 17.3537 754.809 17.3565C754.92 17.3594 755.004 17.3636 755.06 17.3693V18.392C755.026 18.3835 754.948 18.3707 754.826 18.3537C754.707 18.3338 754.58 18.3239 754.447 18.3239C754.129 18.3239 753.844 18.3906 753.594 18.5241C753.347 18.6548 753.151 18.8366 753.006 19.0696C752.864 19.2997 752.793 19.5625 752.793 19.858V24H751.788ZM758.798 24.1364C758.167 24.1364 757.623 23.9972 757.165 23.7188C756.711 23.4375 756.36 23.0455 756.113 22.5426C755.869 22.0369 755.746 21.4489 755.746 20.7784C755.746 20.108 755.869 19.517 756.113 19.0057C756.36 18.4915 756.704 18.0909 757.144 17.804C757.587 17.5142 758.104 17.3693 758.695 17.3693C759.036 17.3693 759.373 17.4261 759.705 17.5398C760.038 17.6534 760.34 17.8381 760.613 18.0938C760.886 18.3466 761.103 18.6818 761.265 19.0994C761.427 19.517 761.508 20.0312 761.508 20.642V21.0682H756.462V20.1989H760.485C760.485 19.8295 760.411 19.5 760.263 19.2102C760.119 18.9205 759.911 18.6918 759.641 18.5241C759.374 18.3565 759.059 18.2727 758.695 18.2727C758.295 18.2727 757.948 18.3722 757.656 18.571C757.366 18.767 757.143 19.0227 756.987 19.3381C756.83 19.6534 756.752 19.9915 756.752 20.3523V20.9318C756.752 21.4261 756.837 21.8452 757.008 22.1889C757.181 22.5298 757.421 22.7898 757.728 22.9688C758.035 23.1449 758.391 23.233 758.798 23.233C759.062 23.233 759.3 23.196 759.513 23.1222C759.729 23.0455 759.915 22.9318 760.072 22.7812C760.228 22.6278 760.349 22.4375 760.434 22.2102L761.406 22.483C761.303 22.8125 761.131 23.1023 760.89 23.3523C760.648 23.5994 760.35 23.7926 759.995 23.9318C759.64 24.0682 759.241 24.1364 758.798 24.1364ZM767.674 18.9205L766.771 19.1761C766.714 19.0256 766.63 18.8793 766.519 18.7372C766.411 18.5923 766.263 18.473 766.076 18.3793C765.888 18.2855 765.648 18.2386 765.356 18.2386C764.955 18.2386 764.621 18.331 764.354 18.5156C764.09 18.6974 763.958 18.929 763.958 19.2102C763.958 19.4602 764.049 19.6577 764.231 19.8026C764.413 19.9474 764.697 20.0682 765.083 20.1648L766.055 20.4034C766.64 20.5455 767.076 20.7628 767.363 21.0554C767.65 21.3452 767.793 21.7187 767.793 22.1761C767.793 22.5511 767.685 22.8864 767.469 23.1818C767.256 23.4773 766.958 23.7102 766.575 23.8807C766.191 24.0511 765.745 24.1364 765.237 24.1364C764.569 24.1364 764.016 23.9915 763.579 23.7017C763.141 23.4119 762.864 22.9886 762.748 22.4318L763.702 22.1932C763.793 22.5455 763.965 22.8097 764.218 22.9858C764.474 23.1619 764.808 23.25 765.219 23.25C765.688 23.25 766.06 23.1506 766.336 22.9517C766.614 22.75 766.754 22.5085 766.754 22.2273C766.754 22 766.674 21.8097 766.515 21.6562C766.356 21.5 766.112 21.3835 765.782 21.3068L764.691 21.0511C764.092 20.9091 763.651 20.6889 763.37 20.3906C763.092 20.0895 762.952 19.7131 762.952 19.2614C762.952 18.892 763.056 18.5653 763.263 18.2812C763.474 17.9972 763.759 17.7741 764.12 17.6122C764.484 17.4503 764.896 17.3693 765.356 17.3693C766.004 17.3693 766.512 17.5114 766.881 17.7955C767.254 18.0795 767.518 18.4545 767.674 18.9205ZM772.051 24.1364C771.421 24.1364 770.877 23.9972 770.419 23.7188C769.965 23.4375 769.614 23.0455 769.367 22.5426C769.123 22.0369 769 21.4489 769 20.7784C769 20.108 769.123 19.517 769.367 19.0057C769.614 18.4915 769.958 18.0909 770.398 17.804C770.841 17.5142 771.358 17.3693 771.949 17.3693C772.29 17.3693 772.627 17.4261 772.959 17.5398C773.292 17.6534 773.594 17.8381 773.867 18.0938C774.14 18.3466 774.357 18.6818 774.519 19.0994C774.681 19.517 774.762 20.0312 774.762 20.642V21.0682H769.716V20.1989H773.739C773.739 19.8295 773.665 19.5 773.517 19.2102C773.373 18.9205 773.165 18.6918 772.895 18.5241C772.628 18.3565 772.313 18.2727 771.949 18.2727C771.549 18.2727 771.202 18.3722 770.909 18.571C770.62 18.767 770.397 19.0227 770.24 19.3381C770.084 19.6534 770.006 19.9915 770.006 20.3523V20.9318C770.006 21.4261 770.091 21.8452 770.262 22.1889C770.435 22.5298 770.675 22.7898 770.982 22.9688C771.289 23.1449 771.645 23.233 772.051 23.233C772.316 23.233 772.554 23.196 772.767 23.1222C772.983 23.0455 773.169 22.9318 773.326 22.7812C773.482 22.6278 773.603 22.4375 773.688 22.2102L774.659 22.483C774.557 22.8125 774.385 23.1023 774.144 23.3523C773.902 23.5994 773.604 23.7926 773.249 23.9318C772.894 24.0682 772.495 24.1364 772.051 24.1364ZM776.292 24V17.4545H777.263V18.4432H777.331C777.451 18.1193 777.667 17.8565 777.979 17.6548C778.292 17.4531 778.644 17.3523 779.036 17.3523C779.11 17.3523 779.202 17.3537 779.313 17.3565C779.424 17.3594 779.507 17.3636 779.564 17.3693V18.392C779.53 18.3835 779.452 18.3707 779.33 18.3537C779.211 18.3338 779.084 18.3239 778.951 18.3239C778.632 18.3239 778.348 18.3906 778.098 18.5241C777.851 18.6548 777.655 18.8366 777.51 19.0696C777.368 19.2997 777.297 19.5625 777.297 19.858V24H776.292ZM786.308 17.4545L783.887 24H782.865L780.444 17.4545H781.535L783.342 22.6705H783.41L785.217 17.4545H786.308ZM790.145 24.1364C789.515 24.1364 788.971 23.9972 788.513 23.7188C788.059 23.4375 787.708 23.0455 787.461 22.5426C787.216 22.0369 787.094 21.4489 787.094 20.7784C787.094 20.108 787.216 19.517 787.461 19.0057C787.708 18.4915 788.051 18.0909 788.492 17.804C788.935 17.5142 789.452 17.3693 790.043 17.3693C790.384 17.3693 790.721 17.4261 791.053 17.5398C791.385 17.6534 791.688 17.8381 791.961 18.0938C792.233 18.3466 792.451 18.6818 792.613 19.0994C792.775 19.517 792.855 20.0312 792.855 20.642V21.0682H787.81V20.1989H791.833C791.833 19.8295 791.759 19.5 791.611 19.2102C791.466 18.9205 791.259 18.6918 790.989 18.5241C790.722 18.3565 790.407 18.2727 790.043 18.2727C789.642 18.2727 789.296 18.3722 789.003 18.571C788.713 18.767 788.49 19.0227 788.334 19.3381C788.178 19.6534 788.1 19.9915 788.1 20.3523V20.9318C788.1 21.4261 788.185 21.8452 788.355 22.1889C788.529 22.5298 788.769 22.7898 789.076 22.9688C789.382 23.1449 789.739 23.233 790.145 23.233C790.409 23.233 790.648 23.196 790.861 23.1222C791.077 23.0455 791.263 22.9318 791.419 22.7812C791.576 22.6278 791.696 22.4375 791.782 22.2102L792.753 22.483C792.651 22.8125 792.479 23.1023 792.238 23.3523C791.996 23.5994 791.698 23.7926 791.343 23.9318C790.988 24.0682 790.588 24.1364 790.145 24.1364ZM796.857 24.1364C796.311 24.1364 795.83 23.9986 795.412 23.723C794.995 23.4446 794.668 23.0526 794.432 22.5469C794.196 22.0384 794.078 21.4375 794.078 20.7443C794.078 20.0568 794.196 19.4602 794.432 18.9545C794.668 18.4489 794.996 18.0582 795.417 17.7827C795.837 17.5071 796.323 17.3693 796.874 17.3693C797.3 17.3693 797.637 17.4403 797.884 17.5824C798.134 17.7216 798.324 17.8807 798.455 18.0597C798.588 18.2358 798.692 18.3807 798.766 18.4943H798.851V15.2727H799.857V24H798.885V22.9943H798.766C798.692 23.1136 798.587 23.2642 798.451 23.446C798.314 23.625 798.12 23.7855 797.867 23.9276C797.614 24.0668 797.277 24.1364 796.857 24.1364ZM796.993 23.233C797.397 23.233 797.738 23.1278 798.016 22.9176C798.294 22.7045 798.506 22.4105 798.651 22.0355C798.796 21.6577 798.868 21.2216 798.868 20.7273C798.868 20.2386 798.797 19.8111 798.655 19.4446C798.513 19.0753 798.303 18.7884 798.025 18.5838C797.746 18.3764 797.402 18.2727 796.993 18.2727C796.567 18.2727 796.212 18.3821 795.928 18.6009C795.647 18.8168 795.435 19.1108 795.293 19.483C795.154 19.8523 795.084 20.267 795.084 20.7273C795.084 21.1932 795.155 21.6165 795.297 21.9972C795.442 22.375 795.655 22.6761 795.936 22.9006C796.221 23.1222 796.573 23.233 796.993 23.233ZM802.571 24.0682C802.361 24.0682 802.181 23.9929 802.03 23.8423C801.88 23.6918 801.804 23.5114 801.804 23.3011C801.804 23.0909 801.88 22.9105 802.03 22.7599C802.181 22.6094 802.361 22.5341 802.571 22.5341C802.782 22.5341 802.962 22.6094 803.113 22.7599C803.263 22.9105 803.338 23.0909 803.338 23.3011C803.338 23.4403 803.303 23.5682 803.232 23.6847C803.164 23.8011 803.071 23.8949 802.955 23.9659C802.841 24.0341 802.713 24.0682 802.571 24.0682Z" fill="white"/>
</svg>
