<svg width="404" height="403" viewBox="0 0 404 403" fill="none" xmlns="http://www.w3.org/2000/svg">
<g clip-path="url(#clip0_170_57)">
<rect width="404" height="403" rx="30" fill="#EEECEC"/>
<path d="M35.9858 119.565C35.9176 118.878 35.625 118.344 35.108 117.963C34.5909 117.582 33.8892 117.392 33.0028 117.392C32.4006 117.392 31.892 117.477 31.4773 117.648C31.0625 117.812 30.7443 118.043 30.5227 118.338C30.3068 118.634 30.1989 118.969 30.1989 119.344C30.1875 119.656 30.2528 119.929 30.3949 120.162C30.5426 120.395 30.7443 120.597 31 120.767C31.2557 120.932 31.5511 121.077 31.8864 121.202C32.2216 121.321 32.5795 121.423 32.9602 121.509L34.5284 121.884C35.2898 122.054 35.9886 122.281 36.625 122.565C37.2614 122.849 37.8125 123.199 38.2784 123.614C38.7443 124.028 39.1051 124.517 39.3608 125.08C39.6222 125.642 39.7557 126.287 39.7614 127.014C39.7557 128.082 39.483 129.009 38.9432 129.793C38.4091 130.571 37.6364 131.176 36.625 131.608C35.6193 132.034 34.4063 132.247 32.9858 132.247C31.5767 132.247 30.3494 132.031 29.304 131.599C28.2642 131.168 27.4517 130.528 26.8665 129.682C26.2869 128.83 25.983 127.776 25.9545 126.52H29.5256C29.5653 127.105 29.733 127.594 30.0284 127.986C30.3295 128.372 30.7301 128.665 31.2301 128.864C31.7358 129.057 32.3068 129.153 32.9432 129.153C33.5682 129.153 34.1108 129.062 34.571 128.881C35.0369 128.699 35.3977 128.446 35.6534 128.122C35.9091 127.798 36.0369 127.426 36.0369 127.006C36.0369 126.614 35.9205 126.284 35.6875 126.017C35.4602 125.75 35.125 125.523 34.6818 125.335C34.2443 125.148 33.7074 124.977 33.071 124.824L31.1705 124.347C29.6989 123.989 28.5369 123.429 27.6847 122.668C26.8324 121.906 26.4091 120.881 26.4148 119.591C26.4091 118.534 26.6903 117.611 27.2585 116.821C27.8324 116.031 28.6193 115.415 29.6193 114.972C30.6193 114.528 31.7557 114.307 33.0284 114.307C34.3239 114.307 35.4545 114.528 36.4205 114.972C37.392 115.415 38.1477 116.031 38.6875 116.821C39.2273 117.611 39.5057 118.526 39.5227 119.565H35.9858ZM49.1385 118.909V121.636H41.255V118.909H49.1385ZM43.0447 115.773H46.6754V127.977C46.6754 128.312 46.7266 128.574 46.8288 128.761C46.9311 128.943 47.0732 129.071 47.255 129.145C47.4425 129.219 47.6584 129.256 47.9027 129.256C48.0732 129.256 48.2436 129.241 48.4141 129.213C48.5845 129.179 48.7152 129.153 48.8061 129.136L49.3771 131.838C49.1953 131.895 48.9396 131.96 48.6101 132.034C48.2805 132.114 47.88 132.162 47.4084 132.179C46.5334 132.213 45.7663 132.097 45.1072 131.83C44.4538 131.562 43.9453 131.148 43.5817 130.585C43.218 130.023 43.0391 129.312 43.0447 128.455V115.773ZM57.3288 132.256C55.9822 132.256 54.8232 131.983 53.8516 131.438C52.8857 130.886 52.1413 130.108 51.6186 129.102C51.0959 128.091 50.8345 126.895 50.8345 125.514C50.8345 124.168 51.0959 122.986 51.6186 121.969C52.1413 120.952 52.8771 120.159 53.826 119.591C54.7805 119.023 55.8999 118.739 57.1839 118.739C58.0476 118.739 58.8516 118.878 59.5959 119.156C60.3459 119.429 60.9993 119.841 61.5561 120.392C62.1186 120.943 62.5561 121.636 62.8686 122.472C63.1811 123.301 63.3374 124.273 63.3374 125.386V126.384H52.2834V124.134H59.9197C59.9197 123.611 59.8061 123.148 59.5788 122.744C59.3516 122.341 59.0362 122.026 58.6328 121.798C58.2351 121.565 57.772 121.449 57.2436 121.449C56.6925 121.449 56.2038 121.577 55.7777 121.832C55.3572 122.082 55.0277 122.42 54.7891 122.847C54.5504 123.267 54.4283 123.736 54.4226 124.253V126.392C54.4226 127.04 54.5419 127.599 54.7805 128.071C55.0249 128.543 55.3686 128.906 55.8118 129.162C56.255 129.418 56.7805 129.545 57.3885 129.545C57.7919 129.545 58.1612 129.489 58.4964 129.375C58.8317 129.261 59.1186 129.091 59.3572 128.864C59.5959 128.636 59.7777 128.358 59.9027 128.028L63.2607 128.25C63.0902 129.057 62.7408 129.761 62.2124 130.364C61.6896 130.96 61.0135 131.426 60.1839 131.761C59.3601 132.091 58.4084 132.256 57.3288 132.256ZM65.7067 136.909V118.909H69.2862V121.108H69.4482C69.6072 120.756 69.8374 120.398 70.1385 120.034C70.4453 119.665 70.843 119.358 71.3317 119.114C71.826 118.864 72.4396 118.739 73.1726 118.739C74.1271 118.739 75.0078 118.989 75.8146 119.489C76.6214 119.983 77.2663 120.73 77.7493 121.73C78.2322 122.724 78.4737 123.972 78.4737 125.472C78.4737 126.932 78.2379 128.165 77.7663 129.17C77.3004 130.17 76.6641 130.929 75.8572 131.446C75.0561 131.957 74.1584 132.213 73.1641 132.213C72.4595 132.213 71.8601 132.097 71.3658 131.864C70.8771 131.631 70.4766 131.338 70.1641 130.986C69.8516 130.628 69.6129 130.267 69.4482 129.903H69.3374V136.909H65.7067ZM69.2607 125.455C69.2607 126.233 69.3686 126.912 69.5845 127.491C69.8004 128.071 70.1129 128.523 70.522 128.847C70.9311 129.165 71.4283 129.324 72.0135 129.324C72.6044 129.324 73.1044 129.162 73.5135 128.838C73.9226 128.509 74.2322 128.054 74.4425 127.474C74.6584 126.889 74.7663 126.216 74.7663 125.455C74.7663 124.699 74.6612 124.034 74.451 123.46C74.2408 122.886 73.9311 122.437 73.522 122.114C73.1129 121.79 72.6101 121.628 72.0135 121.628C71.4226 121.628 70.9226 121.784 70.5135 122.097C70.1101 122.409 69.8004 122.852 69.5845 123.426C69.3686 124 69.2607 124.676 69.2607 125.455Z" fill="#232323"/>
<rect x="116" y="92" width="65" height="63" rx="31.5" fill="#4281A4"/>
<path d="M141.915 132V129.341L148.128 123.588C148.656 123.077 149.099 122.616 149.457 122.207C149.821 121.798 150.097 121.398 150.284 121.006C150.472 120.608 150.565 120.179 150.565 119.719C150.565 119.207 150.449 118.767 150.216 118.398C149.983 118.023 149.665 117.736 149.261 117.537C148.858 117.332 148.401 117.23 147.889 117.23C147.355 117.23 146.889 117.338 146.491 117.554C146.094 117.77 145.787 118.08 145.571 118.483C145.355 118.886 145.247 119.366 145.247 119.923H141.744C141.744 118.781 142.003 117.79 142.52 116.949C143.037 116.108 143.761 115.457 144.693 114.997C145.625 114.537 146.699 114.307 147.915 114.307C149.165 114.307 150.253 114.528 151.179 114.972C152.111 115.409 152.835 116.017 153.352 116.795C153.869 117.574 154.128 118.466 154.128 119.472C154.128 120.131 153.997 120.781 153.736 121.423C153.48 122.065 153.023 122.778 152.364 123.562C151.705 124.341 150.776 125.276 149.577 126.366L147.028 128.864V128.983H154.358V132H141.915Z" fill="white"/>
<path d="M19.5256 237H15.571L21.5966 219.545H26.3523L32.3693 237H28.4148L24.0426 223.534H23.9062L19.5256 237ZM19.2784 230.139H28.6193V233.02H19.2784V230.139ZM39.7074 237.256C38.3665 237.256 37.2131 236.972 36.2472 236.403C35.2869 235.83 34.5483 235.034 34.0312 234.017C33.5199 233 33.2642 231.83 33.2642 230.506C33.2642 229.165 33.5227 227.989 34.0398 226.977C34.5625 225.96 35.304 225.168 36.2642 224.599C37.2244 224.026 38.3665 223.739 39.6903 223.739C40.8324 223.739 41.8324 223.946 42.6903 224.361C43.5483 224.776 44.2273 225.358 44.7273 226.108C45.2273 226.858 45.5028 227.739 45.554 228.75H42.1278C42.0313 228.097 41.7756 227.571 41.3608 227.173C40.9517 226.77 40.4148 226.568 39.75 226.568C39.1875 226.568 38.696 226.722 38.2756 227.028C37.8608 227.33 37.5369 227.77 37.304 228.349C37.071 228.929 36.9545 229.631 36.9545 230.455C36.9545 231.29 37.0682 232 37.2955 232.585C37.5284 233.17 37.8551 233.616 38.2756 233.923C38.696 234.23 39.1875 234.384 39.75 234.384C40.1648 234.384 40.5369 234.298 40.8665 234.128C41.2017 233.957 41.4773 233.71 41.6932 233.386C41.9148 233.057 42.0597 232.662 42.1278 232.202H45.554C45.4972 233.202 45.2244 234.082 44.7358 234.844C44.2528 235.599 43.5852 236.19 42.733 236.616C41.8807 237.043 40.8722 237.256 39.7074 237.256ZM53.7933 237.256C52.4524 237.256 51.299 236.972 50.3331 236.403C49.3729 235.83 48.6342 235.034 48.1172 234.017C47.6058 233 47.3501 231.83 47.3501 230.506C47.3501 229.165 47.6087 227.989 48.1257 226.977C48.6484 225.96 49.3899 225.168 50.3501 224.599C51.3104 224.026 52.4524 223.739 53.7763 223.739C54.9183 223.739 55.9183 223.946 56.7763 224.361C57.6342 224.776 58.3132 225.358 58.8132 226.108C59.3132 226.858 59.5888 227.739 59.6399 228.75H56.2138C56.1172 228.097 55.8615 227.571 55.4467 227.173C55.0376 226.77 54.5007 226.568 53.8359 226.568C53.2734 226.568 52.782 226.722 52.3615 227.028C51.9467 227.33 51.6229 227.77 51.3899 228.349C51.157 228.929 51.0405 229.631 51.0405 230.455C51.0405 231.29 51.1541 232 51.3814 232.585C51.6143 233.17 51.9411 233.616 52.3615 233.923C52.782 234.23 53.2734 234.384 53.8359 234.384C54.2507 234.384 54.6229 234.298 54.9524 234.128C55.2876 233.957 55.5632 233.71 55.7791 233.386C56.0007 233.057 56.1456 232.662 56.2138 232.202H59.6399C59.5831 233.202 59.3104 234.082 58.8217 234.844C58.3388 235.599 57.6712 236.19 56.8189 236.616C55.9666 237.043 54.9581 237.256 53.7933 237.256ZM67.9304 237.256C66.5838 237.256 65.4247 236.983 64.4531 236.438C63.4872 235.886 62.7429 235.108 62.2202 234.102C61.6974 233.091 61.4361 231.895 61.4361 230.514C61.4361 229.168 61.6974 227.986 62.2202 226.969C62.7429 225.952 63.4787 225.159 64.4276 224.591C65.3821 224.023 66.5014 223.739 67.7855 223.739C68.6491 223.739 69.4531 223.878 70.1974 224.156C70.9474 224.429 71.6009 224.841 72.1577 225.392C72.7202 225.943 73.1577 226.636 73.4702 227.472C73.7827 228.301 73.9389 229.273 73.9389 230.386V231.384H62.8849V229.134H70.5213C70.5213 228.611 70.4077 228.148 70.1804 227.744C69.9531 227.341 69.6378 227.026 69.2344 226.798C68.8366 226.565 68.3736 226.449 67.8452 226.449C67.294 226.449 66.8054 226.577 66.3793 226.832C65.9588 227.082 65.6293 227.42 65.3906 227.847C65.152 228.267 65.0298 228.736 65.0241 229.253V231.392C65.0241 232.04 65.1435 232.599 65.3821 233.071C65.6264 233.543 65.9702 233.906 66.4134 234.162C66.8565 234.418 67.3821 234.545 67.9901 234.545C68.3935 234.545 68.7628 234.489 69.098 234.375C69.4332 234.261 69.7202 234.091 69.9588 233.864C70.1974 233.636 70.3793 233.358 70.5043 233.028L73.8622 233.25C73.6918 234.057 73.3423 234.761 72.8139 235.364C72.2912 235.96 71.6151 236.426 70.7855 236.761C69.9616 237.091 69.0099 237.256 67.9304 237.256ZM87.2003 227.642L83.8764 227.847C83.8196 227.562 83.6974 227.307 83.5099 227.08C83.3224 226.847 83.0753 226.662 82.7685 226.526C82.4673 226.384 82.1065 226.312 81.6861 226.312C81.1236 226.312 80.6491 226.432 80.2628 226.67C79.8764 226.903 79.6832 227.216 79.6832 227.608C79.6832 227.92 79.8082 228.185 80.0582 228.401C80.3082 228.616 80.7372 228.79 81.3452 228.92L83.7145 229.398C84.9872 229.659 85.9361 230.08 86.5611 230.659C87.1861 231.239 87.4986 232 87.4986 232.943C87.4986 233.801 87.2457 234.554 86.7401 235.202C86.2401 235.849 85.5526 236.355 84.6776 236.719C83.8082 237.077 82.8054 237.256 81.669 237.256C79.9361 237.256 78.5554 236.895 77.527 236.173C76.5043 235.446 75.9048 234.457 75.7287 233.207L79.2997 233.02C79.4077 233.548 79.669 233.952 80.0838 234.23C80.4986 234.503 81.0298 234.639 81.6776 234.639C82.3139 234.639 82.8253 234.517 83.2116 234.273C83.6037 234.023 83.8026 233.702 83.8082 233.31C83.8026 232.98 83.6634 232.71 83.3906 232.5C83.1179 232.284 82.6974 232.119 82.1293 232.006L79.8622 231.554C78.5838 231.298 77.6321 230.855 77.0071 230.224C76.3878 229.594 76.0781 228.79 76.0781 227.812C76.0781 226.972 76.3054 226.247 76.7599 225.639C77.2202 225.031 77.8651 224.562 78.6946 224.233C79.5298 223.903 80.5071 223.739 81.6264 223.739C83.2798 223.739 84.581 224.088 85.5298 224.787C86.4844 225.486 87.0412 226.437 87.2003 227.642ZM100.677 227.642L97.353 227.847C97.2962 227.562 97.174 227.307 96.9865 227.08C96.799 226.847 96.5518 226.662 96.245 226.526C95.9439 226.384 95.5831 226.312 95.1626 226.312C94.6001 226.312 94.1257 226.432 93.7393 226.67C93.353 226.903 93.1598 227.216 93.1598 227.608C93.1598 227.92 93.2848 228.185 93.5348 228.401C93.7848 228.616 94.2138 228.79 94.8217 228.92L97.1911 229.398C98.4638 229.659 99.4126 230.08 100.038 230.659C100.663 231.239 100.975 232 100.975 232.943C100.975 233.801 100.722 234.554 100.217 235.202C99.7166 235.849 99.0291 236.355 98.1541 236.719C97.2848 237.077 96.282 237.256 95.1456 237.256C93.4126 237.256 92.032 236.895 91.0036 236.173C89.9808 235.446 89.3814 234.457 89.2053 233.207L92.7763 233.02C92.8842 233.548 93.1456 233.952 93.5604 234.23C93.9751 234.503 94.5064 234.639 95.1541 234.639C95.7905 234.639 96.3018 234.517 96.6882 234.273C97.0803 234.023 97.2791 233.702 97.2848 233.31C97.2791 232.98 97.1399 232.71 96.8672 232.5C96.5945 232.284 96.174 232.119 95.6058 232.006L93.3388 231.554C92.0604 231.298 91.1087 230.855 90.4837 230.224C89.8643 229.594 89.5547 228.79 89.5547 227.812C89.5547 226.972 89.782 226.247 90.2365 225.639C90.6967 225.031 91.3416 224.562 92.1712 224.233C93.0064 223.903 93.9837 223.739 95.103 223.739C96.7564 223.739 98.0575 224.088 99.0064 224.787C99.9609 225.486 100.518 226.437 100.677 227.642ZM119.708 227.642L116.384 227.847C116.327 227.562 116.205 227.307 116.018 227.08C115.83 226.847 115.583 226.662 115.276 226.526C114.975 226.384 114.614 226.312 114.194 226.312C113.631 226.312 113.157 226.432 112.771 226.67C112.384 226.903 112.191 227.216 112.191 227.608C112.191 227.92 112.316 228.185 112.566 228.401C112.816 228.616 113.245 228.79 113.853 228.92L116.222 229.398C117.495 229.659 118.444 230.08 119.069 230.659C119.694 231.239 120.006 232 120.006 232.943C120.006 233.801 119.754 234.554 119.248 235.202C118.748 235.849 118.06 236.355 117.185 236.719C116.316 237.077 115.313 237.256 114.177 237.256C112.444 237.256 111.063 236.895 110.035 236.173C109.012 235.446 108.413 234.457 108.237 233.207L111.808 233.02C111.915 233.548 112.177 233.952 112.592 234.23C113.006 234.503 113.538 234.639 114.185 234.639C114.822 234.639 115.333 234.517 115.719 234.273C116.112 234.023 116.31 233.702 116.316 233.31C116.31 232.98 116.171 232.71 115.898 232.5C115.626 232.284 115.205 232.119 114.637 232.006L112.37 231.554C111.092 231.298 110.14 230.855 109.515 230.224C108.896 229.594 108.586 228.79 108.586 227.812C108.586 226.972 108.813 226.247 109.268 225.639C109.728 225.031 110.373 224.562 111.202 224.233C112.038 223.903 113.015 223.739 114.134 223.739C115.788 223.739 117.089 224.088 118.038 224.787C118.992 225.486 119.549 226.437 119.708 227.642ZM130.688 231.426V223.909H134.318V237H130.832V234.622H130.696C130.401 235.389 129.909 236.006 129.222 236.472C128.54 236.937 127.707 237.17 126.724 237.17C125.849 237.17 125.08 236.972 124.415 236.574C123.75 236.176 123.23 235.611 122.855 234.878C122.486 234.145 122.298 233.267 122.293 232.244V223.909H125.923V231.597C125.929 232.369 126.136 232.98 126.545 233.429C126.955 233.878 127.503 234.102 128.19 234.102C128.628 234.102 129.037 234.003 129.418 233.804C129.798 233.599 130.105 233.298 130.338 232.901C130.577 232.503 130.693 232.011 130.688 231.426ZM137.222 241.909V223.909H140.802V226.108H140.964C141.123 225.756 141.353 225.398 141.654 225.034C141.961 224.665 142.359 224.358 142.847 224.114C143.342 223.864 143.955 223.739 144.688 223.739C145.643 223.739 146.523 223.989 147.33 224.489C148.137 224.983 148.782 225.73 149.265 226.73C149.748 227.724 149.989 228.972 149.989 230.472C149.989 231.932 149.754 233.165 149.282 234.17C148.816 235.17 148.18 235.929 147.373 236.446C146.572 236.957 145.674 237.213 144.68 237.213C143.975 237.213 143.376 237.097 142.881 236.864C142.393 236.631 141.992 236.338 141.68 235.986C141.367 235.628 141.129 235.267 140.964 234.903H140.853V241.909H137.222ZM140.776 230.455C140.776 231.233 140.884 231.912 141.1 232.491C141.316 233.071 141.629 233.523 142.038 233.847C142.447 234.165 142.944 234.324 143.529 234.324C144.12 234.324 144.62 234.162 145.029 233.838C145.438 233.509 145.748 233.054 145.958 232.474C146.174 231.889 146.282 231.216 146.282 230.455C146.282 229.699 146.177 229.034 145.967 228.46C145.756 227.886 145.447 227.437 145.038 227.114C144.629 226.79 144.126 226.628 143.529 226.628C142.938 226.628 142.438 226.784 142.029 227.097C141.626 227.409 141.316 227.852 141.1 228.426C140.884 229 140.776 229.676 140.776 230.455ZM152.41 241.909V223.909H155.989V226.108H156.151C156.31 225.756 156.54 225.398 156.842 225.034C157.148 224.665 157.546 224.358 158.035 224.114C158.529 223.864 159.143 223.739 159.876 223.739C160.83 223.739 161.711 223.989 162.518 224.489C163.325 224.983 163.969 225.73 164.452 226.73C164.935 227.724 165.177 228.972 165.177 230.472C165.177 231.932 164.941 233.165 164.469 234.17C164.004 235.17 163.367 235.929 162.56 236.446C161.759 236.957 160.862 237.213 159.867 237.213C159.163 237.213 158.563 237.097 158.069 236.864C157.58 236.631 157.18 236.338 156.867 235.986C156.555 235.628 156.316 235.267 156.151 234.903H156.04V241.909H152.41ZM155.964 230.455C155.964 231.233 156.072 231.912 156.288 232.491C156.504 233.071 156.816 233.523 157.225 233.847C157.634 234.165 158.131 234.324 158.717 234.324C159.308 234.324 159.808 234.162 160.217 233.838C160.626 233.509 160.935 233.054 161.146 232.474C161.362 231.889 161.469 231.216 161.469 230.455C161.469 229.699 161.364 229.034 161.154 228.46C160.944 227.886 160.634 227.437 160.225 227.114C159.816 226.79 159.313 226.628 158.717 226.628C158.126 226.628 157.626 226.784 157.217 227.097C156.813 227.409 156.504 227.852 156.288 228.426C156.072 229 155.964 229.676 155.964 230.455ZM173.512 237.256C172.188 237.256 171.043 236.974 170.077 236.412C169.117 235.844 168.376 235.054 167.853 234.043C167.33 233.026 167.069 231.847 167.069 230.506C167.069 229.153 167.33 227.972 167.853 226.96C168.376 225.943 169.117 225.153 170.077 224.591C171.043 224.023 172.188 223.739 173.512 223.739C174.836 223.739 175.978 224.023 176.938 224.591C177.904 225.153 178.648 225.943 179.171 226.96C179.694 227.972 179.955 229.153 179.955 230.506C179.955 231.847 179.694 233.026 179.171 234.043C178.648 235.054 177.904 235.844 176.938 236.412C175.978 236.974 174.836 237.256 173.512 237.256ZM173.529 234.443C174.131 234.443 174.634 234.273 175.038 233.932C175.441 233.585 175.745 233.114 175.95 232.517C176.16 231.92 176.265 231.241 176.265 230.48C176.265 229.719 176.16 229.04 175.95 228.443C175.745 227.847 175.441 227.375 175.038 227.028C174.634 226.682 174.131 226.509 173.529 226.509C172.921 226.509 172.41 226.682 171.995 227.028C171.586 227.375 171.276 227.847 171.066 228.443C170.862 229.04 170.759 229.719 170.759 230.48C170.759 231.241 170.862 231.92 171.066 232.517C171.276 233.114 171.586 233.585 171.995 233.932C172.41 234.273 172.921 234.443 173.529 234.443ZM182.316 237V223.909H185.836V226.193H185.972C186.211 225.381 186.612 224.767 187.174 224.352C187.737 223.932 188.384 223.722 189.117 223.722C189.299 223.722 189.495 223.733 189.705 223.756C189.915 223.778 190.1 223.81 190.259 223.849V227.071C190.089 227.02 189.853 226.974 189.552 226.935C189.251 226.895 188.975 226.875 188.725 226.875C188.191 226.875 187.714 226.991 187.293 227.224C186.879 227.452 186.549 227.77 186.305 228.179C186.066 228.588 185.947 229.06 185.947 229.594V237H182.316ZM199.756 223.909V226.636H191.872V223.909H199.756ZM193.662 220.773H197.293V232.977C197.293 233.312 197.344 233.574 197.446 233.761C197.548 233.943 197.69 234.071 197.872 234.145C198.06 234.219 198.276 234.256 198.52 234.256C198.69 234.256 198.861 234.241 199.031 234.213C199.202 234.179 199.332 234.153 199.423 234.136L199.994 236.838C199.813 236.895 199.557 236.96 199.227 237.034C198.898 237.114 198.497 237.162 198.026 237.179C197.151 237.213 196.384 237.097 195.724 236.83C195.071 236.562 194.563 236.148 194.199 235.585C193.835 235.023 193.656 234.312 193.662 233.455V220.773ZM218.567 227.642L215.244 227.847C215.187 227.562 215.065 227.307 214.877 227.08C214.69 226.847 214.442 226.662 214.136 226.526C213.835 226.384 213.474 226.312 213.053 226.312C212.491 226.312 212.016 226.432 211.63 226.67C211.244 226.903 211.05 227.216 211.05 227.608C211.05 227.92 211.175 228.185 211.425 228.401C211.675 228.616 212.104 228.79 212.712 228.92L215.082 229.398C216.354 229.659 217.303 230.08 217.928 230.659C218.553 231.239 218.866 232 218.866 232.943C218.866 233.801 218.613 234.554 218.107 235.202C217.607 235.849 216.92 236.355 216.045 236.719C215.175 237.077 214.173 237.256 213.036 237.256C211.303 237.256 209.923 236.895 208.894 236.173C207.871 235.446 207.272 234.457 207.096 233.207L210.667 233.02C210.775 233.548 211.036 233.952 211.451 234.23C211.866 234.503 212.397 234.639 213.045 234.639C213.681 234.639 214.192 234.517 214.579 234.273C214.971 234.023 215.17 233.702 215.175 233.31C215.17 232.98 215.031 232.71 214.758 232.5C214.485 232.284 214.065 232.119 213.496 232.006L211.229 231.554C209.951 231.298 208.999 230.855 208.374 230.224C207.755 229.594 207.445 228.79 207.445 227.812C207.445 226.972 207.673 226.247 208.127 225.639C208.587 225.031 209.232 224.562 210.062 224.233C210.897 223.903 211.874 223.739 212.994 223.739C214.647 223.739 215.948 224.088 216.897 224.787C217.852 225.486 218.408 226.437 218.567 227.642ZM227.118 237.256C225.771 237.256 224.612 236.983 223.641 236.438C222.675 235.886 221.93 235.108 221.408 234.102C220.885 233.091 220.624 231.895 220.624 230.514C220.624 229.168 220.885 227.986 221.408 226.969C221.93 225.952 222.666 225.159 223.615 224.591C224.57 224.023 225.689 223.739 226.973 223.739C227.837 223.739 228.641 223.878 229.385 224.156C230.135 224.429 230.788 224.841 231.345 225.392C231.908 225.943 232.345 226.636 232.658 227.472C232.97 228.301 233.126 229.273 233.126 230.386V231.384H222.072V229.134H229.709C229.709 228.611 229.595 228.148 229.368 227.744C229.141 227.341 228.825 227.026 228.422 226.798C228.024 226.565 227.561 226.449 227.033 226.449C226.482 226.449 225.993 226.577 225.567 226.832C225.146 227.082 224.817 227.42 224.578 227.847C224.339 228.267 224.217 228.736 224.212 229.253V231.392C224.212 232.04 224.331 232.599 224.57 233.071C224.814 233.543 225.158 233.906 225.601 234.162C226.044 234.418 226.57 234.545 227.178 234.545C227.581 234.545 227.95 234.489 228.286 234.375C228.621 234.261 228.908 234.091 229.146 233.864C229.385 233.636 229.567 233.358 229.692 233.028L233.05 233.25C232.879 234.057 232.53 234.761 232.001 235.364C231.479 235.96 230.803 236.426 229.973 236.761C229.149 237.091 228.197 237.256 227.118 237.256ZM235.496 237V223.909H239.016V226.193H239.152C239.391 225.381 239.791 224.767 240.354 224.352C240.916 223.932 241.564 223.722 242.297 223.722C242.479 223.722 242.675 223.733 242.885 223.756C243.095 223.778 243.28 223.81 243.439 223.849V227.071C243.268 227.02 243.033 226.974 242.732 226.935C242.43 226.895 242.155 226.875 241.905 226.875C241.371 226.875 240.893 226.991 240.473 227.224C240.058 227.452 239.729 227.77 239.484 228.179C239.246 228.588 239.126 229.06 239.126 229.594V237H235.496ZM257.919 223.909L253.342 237H249.251L244.675 223.909H248.51L251.229 233.276H251.365L254.075 223.909H257.919ZM259.777 237V223.909H263.408V237H259.777ZM261.601 222.222C261.061 222.222 260.598 222.043 260.212 221.685C259.831 221.321 259.641 220.886 259.641 220.381C259.641 219.881 259.831 219.452 260.212 219.094C260.598 218.73 261.061 218.548 261.601 218.548C262.141 218.548 262.601 218.73 262.982 219.094C263.368 219.452 263.561 219.881 263.561 220.381C263.561 220.886 263.368 221.321 262.982 221.685C262.601 222.043 262.141 222.222 261.601 222.222ZM272.231 237.256C270.89 237.256 269.737 236.972 268.771 236.403C267.81 235.83 267.072 235.034 266.555 234.017C266.043 233 265.788 231.83 265.788 230.506C265.788 229.165 266.046 227.989 266.563 226.977C267.086 225.96 267.827 225.168 268.788 224.599C269.748 224.026 270.89 223.739 272.214 223.739C273.356 223.739 274.356 223.946 275.214 224.361C276.072 224.776 276.751 225.358 277.251 226.108C277.751 226.858 278.026 227.739 278.077 228.75H274.651C274.555 228.097 274.299 227.571 273.884 227.173C273.475 226.77 272.938 226.568 272.273 226.568C271.711 226.568 271.219 226.722 270.799 227.028C270.384 227.33 270.06 227.77 269.827 228.349C269.594 228.929 269.478 229.631 269.478 230.455C269.478 231.29 269.592 232 269.819 232.585C270.052 233.17 270.379 233.616 270.799 233.923C271.219 234.23 271.711 234.384 272.273 234.384C272.688 234.384 273.06 234.298 273.39 234.128C273.725 233.957 274.001 233.71 274.217 233.386C274.438 233.057 274.583 232.662 274.651 232.202H278.077C278.021 233.202 277.748 234.082 277.259 234.844C276.776 235.599 276.109 236.19 275.256 236.616C274.404 237.043 273.396 237.256 272.231 237.256ZM286.368 237.256C285.021 237.256 283.862 236.983 282.891 236.438C281.925 235.886 281.18 235.108 280.658 234.102C280.135 233.091 279.874 231.895 279.874 230.514C279.874 229.168 280.135 227.986 280.658 226.969C281.18 225.952 281.916 225.159 282.865 224.591C283.82 224.023 284.939 223.739 286.223 223.739C287.087 223.739 287.891 223.878 288.635 224.156C289.385 224.429 290.038 224.841 290.595 225.392C291.158 225.943 291.595 226.636 291.908 227.472C292.22 228.301 292.376 229.273 292.376 230.386V231.384H281.322V229.134H288.959C288.959 228.611 288.845 228.148 288.618 227.744C288.391 227.341 288.075 227.026 287.672 226.798C287.274 226.565 286.811 226.449 286.283 226.449C285.732 226.449 285.243 226.577 284.817 226.832C284.396 227.082 284.067 227.42 283.828 227.847C283.589 228.267 283.467 228.736 283.462 229.253V231.392C283.462 232.04 283.581 232.599 283.82 233.071C284.064 233.543 284.408 233.906 284.851 234.162C285.294 234.418 285.82 234.545 286.428 234.545C286.831 234.545 287.2 234.489 287.536 234.375C287.871 234.261 288.158 234.091 288.396 233.864C288.635 233.636 288.817 233.358 288.942 233.028L292.3 233.25C292.129 234.057 291.78 234.761 291.251 235.364C290.729 235.96 290.053 236.426 289.223 236.761C288.399 237.091 287.447 237.256 286.368 237.256ZM305.638 227.642L302.314 227.847C302.257 227.562 302.135 227.307 301.947 227.08C301.76 226.847 301.513 226.662 301.206 226.526C300.905 226.384 300.544 226.312 300.124 226.312C299.561 226.312 299.087 226.432 298.7 226.67C298.314 226.903 298.121 227.216 298.121 227.608C298.121 227.92 298.246 228.185 298.496 228.401C298.746 228.616 299.175 228.79 299.783 228.92L302.152 229.398C303.425 229.659 304.374 230.08 304.999 230.659C305.624 231.239 305.936 232 305.936 232.943C305.936 233.801 305.683 234.554 305.178 235.202C304.678 235.849 303.99 236.355 303.115 236.719C302.246 237.077 301.243 237.256 300.107 237.256C298.374 237.256 296.993 236.895 295.964 236.173C294.942 235.446 294.342 234.457 294.166 233.207L297.737 233.02C297.845 233.548 298.107 233.952 298.521 234.23C298.936 234.503 299.467 234.639 300.115 234.639C300.751 234.639 301.263 234.517 301.649 234.273C302.041 234.023 302.24 233.702 302.246 233.31C302.24 232.98 302.101 232.71 301.828 232.5C301.555 232.284 301.135 232.119 300.567 232.006L298.3 231.554C297.021 231.298 296.07 230.855 295.445 230.224C294.825 229.594 294.516 228.79 294.516 227.812C294.516 226.972 294.743 226.247 295.197 225.639C295.658 225.031 296.303 224.562 297.132 224.233C297.967 223.903 298.945 223.739 300.064 223.739C301.717 223.739 303.018 224.088 303.967 224.787C304.922 225.486 305.479 226.437 305.638 227.642Z" fill="#232323"/>
<path d="M25.7727 280H24.3636C24.2803 279.595 24.1345 279.239 23.9261 278.932C23.7216 278.625 23.4716 278.367 23.1761 278.159C22.8845 277.947 22.5606 277.788 22.2045 277.682C21.8485 277.576 21.4773 277.523 21.0909 277.523C20.3864 277.523 19.7481 277.701 19.1761 278.057C18.608 278.413 18.1553 278.938 17.8182 279.631C17.4848 280.324 17.3182 281.174 17.3182 282.182C17.3182 283.189 17.4848 284.04 17.8182 284.733C18.1553 285.426 18.608 285.951 19.1761 286.307C19.7481 286.663 20.3864 286.841 21.0909 286.841C21.4773 286.841 21.8485 286.788 22.2045 286.682C22.5606 286.576 22.8845 286.419 23.1761 286.21C23.4716 285.998 23.7216 285.739 23.9261 285.432C24.1345 285.121 24.2803 284.765 24.3636 284.364H25.7727C25.6667 284.958 25.4735 285.491 25.1932 285.96C24.9129 286.43 24.5644 286.83 24.1477 287.159C23.7311 287.485 23.2633 287.733 22.7443 287.903C22.2292 288.074 21.678 288.159 21.0909 288.159C20.0985 288.159 19.2159 287.917 18.4432 287.432C17.6705 286.947 17.0625 286.258 16.6193 285.364C16.1761 284.47 15.9545 283.409 15.9545 282.182C15.9545 280.955 16.1761 279.894 16.6193 279C17.0625 278.106 17.6705 277.417 18.4432 276.932C19.2159 276.447 20.0985 276.205 21.0909 276.205C21.678 276.205 22.2292 276.29 22.7443 276.46C23.2633 276.631 23.7311 276.881 24.1477 277.21C24.5644 277.536 24.9129 277.934 25.1932 278.403C25.4735 278.869 25.6667 279.402 25.7727 280ZM29.2088 282.75V288H27.8679V276.364H29.2088V280.636H29.3224C29.527 280.186 29.8338 279.828 30.2429 279.562C30.6558 279.294 31.205 279.159 31.8906 279.159C32.4853 279.159 33.0062 279.278 33.4531 279.517C33.9001 279.752 34.2467 280.114 34.4929 280.602C34.7429 281.087 34.8679 281.705 34.8679 282.455V288H33.527V282.545C33.527 281.852 33.3471 281.316 32.9872 280.938C32.6312 280.555 32.1368 280.364 31.5043 280.364C31.0649 280.364 30.6709 280.456 30.3224 280.642C29.9777 280.828 29.705 281.098 29.5043 281.455C29.3073 281.811 29.2088 282.242 29.2088 282.75ZM40.9801 288.182C40.1392 288.182 39.4138 287.996 38.804 287.625C38.1979 287.25 37.7301 286.727 37.4006 286.057C37.0748 285.383 36.9119 284.598 36.9119 283.705C36.9119 282.811 37.0748 282.023 37.4006 281.341C37.7301 280.655 38.1884 280.121 38.7756 279.739C39.3665 279.352 40.0559 279.159 40.8438 279.159C41.2983 279.159 41.7472 279.235 42.1903 279.386C42.6335 279.538 43.0369 279.784 43.4006 280.125C43.7642 280.462 44.054 280.909 44.2699 281.466C44.4858 282.023 44.5938 282.708 44.5938 283.523V284.091H37.8665V282.932H43.2301C43.2301 282.439 43.1316 282 42.9347 281.614C42.7415 281.227 42.465 280.922 42.1051 280.699C41.7491 280.475 41.3286 280.364 40.8438 280.364C40.3097 280.364 39.8475 280.496 39.4574 280.761C39.071 281.023 38.7737 281.364 38.5653 281.784C38.357 282.205 38.2528 282.655 38.2528 283.136V283.909C38.2528 284.568 38.3665 285.127 38.5938 285.585C38.8248 286.04 39.1449 286.386 39.554 286.625C39.9631 286.86 40.4384 286.977 40.9801 286.977C41.3324 286.977 41.6506 286.928 41.9347 286.83C42.2225 286.727 42.4706 286.576 42.679 286.375C42.8873 286.17 43.0483 285.917 43.1619 285.614L44.4574 285.977C44.321 286.417 44.0919 286.803 43.7699 287.136C43.4479 287.466 43.0502 287.723 42.5767 287.909C42.1032 288.091 41.571 288.182 40.9801 288.182ZM50.179 288.182C49.3608 288.182 48.6563 287.989 48.0653 287.602C47.4744 287.216 47.0199 286.684 46.7017 286.006C46.3835 285.328 46.2244 284.553 46.2244 283.682C46.2244 282.795 46.3873 282.013 46.7131 281.335C47.0426 280.653 47.5009 280.121 48.0881 279.739C48.679 279.352 49.3684 279.159 50.1562 279.159C50.7699 279.159 51.3229 279.273 51.8153 279.5C52.3078 279.727 52.7112 280.045 53.0256 280.455C53.34 280.864 53.535 281.341 53.6108 281.886H52.2699C52.1676 281.489 51.9403 281.136 51.5881 280.83C51.2396 280.519 50.7699 280.364 50.179 280.364C49.6563 280.364 49.1979 280.5 48.804 280.773C48.4138 281.042 48.1089 281.422 47.8892 281.915C47.6733 282.403 47.5653 282.977 47.5653 283.636C47.5653 284.311 47.6714 284.898 47.8835 285.398C48.0994 285.898 48.4025 286.286 48.7926 286.562C49.1866 286.839 49.6487 286.977 50.179 286.977C50.5275 286.977 50.8438 286.917 51.1278 286.795C51.4119 286.674 51.6525 286.5 51.8494 286.273C52.0464 286.045 52.1866 285.773 52.2699 285.455H53.6108C53.535 285.97 53.3475 286.434 53.0483 286.847C52.7528 287.256 52.3608 287.581 51.8722 287.824C51.3873 288.062 50.8229 288.182 50.179 288.182ZM56.821 284.818L56.7983 283.159H57.071L60.8892 279.273H62.5483L58.4801 283.386H58.3665L56.821 284.818ZM55.571 288V276.364H56.9119V288H55.571ZM61.1165 288L57.7074 283.682L58.6619 282.75L62.821 288H61.1165ZM72.3196 288.182C71.5317 288.182 70.8404 287.994 70.2457 287.619C69.6548 287.244 69.1927 286.72 68.8594 286.045C68.5298 285.371 68.3651 284.583 68.3651 283.682C68.3651 282.773 68.5298 281.979 68.8594 281.301C69.1927 280.623 69.6548 280.097 70.2457 279.722C70.8404 279.347 71.5317 279.159 72.3196 279.159C73.1075 279.159 73.7969 279.347 74.3878 279.722C74.9825 280.097 75.4446 280.623 75.7741 281.301C76.1075 281.979 76.2741 282.773 76.2741 283.682C76.2741 284.583 76.1075 285.371 75.7741 286.045C75.4446 286.72 74.9825 287.244 74.3878 287.619C73.7969 287.994 73.1075 288.182 72.3196 288.182ZM72.3196 286.977C72.9181 286.977 73.4105 286.824 73.7969 286.517C74.1832 286.21 74.4692 285.807 74.6548 285.307C74.8404 284.807 74.9332 284.265 74.9332 283.682C74.9332 283.098 74.8404 282.555 74.6548 282.051C74.4692 281.547 74.1832 281.14 73.7969 280.83C73.4105 280.519 72.9181 280.364 72.3196 280.364C71.7211 280.364 71.2287 280.519 70.8423 280.83C70.456 281.14 70.17 281.547 69.9844 282.051C69.7988 282.555 69.706 283.098 69.706 283.682C69.706 284.265 69.7988 284.807 69.9844 285.307C70.17 285.807 70.456 286.21 70.8423 286.517C71.2287 286.824 71.7211 286.977 72.3196 286.977ZM83.821 284.432V279.273H85.1619V288H83.821V286.523H83.7301C83.5256 286.966 83.2074 287.343 82.7756 287.653C82.3438 287.96 81.7983 288.114 81.1392 288.114C80.5938 288.114 80.1089 287.994 79.6847 287.756C79.2604 287.513 78.9271 287.15 78.6847 286.665C78.4422 286.176 78.321 285.561 78.321 284.818V279.273H79.6619V284.727C79.6619 285.364 79.84 285.871 80.196 286.25C80.5559 286.629 81.0142 286.818 81.571 286.818C81.9044 286.818 82.2434 286.733 82.5881 286.562C82.9366 286.392 83.2282 286.131 83.4631 285.778C83.7017 285.426 83.821 284.977 83.821 284.432ZM87.6179 288V279.273H88.9134V280.591H89.0043C89.1634 280.159 89.4512 279.809 89.8679 279.54C90.2846 279.271 90.7543 279.136 91.277 279.136C91.3755 279.136 91.4986 279.138 91.6463 279.142C91.794 279.146 91.9058 279.152 91.9815 279.159V280.523C91.9361 280.511 91.8319 280.494 91.669 280.472C91.5099 280.445 91.3414 280.432 91.1634 280.432C90.7391 280.432 90.3603 280.521 90.027 280.699C89.6974 280.873 89.4361 281.116 89.2429 281.426C89.0535 281.733 88.9588 282.083 88.9588 282.477V288H87.6179ZM101.616 288.182C100.798 288.182 100.094 287.989 99.5028 287.602C98.9119 287.216 98.4574 286.684 98.1392 286.006C97.821 285.328 97.6619 284.553 97.6619 283.682C97.6619 282.795 97.8248 282.013 98.1506 281.335C98.4801 280.653 98.9384 280.121 99.5256 279.739C100.116 279.352 100.806 279.159 101.594 279.159C102.207 279.159 102.76 279.273 103.253 279.5C103.745 279.727 104.149 280.045 104.463 280.455C104.777 280.864 104.973 281.341 105.048 281.886H103.707C103.605 281.489 103.378 281.136 103.026 280.83C102.677 280.519 102.207 280.364 101.616 280.364C101.094 280.364 100.635 280.5 100.241 280.773C99.8513 281.042 99.5464 281.422 99.3267 281.915C99.1108 282.403 99.0028 282.977 99.0028 283.636C99.0028 284.311 99.1089 284.898 99.321 285.398C99.5369 285.898 99.84 286.286 100.23 286.562C100.624 286.839 101.086 286.977 101.616 286.977C101.965 286.977 102.281 286.917 102.565 286.795C102.849 286.674 103.09 286.5 103.287 286.273C103.484 286.045 103.624 285.773 103.707 285.455H105.048C104.973 285.97 104.785 286.434 104.486 286.847C104.19 287.256 103.798 287.581 103.31 287.824C102.825 288.062 102.26 288.182 101.616 288.182ZM110.554 288.182C109.766 288.182 109.075 287.994 108.48 287.619C107.889 287.244 107.427 286.72 107.094 286.045C106.764 285.371 106.599 284.583 106.599 283.682C106.599 282.773 106.764 281.979 107.094 281.301C107.427 280.623 107.889 280.097 108.48 279.722C109.075 279.347 109.766 279.159 110.554 279.159C111.342 279.159 112.031 279.347 112.622 279.722C113.217 280.097 113.679 280.623 114.009 281.301C114.342 281.979 114.509 282.773 114.509 283.682C114.509 284.583 114.342 285.371 114.009 286.045C113.679 286.72 113.217 287.244 112.622 287.619C112.031 287.994 111.342 288.182 110.554 288.182ZM110.554 286.977C111.152 286.977 111.645 286.824 112.031 286.517C112.418 286.21 112.704 285.807 112.889 285.307C113.075 284.807 113.168 284.265 113.168 283.682C113.168 283.098 113.075 282.555 112.889 282.051C112.704 281.547 112.418 281.14 112.031 280.83C111.645 280.519 111.152 280.364 110.554 280.364C109.955 280.364 109.463 280.519 109.077 280.83C108.69 281.14 108.404 281.547 108.219 282.051C108.033 282.555 107.94 283.098 107.94 283.682C107.94 284.265 108.033 284.807 108.219 285.307C108.404 285.807 108.69 286.21 109.077 286.517C109.463 286.824 109.955 286.977 110.554 286.977ZM117.896 282.75V288H116.555V279.273H117.851V280.636H117.964C118.169 280.193 118.48 279.837 118.896 279.568C119.313 279.295 119.851 279.159 120.51 279.159C121.101 279.159 121.618 279.28 122.061 279.523C122.504 279.761 122.849 280.125 123.095 280.614C123.341 281.098 123.464 281.712 123.464 282.455V288H122.124V282.545C122.124 281.86 121.946 281.326 121.589 280.943C121.233 280.557 120.745 280.364 120.124 280.364C119.696 280.364 119.313 280.456 118.976 280.642C118.643 280.828 118.379 281.098 118.186 281.455C117.993 281.811 117.896 282.242 117.896 282.75ZM129.71 279.273V280.409H125.188V279.273H129.71ZM126.506 277.182H127.847V285.5C127.847 285.879 127.902 286.163 128.011 286.352C128.125 286.538 128.269 286.663 128.443 286.727C128.621 286.788 128.809 286.818 129.006 286.818C129.153 286.818 129.275 286.811 129.369 286.795C129.464 286.777 129.54 286.761 129.597 286.75L129.869 287.955C129.778 287.989 129.652 288.023 129.489 288.057C129.326 288.095 129.119 288.114 128.869 288.114C128.491 288.114 128.119 288.032 127.756 287.869C127.396 287.706 127.097 287.458 126.858 287.125C126.623 286.792 126.506 286.371 126.506 285.864V277.182ZM134.295 288.205C133.742 288.205 133.241 288.1 132.79 287.892C132.339 287.68 131.981 287.375 131.716 286.977C131.451 286.576 131.318 286.091 131.318 285.523C131.318 285.023 131.417 284.617 131.614 284.307C131.811 283.992 132.074 283.746 132.403 283.568C132.733 283.39 133.097 283.258 133.494 283.17C133.896 283.08 134.299 283.008 134.705 282.955C135.235 282.886 135.665 282.835 135.994 282.801C136.328 282.763 136.57 282.701 136.722 282.614C136.877 282.527 136.955 282.375 136.955 282.159V282.114C136.955 281.553 136.801 281.117 136.494 280.807C136.191 280.496 135.731 280.341 135.114 280.341C134.473 280.341 133.972 280.481 133.608 280.761C133.244 281.042 132.989 281.341 132.841 281.659L131.568 281.205C131.795 280.674 132.098 280.261 132.477 279.966C132.86 279.667 133.277 279.458 133.727 279.341C134.182 279.22 134.629 279.159 135.068 279.159C135.348 279.159 135.67 279.193 136.034 279.261C136.402 279.326 136.756 279.46 137.097 279.665C137.441 279.869 137.727 280.178 137.955 280.591C138.182 281.004 138.295 281.557 138.295 282.25V288H136.955V286.818H136.886C136.795 287.008 136.644 287.21 136.432 287.426C136.22 287.642 135.938 287.826 135.585 287.977C135.233 288.129 134.803 288.205 134.295 288.205ZM134.5 287C135.03 287 135.477 286.896 135.841 286.688C136.208 286.479 136.485 286.21 136.67 285.881C136.86 285.551 136.955 285.205 136.955 284.841V283.614C136.898 283.682 136.773 283.744 136.58 283.801C136.39 283.854 136.17 283.902 135.92 283.943C135.674 283.981 135.434 284.015 135.199 284.045C134.968 284.072 134.78 284.095 134.636 284.114C134.288 284.159 133.962 284.233 133.659 284.335C133.36 284.434 133.117 284.583 132.932 284.784C132.75 284.981 132.659 285.25 132.659 285.591C132.659 286.057 132.831 286.409 133.176 286.648C133.525 286.883 133.966 287 134.5 287ZM144.288 288.182C143.47 288.182 142.766 287.989 142.175 287.602C141.584 287.216 141.129 286.684 140.811 286.006C140.493 285.328 140.334 284.553 140.334 283.682C140.334 282.795 140.497 282.013 140.822 281.335C141.152 280.653 141.61 280.121 142.197 279.739C142.788 279.352 143.478 279.159 144.266 279.159C144.879 279.159 145.432 279.273 145.925 279.5C146.417 279.727 146.821 280.045 147.135 280.455C147.449 280.864 147.644 281.341 147.72 281.886H146.379C146.277 281.489 146.05 281.136 145.697 280.83C145.349 280.519 144.879 280.364 144.288 280.364C143.766 280.364 143.307 280.5 142.913 280.773C142.523 281.042 142.218 281.422 141.999 281.915C141.783 282.403 141.675 282.977 141.675 283.636C141.675 284.311 141.781 284.898 141.993 285.398C142.209 285.898 142.512 286.286 142.902 286.562C143.296 286.839 143.758 286.977 144.288 286.977C144.637 286.977 144.953 286.917 145.237 286.795C145.521 286.674 145.762 286.5 145.959 286.273C146.156 286.045 146.296 285.773 146.379 285.455H147.72C147.644 285.97 147.457 286.434 147.158 286.847C146.862 287.256 146.47 287.581 145.982 287.824C145.497 288.062 144.932 288.182 144.288 288.182ZM153.476 279.273V280.409H148.953V279.273H153.476ZM150.271 277.182H151.612V285.5C151.612 285.879 151.667 286.163 151.777 286.352C151.891 286.538 152.035 286.663 152.209 286.727C152.387 286.788 152.574 286.818 152.771 286.818C152.919 286.818 153.04 286.811 153.135 286.795C153.23 286.777 153.305 286.761 153.362 286.75L153.635 287.955C153.544 287.989 153.417 288.023 153.254 288.057C153.091 288.095 152.885 288.114 152.635 288.114C152.256 288.114 151.885 288.032 151.521 287.869C151.161 287.706 150.862 287.458 150.624 287.125C150.389 286.792 150.271 286.371 150.271 285.864V277.182ZM161.334 276.364V288H159.993V276.364H161.334ZM163.79 288V279.273H165.131V288H163.79ZM164.472 277.818C164.21 277.818 163.985 277.729 163.795 277.551C163.61 277.373 163.517 277.159 163.517 276.909C163.517 276.659 163.61 276.445 163.795 276.267C163.985 276.089 164.21 276 164.472 276C164.733 276 164.956 276.089 165.142 276.267C165.331 276.445 165.426 276.659 165.426 276.909C165.426 277.159 165.331 277.373 165.142 277.551C164.956 277.729 164.733 277.818 164.472 277.818ZM173.768 281.227L172.564 281.568C172.488 281.367 172.376 281.172 172.229 280.983C172.085 280.79 171.888 280.631 171.638 280.506C171.388 280.381 171.068 280.318 170.678 280.318C170.143 280.318 169.698 280.441 169.342 280.688C168.99 280.93 168.814 281.239 168.814 281.614C168.814 281.947 168.935 282.21 169.178 282.403C169.42 282.597 169.799 282.758 170.314 282.886L171.609 283.205C172.39 283.394 172.971 283.684 173.354 284.074C173.736 284.46 173.928 284.958 173.928 285.568C173.928 286.068 173.784 286.515 173.496 286.909C173.212 287.303 172.814 287.614 172.303 287.841C171.791 288.068 171.196 288.182 170.518 288.182C169.628 288.182 168.892 287.989 168.308 287.602C167.725 287.216 167.356 286.652 167.2 285.909L168.473 285.591C168.594 286.061 168.823 286.413 169.161 286.648C169.501 286.883 169.946 287 170.496 287C171.121 287 171.617 286.867 171.984 286.602C172.356 286.333 172.541 286.011 172.541 285.636C172.541 285.333 172.435 285.08 172.223 284.875C172.011 284.667 171.685 284.511 171.246 284.409L169.791 284.068C168.992 283.879 168.405 283.585 168.03 283.188C167.659 282.786 167.473 282.284 167.473 281.682C167.473 281.189 167.611 280.754 167.888 280.375C168.168 279.996 168.549 279.699 169.03 279.483C169.515 279.267 170.064 279.159 170.678 279.159C171.541 279.159 172.219 279.348 172.712 279.727C173.208 280.106 173.56 280.606 173.768 281.227ZM179.741 279.273V280.409H175.219V279.273H179.741ZM176.537 277.182H177.878V285.5C177.878 285.879 177.933 286.163 178.043 286.352C178.156 286.538 178.3 286.663 178.474 286.727C178.652 286.788 178.84 286.818 179.037 286.818C179.185 286.818 179.306 286.811 179.401 286.795C179.495 286.777 179.571 286.761 179.628 286.75L179.901 287.955C179.81 287.989 179.683 288.023 179.52 288.057C179.357 288.095 179.151 288.114 178.901 288.114C178.522 288.114 178.151 288.032 177.787 287.869C177.427 287.706 177.128 287.458 176.889 287.125C176.654 286.792 176.537 286.371 176.537 285.864V277.182ZM188.827 288.205C188.274 288.205 187.772 288.1 187.321 287.892C186.87 287.68 186.512 287.375 186.247 286.977C185.982 286.576 185.849 286.091 185.849 285.523C185.849 285.023 185.948 284.617 186.145 284.307C186.342 283.992 186.605 283.746 186.935 283.568C187.264 283.39 187.628 283.258 188.026 283.17C188.427 283.08 188.83 283.008 189.236 282.955C189.766 282.886 190.196 282.835 190.526 282.801C190.859 282.763 191.101 282.701 191.253 282.614C191.408 282.527 191.486 282.375 191.486 282.159V282.114C191.486 281.553 191.332 281.117 191.026 280.807C190.723 280.496 190.262 280.341 189.645 280.341C189.005 280.341 188.503 280.481 188.139 280.761C187.776 281.042 187.52 281.341 187.372 281.659L186.099 281.205C186.327 280.674 186.63 280.261 187.009 279.966C187.391 279.667 187.808 279.458 188.259 279.341C188.713 279.22 189.16 279.159 189.599 279.159C189.88 279.159 190.202 279.193 190.565 279.261C190.933 279.326 191.287 279.46 191.628 279.665C191.973 279.869 192.259 280.178 192.486 280.591C192.713 281.004 192.827 281.557 192.827 282.25V288H191.486V286.818H191.418C191.327 287.008 191.175 287.21 190.963 287.426C190.751 287.642 190.469 287.826 190.116 287.977C189.764 288.129 189.334 288.205 188.827 288.205ZM189.031 287C189.562 287 190.009 286.896 190.372 286.688C190.74 286.479 191.016 286.21 191.202 285.881C191.391 285.551 191.486 285.205 191.486 284.841V283.614C191.429 283.682 191.304 283.744 191.111 283.801C190.921 283.854 190.702 283.902 190.452 283.943C190.205 283.981 189.965 284.015 189.73 284.045C189.499 284.072 189.312 284.095 189.168 284.114C188.819 284.159 188.493 284.233 188.19 284.335C187.891 284.434 187.649 284.583 187.463 284.784C187.281 284.981 187.19 285.25 187.19 285.591C187.19 286.057 187.363 286.409 187.707 286.648C188.056 286.883 188.497 287 189.031 287ZM196.615 282.75V288H195.274V279.273H196.57V280.636H196.683C196.888 280.193 197.198 279.837 197.615 279.568C198.032 279.295 198.57 279.159 199.229 279.159C199.82 279.159 200.337 279.28 200.78 279.523C201.223 279.761 201.568 280.125 201.814 280.614C202.06 281.098 202.183 281.712 202.183 282.455V288H200.842V282.545C200.842 281.86 200.664 281.326 200.308 280.943C199.952 280.557 199.464 280.364 198.842 280.364C198.414 280.364 198.032 280.456 197.695 280.642C197.361 280.828 197.098 281.098 196.905 281.455C196.712 281.811 196.615 282.242 196.615 282.75ZM207.929 288.182C207.202 288.182 206.56 287.998 206.003 287.631C205.446 287.259 205.01 286.737 204.696 286.062C204.382 285.384 204.224 284.583 204.224 283.659C204.224 282.742 204.382 281.947 204.696 281.273C205.01 280.598 205.448 280.078 206.009 279.71C206.569 279.343 207.217 279.159 207.952 279.159C208.52 279.159 208.969 279.254 209.298 279.443C209.632 279.629 209.885 279.841 210.06 280.08C210.238 280.314 210.376 280.508 210.474 280.659H210.588V276.364H211.929V288H210.634V286.659H210.474C210.376 286.818 210.236 287.019 210.054 287.261C209.872 287.5 209.613 287.714 209.276 287.903C208.938 288.089 208.49 288.182 207.929 288.182ZM208.111 286.977C208.649 286.977 209.103 286.837 209.474 286.557C209.846 286.273 210.128 285.881 210.321 285.381C210.514 284.877 210.611 284.295 210.611 283.636C210.611 282.985 210.516 282.415 210.327 281.926C210.137 281.434 209.857 281.051 209.486 280.778C209.115 280.502 208.656 280.364 208.111 280.364C207.543 280.364 207.069 280.509 206.69 280.801C206.315 281.089 206.033 281.481 205.844 281.977C205.658 282.47 205.565 283.023 205.565 283.636C205.565 284.258 205.66 284.822 205.849 285.33C206.043 285.833 206.327 286.235 206.702 286.534C207.08 286.83 207.55 286.977 208.111 286.977ZM219.071 288V279.273H220.366V280.591H220.457C220.616 280.159 220.904 279.809 221.321 279.54C221.738 279.271 222.207 279.136 222.73 279.136C222.829 279.136 222.952 279.138 223.099 279.142C223.247 279.146 223.359 279.152 223.435 279.159V280.523C223.389 280.511 223.285 280.494 223.122 280.472C222.963 280.445 222.795 280.432 222.616 280.432C222.192 280.432 221.813 280.521 221.48 280.699C221.151 280.873 220.889 281.116 220.696 281.426C220.507 281.733 220.412 282.083 220.412 282.477V288H219.071ZM228.418 288.182C227.577 288.182 226.851 287.996 226.241 287.625C225.635 287.25 225.168 286.727 224.838 286.057C224.512 285.383 224.349 284.598 224.349 283.705C224.349 282.811 224.512 282.023 224.838 281.341C225.168 280.655 225.626 280.121 226.213 279.739C226.804 279.352 227.493 279.159 228.281 279.159C228.736 279.159 229.185 279.235 229.628 279.386C230.071 279.538 230.474 279.784 230.838 280.125C231.202 280.462 231.491 280.909 231.707 281.466C231.923 282.023 232.031 282.708 232.031 283.523V284.091H225.304V282.932H230.668C230.668 282.439 230.569 282 230.372 281.614C230.179 281.227 229.902 280.922 229.543 280.699C229.187 280.475 228.766 280.364 228.281 280.364C227.747 280.364 227.285 280.496 226.895 280.761C226.509 281.023 226.211 281.364 226.003 281.784C225.795 282.205 225.69 282.655 225.69 283.136V283.909C225.69 284.568 225.804 285.127 226.031 285.585C226.262 286.04 226.582 286.386 226.991 286.625C227.401 286.86 227.876 286.977 228.418 286.977C228.77 286.977 229.088 286.928 229.372 286.83C229.66 286.727 229.908 286.576 230.116 286.375C230.325 286.17 230.486 285.917 230.599 285.614L231.895 285.977C231.759 286.417 231.529 286.803 231.207 287.136C230.885 287.466 230.488 287.723 230.014 287.909C229.541 288.091 229.009 288.182 228.418 288.182ZM236.639 288.205C236.086 288.205 235.584 288.1 235.134 287.892C234.683 287.68 234.325 287.375 234.06 286.977C233.795 286.576 233.662 286.091 233.662 285.523C233.662 285.023 233.76 284.617 233.957 284.307C234.154 283.992 234.418 283.746 234.747 283.568C235.077 283.39 235.44 283.258 235.838 283.17C236.24 283.08 236.643 283.008 237.048 282.955C237.579 282.886 238.009 282.835 238.338 282.801C238.671 282.763 238.914 282.701 239.065 282.614C239.221 282.527 239.298 282.375 239.298 282.159V282.114C239.298 281.553 239.145 281.117 238.838 280.807C238.535 280.496 238.075 280.341 237.457 280.341C236.817 280.341 236.315 280.481 235.952 280.761C235.588 281.042 235.332 281.341 235.185 281.659L233.912 281.205C234.139 280.674 234.442 280.261 234.821 279.966C235.204 279.667 235.62 279.458 236.071 279.341C236.526 279.22 236.973 279.159 237.412 279.159C237.692 279.159 238.014 279.193 238.378 279.261C238.745 279.326 239.099 279.46 239.44 279.665C239.785 279.869 240.071 280.178 240.298 280.591C240.526 281.004 240.639 281.557 240.639 282.25V288H239.298V286.818H239.23C239.139 287.008 238.988 287.21 238.776 287.426C238.563 287.642 238.281 287.826 237.929 287.977C237.577 288.129 237.147 288.205 236.639 288.205ZM236.844 287C237.374 287 237.821 286.896 238.185 286.688C238.552 286.479 238.829 286.21 239.014 285.881C239.204 285.551 239.298 285.205 239.298 284.841V283.614C239.241 283.682 239.116 283.744 238.923 283.801C238.734 283.854 238.514 283.902 238.264 283.943C238.018 283.981 237.777 284.015 237.543 284.045C237.312 284.072 237.124 284.095 236.98 284.114C236.632 284.159 236.306 284.233 236.003 284.335C235.704 284.434 235.461 284.583 235.276 284.784C235.094 284.981 235.003 285.25 235.003 285.591C235.003 286.057 235.175 286.409 235.52 286.648C235.868 286.883 236.31 287 236.844 287ZM246.632 288.182C245.814 288.182 245.109 287.989 244.518 287.602C243.928 287.216 243.473 286.684 243.155 286.006C242.837 285.328 242.678 284.553 242.678 283.682C242.678 282.795 242.84 282.013 243.166 281.335C243.496 280.653 243.954 280.121 244.541 279.739C245.132 279.352 245.821 279.159 246.609 279.159C247.223 279.159 247.776 279.273 248.268 279.5C248.761 279.727 249.164 280.045 249.479 280.455C249.793 280.864 249.988 281.341 250.064 281.886H248.723C248.621 281.489 248.393 281.136 248.041 280.83C247.693 280.519 247.223 280.364 246.632 280.364C246.109 280.364 245.651 280.5 245.257 280.773C244.867 281.042 244.562 281.422 244.342 281.915C244.126 282.403 244.018 282.977 244.018 283.636C244.018 284.311 244.125 284.898 244.337 285.398C244.553 285.898 244.856 286.286 245.246 286.562C245.64 286.839 246.102 286.977 246.632 286.977C246.981 286.977 247.297 286.917 247.581 286.795C247.865 286.674 248.106 286.5 248.303 286.273C248.5 286.045 248.64 285.773 248.723 285.455H250.064C249.988 285.97 249.801 286.434 249.501 286.847C249.206 287.256 248.814 287.581 248.325 287.824C247.84 288.062 247.276 288.182 246.632 288.182ZM253.365 282.75V288H252.024V276.364H253.365V280.636H253.479C253.683 280.186 253.99 279.828 254.399 279.562C254.812 279.294 255.361 279.159 256.047 279.159C256.642 279.159 257.162 279.278 257.609 279.517C258.056 279.752 258.403 280.114 258.649 280.602C258.899 281.087 259.024 281.705 259.024 282.455V288H257.683V282.545C257.683 281.852 257.503 281.316 257.143 280.938C256.787 280.555 256.293 280.364 255.661 280.364C255.221 280.364 254.827 280.456 254.479 280.642C254.134 280.828 253.861 281.098 253.661 281.455C253.464 281.811 253.365 282.242 253.365 282.75ZM269.523 288.182C268.735 288.182 268.044 287.994 267.449 287.619C266.858 287.244 266.396 286.72 266.062 286.045C265.733 285.371 265.568 284.583 265.568 283.682C265.568 282.773 265.733 281.979 266.062 281.301C266.396 280.623 266.858 280.097 267.449 279.722C268.044 279.347 268.735 279.159 269.523 279.159C270.311 279.159 271 279.347 271.591 279.722C272.186 280.097 272.648 280.623 272.977 281.301C273.311 281.979 273.477 282.773 273.477 283.682C273.477 284.583 273.311 285.371 272.977 286.045C272.648 286.72 272.186 287.244 271.591 287.619C271 287.994 270.311 288.182 269.523 288.182ZM269.523 286.977C270.121 286.977 270.614 286.824 271 286.517C271.386 286.21 271.672 285.807 271.858 285.307C272.044 284.807 272.136 284.265 272.136 283.682C272.136 283.098 272.044 282.555 271.858 282.051C271.672 281.547 271.386 281.14 271 280.83C270.614 280.519 270.121 280.364 269.523 280.364C268.924 280.364 268.432 280.519 268.045 280.83C267.659 281.14 267.373 281.547 267.188 282.051C267.002 282.555 266.909 283.098 266.909 283.682C266.909 284.265 267.002 284.807 267.188 285.307C267.373 285.807 267.659 286.21 268.045 286.517C268.432 286.824 268.924 286.977 269.523 286.977ZM281.024 284.432V279.273H282.365V288H281.024V286.523H280.933C280.729 286.966 280.411 287.343 279.979 287.653C279.547 287.96 279.001 288.114 278.342 288.114C277.797 288.114 277.312 287.994 276.888 287.756C276.464 287.513 276.13 287.15 275.888 286.665C275.645 286.176 275.524 285.561 275.524 284.818V279.273H276.865V284.727C276.865 285.364 277.043 285.871 277.399 286.25C277.759 286.629 278.217 286.818 278.774 286.818C279.107 286.818 279.446 286.733 279.791 286.562C280.14 286.392 280.431 286.131 280.666 285.778C280.905 285.426 281.024 284.977 281.024 284.432ZM288.616 279.273V280.409H284.094V279.273H288.616ZM285.412 277.182H286.753V285.5C286.753 285.879 286.808 286.163 286.918 286.352C287.031 286.538 287.175 286.663 287.349 286.727C287.527 286.788 287.715 286.818 287.912 286.818C288.06 286.818 288.181 286.811 288.276 286.795C288.37 286.777 288.446 286.761 288.503 286.75L288.776 287.955C288.685 287.989 288.558 288.023 288.395 288.057C288.232 288.095 288.026 288.114 287.776 288.114C287.397 288.114 287.026 288.032 286.662 287.869C286.302 287.706 286.003 287.458 285.764 287.125C285.529 286.792 285.412 286.371 285.412 285.864V277.182ZM298.929 279.273V280.409H294.406V279.273H298.929ZM295.724 277.182H297.065V285.5C297.065 285.879 297.12 286.163 297.23 286.352C297.344 286.538 297.488 286.663 297.662 286.727C297.84 286.788 298.027 286.818 298.224 286.818C298.372 286.818 298.493 286.811 298.588 286.795C298.683 286.777 298.759 286.761 298.815 286.75L299.088 287.955C298.997 287.989 298.87 288.023 298.707 288.057C298.545 288.095 298.338 288.114 298.088 288.114C297.709 288.114 297.338 288.032 296.974 287.869C296.615 287.706 296.315 287.458 296.077 287.125C295.842 286.792 295.724 286.371 295.724 285.864V277.182ZM304.398 288.182C303.61 288.182 302.919 287.994 302.324 287.619C301.733 287.244 301.271 286.72 300.938 286.045C300.608 285.371 300.443 284.583 300.443 283.682C300.443 282.773 300.608 281.979 300.938 281.301C301.271 280.623 301.733 280.097 302.324 279.722C302.919 279.347 303.61 279.159 304.398 279.159C305.186 279.159 305.875 279.347 306.466 279.722C307.061 280.097 307.523 280.623 307.852 281.301C308.186 281.979 308.352 282.773 308.352 283.682C308.352 284.583 308.186 285.371 307.852 286.045C307.523 286.72 307.061 287.244 306.466 287.619C305.875 287.994 305.186 288.182 304.398 288.182ZM304.398 286.977C304.996 286.977 305.489 286.824 305.875 286.517C306.261 286.21 306.547 285.807 306.733 285.307C306.919 284.807 307.011 284.265 307.011 283.682C307.011 283.098 306.919 282.555 306.733 282.051C306.547 281.547 306.261 281.14 305.875 280.83C305.489 280.519 304.996 280.364 304.398 280.364C303.799 280.364 303.307 280.519 302.92 280.83C302.534 281.14 302.248 281.547 302.062 282.051C301.877 282.555 301.784 283.098 301.784 283.682C301.784 284.265 301.877 284.807 302.062 285.307C302.248 285.807 302.534 286.21 302.92 286.517C303.307 286.824 303.799 286.977 304.398 286.977ZM318.445 288.182C317.657 288.182 316.965 287.994 316.371 287.619C315.78 287.244 315.318 286.72 314.984 286.045C314.655 285.371 314.49 284.583 314.49 283.682C314.49 282.773 314.655 281.979 314.984 281.301C315.318 280.623 315.78 280.097 316.371 279.722C316.965 279.347 317.657 279.159 318.445 279.159C319.232 279.159 319.922 279.347 320.513 279.722C321.107 280.097 321.57 280.623 321.899 281.301C322.232 281.979 322.399 282.773 322.399 283.682C322.399 284.583 322.232 285.371 321.899 286.045C321.57 286.72 321.107 287.244 320.513 287.619C319.922 287.994 319.232 288.182 318.445 288.182ZM318.445 286.977C319.043 286.977 319.536 286.824 319.922 286.517C320.308 286.21 320.594 285.807 320.78 285.307C320.965 284.807 321.058 284.265 321.058 283.682C321.058 283.098 320.965 282.555 320.78 282.051C320.594 281.547 320.308 281.14 319.922 280.83C319.536 280.519 319.043 280.364 318.445 280.364C317.846 280.364 317.354 280.519 316.967 280.83C316.581 281.14 316.295 281.547 316.109 282.051C315.924 282.555 315.831 283.098 315.831 283.682C315.831 284.265 315.924 284.807 316.109 285.307C316.295 285.807 316.581 286.21 316.967 286.517C317.354 286.824 317.846 286.977 318.445 286.977ZM329.946 284.432V279.273H331.287V288H329.946V286.523H329.855C329.651 286.966 329.332 287.343 328.901 287.653C328.469 287.96 327.923 288.114 327.264 288.114C326.719 288.114 326.234 287.994 325.81 287.756C325.385 287.513 325.052 287.15 324.81 286.665C324.567 286.176 324.446 285.561 324.446 284.818V279.273H325.787V284.727C325.787 285.364 325.965 285.871 326.321 286.25C326.681 286.629 327.139 286.818 327.696 286.818C328.029 286.818 328.368 286.733 328.713 286.562C329.062 286.392 329.353 286.131 329.588 285.778C329.827 285.426 329.946 284.977 329.946 284.432ZM333.743 288V279.273H335.038V280.591H335.129C335.288 280.159 335.576 279.809 335.993 279.54C336.41 279.271 336.879 279.136 337.402 279.136C337.5 279.136 337.624 279.138 337.771 279.142C337.919 279.146 338.031 279.152 338.107 279.159V280.523C338.061 280.511 337.957 280.494 337.794 280.472C337.635 280.445 337.466 280.432 337.288 280.432C336.864 280.432 336.485 280.521 336.152 280.699C335.822 280.873 335.561 281.116 335.368 281.426C335.179 281.733 335.084 282.083 335.084 282.477V288H333.743ZM18.7955 307.205C18.2424 307.205 17.7405 307.1 17.2898 306.892C16.839 306.68 16.4811 306.375 16.2159 305.977C15.9508 305.576 15.8182 305.091 15.8182 304.523C15.8182 304.023 15.9167 303.617 16.1136 303.307C16.3106 302.992 16.5739 302.746 16.9034 302.568C17.233 302.39 17.5966 302.258 17.9943 302.17C18.3958 302.08 18.7992 302.008 19.2045 301.955C19.7348 301.886 20.1648 301.835 20.4943 301.801C20.8277 301.763 21.0701 301.701 21.2216 301.614C21.3769 301.527 21.4545 301.375 21.4545 301.159V301.114C21.4545 300.553 21.3011 300.117 20.9943 299.807C20.6913 299.496 20.2311 299.341 19.6136 299.341C18.9735 299.341 18.4716 299.481 18.108 299.761C17.7443 300.042 17.4886 300.341 17.3409 300.659L16.0682 300.205C16.2955 299.674 16.5985 299.261 16.9773 298.966C17.3598 298.667 17.7765 298.458 18.2273 298.341C18.6818 298.22 19.1288 298.159 19.5682 298.159C19.8485 298.159 20.1705 298.193 20.5341 298.261C20.9015 298.326 21.2557 298.46 21.5966 298.665C21.9413 298.869 22.2273 299.178 22.4545 299.591C22.6818 300.004 22.7955 300.557 22.7955 301.25V307H21.4545V305.818H21.3864C21.2955 306.008 21.1439 306.21 20.9318 306.426C20.7197 306.642 20.4375 306.826 20.0852 306.977C19.733 307.129 19.303 307.205 18.7955 307.205ZM19 306C19.5303 306 19.9773 305.896 20.3409 305.688C20.7083 305.479 20.9848 305.21 21.1705 304.881C21.3598 304.551 21.4545 304.205 21.4545 303.841V302.614C21.3977 302.682 21.2727 302.744 21.0795 302.801C20.8902 302.854 20.6705 302.902 20.4205 302.943C20.1742 302.981 19.9337 303.015 19.6989 303.045C19.4678 303.072 19.2803 303.095 19.1364 303.114C18.7879 303.159 18.4621 303.233 18.1591 303.335C17.8598 303.434 17.6174 303.583 17.4318 303.784C17.25 303.981 17.1591 304.25 17.1591 304.591C17.1591 305.057 17.3314 305.409 17.6761 305.648C18.0246 305.883 18.4659 306 19 306ZM28.7656 310.455C28.1179 310.455 27.5611 310.371 27.0952 310.205C26.6293 310.042 26.241 309.826 25.9304 309.557C25.6236 309.292 25.3793 309.008 25.1974 308.705L26.2656 307.955C26.3868 308.114 26.5402 308.295 26.7259 308.5C26.9115 308.708 27.1652 308.888 27.4872 309.04C27.813 309.195 28.2391 309.273 28.7656 309.273C29.4702 309.273 30.0516 309.102 30.5099 308.761C30.9683 308.42 31.1974 307.886 31.1974 307.159V305.386H31.0838C30.9853 305.545 30.8452 305.742 30.6634 305.977C30.4853 306.208 30.2277 306.415 29.8906 306.597C29.5573 306.775 29.1065 306.864 28.5384 306.864C27.8338 306.864 27.2012 306.697 26.6406 306.364C26.0838 306.03 25.6425 305.545 25.3168 304.909C24.9948 304.273 24.8338 303.5 24.8338 302.591C24.8338 301.697 24.991 300.919 25.3054 300.256C25.6198 299.589 26.0573 299.074 26.6179 298.71C27.1785 298.343 27.8262 298.159 28.5611 298.159C29.1293 298.159 29.58 298.254 29.9134 298.443C30.2505 298.629 30.508 298.841 30.6861 299.08C30.8679 299.314 31.008 299.508 31.1065 299.659H31.2429V298.273H32.5384V307.25C32.5384 308 32.3679 308.61 32.027 309.08C31.6899 309.553 31.2353 309.9 30.6634 310.119C30.0952 310.343 29.4626 310.455 28.7656 310.455ZM28.7202 305.659C29.258 305.659 29.7126 305.536 30.0838 305.29C30.455 305.044 30.7372 304.689 30.9304 304.227C31.1236 303.765 31.2202 303.212 31.2202 302.568C31.2202 301.939 31.1255 301.384 30.9361 300.903C30.7467 300.422 30.4664 300.045 30.0952 299.773C29.724 299.5 29.2656 299.364 28.7202 299.364C28.152 299.364 27.6785 299.508 27.2997 299.795C26.9247 300.083 26.6425 300.47 26.4531 300.955C26.2675 301.439 26.1747 301.977 26.1747 302.568C26.1747 303.174 26.2694 303.71 26.4588 304.176C26.652 304.638 26.9361 305.002 27.3111 305.267C27.6899 305.528 28.1596 305.659 28.7202 305.659ZM38.652 307.182C37.8111 307.182 37.0857 306.996 36.4759 306.625C35.8698 306.25 35.402 305.727 35.0724 305.057C34.7467 304.383 34.5838 303.598 34.5838 302.705C34.5838 301.811 34.7467 301.023 35.0724 300.341C35.402 299.655 35.8603 299.121 36.4474 298.739C37.0384 298.352 37.7277 298.159 38.5156 298.159C38.9702 298.159 39.419 298.235 39.8622 298.386C40.3054 298.538 40.7088 298.784 41.0724 299.125C41.4361 299.462 41.7259 299.909 41.9418 300.466C42.1577 301.023 42.2656 301.708 42.2656 302.523V303.091H35.5384V301.932H40.902C40.902 301.439 40.8035 301 40.6065 300.614C40.4134 300.227 40.1368 299.922 39.777 299.699C39.4209 299.475 39.0005 299.364 38.5156 299.364C37.9815 299.364 37.5194 299.496 37.1293 299.761C36.7429 300.023 36.4455 300.364 36.2372 300.784C36.0289 301.205 35.9247 301.655 35.9247 302.136V302.909C35.9247 303.568 36.0384 304.127 36.2656 304.585C36.4967 305.04 36.8168 305.386 37.2259 305.625C37.6349 305.86 38.1103 305.977 38.652 305.977C39.0043 305.977 39.3224 305.928 39.6065 305.83C39.8944 305.727 40.1425 305.576 40.3509 305.375C40.5592 305.17 40.7202 304.917 40.8338 304.614L42.1293 304.977C41.9929 305.417 41.7637 305.803 41.4418 306.136C41.1198 306.466 40.7221 306.723 40.2486 306.909C39.7751 307.091 39.2429 307.182 38.652 307.182ZM45.6463 301.75V307H44.3054V298.273H45.6009V299.636H45.7145C45.919 299.193 46.2296 298.837 46.6463 298.568C47.063 298.295 47.6009 298.159 48.2599 298.159C48.8509 298.159 49.3679 298.28 49.8111 298.523C50.2543 298.761 50.599 299.125 50.8452 299.614C51.0914 300.098 51.2145 300.712 51.2145 301.455V307H49.8736V301.545C49.8736 300.86 49.6955 300.326 49.3395 299.943C48.9834 299.557 48.4948 299.364 47.8736 299.364C47.4455 299.364 47.063 299.456 46.7259 299.642C46.3925 299.828 46.1293 300.098 45.9361 300.455C45.7429 300.811 45.6463 301.242 45.6463 301.75ZM57.4602 298.273V299.409H52.9375V298.273H57.4602ZM54.2557 296.182H55.5966V304.5C55.5966 304.879 55.6515 305.163 55.7614 305.352C55.875 305.538 56.0189 305.663 56.1932 305.727C56.3712 305.788 56.5587 305.818 56.7557 305.818C56.9034 305.818 57.0246 305.811 57.1193 305.795C57.214 305.777 57.2898 305.761 57.3466 305.75L57.6193 306.955C57.5284 306.989 57.4015 307.023 57.2386 307.057C57.0758 307.095 56.8693 307.114 56.6193 307.114C56.2405 307.114 55.8693 307.032 55.5057 306.869C55.1458 306.706 54.8466 306.458 54.608 306.125C54.3731 305.792 54.2557 305.371 54.2557 304.864V296.182ZM60.4545 307.091C60.1742 307.091 59.9337 306.991 59.733 306.79C59.5322 306.589 59.4318 306.348 59.4318 306.068C59.4318 305.788 59.5322 305.547 59.733 305.347C59.9337 305.146 60.1742 305.045 60.4545 305.045C60.7348 305.045 60.9754 305.146 61.1761 305.347C61.3769 305.547 61.4773 305.788 61.4773 306.068C61.4773 306.254 61.4299 306.424 61.3352 306.58C61.2443 306.735 61.1212 306.86 60.9659 306.955C60.8144 307.045 60.6439 307.091 60.4545 307.091Z" fill="#232323"/>
</g>
<defs>
<clipPath id="clip0_170_57">
<rect width="404" height="403" rx="30" fill="white"/>
</clipPath>
</defs>
</svg>
