<svg width="404" height="403" viewBox="0 0 404 403" fill="none" xmlns="http://www.w3.org/2000/svg">
<rect width="404" height="403" rx="30" fill="#EEECEC"/>
<path d="M42.9858 119.565C42.9176 118.878 42.625 118.344 42.108 117.963C41.5909 117.582 40.8892 117.392 40.0028 117.392C39.4006 117.392 38.892 117.477 38.4773 117.648C38.0625 117.812 37.7443 118.043 37.5227 118.338C37.3068 118.634 37.1989 118.969 37.1989 119.344C37.1875 119.656 37.2528 119.929 37.3949 120.162C37.5426 120.395 37.7443 120.597 38 120.767C38.2557 120.932 38.5511 121.077 38.8864 121.202C39.2216 121.321 39.5795 121.423 39.9602 121.509L41.5284 121.884C42.2898 122.054 42.9886 122.281 43.625 122.565C44.2614 122.849 44.8125 123.199 45.2784 123.614C45.7443 124.028 46.1051 124.517 46.3608 125.08C46.6222 125.642 46.7557 126.287 46.7614 127.014C46.7557 128.082 46.483 129.009 45.9432 129.793C45.4091 130.571 44.6364 131.176 43.625 131.608C42.6193 132.034 41.4063 132.247 39.9858 132.247C38.5767 132.247 37.3494 132.031 36.304 131.599C35.2642 131.168 34.4517 130.528 33.8665 129.682C33.2869 128.83 32.983 127.776 32.9545 126.52H36.5256C36.5653 127.105 36.733 127.594 37.0284 127.986C37.3295 128.372 37.7301 128.665 38.2301 128.864C38.7358 129.057 39.3068 129.153 39.9432 129.153C40.5682 129.153 41.1108 129.062 41.571 128.881C42.0369 128.699 42.3977 128.446 42.6534 128.122C42.9091 127.798 43.0369 127.426 43.0369 127.006C43.0369 126.614 42.9205 126.284 42.6875 126.017C42.4602 125.75 42.125 125.523 41.6818 125.335C41.2443 125.148 40.7074 124.977 40.071 124.824L38.1705 124.347C36.6989 123.989 35.5369 123.429 34.6847 122.668C33.8324 121.906 33.4091 120.881 33.4148 119.591C33.4091 118.534 33.6903 117.611 34.2585 116.821C34.8324 116.031 35.6193 115.415 36.6193 114.972C37.6193 114.528 38.7557 114.307 40.0284 114.307C41.3239 114.307 42.4545 114.528 43.4205 114.972C44.392 115.415 45.1477 116.031 45.6875 116.821C46.2273 117.611 46.5057 118.526 46.5227 119.565H42.9858ZM56.1385 118.909V121.636H48.255V118.909H56.1385ZM50.0447 115.773H53.6754V127.977C53.6754 128.312 53.7266 128.574 53.8288 128.761C53.9311 128.943 54.0732 129.071 54.255 129.145C54.4425 129.219 54.6584 129.256 54.9027 129.256C55.0732 129.256 55.2436 129.241 55.4141 129.213C55.5845 129.179 55.7152 129.153 55.8061 129.136L56.3771 131.838C56.1953 131.895 55.9396 131.96 55.6101 132.034C55.2805 132.114 54.88 132.162 54.4084 132.179C53.5334 132.213 52.7663 132.097 52.1072 131.83C51.4538 131.562 50.9453 131.148 50.5817 130.585C50.218 130.023 50.0391 129.312 50.0447 128.455V115.773ZM64.3288 132.256C62.9822 132.256 61.8232 131.983 60.8516 131.438C59.8857 130.886 59.1413 130.108 58.6186 129.102C58.0959 128.091 57.8345 126.895 57.8345 125.514C57.8345 124.168 58.0959 122.986 58.6186 121.969C59.1413 120.952 59.8771 120.159 60.826 119.591C61.7805 119.023 62.8999 118.739 64.1839 118.739C65.0476 118.739 65.8516 118.878 66.5959 119.156C67.3459 119.429 67.9993 119.841 68.5561 120.392C69.1186 120.943 69.5561 121.636 69.8686 122.472C70.1811 123.301 70.3374 124.273 70.3374 125.386V126.384H59.2834V124.134H66.9197C66.9197 123.611 66.8061 123.148 66.5788 122.744C66.3516 122.341 66.0362 122.026 65.6328 121.798C65.2351 121.565 64.772 121.449 64.2436 121.449C63.6925 121.449 63.2038 121.577 62.7777 121.832C62.3572 122.082 62.0277 122.42 61.7891 122.847C61.5504 123.267 61.4283 123.736 61.4226 124.253V126.392C61.4226 127.04 61.5419 127.599 61.7805 128.071C62.0249 128.543 62.3686 128.906 62.8118 129.162C63.255 129.418 63.7805 129.545 64.3885 129.545C64.7919 129.545 65.1612 129.489 65.4964 129.375C65.8317 129.261 66.1186 129.091 66.3572 128.864C66.5959 128.636 66.7777 128.358 66.9027 128.028L70.2607 128.25C70.0902 129.057 69.7408 129.761 69.2124 130.364C68.6896 130.96 68.0135 131.426 67.1839 131.761C66.3601 132.091 65.4084 132.256 64.3288 132.256ZM72.7067 136.909V118.909H76.2862V121.108H76.4482C76.6072 120.756 76.8374 120.398 77.1385 120.034C77.4453 119.665 77.843 119.358 78.3317 119.114C78.826 118.864 79.4396 118.739 80.1726 118.739C81.1271 118.739 82.0078 118.989 82.8146 119.489C83.6214 119.983 84.2663 120.73 84.7493 121.73C85.2322 122.724 85.4737 123.972 85.4737 125.472C85.4737 126.932 85.2379 128.165 84.7663 129.17C84.3004 130.17 83.6641 130.929 82.8572 131.446C82.0561 131.957 81.1584 132.213 80.1641 132.213C79.4595 132.213 78.8601 132.097 78.3658 131.864C77.8771 131.631 77.4766 131.338 77.1641 130.986C76.8516 130.628 76.6129 130.267 76.4482 129.903H76.3374V136.909H72.7067ZM76.2607 125.455C76.2607 126.233 76.3686 126.912 76.5845 127.491C76.8004 128.071 77.1129 128.523 77.522 128.847C77.9311 129.165 78.4283 129.324 79.0135 129.324C79.6044 129.324 80.1044 129.162 80.5135 128.838C80.9226 128.509 81.2322 128.054 81.4425 127.474C81.6584 126.889 81.7663 126.216 81.7663 125.455C81.7663 124.699 81.6612 124.034 81.451 123.46C81.2408 122.886 80.9311 122.437 80.522 122.114C80.1129 121.79 79.6101 121.628 79.0135 121.628C78.4226 121.628 77.9226 121.784 77.5135 122.097C77.1101 122.409 76.8004 122.852 76.5845 123.426C76.3686 124 76.2607 124.676 76.2607 125.455Z" fill="#232323"/>
<rect x="123" y="92" width="65" height="63" rx="31.5" fill="#4281A4"/>
<path d="M158.509 114.545V132H154.818V118.048H154.716L150.719 120.554V117.281L155.04 114.545H158.509Z" fill="white"/>
<path d="M23.517 237V219.545H30.4034C31.7216 219.545 32.8466 219.781 33.7784 220.253C34.7159 220.719 35.429 221.381 35.9176 222.239C36.4119 223.091 36.6591 224.094 36.6591 225.247C36.6591 226.406 36.4091 227.403 35.9091 228.239C35.4091 229.068 34.6847 229.705 33.7358 230.148C32.7926 230.591 31.6506 230.812 30.3097 230.812H25.6989V227.847H29.7131C30.4176 227.847 31.0028 227.75 31.4688 227.557C31.9347 227.364 32.2813 227.074 32.5085 226.688C32.7415 226.301 32.858 225.821 32.858 225.247C32.858 224.668 32.7415 224.179 32.5085 223.781C32.2813 223.384 31.9318 223.082 31.4602 222.878C30.9943 222.668 30.4063 222.562 29.696 222.562H27.2074V237H23.517ZM32.9432 229.057L37.2812 237H33.2074L28.9631 229.057H32.9432ZM44.9538 237.256C43.6072 237.256 42.4482 236.983 41.4766 236.438C40.5107 235.886 39.7663 235.108 39.2436 234.102C38.7209 233.091 38.4595 231.895 38.4595 230.514C38.4595 229.168 38.7209 227.986 39.2436 226.969C39.7663 225.952 40.5021 225.159 41.451 224.591C42.4055 224.023 43.5249 223.739 44.8089 223.739C45.6726 223.739 46.4766 223.878 47.2209 224.156C47.9709 224.429 48.6243 224.841 49.1811 225.392C49.7436 225.943 50.1811 226.636 50.4936 227.472C50.8061 228.301 50.9624 229.273 50.9624 230.386V231.384H39.9084V229.134H47.5447C47.5447 228.611 47.4311 228.148 47.2038 227.744C46.9766 227.341 46.6612 227.026 46.2578 226.798C45.8601 226.565 45.397 226.449 44.8686 226.449C44.3175 226.449 43.8288 226.577 43.4027 226.832C42.9822 227.082 42.6527 227.42 42.4141 227.847C42.1754 228.267 42.0533 228.736 42.0476 229.253V231.392C42.0476 232.04 42.1669 232.599 42.4055 233.071C42.6499 233.543 42.9936 233.906 43.4368 234.162C43.88 234.418 44.4055 234.545 45.0135 234.545C45.4169 234.545 45.7862 234.489 46.1214 234.375C46.4567 234.261 46.7436 234.091 46.9822 233.864C47.2209 233.636 47.4027 233.358 47.5277 233.028L50.8857 233.25C50.7152 234.057 50.3658 234.761 49.8374 235.364C49.3146 235.96 48.6385 236.426 47.8089 236.761C46.9851 237.091 46.0334 237.256 44.9538 237.256ZM53.3317 241.909V223.909H56.9112V226.108H57.0732C57.2322 225.756 57.4624 225.398 57.7635 225.034C58.0703 224.665 58.468 224.358 58.9567 224.114C59.451 223.864 60.0646 223.739 60.7976 223.739C61.7521 223.739 62.6328 223.989 63.4396 224.489C64.2464 224.983 64.8913 225.73 65.3743 226.73C65.8572 227.724 66.0987 228.972 66.0987 230.472C66.0987 231.932 65.8629 233.165 65.3913 234.17C64.9254 235.17 64.2891 235.929 63.4822 236.446C62.6811 236.957 61.7834 237.213 60.7891 237.213C60.0845 237.213 59.4851 237.097 58.9908 236.864C58.5021 236.631 58.1016 236.338 57.7891 235.986C57.4766 235.628 57.2379 235.267 57.0732 234.903H56.9624V241.909H53.3317ZM56.8857 230.455C56.8857 231.233 56.9936 231.912 57.2095 232.491C57.4254 233.071 57.7379 233.523 58.147 233.847C58.5561 234.165 59.0533 234.324 59.6385 234.324C60.2294 234.324 60.7294 234.162 61.1385 233.838C61.5476 233.509 61.8572 233.054 62.0675 232.474C62.2834 231.889 62.3913 231.216 62.3913 230.455C62.3913 229.699 62.2862 229.034 62.076 228.46C61.8658 227.886 61.5561 227.437 61.147 227.114C60.7379 226.79 60.2351 226.628 59.6385 226.628C59.0476 226.628 58.5476 226.784 58.1385 227.097C57.7351 227.409 57.4254 227.852 57.2095 228.426C56.9936 229 56.8857 229.676 56.8857 230.455ZM74.4339 237.256C73.1101 237.256 71.9652 236.974 70.9993 236.412C70.0391 235.844 69.2976 235.054 68.7749 234.043C68.2521 233.026 67.9908 231.847 67.9908 230.506C67.9908 229.153 68.2521 227.972 68.7749 226.96C69.2976 225.943 70.0391 225.153 70.9993 224.591C71.9652 224.023 73.1101 223.739 74.4339 223.739C75.7578 223.739 76.8999 224.023 77.8601 224.591C78.826 225.153 79.5703 225.943 80.093 226.96C80.6158 227.972 80.8771 229.153 80.8771 230.506C80.8771 231.847 80.6158 233.026 80.093 234.043C79.5703 235.054 78.826 235.844 77.8601 236.412C76.8999 236.974 75.7578 237.256 74.4339 237.256ZM74.451 234.443C75.0533 234.443 75.5561 234.273 75.9595 233.932C76.3629 233.585 76.6669 233.114 76.8714 232.517C77.0817 231.92 77.1868 231.241 77.1868 230.48C77.1868 229.719 77.0817 229.04 76.8714 228.443C76.6669 227.847 76.3629 227.375 75.9595 227.028C75.5561 226.682 75.0533 226.509 74.451 226.509C73.843 226.509 73.3317 226.682 72.9169 227.028C72.5078 227.375 72.1982 227.847 71.9879 228.443C71.7834 229.04 71.6811 229.719 71.6811 230.48C71.6811 231.241 71.7834 231.92 71.9879 232.517C72.1982 233.114 72.5078 233.585 72.9169 233.932C73.3317 234.273 73.843 234.443 74.451 234.443ZM83.2379 237V223.909H86.7578V226.193H86.8942C87.1328 225.381 87.5334 224.767 88.0959 224.352C88.6584 223.932 89.3061 223.722 90.0391 223.722C90.2209 223.722 90.4169 223.733 90.6271 223.756C90.8374 223.778 91.022 223.81 91.1811 223.849V227.071C91.0107 227.02 90.7749 226.974 90.4737 226.935C90.1726 226.895 89.897 226.875 89.647 226.875C89.1129 226.875 88.6357 226.991 88.2152 227.224C87.8004 227.452 87.4709 227.77 87.2266 228.179C86.9879 228.588 86.8686 229.06 86.8686 229.594V237H83.2379ZM100.678 223.909V226.636H92.794V223.909H100.678ZM94.5838 220.773H98.2145V232.977C98.2145 233.312 98.2656 233.574 98.3679 233.761C98.4702 233.943 98.6122 234.071 98.794 234.145C98.9815 234.219 99.1974 234.256 99.4418 234.256C99.6122 234.256 99.7827 234.241 99.9531 234.213C100.124 234.179 100.254 234.153 100.345 234.136L100.916 236.838C100.734 236.895 100.479 236.96 100.149 237.034C99.8196 237.114 99.419 237.162 98.9474 237.179C98.0724 237.213 97.3054 237.097 96.6463 236.83C95.9929 236.562 95.4844 236.148 95.1207 235.585C94.7571 235.023 94.5781 234.312 94.5838 233.455V220.773ZM112.356 219.545V237H108.665V219.545H112.356ZM118.955 229.432V237H115.324V223.909H118.784V226.219H118.938C119.227 225.457 119.713 224.855 120.395 224.412C121.077 223.963 121.903 223.739 122.875 223.739C123.784 223.739 124.577 223.938 125.253 224.335C125.929 224.733 126.455 225.301 126.83 226.04C127.205 226.773 127.392 227.648 127.392 228.665V237H123.761V229.312C123.767 228.511 123.563 227.886 123.148 227.438C122.733 226.983 122.162 226.756 121.435 226.756C120.946 226.756 120.514 226.861 120.139 227.071C119.77 227.281 119.48 227.588 119.27 227.991C119.065 228.389 118.96 228.869 118.955 229.432ZM136.168 237.256C134.827 237.256 133.674 236.972 132.708 236.403C131.748 235.83 131.009 235.034 130.492 234.017C129.981 233 129.725 231.83 129.725 230.506C129.725 229.165 129.984 227.989 130.501 226.977C131.023 225.96 131.765 225.168 132.725 224.599C133.685 224.026 134.827 223.739 136.151 223.739C137.293 223.739 138.293 223.946 139.151 224.361C140.009 224.776 140.688 225.358 141.188 226.108C141.688 226.858 141.964 227.739 142.015 228.75H138.589C138.492 228.097 138.237 227.571 137.822 227.173C137.413 226.77 136.876 226.568 136.211 226.568C135.648 226.568 135.157 226.722 134.737 227.028C134.322 227.33 133.998 227.77 133.765 228.349C133.532 228.929 133.415 229.631 133.415 230.455C133.415 231.29 133.529 232 133.756 232.585C133.989 233.17 134.316 233.616 134.737 233.923C135.157 234.23 135.648 234.384 136.211 234.384C136.626 234.384 136.998 234.298 137.327 234.128C137.663 233.957 137.938 233.71 138.154 233.386C138.376 233.057 138.521 232.662 138.589 232.202H142.015C141.958 233.202 141.685 234.082 141.197 234.844C140.714 235.599 140.046 236.19 139.194 236.616C138.342 237.043 137.333 237.256 136.168 237.256ZM144.339 237V223.909H147.97V237H144.339ZM146.163 222.222C145.624 222.222 145.161 222.043 144.774 221.685C144.393 221.321 144.203 220.886 144.203 220.381C144.203 219.881 144.393 219.452 144.774 219.094C145.161 218.73 145.624 218.548 146.163 218.548C146.703 218.548 147.163 218.73 147.544 219.094C147.93 219.452 148.124 219.881 148.124 220.381C148.124 220.886 147.93 221.321 147.544 221.685C147.163 222.043 146.703 222.222 146.163 222.222ZM155.702 237.213C154.708 237.213 153.808 236.957 153.001 236.446C152.2 235.929 151.563 235.17 151.092 234.17C150.626 233.165 150.393 231.932 150.393 230.472C150.393 228.972 150.634 227.724 151.117 226.73C151.6 225.73 152.242 224.983 153.043 224.489C153.85 223.989 154.734 223.739 155.694 223.739C156.427 223.739 157.038 223.864 157.526 224.114C158.021 224.358 158.418 224.665 158.719 225.034C159.026 225.398 159.259 225.756 159.418 226.108H159.529V219.545H163.151V237H159.572V234.903H159.418C159.248 235.267 159.006 235.628 158.694 235.986C158.387 236.338 157.987 236.631 157.492 236.864C157.004 237.097 156.407 237.213 155.702 237.213ZM156.853 234.324C157.438 234.324 157.933 234.165 158.336 233.847C158.745 233.523 159.058 233.071 159.273 232.491C159.495 231.912 159.606 231.233 159.606 230.455C159.606 229.676 159.498 229 159.282 228.426C159.066 227.852 158.754 227.409 158.344 227.097C157.935 226.784 157.438 226.628 156.853 226.628C156.256 226.628 155.754 226.79 155.344 227.114C154.935 227.437 154.626 227.886 154.415 228.46C154.205 229.034 154.1 229.699 154.1 230.455C154.1 231.216 154.205 231.889 154.415 232.474C154.631 233.054 154.941 233.509 155.344 233.838C155.754 234.162 156.256 234.324 156.853 234.324ZM172.102 237.256C170.756 237.256 169.597 236.983 168.625 236.438C167.659 235.886 166.915 235.108 166.392 234.102C165.869 233.091 165.608 231.895 165.608 230.514C165.608 229.168 165.869 227.986 166.392 226.969C166.915 225.952 167.651 225.159 168.599 224.591C169.554 224.023 170.673 223.739 171.957 223.739C172.821 223.739 173.625 223.878 174.369 224.156C175.119 224.429 175.773 224.841 176.33 225.392C176.892 225.943 177.33 226.636 177.642 227.472C177.955 228.301 178.111 229.273 178.111 230.386V231.384H167.057V229.134H174.693C174.693 228.611 174.58 228.148 174.352 227.744C174.125 227.341 173.81 227.026 173.406 226.798C173.009 226.565 172.545 226.449 172.017 226.449C171.466 226.449 170.977 226.577 170.551 226.832C170.131 227.082 169.801 227.42 169.562 227.847C169.324 228.267 169.202 228.736 169.196 229.253V231.392C169.196 232.04 169.315 232.599 169.554 233.071C169.798 233.543 170.142 233.906 170.585 234.162C171.028 234.418 171.554 234.545 172.162 234.545C172.565 234.545 172.935 234.489 173.27 234.375C173.605 234.261 173.892 234.091 174.131 233.864C174.369 233.636 174.551 233.358 174.676 233.028L178.034 233.25C177.864 234.057 177.514 234.761 176.986 235.364C176.463 235.96 175.787 236.426 174.957 236.761C174.134 237.091 173.182 237.256 172.102 237.256ZM184.111 229.432V237H180.48V223.909H183.94V226.219H184.094C184.384 225.457 184.869 224.855 185.551 224.412C186.233 223.963 187.06 223.739 188.031 223.739C188.94 223.739 189.733 223.938 190.409 224.335C191.085 224.733 191.611 225.301 191.986 226.04C192.361 226.773 192.548 227.648 192.548 228.665V237H188.918V229.312C188.923 228.511 188.719 227.886 188.304 227.438C187.889 226.983 187.318 226.756 186.591 226.756C186.102 226.756 185.67 226.861 185.295 227.071C184.926 227.281 184.636 227.588 184.426 227.991C184.222 228.389 184.116 228.869 184.111 229.432ZM202.373 223.909V226.636H194.489V223.909H202.373ZM196.279 220.773H199.91V232.977C199.91 233.312 199.961 233.574 200.063 233.761C200.165 233.943 200.308 234.071 200.489 234.145C200.677 234.219 200.893 234.256 201.137 234.256C201.308 234.256 201.478 234.241 201.648 234.213C201.819 234.179 201.95 234.153 202.04 234.136L202.612 236.838C202.43 236.895 202.174 236.96 201.844 237.034C201.515 237.114 201.114 237.162 200.643 237.179C199.768 237.213 199.001 237.097 198.342 236.83C197.688 236.562 197.18 236.148 196.816 235.585C196.452 235.023 196.273 234.312 196.279 233.455V220.773Z" fill="#232323"/>
<path d="M32.7727 280H31.3636C31.2803 279.595 31.1345 279.239 30.9261 278.932C30.7216 278.625 30.4716 278.367 30.1761 278.159C29.8845 277.947 29.5606 277.788 29.2045 277.682C28.8485 277.576 28.4773 277.523 28.0909 277.523C27.3864 277.523 26.7481 277.701 26.1761 278.057C25.608 278.413 25.1553 278.938 24.8182 279.631C24.4848 280.324 24.3182 281.174 24.3182 282.182C24.3182 283.189 24.4848 284.04 24.8182 284.733C25.1553 285.426 25.608 285.951 26.1761 286.307C26.7481 286.663 27.3864 286.841 28.0909 286.841C28.4773 286.841 28.8485 286.788 29.2045 286.682C29.5606 286.576 29.8845 286.419 30.1761 286.21C30.4716 285.998 30.7216 285.739 30.9261 285.432C31.1345 285.121 31.2803 284.765 31.3636 284.364H32.7727C32.6667 284.958 32.4735 285.491 32.1932 285.96C31.9129 286.43 31.5644 286.83 31.1477 287.159C30.7311 287.485 30.2633 287.733 29.7443 287.903C29.2292 288.074 28.678 288.159 28.0909 288.159C27.0985 288.159 26.2159 287.917 25.4432 287.432C24.6705 286.947 24.0625 286.258 23.6193 285.364C23.1761 284.47 22.9545 283.409 22.9545 282.182C22.9545 280.955 23.1761 279.894 23.6193 279C24.0625 278.106 24.6705 277.417 25.4432 276.932C26.2159 276.447 27.0985 276.205 28.0909 276.205C28.678 276.205 29.2292 276.29 29.7443 276.46C30.2633 276.631 30.7311 276.881 31.1477 277.21C31.5644 277.536 31.9129 277.934 32.1932 278.403C32.4735 278.869 32.6667 279.402 32.7727 280ZM36.2088 282.75V288H34.8679V276.364H36.2088V280.636H36.3224C36.527 280.186 36.8338 279.828 37.2429 279.562C37.6558 279.294 38.205 279.159 38.8906 279.159C39.4853 279.159 40.0062 279.278 40.4531 279.517C40.9001 279.752 41.2467 280.114 41.4929 280.602C41.7429 281.087 41.8679 281.705 41.8679 282.455V288H40.527V282.545C40.527 281.852 40.3471 281.316 39.9872 280.938C39.6312 280.555 39.1368 280.364 38.5043 280.364C38.0649 280.364 37.6709 280.456 37.3224 280.642C36.9777 280.828 36.705 281.098 36.5043 281.455C36.3073 281.811 36.2088 282.242 36.2088 282.75ZM47.9801 288.182C47.1392 288.182 46.4138 287.996 45.804 287.625C45.1979 287.25 44.7301 286.727 44.4006 286.057C44.0748 285.383 43.9119 284.598 43.9119 283.705C43.9119 282.811 44.0748 282.023 44.4006 281.341C44.7301 280.655 45.1884 280.121 45.7756 279.739C46.3665 279.352 47.0559 279.159 47.8438 279.159C48.2983 279.159 48.7472 279.235 49.1903 279.386C49.6335 279.538 50.0369 279.784 50.4006 280.125C50.7642 280.462 51.054 280.909 51.2699 281.466C51.4858 282.023 51.5938 282.708 51.5938 283.523V284.091H44.8665V282.932H50.2301C50.2301 282.439 50.1316 282 49.9347 281.614C49.7415 281.227 49.465 280.922 49.1051 280.699C48.7491 280.475 48.3286 280.364 47.8438 280.364C47.3097 280.364 46.8475 280.496 46.4574 280.761C46.071 281.023 45.7737 281.364 45.5653 281.784C45.357 282.205 45.2528 282.655 45.2528 283.136V283.909C45.2528 284.568 45.3665 285.127 45.5938 285.585C45.8248 286.04 46.1449 286.386 46.554 286.625C46.9631 286.86 47.4384 286.977 47.9801 286.977C48.3324 286.977 48.6506 286.928 48.9347 286.83C49.2225 286.727 49.4706 286.576 49.679 286.375C49.8873 286.17 50.0483 285.917 50.1619 285.614L51.4574 285.977C51.321 286.417 51.0919 286.803 50.7699 287.136C50.4479 287.466 50.0502 287.723 49.5767 287.909C49.1032 288.091 48.571 288.182 47.9801 288.182ZM57.179 288.182C56.3608 288.182 55.6563 287.989 55.0653 287.602C54.4744 287.216 54.0199 286.684 53.7017 286.006C53.3835 285.328 53.2244 284.553 53.2244 283.682C53.2244 282.795 53.3873 282.013 53.7131 281.335C54.0426 280.653 54.5009 280.121 55.0881 279.739C55.679 279.352 56.3684 279.159 57.1562 279.159C57.7699 279.159 58.3229 279.273 58.8153 279.5C59.3078 279.727 59.7112 280.045 60.0256 280.455C60.34 280.864 60.535 281.341 60.6108 281.886H59.2699C59.1676 281.489 58.9403 281.136 58.5881 280.83C58.2396 280.519 57.7699 280.364 57.179 280.364C56.6563 280.364 56.1979 280.5 55.804 280.773C55.4138 281.042 55.1089 281.422 54.8892 281.915C54.6733 282.403 54.5653 282.977 54.5653 283.636C54.5653 284.311 54.6714 284.898 54.8835 285.398C55.0994 285.898 55.4025 286.286 55.7926 286.562C56.1866 286.839 56.6487 286.977 57.179 286.977C57.5275 286.977 57.8438 286.917 58.1278 286.795C58.4119 286.674 58.6525 286.5 58.8494 286.273C59.0464 286.045 59.1866 285.773 59.2699 285.455H60.6108C60.535 285.97 60.3475 286.434 60.0483 286.847C59.7528 287.256 59.3608 287.581 58.8722 287.824C58.3873 288.062 57.8229 288.182 57.179 288.182ZM63.821 284.818L63.7983 283.159H64.071L67.8892 279.273H69.5483L65.4801 283.386H65.3665L63.821 284.818ZM62.571 288V276.364H63.9119V288H62.571ZM68.1165 288L64.7074 283.682L65.6619 282.75L69.821 288H68.1165ZM79.3196 288.182C78.5317 288.182 77.8404 287.994 77.2457 287.619C76.6548 287.244 76.1927 286.72 75.8594 286.045C75.5298 285.371 75.3651 284.583 75.3651 283.682C75.3651 282.773 75.5298 281.979 75.8594 281.301C76.1927 280.623 76.6548 280.097 77.2457 279.722C77.8404 279.347 78.5317 279.159 79.3196 279.159C80.1075 279.159 80.7969 279.347 81.3878 279.722C81.9825 280.097 82.4446 280.623 82.7741 281.301C83.1075 281.979 83.2741 282.773 83.2741 283.682C83.2741 284.583 83.1075 285.371 82.7741 286.045C82.4446 286.72 81.9825 287.244 81.3878 287.619C80.7969 287.994 80.1075 288.182 79.3196 288.182ZM79.3196 286.977C79.9181 286.977 80.4105 286.824 80.7969 286.517C81.1832 286.21 81.4692 285.807 81.6548 285.307C81.8404 284.807 81.9332 284.265 81.9332 283.682C81.9332 283.098 81.8404 282.555 81.6548 282.051C81.4692 281.547 81.1832 281.14 80.7969 280.83C80.4105 280.519 79.9181 280.364 79.3196 280.364C78.7211 280.364 78.2287 280.519 77.8423 280.83C77.456 281.14 77.17 281.547 76.9844 282.051C76.7988 282.555 76.706 283.098 76.706 283.682C76.706 284.265 76.7988 284.807 76.9844 285.307C77.17 285.807 77.456 286.21 77.8423 286.517C78.2287 286.824 78.7211 286.977 79.3196 286.977ZM90.821 284.432V279.273H92.1619V288H90.821V286.523H90.7301C90.5256 286.966 90.2074 287.343 89.7756 287.653C89.3438 287.96 88.7983 288.114 88.1392 288.114C87.5938 288.114 87.1089 287.994 86.6847 287.756C86.2604 287.513 85.9271 287.15 85.6847 286.665C85.4422 286.176 85.321 285.561 85.321 284.818V279.273H86.6619V284.727C86.6619 285.364 86.84 285.871 87.196 286.25C87.5559 286.629 88.0142 286.818 88.571 286.818C88.9044 286.818 89.2434 286.733 89.5881 286.562C89.9366 286.392 90.2282 286.131 90.4631 285.778C90.7017 285.426 90.821 284.977 90.821 284.432ZM94.6179 288V279.273H95.9134V280.591H96.0043C96.1634 280.159 96.4512 279.809 96.8679 279.54C97.2846 279.271 97.7543 279.136 98.277 279.136C98.3755 279.136 98.4986 279.138 98.6463 279.142C98.794 279.146 98.9058 279.152 98.9815 279.159V280.523C98.9361 280.511 98.8319 280.494 98.669 280.472C98.5099 280.445 98.3414 280.432 98.1634 280.432C97.7391 280.432 97.3603 280.521 97.027 280.699C96.6974 280.873 96.4361 281.116 96.2429 281.426C96.0535 281.733 95.9588 282.083 95.9588 282.477V288H94.6179ZM108.616 288.182C107.798 288.182 107.094 287.989 106.503 287.602C105.912 287.216 105.457 286.684 105.139 286.006C104.821 285.328 104.662 284.553 104.662 283.682C104.662 282.795 104.825 282.013 105.151 281.335C105.48 280.653 105.938 280.121 106.526 279.739C107.116 279.352 107.806 279.159 108.594 279.159C109.207 279.159 109.76 279.273 110.253 279.5C110.745 279.727 111.149 280.045 111.463 280.455C111.777 280.864 111.973 281.341 112.048 281.886H110.707C110.605 281.489 110.378 281.136 110.026 280.83C109.677 280.519 109.207 280.364 108.616 280.364C108.094 280.364 107.635 280.5 107.241 280.773C106.851 281.042 106.546 281.422 106.327 281.915C106.111 282.403 106.003 282.977 106.003 283.636C106.003 284.311 106.109 284.898 106.321 285.398C106.537 285.898 106.84 286.286 107.23 286.562C107.624 286.839 108.086 286.977 108.616 286.977C108.965 286.977 109.281 286.917 109.565 286.795C109.849 286.674 110.09 286.5 110.287 286.273C110.484 286.045 110.624 285.773 110.707 285.455H112.048C111.973 285.97 111.785 286.434 111.486 286.847C111.19 287.256 110.798 287.581 110.31 287.824C109.825 288.062 109.26 288.182 108.616 288.182ZM117.554 288.182C116.766 288.182 116.075 287.994 115.48 287.619C114.889 287.244 114.427 286.72 114.094 286.045C113.764 285.371 113.599 284.583 113.599 283.682C113.599 282.773 113.764 281.979 114.094 281.301C114.427 280.623 114.889 280.097 115.48 279.722C116.075 279.347 116.766 279.159 117.554 279.159C118.342 279.159 119.031 279.347 119.622 279.722C120.217 280.097 120.679 280.623 121.009 281.301C121.342 281.979 121.509 282.773 121.509 283.682C121.509 284.583 121.342 285.371 121.009 286.045C120.679 286.72 120.217 287.244 119.622 287.619C119.031 287.994 118.342 288.182 117.554 288.182ZM117.554 286.977C118.152 286.977 118.645 286.824 119.031 286.517C119.418 286.21 119.704 285.807 119.889 285.307C120.075 284.807 120.168 284.265 120.168 283.682C120.168 283.098 120.075 282.555 119.889 282.051C119.704 281.547 119.418 281.14 119.031 280.83C118.645 280.519 118.152 280.364 117.554 280.364C116.955 280.364 116.463 280.519 116.077 280.83C115.69 281.14 115.404 281.547 115.219 282.051C115.033 282.555 114.94 283.098 114.94 283.682C114.94 284.265 115.033 284.807 115.219 285.307C115.404 285.807 115.69 286.21 116.077 286.517C116.463 286.824 116.955 286.977 117.554 286.977ZM124.896 282.75V288H123.555V279.273H124.851V280.636H124.964C125.169 280.193 125.48 279.837 125.896 279.568C126.313 279.295 126.851 279.159 127.51 279.159C128.101 279.159 128.618 279.28 129.061 279.523C129.504 279.761 129.849 280.125 130.095 280.614C130.341 281.098 130.464 281.712 130.464 282.455V288H129.124V282.545C129.124 281.86 128.946 281.326 128.589 280.943C128.233 280.557 127.745 280.364 127.124 280.364C126.696 280.364 126.313 280.456 125.976 280.642C125.643 280.828 125.379 281.098 125.186 281.455C124.993 281.811 124.896 282.242 124.896 282.75ZM136.71 279.273V280.409H132.188V279.273H136.71ZM133.506 277.182H134.847V285.5C134.847 285.879 134.902 286.163 135.011 286.352C135.125 286.538 135.269 286.663 135.443 286.727C135.621 286.788 135.809 286.818 136.006 286.818C136.153 286.818 136.275 286.811 136.369 286.795C136.464 286.777 136.54 286.761 136.597 286.75L136.869 287.955C136.778 287.989 136.652 288.023 136.489 288.057C136.326 288.095 136.119 288.114 135.869 288.114C135.491 288.114 135.119 288.032 134.756 287.869C134.396 287.706 134.097 287.458 133.858 287.125C133.623 286.792 133.506 286.371 133.506 285.864V277.182ZM141.295 288.205C140.742 288.205 140.241 288.1 139.79 287.892C139.339 287.68 138.981 287.375 138.716 286.977C138.451 286.576 138.318 286.091 138.318 285.523C138.318 285.023 138.417 284.617 138.614 284.307C138.811 283.992 139.074 283.746 139.403 283.568C139.733 283.39 140.097 283.258 140.494 283.17C140.896 283.08 141.299 283.008 141.705 282.955C142.235 282.886 142.665 282.835 142.994 282.801C143.328 282.763 143.57 282.701 143.722 282.614C143.877 282.527 143.955 282.375 143.955 282.159V282.114C143.955 281.553 143.801 281.117 143.494 280.807C143.191 280.496 142.731 280.341 142.114 280.341C141.473 280.341 140.972 280.481 140.608 280.761C140.244 281.042 139.989 281.341 139.841 281.659L138.568 281.205C138.795 280.674 139.098 280.261 139.477 279.966C139.86 279.667 140.277 279.458 140.727 279.341C141.182 279.22 141.629 279.159 142.068 279.159C142.348 279.159 142.67 279.193 143.034 279.261C143.402 279.326 143.756 279.46 144.097 279.665C144.441 279.869 144.727 280.178 144.955 280.591C145.182 281.004 145.295 281.557 145.295 282.25V288H143.955V286.818H143.886C143.795 287.008 143.644 287.21 143.432 287.426C143.22 287.642 142.938 287.826 142.585 287.977C142.233 288.129 141.803 288.205 141.295 288.205ZM141.5 287C142.03 287 142.477 286.896 142.841 286.688C143.208 286.479 143.485 286.21 143.67 285.881C143.86 285.551 143.955 285.205 143.955 284.841V283.614C143.898 283.682 143.773 283.744 143.58 283.801C143.39 283.854 143.17 283.902 142.92 283.943C142.674 283.981 142.434 284.015 142.199 284.045C141.968 284.072 141.78 284.095 141.636 284.114C141.288 284.159 140.962 284.233 140.659 284.335C140.36 284.434 140.117 284.583 139.932 284.784C139.75 284.981 139.659 285.25 139.659 285.591C139.659 286.057 139.831 286.409 140.176 286.648C140.525 286.883 140.966 287 141.5 287ZM151.288 288.182C150.47 288.182 149.766 287.989 149.175 287.602C148.584 287.216 148.129 286.684 147.811 286.006C147.493 285.328 147.334 284.553 147.334 283.682C147.334 282.795 147.497 282.013 147.822 281.335C148.152 280.653 148.61 280.121 149.197 279.739C149.788 279.352 150.478 279.159 151.266 279.159C151.879 279.159 152.432 279.273 152.925 279.5C153.417 279.727 153.821 280.045 154.135 280.455C154.449 280.864 154.644 281.341 154.72 281.886H153.379C153.277 281.489 153.05 281.136 152.697 280.83C152.349 280.519 151.879 280.364 151.288 280.364C150.766 280.364 150.307 280.5 149.913 280.773C149.523 281.042 149.218 281.422 148.999 281.915C148.783 282.403 148.675 282.977 148.675 283.636C148.675 284.311 148.781 284.898 148.993 285.398C149.209 285.898 149.512 286.286 149.902 286.562C150.296 286.839 150.758 286.977 151.288 286.977C151.637 286.977 151.953 286.917 152.237 286.795C152.521 286.674 152.762 286.5 152.959 286.273C153.156 286.045 153.296 285.773 153.379 285.455H154.72C154.644 285.97 154.457 286.434 154.158 286.847C153.862 287.256 153.47 287.581 152.982 287.824C152.497 288.062 151.932 288.182 151.288 288.182ZM160.476 279.273V280.409H155.953V279.273H160.476ZM157.271 277.182H158.612V285.5C158.612 285.879 158.667 286.163 158.777 286.352C158.891 286.538 159.035 286.663 159.209 286.727C159.387 286.788 159.574 286.818 159.771 286.818C159.919 286.818 160.04 286.811 160.135 286.795C160.23 286.777 160.305 286.761 160.362 286.75L160.635 287.955C160.544 287.989 160.417 288.023 160.254 288.057C160.091 288.095 159.885 288.114 159.635 288.114C159.256 288.114 158.885 288.032 158.521 287.869C158.161 287.706 157.862 287.458 157.624 287.125C157.389 286.792 157.271 286.371 157.271 285.864V277.182ZM168.334 276.364V288H166.993V276.364H168.334ZM170.79 288V279.273H172.131V288H170.79ZM171.472 277.818C171.21 277.818 170.985 277.729 170.795 277.551C170.61 277.373 170.517 277.159 170.517 276.909C170.517 276.659 170.61 276.445 170.795 276.267C170.985 276.089 171.21 276 171.472 276C171.733 276 171.956 276.089 172.142 276.267C172.331 276.445 172.426 276.659 172.426 276.909C172.426 277.159 172.331 277.373 172.142 277.551C171.956 277.729 171.733 277.818 171.472 277.818ZM180.768 281.227L179.564 281.568C179.488 281.367 179.376 281.172 179.229 280.983C179.085 280.79 178.888 280.631 178.638 280.506C178.388 280.381 178.068 280.318 177.678 280.318C177.143 280.318 176.698 280.441 176.342 280.688C175.99 280.93 175.814 281.239 175.814 281.614C175.814 281.947 175.935 282.21 176.178 282.403C176.42 282.597 176.799 282.758 177.314 282.886L178.609 283.205C179.39 283.394 179.971 283.684 180.354 284.074C180.736 284.46 180.928 284.958 180.928 285.568C180.928 286.068 180.784 286.515 180.496 286.909C180.212 287.303 179.814 287.614 179.303 287.841C178.791 288.068 178.196 288.182 177.518 288.182C176.628 288.182 175.892 287.989 175.308 287.602C174.725 287.216 174.356 286.652 174.2 285.909L175.473 285.591C175.594 286.061 175.823 286.413 176.161 286.648C176.501 286.883 176.946 287 177.496 287C178.121 287 178.617 286.867 178.984 286.602C179.356 286.333 179.541 286.011 179.541 285.636C179.541 285.333 179.435 285.08 179.223 284.875C179.011 284.667 178.685 284.511 178.246 284.409L176.791 284.068C175.992 283.879 175.405 283.585 175.03 283.188C174.659 282.786 174.473 282.284 174.473 281.682C174.473 281.189 174.611 280.754 174.888 280.375C175.168 279.996 175.549 279.699 176.03 279.483C176.515 279.267 177.064 279.159 177.678 279.159C178.541 279.159 179.219 279.348 179.712 279.727C180.208 280.106 180.56 280.606 180.768 281.227ZM186.741 279.273V280.409H182.219V279.273H186.741ZM183.537 277.182H184.878V285.5C184.878 285.879 184.933 286.163 185.043 286.352C185.156 286.538 185.3 286.663 185.474 286.727C185.652 286.788 185.84 286.818 186.037 286.818C186.185 286.818 186.306 286.811 186.401 286.795C186.495 286.777 186.571 286.761 186.628 286.75L186.901 287.955C186.81 287.989 186.683 288.023 186.52 288.057C186.357 288.095 186.151 288.114 185.901 288.114C185.522 288.114 185.151 288.032 184.787 287.869C184.427 287.706 184.128 287.458 183.889 287.125C183.654 286.792 183.537 286.371 183.537 285.864V277.182ZM195.827 288.205C195.274 288.205 194.772 288.1 194.321 287.892C193.87 287.68 193.512 287.375 193.247 286.977C192.982 286.576 192.849 286.091 192.849 285.523C192.849 285.023 192.948 284.617 193.145 284.307C193.342 283.992 193.605 283.746 193.935 283.568C194.264 283.39 194.628 283.258 195.026 283.17C195.427 283.08 195.83 283.008 196.236 282.955C196.766 282.886 197.196 282.835 197.526 282.801C197.859 282.763 198.101 282.701 198.253 282.614C198.408 282.527 198.486 282.375 198.486 282.159V282.114C198.486 281.553 198.332 281.117 198.026 280.807C197.723 280.496 197.262 280.341 196.645 280.341C196.005 280.341 195.503 280.481 195.139 280.761C194.776 281.042 194.52 281.341 194.372 281.659L193.099 281.205C193.327 280.674 193.63 280.261 194.009 279.966C194.391 279.667 194.808 279.458 195.259 279.341C195.713 279.22 196.16 279.159 196.599 279.159C196.88 279.159 197.202 279.193 197.565 279.261C197.933 279.326 198.287 279.46 198.628 279.665C198.973 279.869 199.259 280.178 199.486 280.591C199.713 281.004 199.827 281.557 199.827 282.25V288H198.486V286.818H198.418C198.327 287.008 198.175 287.21 197.963 287.426C197.751 287.642 197.469 287.826 197.116 287.977C196.764 288.129 196.334 288.205 195.827 288.205ZM196.031 287C196.562 287 197.009 286.896 197.372 286.688C197.74 286.479 198.016 286.21 198.202 285.881C198.391 285.551 198.486 285.205 198.486 284.841V283.614C198.429 283.682 198.304 283.744 198.111 283.801C197.921 283.854 197.702 283.902 197.452 283.943C197.205 283.981 196.965 284.015 196.73 284.045C196.499 284.072 196.312 284.095 196.168 284.114C195.819 284.159 195.493 284.233 195.19 284.335C194.891 284.434 194.649 284.583 194.463 284.784C194.281 284.981 194.19 285.25 194.19 285.591C194.19 286.057 194.363 286.409 194.707 286.648C195.056 286.883 195.497 287 196.031 287ZM203.615 282.75V288H202.274V279.273H203.57V280.636H203.683C203.888 280.193 204.198 279.837 204.615 279.568C205.032 279.295 205.57 279.159 206.229 279.159C206.82 279.159 207.337 279.28 207.78 279.523C208.223 279.761 208.568 280.125 208.814 280.614C209.06 281.098 209.183 281.712 209.183 282.455V288H207.842V282.545C207.842 281.86 207.664 281.326 207.308 280.943C206.952 280.557 206.464 280.364 205.842 280.364C205.414 280.364 205.032 280.456 204.695 280.642C204.361 280.828 204.098 281.098 203.905 281.455C203.712 281.811 203.615 282.242 203.615 282.75ZM214.929 288.182C214.202 288.182 213.56 287.998 213.003 287.631C212.446 287.259 212.01 286.737 211.696 286.062C211.382 285.384 211.224 284.583 211.224 283.659C211.224 282.742 211.382 281.947 211.696 281.273C212.01 280.598 212.448 280.078 213.009 279.71C213.569 279.343 214.217 279.159 214.952 279.159C215.52 279.159 215.969 279.254 216.298 279.443C216.632 279.629 216.885 279.841 217.06 280.08C217.238 280.314 217.376 280.508 217.474 280.659H217.588V276.364H218.929V288H217.634V286.659H217.474C217.376 286.818 217.236 287.019 217.054 287.261C216.872 287.5 216.613 287.714 216.276 287.903C215.938 288.089 215.49 288.182 214.929 288.182ZM215.111 286.977C215.649 286.977 216.103 286.837 216.474 286.557C216.846 286.273 217.128 285.881 217.321 285.381C217.514 284.877 217.611 284.295 217.611 283.636C217.611 282.985 217.516 282.415 217.327 281.926C217.137 281.434 216.857 281.051 216.486 280.778C216.115 280.502 215.656 280.364 215.111 280.364C214.543 280.364 214.069 280.509 213.69 280.801C213.315 281.089 213.033 281.481 212.844 281.977C212.658 282.47 212.565 283.023 212.565 283.636C212.565 284.258 212.66 284.822 212.849 285.33C213.043 285.833 213.327 286.235 213.702 286.534C214.08 286.83 214.55 286.977 215.111 286.977ZM226.071 288V279.273H227.366V280.591H227.457C227.616 280.159 227.904 279.809 228.321 279.54C228.738 279.271 229.207 279.136 229.73 279.136C229.829 279.136 229.952 279.138 230.099 279.142C230.247 279.146 230.359 279.152 230.435 279.159V280.523C230.389 280.511 230.285 280.494 230.122 280.472C229.963 280.445 229.795 280.432 229.616 280.432C229.192 280.432 228.813 280.521 228.48 280.699C228.151 280.873 227.889 281.116 227.696 281.426C227.507 281.733 227.412 282.083 227.412 282.477V288H226.071ZM235.418 288.182C234.577 288.182 233.851 287.996 233.241 287.625C232.635 287.25 232.168 286.727 231.838 286.057C231.512 285.383 231.349 284.598 231.349 283.705C231.349 282.811 231.512 282.023 231.838 281.341C232.168 280.655 232.626 280.121 233.213 279.739C233.804 279.352 234.493 279.159 235.281 279.159C235.736 279.159 236.185 279.235 236.628 279.386C237.071 279.538 237.474 279.784 237.838 280.125C238.202 280.462 238.491 280.909 238.707 281.466C238.923 282.023 239.031 282.708 239.031 283.523V284.091H232.304V282.932H237.668C237.668 282.439 237.569 282 237.372 281.614C237.179 281.227 236.902 280.922 236.543 280.699C236.187 280.475 235.766 280.364 235.281 280.364C234.747 280.364 234.285 280.496 233.895 280.761C233.509 281.023 233.211 281.364 233.003 281.784C232.795 282.205 232.69 282.655 232.69 283.136V283.909C232.69 284.568 232.804 285.127 233.031 285.585C233.262 286.04 233.582 286.386 233.991 286.625C234.401 286.86 234.876 286.977 235.418 286.977C235.77 286.977 236.088 286.928 236.372 286.83C236.66 286.727 236.908 286.576 237.116 286.375C237.325 286.17 237.486 285.917 237.599 285.614L238.895 285.977C238.759 286.417 238.529 286.803 238.207 287.136C237.885 287.466 237.488 287.723 237.014 287.909C236.541 288.091 236.009 288.182 235.418 288.182ZM243.639 288.205C243.086 288.205 242.584 288.1 242.134 287.892C241.683 287.68 241.325 287.375 241.06 286.977C240.795 286.576 240.662 286.091 240.662 285.523C240.662 285.023 240.76 284.617 240.957 284.307C241.154 283.992 241.418 283.746 241.747 283.568C242.077 283.39 242.44 283.258 242.838 283.17C243.24 283.08 243.643 283.008 244.048 282.955C244.579 282.886 245.009 282.835 245.338 282.801C245.671 282.763 245.914 282.701 246.065 282.614C246.221 282.527 246.298 282.375 246.298 282.159V282.114C246.298 281.553 246.145 281.117 245.838 280.807C245.535 280.496 245.075 280.341 244.457 280.341C243.817 280.341 243.315 280.481 242.952 280.761C242.588 281.042 242.332 281.341 242.185 281.659L240.912 281.205C241.139 280.674 241.442 280.261 241.821 279.966C242.204 279.667 242.62 279.458 243.071 279.341C243.526 279.22 243.973 279.159 244.412 279.159C244.692 279.159 245.014 279.193 245.378 279.261C245.745 279.326 246.099 279.46 246.44 279.665C246.785 279.869 247.071 280.178 247.298 280.591C247.526 281.004 247.639 281.557 247.639 282.25V288H246.298V286.818H246.23C246.139 287.008 245.988 287.21 245.776 287.426C245.563 287.642 245.281 287.826 244.929 287.977C244.577 288.129 244.147 288.205 243.639 288.205ZM243.844 287C244.374 287 244.821 286.896 245.185 286.688C245.552 286.479 245.829 286.21 246.014 285.881C246.204 285.551 246.298 285.205 246.298 284.841V283.614C246.241 283.682 246.116 283.744 245.923 283.801C245.734 283.854 245.514 283.902 245.264 283.943C245.018 283.981 244.777 284.015 244.543 284.045C244.312 284.072 244.124 284.095 243.98 284.114C243.632 284.159 243.306 284.233 243.003 284.335C242.704 284.434 242.461 284.583 242.276 284.784C242.094 284.981 242.003 285.25 242.003 285.591C242.003 286.057 242.175 286.409 242.52 286.648C242.868 286.883 243.31 287 243.844 287ZM253.632 288.182C252.814 288.182 252.109 287.989 251.518 287.602C250.928 287.216 250.473 286.684 250.155 286.006C249.837 285.328 249.678 284.553 249.678 283.682C249.678 282.795 249.84 282.013 250.166 281.335C250.496 280.653 250.954 280.121 251.541 279.739C252.132 279.352 252.821 279.159 253.609 279.159C254.223 279.159 254.776 279.273 255.268 279.5C255.761 279.727 256.164 280.045 256.479 280.455C256.793 280.864 256.988 281.341 257.064 281.886H255.723C255.621 281.489 255.393 281.136 255.041 280.83C254.693 280.519 254.223 280.364 253.632 280.364C253.109 280.364 252.651 280.5 252.257 280.773C251.867 281.042 251.562 281.422 251.342 281.915C251.126 282.403 251.018 282.977 251.018 283.636C251.018 284.311 251.125 284.898 251.337 285.398C251.553 285.898 251.856 286.286 252.246 286.562C252.64 286.839 253.102 286.977 253.632 286.977C253.981 286.977 254.297 286.917 254.581 286.795C254.865 286.674 255.106 286.5 255.303 286.273C255.5 286.045 255.64 285.773 255.723 285.455H257.064C256.988 285.97 256.801 286.434 256.501 286.847C256.206 287.256 255.814 287.581 255.325 287.824C254.84 288.062 254.276 288.182 253.632 288.182ZM260.365 282.75V288H259.024V276.364H260.365V280.636H260.479C260.683 280.186 260.99 279.828 261.399 279.562C261.812 279.294 262.361 279.159 263.047 279.159C263.642 279.159 264.162 279.278 264.609 279.517C265.056 279.752 265.403 280.114 265.649 280.602C265.899 281.087 266.024 281.705 266.024 282.455V288H264.683V282.545C264.683 281.852 264.503 281.316 264.143 280.938C263.787 280.555 263.293 280.364 262.661 280.364C262.221 280.364 261.827 280.456 261.479 280.642C261.134 280.828 260.861 281.098 260.661 281.455C260.464 281.811 260.365 282.242 260.365 282.75ZM276.523 288.182C275.735 288.182 275.044 287.994 274.449 287.619C273.858 287.244 273.396 286.72 273.062 286.045C272.733 285.371 272.568 284.583 272.568 283.682C272.568 282.773 272.733 281.979 273.062 281.301C273.396 280.623 273.858 280.097 274.449 279.722C275.044 279.347 275.735 279.159 276.523 279.159C277.311 279.159 278 279.347 278.591 279.722C279.186 280.097 279.648 280.623 279.977 281.301C280.311 281.979 280.477 282.773 280.477 283.682C280.477 284.583 280.311 285.371 279.977 286.045C279.648 286.72 279.186 287.244 278.591 287.619C278 287.994 277.311 288.182 276.523 288.182ZM276.523 286.977C277.121 286.977 277.614 286.824 278 286.517C278.386 286.21 278.672 285.807 278.858 285.307C279.044 284.807 279.136 284.265 279.136 283.682C279.136 283.098 279.044 282.555 278.858 282.051C278.672 281.547 278.386 281.14 278 280.83C277.614 280.519 277.121 280.364 276.523 280.364C275.924 280.364 275.432 280.519 275.045 280.83C274.659 281.14 274.373 281.547 274.188 282.051C274.002 282.555 273.909 283.098 273.909 283.682C273.909 284.265 274.002 284.807 274.188 285.307C274.373 285.807 274.659 286.21 275.045 286.517C275.432 286.824 275.924 286.977 276.523 286.977ZM288.024 284.432V279.273H289.365V288H288.024V286.523H287.933C287.729 286.966 287.411 287.343 286.979 287.653C286.547 287.96 286.001 288.114 285.342 288.114C284.797 288.114 284.312 287.994 283.888 287.756C283.464 287.513 283.13 287.15 282.888 286.665C282.645 286.176 282.524 285.561 282.524 284.818V279.273H283.865V284.727C283.865 285.364 284.043 285.871 284.399 286.25C284.759 286.629 285.217 286.818 285.774 286.818C286.107 286.818 286.446 286.733 286.791 286.562C287.14 286.392 287.431 286.131 287.666 285.778C287.905 285.426 288.024 284.977 288.024 284.432ZM295.616 279.273V280.409H291.094V279.273H295.616ZM292.412 277.182H293.753V285.5C293.753 285.879 293.808 286.163 293.918 286.352C294.031 286.538 294.175 286.663 294.349 286.727C294.527 286.788 294.715 286.818 294.912 286.818C295.06 286.818 295.181 286.811 295.276 286.795C295.37 286.777 295.446 286.761 295.503 286.75L295.776 287.955C295.685 287.989 295.558 288.023 295.395 288.057C295.232 288.095 295.026 288.114 294.776 288.114C294.397 288.114 294.026 288.032 293.662 287.869C293.302 287.706 293.003 287.458 292.764 287.125C292.529 286.792 292.412 286.371 292.412 285.864V277.182ZM305.929 279.273V280.409H301.406V279.273H305.929ZM302.724 277.182H304.065V285.5C304.065 285.879 304.12 286.163 304.23 286.352C304.344 286.538 304.488 286.663 304.662 286.727C304.84 286.788 305.027 286.818 305.224 286.818C305.372 286.818 305.493 286.811 305.588 286.795C305.683 286.777 305.759 286.761 305.815 286.75L306.088 287.955C305.997 287.989 305.87 288.023 305.707 288.057C305.545 288.095 305.338 288.114 305.088 288.114C304.709 288.114 304.338 288.032 303.974 287.869C303.615 287.706 303.315 287.458 303.077 287.125C302.842 286.792 302.724 286.371 302.724 285.864V277.182ZM311.398 288.182C310.61 288.182 309.919 287.994 309.324 287.619C308.733 287.244 308.271 286.72 307.938 286.045C307.608 285.371 307.443 284.583 307.443 283.682C307.443 282.773 307.608 281.979 307.938 281.301C308.271 280.623 308.733 280.097 309.324 279.722C309.919 279.347 310.61 279.159 311.398 279.159C312.186 279.159 312.875 279.347 313.466 279.722C314.061 280.097 314.523 280.623 314.852 281.301C315.186 281.979 315.352 282.773 315.352 283.682C315.352 284.583 315.186 285.371 314.852 286.045C314.523 286.72 314.061 287.244 313.466 287.619C312.875 287.994 312.186 288.182 311.398 288.182ZM311.398 286.977C311.996 286.977 312.489 286.824 312.875 286.517C313.261 286.21 313.547 285.807 313.733 285.307C313.919 284.807 314.011 284.265 314.011 283.682C314.011 283.098 313.919 282.555 313.733 282.051C313.547 281.547 313.261 281.14 312.875 280.83C312.489 280.519 311.996 280.364 311.398 280.364C310.799 280.364 310.307 280.519 309.92 280.83C309.534 281.14 309.248 281.547 309.062 282.051C308.877 282.555 308.784 283.098 308.784 283.682C308.784 284.265 308.877 284.807 309.062 285.307C309.248 285.807 309.534 286.21 309.92 286.517C310.307 286.824 310.799 286.977 311.398 286.977ZM325.445 288.182C324.657 288.182 323.965 287.994 323.371 287.619C322.78 287.244 322.318 286.72 321.984 286.045C321.655 285.371 321.49 284.583 321.49 283.682C321.49 282.773 321.655 281.979 321.984 281.301C322.318 280.623 322.78 280.097 323.371 279.722C323.965 279.347 324.657 279.159 325.445 279.159C326.232 279.159 326.922 279.347 327.513 279.722C328.107 280.097 328.57 280.623 328.899 281.301C329.232 281.979 329.399 282.773 329.399 283.682C329.399 284.583 329.232 285.371 328.899 286.045C328.57 286.72 328.107 287.244 327.513 287.619C326.922 287.994 326.232 288.182 325.445 288.182ZM325.445 286.977C326.043 286.977 326.536 286.824 326.922 286.517C327.308 286.21 327.594 285.807 327.78 285.307C327.965 284.807 328.058 284.265 328.058 283.682C328.058 283.098 327.965 282.555 327.78 282.051C327.594 281.547 327.308 281.14 326.922 280.83C326.536 280.519 326.043 280.364 325.445 280.364C324.846 280.364 324.354 280.519 323.967 280.83C323.581 281.14 323.295 281.547 323.109 282.051C322.924 282.555 322.831 283.098 322.831 283.682C322.831 284.265 322.924 284.807 323.109 285.307C323.295 285.807 323.581 286.21 323.967 286.517C324.354 286.824 324.846 286.977 325.445 286.977ZM336.946 284.432V279.273H338.287V288H336.946V286.523H336.855C336.651 286.966 336.332 287.343 335.901 287.653C335.469 287.96 334.923 288.114 334.264 288.114C333.719 288.114 333.234 287.994 332.81 287.756C332.385 287.513 332.052 287.15 331.81 286.665C331.567 286.176 331.446 285.561 331.446 284.818V279.273H332.787V284.727C332.787 285.364 332.965 285.871 333.321 286.25C333.681 286.629 334.139 286.818 334.696 286.818C335.029 286.818 335.368 286.733 335.713 286.562C336.062 286.392 336.353 286.131 336.588 285.778C336.827 285.426 336.946 284.977 336.946 284.432ZM340.743 288V279.273H342.038V280.591H342.129C342.288 280.159 342.576 279.809 342.993 279.54C343.41 279.271 343.879 279.136 344.402 279.136C344.5 279.136 344.624 279.138 344.771 279.142C344.919 279.146 345.031 279.152 345.107 279.159V280.523C345.061 280.511 344.957 280.494 344.794 280.472C344.635 280.445 344.466 280.432 344.288 280.432C343.864 280.432 343.485 280.521 343.152 280.699C342.822 280.873 342.561 281.116 342.368 281.426C342.179 281.733 342.084 282.083 342.084 282.477V288H340.743ZM25.7955 307.205C25.2424 307.205 24.7405 307.1 24.2898 306.892C23.839 306.68 23.4811 306.375 23.2159 305.977C22.9508 305.576 22.8182 305.091 22.8182 304.523C22.8182 304.023 22.9167 303.617 23.1136 303.307C23.3106 302.992 23.5739 302.746 23.9034 302.568C24.233 302.39 24.5966 302.258 24.9943 302.17C25.3958 302.08 25.7992 302.008 26.2045 301.955C26.7348 301.886 27.1648 301.835 27.4943 301.801C27.8277 301.763 28.0701 301.701 28.2216 301.614C28.3769 301.527 28.4545 301.375 28.4545 301.159V301.114C28.4545 300.553 28.3011 300.117 27.9943 299.807C27.6913 299.496 27.2311 299.341 26.6136 299.341C25.9735 299.341 25.4716 299.481 25.108 299.761C24.7443 300.042 24.4886 300.341 24.3409 300.659L23.0682 300.205C23.2955 299.674 23.5985 299.261 23.9773 298.966C24.3598 298.667 24.7765 298.458 25.2273 298.341C25.6818 298.22 26.1288 298.159 26.5682 298.159C26.8485 298.159 27.1705 298.193 27.5341 298.261C27.9015 298.326 28.2557 298.46 28.5966 298.665C28.9413 298.869 29.2273 299.178 29.4545 299.591C29.6818 300.004 29.7955 300.557 29.7955 301.25V307H28.4545V305.818H28.3864C28.2955 306.008 28.1439 306.21 27.9318 306.426C27.7197 306.642 27.4375 306.826 27.0852 306.977C26.733 307.129 26.303 307.205 25.7955 307.205ZM26 306C26.5303 306 26.9773 305.896 27.3409 305.688C27.7083 305.479 27.9848 305.21 28.1705 304.881C28.3598 304.551 28.4545 304.205 28.4545 303.841V302.614C28.3977 302.682 28.2727 302.744 28.0795 302.801C27.8902 302.854 27.6705 302.902 27.4205 302.943C27.1742 302.981 26.9337 303.015 26.6989 303.045C26.4678 303.072 26.2803 303.095 26.1364 303.114C25.7879 303.159 25.4621 303.233 25.1591 303.335C24.8598 303.434 24.6174 303.583 24.4318 303.784C24.25 303.981 24.1591 304.25 24.1591 304.591C24.1591 305.057 24.3314 305.409 24.6761 305.648C25.0246 305.883 25.4659 306 26 306ZM35.7656 310.455C35.1179 310.455 34.5611 310.371 34.0952 310.205C33.6293 310.042 33.241 309.826 32.9304 309.557C32.6236 309.292 32.3793 309.008 32.1974 308.705L33.2656 307.955C33.3868 308.114 33.5402 308.295 33.7259 308.5C33.9115 308.708 34.1652 308.888 34.4872 309.04C34.813 309.195 35.2391 309.273 35.7656 309.273C36.4702 309.273 37.0516 309.102 37.5099 308.761C37.9683 308.42 38.1974 307.886 38.1974 307.159V305.386H38.0838C37.9853 305.545 37.8452 305.742 37.6634 305.977C37.4853 306.208 37.2277 306.415 36.8906 306.597C36.5573 306.775 36.1065 306.864 35.5384 306.864C34.8338 306.864 34.2012 306.697 33.6406 306.364C33.0838 306.03 32.6425 305.545 32.3168 304.909C31.9948 304.273 31.8338 303.5 31.8338 302.591C31.8338 301.697 31.991 300.919 32.3054 300.256C32.6198 299.589 33.0573 299.074 33.6179 298.71C34.1785 298.343 34.8262 298.159 35.5611 298.159C36.1293 298.159 36.58 298.254 36.9134 298.443C37.2505 298.629 37.508 298.841 37.6861 299.08C37.8679 299.314 38.008 299.508 38.1065 299.659H38.2429V298.273H39.5384V307.25C39.5384 308 39.3679 308.61 39.027 309.08C38.6899 309.553 38.2353 309.9 37.6634 310.119C37.0952 310.343 36.4626 310.455 35.7656 310.455ZM35.7202 305.659C36.258 305.659 36.7126 305.536 37.0838 305.29C37.455 305.044 37.7372 304.689 37.9304 304.227C38.1236 303.765 38.2202 303.212 38.2202 302.568C38.2202 301.939 38.1255 301.384 37.9361 300.903C37.7467 300.422 37.4664 300.045 37.0952 299.773C36.724 299.5 36.2656 299.364 35.7202 299.364C35.152 299.364 34.6785 299.508 34.2997 299.795C33.9247 300.083 33.6425 300.47 33.4531 300.955C33.2675 301.439 33.1747 301.977 33.1747 302.568C33.1747 303.174 33.2694 303.71 33.4588 304.176C33.652 304.638 33.9361 305.002 34.3111 305.267C34.6899 305.528 35.1596 305.659 35.7202 305.659ZM45.652 307.182C44.8111 307.182 44.0857 306.996 43.4759 306.625C42.8698 306.25 42.402 305.727 42.0724 305.057C41.7467 304.383 41.5838 303.598 41.5838 302.705C41.5838 301.811 41.7467 301.023 42.0724 300.341C42.402 299.655 42.8603 299.121 43.4474 298.739C44.0384 298.352 44.7277 298.159 45.5156 298.159C45.9702 298.159 46.419 298.235 46.8622 298.386C47.3054 298.538 47.7088 298.784 48.0724 299.125C48.4361 299.462 48.7259 299.909 48.9418 300.466C49.1577 301.023 49.2656 301.708 49.2656 302.523V303.091H42.5384V301.932H47.902C47.902 301.439 47.8035 301 47.6065 300.614C47.4134 300.227 47.1368 299.922 46.777 299.699C46.4209 299.475 46.0005 299.364 45.5156 299.364C44.9815 299.364 44.5194 299.496 44.1293 299.761C43.7429 300.023 43.4455 300.364 43.2372 300.784C43.0289 301.205 42.9247 301.655 42.9247 302.136V302.909C42.9247 303.568 43.0384 304.127 43.2656 304.585C43.4967 305.04 43.8168 305.386 44.2259 305.625C44.6349 305.86 45.1103 305.977 45.652 305.977C46.0043 305.977 46.3224 305.928 46.6065 305.83C46.8944 305.727 47.1425 305.576 47.3509 305.375C47.5592 305.17 47.7202 304.917 47.8338 304.614L49.1293 304.977C48.9929 305.417 48.7637 305.803 48.4418 306.136C48.1198 306.466 47.7221 306.723 47.2486 306.909C46.7751 307.091 46.2429 307.182 45.652 307.182ZM52.6463 301.75V307H51.3054V298.273H52.6009V299.636H52.7145C52.919 299.193 53.2296 298.837 53.6463 298.568C54.063 298.295 54.6009 298.159 55.2599 298.159C55.8509 298.159 56.3679 298.28 56.8111 298.523C57.2543 298.761 57.599 299.125 57.8452 299.614C58.0914 300.098 58.2145 300.712 58.2145 301.455V307H56.8736V301.545C56.8736 300.86 56.6955 300.326 56.3395 299.943C55.9834 299.557 55.4948 299.364 54.8736 299.364C54.4455 299.364 54.063 299.456 53.7259 299.642C53.3925 299.828 53.1293 300.098 52.9361 300.455C52.7429 300.811 52.6463 301.242 52.6463 301.75ZM64.4602 298.273V299.409H59.9375V298.273H64.4602ZM61.2557 296.182H62.5966V304.5C62.5966 304.879 62.6515 305.163 62.7614 305.352C62.875 305.538 63.0189 305.663 63.1932 305.727C63.3712 305.788 63.5587 305.818 63.7557 305.818C63.9034 305.818 64.0246 305.811 64.1193 305.795C64.214 305.777 64.2898 305.761 64.3466 305.75L64.6193 306.955C64.5284 306.989 64.4015 307.023 64.2386 307.057C64.0758 307.095 63.8693 307.114 63.6193 307.114C63.2405 307.114 62.8693 307.032 62.5057 306.869C62.1458 306.706 61.8466 306.458 61.608 306.125C61.3731 305.792 61.2557 305.371 61.2557 304.864V296.182ZM67.4545 307.091C67.1742 307.091 66.9337 306.991 66.733 306.79C66.5322 306.589 66.4318 306.348 66.4318 306.068C66.4318 305.788 66.5322 305.547 66.733 305.347C66.9337 305.146 67.1742 305.045 67.4545 305.045C67.7348 305.045 67.9754 305.146 68.1761 305.347C68.3769 305.547 68.4773 305.788 68.4773 306.068C68.4773 306.254 68.4299 306.424 68.3352 306.58C68.2443 306.735 68.1212 306.86 67.9659 306.955C67.8144 307.045 67.6439 307.091 67.4545 307.091Z" fill="#232323"/>
</svg>
