<svg width="403" height="403" viewBox="0 0 403 403" fill="none" xmlns="http://www.w3.org/2000/svg">
<rect width="404" height="403" rx="30" fill="#EEECEC"/>
<path d="M42.9858 106.565C42.9176 105.878 42.625 105.344 42.108 104.963C41.5909 104.582 40.8892 104.392 40.0028 104.392C39.4006 104.392 38.892 104.477 38.4773 104.648C38.0625 104.812 37.7443 105.043 37.5227 105.338C37.3068 105.634 37.1989 105.969 37.1989 106.344C37.1875 106.656 37.2528 106.929 37.3949 107.162C37.5426 107.395 37.7443 107.597 38 107.767C38.2557 107.932 38.5511 108.077 38.8864 108.202C39.2216 108.321 39.5795 108.423 39.9602 108.509L41.5284 108.884C42.2898 109.054 42.9886 109.281 43.625 109.565C44.2614 109.849 44.8125 110.199 45.2784 110.614C45.7443 111.028 46.1051 111.517 46.3608 112.08C46.6222 112.642 46.7557 113.287 46.7614 114.014C46.7557 115.082 46.483 116.009 45.9432 116.793C45.4091 117.571 44.6364 118.176 43.625 118.608C42.6193 119.034 41.4063 119.247 39.9858 119.247C38.5767 119.247 37.3494 119.031 36.304 118.599C35.2642 118.168 34.4517 117.528 33.8665 116.682C33.2869 115.83 32.983 114.776 32.9545 113.52H36.5256C36.5653 114.105 36.733 114.594 37.0284 114.986C37.3295 115.372 37.7301 115.665 38.2301 115.864C38.7358 116.057 39.3068 116.153 39.9432 116.153C40.5682 116.153 41.1108 116.062 41.571 115.881C42.0369 115.699 42.3977 115.446 42.6534 115.122C42.9091 114.798 43.0369 114.426 43.0369 114.006C43.0369 113.614 42.9205 113.284 42.6875 113.017C42.4602 112.75 42.125 112.523 41.6818 112.335C41.2443 112.148 40.7074 111.977 40.071 111.824L38.1705 111.347C36.6989 110.989 35.5369 110.429 34.6847 109.668C33.8324 108.906 33.4091 107.881 33.4148 106.591C33.4091 105.534 33.6903 104.611 34.2585 103.821C34.8324 103.031 35.6193 102.415 36.6193 101.972C37.6193 101.528 38.7557 101.307 40.0284 101.307C41.3239 101.307 42.4545 101.528 43.4205 101.972C44.392 102.415 45.1477 103.031 45.6875 103.821C46.2273 104.611 46.5057 105.526 46.5227 106.565H42.9858ZM56.1385 105.909V108.636H48.255V105.909H56.1385ZM50.0447 102.773H53.6754V114.977C53.6754 115.312 53.7266 115.574 53.8288 115.761C53.9311 115.943 54.0732 116.071 54.255 116.145C54.4425 116.219 54.6584 116.256 54.9027 116.256C55.0732 116.256 55.2436 116.241 55.4141 116.213C55.5845 116.179 55.7152 116.153 55.8061 116.136L56.3771 118.838C56.1953 118.895 55.9396 118.96 55.6101 119.034C55.2805 119.114 54.88 119.162 54.4084 119.179C53.5334 119.213 52.7663 119.097 52.1072 118.83C51.4538 118.562 50.9453 118.148 50.5817 117.585C50.218 117.023 50.0391 116.312 50.0447 115.455V102.773ZM64.3288 119.256C62.9822 119.256 61.8232 118.983 60.8516 118.438C59.8857 117.886 59.1413 117.108 58.6186 116.102C58.0959 115.091 57.8345 113.895 57.8345 112.514C57.8345 111.168 58.0959 109.986 58.6186 108.969C59.1413 107.952 59.8771 107.159 60.826 106.591C61.7805 106.023 62.8999 105.739 64.1839 105.739C65.0476 105.739 65.8516 105.878 66.5959 106.156C67.3459 106.429 67.9993 106.841 68.5561 107.392C69.1186 107.943 69.5561 108.636 69.8686 109.472C70.1811 110.301 70.3374 111.273 70.3374 112.386V113.384H59.2834V111.134H66.9197C66.9197 110.611 66.8061 110.148 66.5788 109.744C66.3516 109.341 66.0362 109.026 65.6328 108.798C65.2351 108.565 64.772 108.449 64.2436 108.449C63.6925 108.449 63.2038 108.577 62.7777 108.832C62.3572 109.082 62.0277 109.42 61.7891 109.847C61.5504 110.267 61.4283 110.736 61.4226 111.253V113.392C61.4226 114.04 61.5419 114.599 61.7805 115.071C62.0249 115.543 62.3686 115.906 62.8118 116.162C63.255 116.418 63.7805 116.545 64.3885 116.545C64.7919 116.545 65.1612 116.489 65.4964 116.375C65.8317 116.261 66.1186 116.091 66.3572 115.864C66.5959 115.636 66.7777 115.358 66.9027 115.028L70.2607 115.25C70.0902 116.057 69.7408 116.761 69.2124 117.364C68.6896 117.96 68.0135 118.426 67.1839 118.761C66.3601 119.091 65.4084 119.256 64.3288 119.256ZM72.7067 123.909V105.909H76.2862V108.108H76.4482C76.6072 107.756 76.8374 107.398 77.1385 107.034C77.4453 106.665 77.843 106.358 78.3317 106.114C78.826 105.864 79.4396 105.739 80.1726 105.739C81.1271 105.739 82.0078 105.989 82.8146 106.489C83.6214 106.983 84.2663 107.73 84.7493 108.73C85.2322 109.724 85.4737 110.972 85.4737 112.472C85.4737 113.932 85.2379 115.165 84.7663 116.17C84.3004 117.17 83.6641 117.929 82.8572 118.446C82.0561 118.957 81.1584 119.213 80.1641 119.213C79.4595 119.213 78.8601 119.097 78.3658 118.864C77.8771 118.631 77.4766 118.338 77.1641 117.986C76.8516 117.628 76.6129 117.267 76.4482 116.903H76.3374V123.909H72.7067ZM76.2607 112.455C76.2607 113.233 76.3686 113.912 76.5845 114.491C76.8004 115.071 77.1129 115.523 77.522 115.847C77.9311 116.165 78.4283 116.324 79.0135 116.324C79.6044 116.324 80.1044 116.162 80.5135 115.838C80.9226 115.509 81.2322 115.054 81.4425 114.474C81.6584 113.889 81.7663 113.216 81.7663 112.455C81.7663 111.699 81.6612 111.034 81.451 110.46C81.2408 109.886 80.9311 109.437 80.522 109.114C80.1129 108.79 79.6101 108.628 79.0135 108.628C78.4226 108.628 77.9226 108.784 77.5135 109.097C77.1101 109.409 76.8004 109.852 76.5845 110.426C76.3686 111 76.2607 111.676 76.2607 112.455Z" fill="#232323"/>
<rect x="107" y="79" width="65" height="63" rx="31.5" fill="#53AEE1"/>
<rect x="107" y="79" width="65" height="63" rx="31.5" fill="black" fill-opacity="0.2"/>
<rect x="107" y="79" width="65" height="63" rx="31.5" fill="black" fill-opacity="0.2"/>
<path d="M139.366 119.239C138.094 119.239 136.96 119.02 135.966 118.582C134.977 118.139 134.196 117.531 133.622 116.759C133.054 115.98 132.761 115.082 132.744 114.065H136.46C136.483 114.491 136.622 114.866 136.878 115.19C137.139 115.509 137.486 115.756 137.918 115.932C138.349 116.108 138.835 116.196 139.375 116.196C139.938 116.196 140.435 116.097 140.866 115.898C141.298 115.699 141.636 115.423 141.881 115.071C142.125 114.719 142.247 114.312 142.247 113.852C142.247 113.386 142.116 112.974 141.855 112.616C141.599 112.253 141.23 111.969 140.747 111.764C140.27 111.56 139.702 111.457 139.043 111.457H137.415V108.747H139.043C139.599 108.747 140.091 108.651 140.517 108.457C140.949 108.264 141.284 107.997 141.523 107.656C141.761 107.31 141.881 106.906 141.881 106.446C141.881 106.009 141.776 105.625 141.565 105.295C141.361 104.96 141.071 104.699 140.696 104.511C140.327 104.324 139.895 104.23 139.401 104.23C138.901 104.23 138.443 104.321 138.028 104.503C137.614 104.679 137.281 104.932 137.031 105.261C136.781 105.591 136.648 105.977 136.631 106.42H133.094C133.111 105.415 133.398 104.528 133.955 103.761C134.511 102.994 135.261 102.395 136.205 101.963C137.153 101.526 138.224 101.307 139.418 101.307C140.622 101.307 141.676 101.526 142.58 101.963C143.483 102.401 144.185 102.991 144.685 103.736C145.19 104.474 145.44 105.304 145.435 106.224C145.44 107.202 145.136 108.017 144.523 108.67C143.915 109.324 143.122 109.739 142.145 109.915V110.051C143.429 110.216 144.406 110.662 145.077 111.389C145.753 112.111 146.088 113.014 146.082 114.099C146.088 115.094 145.801 115.977 145.222 116.75C144.648 117.523 143.855 118.131 142.844 118.574C141.832 119.017 140.673 119.239 139.366 119.239Z" fill="white"/>
<path d="M30.5057 206.545H34.1534V218.716C34.1534 219.841 33.9006 220.818 33.3949 221.648C32.8949 222.477 32.1989 223.116 31.3068 223.565C30.4148 224.014 29.3778 224.239 28.196 224.239C27.1449 224.239 26.1903 224.054 25.3324 223.685C24.4801 223.31 23.804 222.741 23.304 221.98C22.804 221.213 22.5568 220.25 22.5625 219.091H26.2358C26.2472 219.551 26.3409 219.946 26.517 220.276C26.6989 220.599 26.946 220.849 27.2585 221.026C27.5767 221.196 27.9517 221.281 28.3835 221.281C28.8381 221.281 29.2216 221.185 29.5341 220.991C29.8523 220.793 30.0938 220.503 30.2585 220.122C30.4233 219.741 30.5057 219.273 30.5057 218.716V206.545ZM43.0511 224.256C41.7273 224.256 40.5824 223.974 39.6165 223.412C38.6563 222.844 37.9148 222.054 37.392 221.043C36.8693 220.026 36.608 218.847 36.608 217.506C36.608 216.153 36.8693 214.972 37.392 213.96C37.9148 212.943 38.6563 212.153 39.6165 211.591C40.5824 211.023 41.7273 210.739 43.0511 210.739C44.375 210.739 45.517 211.023 46.4773 211.591C47.4432 212.153 48.1875 212.943 48.7102 213.96C49.233 214.972 49.4943 216.153 49.4943 217.506C49.4943 218.847 49.233 220.026 48.7102 221.043C48.1875 222.054 47.4432 222.844 46.4773 223.412C45.517 223.974 44.375 224.256 43.0511 224.256ZM43.0682 221.443C43.6705 221.443 44.1733 221.273 44.5767 220.932C44.9801 220.585 45.2841 220.114 45.4886 219.517C45.6989 218.92 45.804 218.241 45.804 217.48C45.804 216.719 45.6989 216.04 45.4886 215.443C45.2841 214.847 44.9801 214.375 44.5767 214.028C44.1733 213.682 43.6705 213.509 43.0682 213.509C42.4602 213.509 41.9489 213.682 41.5341 214.028C41.125 214.375 40.8153 214.847 40.6051 215.443C40.4006 216.04 40.2983 216.719 40.2983 217.48C40.2983 218.241 40.4006 218.92 40.6051 219.517C40.8153 220.114 41.125 220.585 41.5341 220.932C41.9489 221.273 42.4602 221.443 43.0682 221.443ZM51.8551 224V210.909H55.4858V224H51.8551ZM53.679 209.222C53.1392 209.222 52.6761 209.043 52.2898 208.685C51.9091 208.321 51.7188 207.886 51.7188 207.381C51.7188 206.881 51.9091 206.452 52.2898 206.094C52.6761 205.73 53.1392 205.548 53.679 205.548C54.2188 205.548 54.679 205.73 55.0597 206.094C55.446 206.452 55.6392 206.881 55.6392 207.381C55.6392 207.886 55.446 208.321 55.0597 208.685C54.679 209.043 54.2188 209.222 53.679 209.222ZM62.0249 216.432V224H58.3942V210.909H61.8544V213.219H62.0078C62.2976 212.457 62.7834 211.855 63.4652 211.412C64.147 210.963 64.9737 210.739 65.9453 210.739C66.8544 210.739 67.647 210.938 68.3232 211.335C68.9993 211.733 69.5249 212.301 69.8999 213.04C70.2749 213.773 70.4624 214.648 70.4624 215.665V224H66.8317V216.312C66.8374 215.511 66.6328 214.886 66.218 214.438C65.8033 213.983 65.2322 213.756 64.505 213.756C64.0163 213.756 63.5845 213.861 63.2095 214.071C62.8402 214.281 62.5504 214.588 62.3402 214.991C62.1357 215.389 62.0305 215.869 62.0249 216.432ZM85.8416 210.909V213.636H77.9581V210.909H85.8416ZM79.7479 207.773H83.3786V219.977C83.3786 220.312 83.4297 220.574 83.532 220.761C83.6342 220.943 83.7763 221.071 83.9581 221.145C84.1456 221.219 84.3615 221.256 84.6058 221.256C84.7763 221.256 84.9467 221.241 85.1172 221.213C85.2876 221.179 85.4183 221.153 85.5092 221.136L86.0803 223.838C85.8984 223.895 85.6428 223.96 85.3132 224.034C84.9837 224.114 84.5831 224.162 84.1115 224.179C83.2365 224.213 82.4695 224.097 81.8104 223.83C81.157 223.562 80.6484 223.148 80.2848 222.585C79.9212 222.023 79.7422 221.312 79.7479 220.455V207.773ZM92.1186 216.432V224H88.4879V206.545H92.0163V213.219H92.1697C92.4652 212.446 92.9425 211.841 93.6016 211.403C94.2607 210.96 95.0874 210.739 96.0817 210.739C96.9908 210.739 97.7834 210.938 98.4595 211.335C99.1413 211.727 99.6697 212.293 100.045 213.031C100.425 213.764 100.613 214.642 100.607 215.665V224H96.9766V216.312C96.9822 215.506 96.7777 214.878 96.3629 214.429C95.9538 213.98 95.38 213.756 94.6413 213.756C94.147 213.756 93.7095 213.861 93.3288 214.071C92.9538 214.281 92.6584 214.588 92.4425 214.991C92.2322 215.389 92.1243 215.869 92.1186 216.432ZM109.43 224.256C108.084 224.256 106.925 223.983 105.953 223.438C104.987 222.886 104.243 222.108 103.72 221.102C103.197 220.091 102.936 218.895 102.936 217.514C102.936 216.168 103.197 214.986 103.72 213.969C104.243 212.952 104.979 212.159 105.928 211.591C106.882 211.023 108.001 210.739 109.286 210.739C110.149 210.739 110.953 210.878 111.697 211.156C112.447 211.429 113.101 211.841 113.658 212.392C114.22 212.943 114.658 213.636 114.97 214.472C115.283 215.301 115.439 216.273 115.439 217.386V218.384H104.385V216.134H112.021C112.021 215.611 111.908 215.148 111.68 214.744C111.453 214.341 111.138 214.026 110.734 213.798C110.337 213.565 109.874 213.449 109.345 213.449C108.794 213.449 108.305 213.577 107.879 213.832C107.459 214.082 107.129 214.42 106.891 214.847C106.652 215.267 106.53 215.736 106.524 216.253V218.392C106.524 219.04 106.643 219.599 106.882 220.071C107.126 220.543 107.47 220.906 107.913 221.162C108.357 221.418 108.882 221.545 109.49 221.545C109.893 221.545 110.263 221.489 110.598 221.375C110.933 221.261 111.22 221.091 111.459 220.864C111.697 220.636 111.879 220.358 112.004 220.028L115.362 220.25C115.192 221.057 114.842 221.761 114.314 222.364C113.791 222.96 113.115 223.426 112.286 223.761C111.462 224.091 110.51 224.256 109.43 224.256ZM129.278 224.256C127.937 224.256 126.783 223.972 125.817 223.403C124.857 222.83 124.119 222.034 123.602 221.017C123.09 220 122.835 218.83 122.835 217.506C122.835 216.165 123.093 214.989 123.61 213.977C124.133 212.96 124.874 212.168 125.835 211.599C126.795 211.026 127.937 210.739 129.261 210.739C130.403 210.739 131.403 210.946 132.261 211.361C133.119 211.776 133.798 212.358 134.298 213.108C134.798 213.858 135.073 214.739 135.124 215.75H131.698C131.602 215.097 131.346 214.571 130.931 214.173C130.522 213.77 129.985 213.568 129.32 213.568C128.758 213.568 128.266 213.722 127.846 214.028C127.431 214.33 127.107 214.77 126.874 215.349C126.641 215.929 126.525 216.631 126.525 217.455C126.525 218.29 126.638 219 126.866 219.585C127.099 220.17 127.425 220.616 127.846 220.923C128.266 221.23 128.758 221.384 129.32 221.384C129.735 221.384 130.107 221.298 130.437 221.128C130.772 220.957 131.048 220.71 131.263 220.386C131.485 220.057 131.63 219.662 131.698 219.202H135.124C135.067 220.202 134.795 221.082 134.306 221.844C133.823 222.599 133.156 223.19 132.303 223.616C131.451 224.043 130.442 224.256 129.278 224.256ZM143.364 224.256C142.04 224.256 140.895 223.974 139.929 223.412C138.969 222.844 138.227 222.054 137.705 221.043C137.182 220.026 136.92 218.847 136.92 217.506C136.92 216.153 137.182 214.972 137.705 213.96C138.227 212.943 138.969 212.153 139.929 211.591C140.895 211.023 142.04 210.739 143.364 210.739C144.688 210.739 145.83 211.023 146.79 211.591C147.756 212.153 148.5 212.943 149.023 213.96C149.545 214.972 149.807 216.153 149.807 217.506C149.807 218.847 149.545 220.026 149.023 221.043C148.5 222.054 147.756 222.844 146.79 223.412C145.83 223.974 144.688 224.256 143.364 224.256ZM143.381 221.443C143.983 221.443 144.486 221.273 144.889 220.932C145.293 220.585 145.597 220.114 145.801 219.517C146.011 218.92 146.116 218.241 146.116 217.48C146.116 216.719 146.011 216.04 145.801 215.443C145.597 214.847 145.293 214.375 144.889 214.028C144.486 213.682 143.983 213.509 143.381 213.509C142.773 213.509 142.261 213.682 141.847 214.028C141.438 214.375 141.128 214.847 140.918 215.443C140.713 216.04 140.611 216.719 140.611 217.48C140.611 218.241 140.713 218.92 140.918 219.517C141.128 220.114 141.438 220.585 141.847 220.932C142.261 221.273 142.773 221.443 143.381 221.443ZM152.168 224V210.909H155.628V213.219H155.781C156.054 212.452 156.509 211.847 157.145 211.403C157.781 210.96 158.543 210.739 159.429 210.739C160.327 210.739 161.091 210.963 161.722 211.412C162.352 211.855 162.773 212.457 162.983 213.219H163.119C163.386 212.469 163.869 211.869 164.568 211.42C165.273 210.966 166.105 210.739 167.065 210.739C168.287 210.739 169.278 211.128 170.04 211.906C170.807 212.679 171.19 213.776 171.19 215.196V224H167.568V215.912C167.568 215.185 167.375 214.639 166.989 214.276C166.602 213.912 166.119 213.73 165.54 213.73C164.881 213.73 164.366 213.94 163.997 214.361C163.628 214.776 163.443 215.324 163.443 216.006V224H159.923V215.835C159.923 215.193 159.739 214.682 159.369 214.301C159.006 213.92 158.526 213.73 157.929 213.73C157.526 213.73 157.162 213.832 156.838 214.037C156.52 214.236 156.267 214.517 156.08 214.881C155.892 215.239 155.798 215.659 155.798 216.142V224H152.168ZM174.058 224V210.909H177.518V213.219H177.672C177.945 212.452 178.399 211.847 179.036 211.403C179.672 210.96 180.433 210.739 181.32 210.739C182.217 210.739 182.982 210.963 183.612 211.412C184.243 211.855 184.663 212.457 184.874 213.219H185.01C185.277 212.469 185.76 211.869 186.459 211.42C187.163 210.966 187.996 210.739 188.956 210.739C190.178 210.739 191.169 211.128 191.93 211.906C192.697 212.679 193.081 213.776 193.081 215.196V224H189.459V215.912C189.459 215.185 189.266 214.639 188.879 214.276C188.493 213.912 188.01 213.73 187.43 213.73C186.771 213.73 186.257 213.94 185.888 214.361C185.518 214.776 185.334 215.324 185.334 216.006V224H181.814V215.835C181.814 215.193 181.629 214.682 181.26 214.301C180.896 213.92 180.416 213.73 179.82 213.73C179.416 213.73 179.053 213.832 178.729 214.037C178.411 214.236 178.158 214.517 177.97 214.881C177.783 215.239 177.689 215.659 177.689 216.142V224H174.058ZM204.344 218.426V210.909H207.974V224H204.489V221.622H204.352C204.057 222.389 203.565 223.006 202.878 223.472C202.196 223.937 201.364 224.17 200.381 224.17C199.506 224.17 198.736 223.972 198.071 223.574C197.406 223.176 196.886 222.611 196.511 221.878C196.142 221.145 195.955 220.267 195.949 219.244V210.909H199.58V218.597C199.585 219.369 199.793 219.98 200.202 220.429C200.611 220.878 201.159 221.102 201.847 221.102C202.284 221.102 202.693 221.003 203.074 220.804C203.455 220.599 203.761 220.298 203.994 219.901C204.233 219.503 204.349 219.011 204.344 218.426ZM214.509 216.432V224H210.879V210.909H214.339V213.219H214.492C214.782 212.457 215.268 211.855 215.95 211.412C216.631 210.963 217.458 210.739 218.43 210.739C219.339 210.739 220.131 210.938 220.808 211.335C221.484 211.733 222.009 212.301 222.384 213.04C222.759 213.773 222.947 214.648 222.947 215.665V224H219.316V216.312C219.322 215.511 219.117 214.886 218.702 214.438C218.288 213.983 217.717 213.756 216.989 213.756C216.501 213.756 216.069 213.861 215.694 214.071C215.325 214.281 215.035 214.588 214.825 214.991C214.62 215.389 214.515 215.869 214.509 216.432ZM225.808 224V210.909H229.439V224H225.808ZM227.632 209.222C227.092 209.222 226.629 209.043 226.243 208.685C225.862 208.321 225.672 207.886 225.672 207.381C225.672 206.881 225.862 206.452 226.243 206.094C226.629 205.73 227.092 205.548 227.632 205.548C228.172 205.548 228.632 205.73 229.013 206.094C229.399 206.452 229.592 206.881 229.592 207.381C229.592 207.886 229.399 208.321 229.013 208.685C228.632 209.043 228.172 209.222 227.632 209.222ZM239.31 210.909V213.636H231.427V210.909H239.31ZM233.217 207.773H236.847V219.977C236.847 220.312 236.898 220.574 237.001 220.761C237.103 220.943 237.245 221.071 237.427 221.145C237.614 221.219 237.83 221.256 238.075 221.256C238.245 221.256 238.415 221.241 238.586 221.213C238.756 221.179 238.887 221.153 238.978 221.136L239.549 223.838C239.367 223.895 239.112 223.96 238.782 224.034C238.452 224.114 238.052 224.162 237.58 224.179C236.705 224.213 235.938 224.097 235.279 223.83C234.626 223.562 234.117 223.148 233.754 222.585C233.39 222.023 233.211 221.312 233.217 220.455V207.773ZM243.917 228.909C243.457 228.909 243.025 228.872 242.621 228.798C242.224 228.73 241.894 228.642 241.633 228.534L242.451 225.824C242.877 225.955 243.261 226.026 243.602 226.037C243.948 226.048 244.246 225.969 244.496 225.798C244.752 225.628 244.96 225.338 245.119 224.929L245.332 224.375L240.636 210.909H244.454L247.164 220.523H247.3L250.036 210.909H253.88L248.792 225.415C248.548 226.119 248.215 226.733 247.795 227.256C247.38 227.784 246.854 228.19 246.218 228.474C245.582 228.764 244.815 228.909 243.917 228.909Z" fill="#232323"/>
<path d="M32.7727 267H31.3636C31.2803 266.595 31.1345 266.239 30.9261 265.932C30.7216 265.625 30.4716 265.367 30.1761 265.159C29.8845 264.947 29.5606 264.788 29.2045 264.682C28.8485 264.576 28.4773 264.523 28.0909 264.523C27.3864 264.523 26.7481 264.701 26.1761 265.057C25.608 265.413 25.1553 265.938 24.8182 266.631C24.4848 267.324 24.3182 268.174 24.3182 269.182C24.3182 270.189 24.4848 271.04 24.8182 271.733C25.1553 272.426 25.608 272.951 26.1761 273.307C26.7481 273.663 27.3864 273.841 28.0909 273.841C28.4773 273.841 28.8485 273.788 29.2045 273.682C29.5606 273.576 29.8845 273.419 30.1761 273.21C30.4716 272.998 30.7216 272.739 30.9261 272.432C31.1345 272.121 31.2803 271.765 31.3636 271.364H32.7727C32.6667 271.958 32.4735 272.491 32.1932 272.96C31.9129 273.43 31.5644 273.83 31.1477 274.159C30.7311 274.485 30.2633 274.733 29.7443 274.903C29.2292 275.074 28.678 275.159 28.0909 275.159C27.0985 275.159 26.2159 274.917 25.4432 274.432C24.6705 273.947 24.0625 273.258 23.6193 272.364C23.1761 271.47 22.9545 270.409 22.9545 269.182C22.9545 267.955 23.1761 266.894 23.6193 266C24.0625 265.106 24.6705 264.417 25.4432 263.932C26.2159 263.447 27.0985 263.205 28.0909 263.205C28.678 263.205 29.2292 263.29 29.7443 263.46C30.2633 263.631 30.7311 263.881 31.1477 264.21C31.5644 264.536 31.9129 264.934 32.1932 265.403C32.4735 265.869 32.6667 266.402 32.7727 267ZM36.2088 269.75V275H34.8679V263.364H36.2088V267.636H36.3224C36.527 267.186 36.8338 266.828 37.2429 266.562C37.6558 266.294 38.205 266.159 38.8906 266.159C39.4853 266.159 40.0062 266.278 40.4531 266.517C40.9001 266.752 41.2467 267.114 41.4929 267.602C41.7429 268.087 41.8679 268.705 41.8679 269.455V275H40.527V269.545C40.527 268.852 40.3471 268.316 39.9872 267.938C39.6312 267.555 39.1368 267.364 38.5043 267.364C38.0649 267.364 37.6709 267.456 37.3224 267.642C36.9777 267.828 36.705 268.098 36.5043 268.455C36.3073 268.811 36.2088 269.242 36.2088 269.75ZM47.9801 275.182C47.1392 275.182 46.4138 274.996 45.804 274.625C45.1979 274.25 44.7301 273.727 44.4006 273.057C44.0748 272.383 43.9119 271.598 43.9119 270.705C43.9119 269.811 44.0748 269.023 44.4006 268.341C44.7301 267.655 45.1884 267.121 45.7756 266.739C46.3665 266.352 47.0559 266.159 47.8438 266.159C48.2983 266.159 48.7472 266.235 49.1903 266.386C49.6335 266.538 50.0369 266.784 50.4006 267.125C50.7642 267.462 51.054 267.909 51.2699 268.466C51.4858 269.023 51.5938 269.708 51.5938 270.523V271.091H44.8665V269.932H50.2301C50.2301 269.439 50.1316 269 49.9347 268.614C49.7415 268.227 49.465 267.922 49.1051 267.699C48.7491 267.475 48.3286 267.364 47.8438 267.364C47.3097 267.364 46.8475 267.496 46.4574 267.761C46.071 268.023 45.7737 268.364 45.5653 268.784C45.357 269.205 45.2528 269.655 45.2528 270.136V270.909C45.2528 271.568 45.3665 272.127 45.5938 272.585C45.8248 273.04 46.1449 273.386 46.554 273.625C46.9631 273.86 47.4384 273.977 47.9801 273.977C48.3324 273.977 48.6506 273.928 48.9347 273.83C49.2225 273.727 49.4706 273.576 49.679 273.375C49.8873 273.17 50.0483 272.917 50.1619 272.614L51.4574 272.977C51.321 273.417 51.0919 273.803 50.7699 274.136C50.4479 274.466 50.0502 274.723 49.5767 274.909C49.1032 275.091 48.571 275.182 47.9801 275.182ZM57.179 275.182C56.3608 275.182 55.6563 274.989 55.0653 274.602C54.4744 274.216 54.0199 273.684 53.7017 273.006C53.3835 272.328 53.2244 271.553 53.2244 270.682C53.2244 269.795 53.3873 269.013 53.7131 268.335C54.0426 267.653 54.5009 267.121 55.0881 266.739C55.679 266.352 56.3684 266.159 57.1562 266.159C57.7699 266.159 58.3229 266.273 58.8153 266.5C59.3078 266.727 59.7112 267.045 60.0256 267.455C60.34 267.864 60.535 268.341 60.6108 268.886H59.2699C59.1676 268.489 58.9403 268.136 58.5881 267.83C58.2396 267.519 57.7699 267.364 57.179 267.364C56.6563 267.364 56.1979 267.5 55.804 267.773C55.4138 268.042 55.1089 268.422 54.8892 268.915C54.6733 269.403 54.5653 269.977 54.5653 270.636C54.5653 271.311 54.6714 271.898 54.8835 272.398C55.0994 272.898 55.4025 273.286 55.7926 273.562C56.1866 273.839 56.6487 273.977 57.179 273.977C57.5275 273.977 57.8438 273.917 58.1278 273.795C58.4119 273.674 58.6525 273.5 58.8494 273.273C59.0464 273.045 59.1866 272.773 59.2699 272.455H60.6108C60.535 272.97 60.3475 273.434 60.0483 273.847C59.7528 274.256 59.3608 274.581 58.8722 274.824C58.3873 275.062 57.8229 275.182 57.179 275.182ZM63.821 271.818L63.7983 270.159H64.071L67.8892 266.273H69.5483L65.4801 270.386H65.3665L63.821 271.818ZM62.571 275V263.364H63.9119V275H62.571ZM68.1165 275L64.7074 270.682L65.6619 269.75L69.821 275H68.1165ZM79.3196 275.182C78.5317 275.182 77.8404 274.994 77.2457 274.619C76.6548 274.244 76.1927 273.72 75.8594 273.045C75.5298 272.371 75.3651 271.583 75.3651 270.682C75.3651 269.773 75.5298 268.979 75.8594 268.301C76.1927 267.623 76.6548 267.097 77.2457 266.722C77.8404 266.347 78.5317 266.159 79.3196 266.159C80.1075 266.159 80.7969 266.347 81.3878 266.722C81.9825 267.097 82.4446 267.623 82.7741 268.301C83.1075 268.979 83.2741 269.773 83.2741 270.682C83.2741 271.583 83.1075 272.371 82.7741 273.045C82.4446 273.72 81.9825 274.244 81.3878 274.619C80.7969 274.994 80.1075 275.182 79.3196 275.182ZM79.3196 273.977C79.9181 273.977 80.4105 273.824 80.7969 273.517C81.1832 273.21 81.4692 272.807 81.6548 272.307C81.8404 271.807 81.9332 271.265 81.9332 270.682C81.9332 270.098 81.8404 269.555 81.6548 269.051C81.4692 268.547 81.1832 268.14 80.7969 267.83C80.4105 267.519 79.9181 267.364 79.3196 267.364C78.7211 267.364 78.2287 267.519 77.8423 267.83C77.456 268.14 77.17 268.547 76.9844 269.051C76.7988 269.555 76.706 270.098 76.706 270.682C76.706 271.265 76.7988 271.807 76.9844 272.307C77.17 272.807 77.456 273.21 77.8423 273.517C78.2287 273.824 78.7211 273.977 79.3196 273.977ZM90.821 271.432V266.273H92.1619V275H90.821V273.523H90.7301C90.5256 273.966 90.2074 274.343 89.7756 274.653C89.3438 274.96 88.7983 275.114 88.1392 275.114C87.5938 275.114 87.1089 274.994 86.6847 274.756C86.2604 274.513 85.9271 274.15 85.6847 273.665C85.4422 273.176 85.321 272.561 85.321 271.818V266.273H86.6619V271.727C86.6619 272.364 86.84 272.871 87.196 273.25C87.5559 273.629 88.0142 273.818 88.571 273.818C88.9044 273.818 89.2434 273.733 89.5881 273.562C89.9366 273.392 90.2282 273.131 90.4631 272.778C90.7017 272.426 90.821 271.977 90.821 271.432ZM94.6179 275V266.273H95.9134V267.591H96.0043C96.1634 267.159 96.4512 266.809 96.8679 266.54C97.2846 266.271 97.7543 266.136 98.277 266.136C98.3755 266.136 98.4986 266.138 98.6463 266.142C98.794 266.146 98.9058 266.152 98.9815 266.159V267.523C98.9361 267.511 98.8319 267.494 98.669 267.472C98.5099 267.445 98.3414 267.432 98.1634 267.432C97.7391 267.432 97.3603 267.521 97.027 267.699C96.6974 267.873 96.4361 268.116 96.2429 268.426C96.0535 268.733 95.9588 269.083 95.9588 269.477V275H94.6179ZM108.616 275.182C107.798 275.182 107.094 274.989 106.503 274.602C105.912 274.216 105.457 273.684 105.139 273.006C104.821 272.328 104.662 271.553 104.662 270.682C104.662 269.795 104.825 269.013 105.151 268.335C105.48 267.653 105.938 267.121 106.526 266.739C107.116 266.352 107.806 266.159 108.594 266.159C109.207 266.159 109.76 266.273 110.253 266.5C110.745 266.727 111.149 267.045 111.463 267.455C111.777 267.864 111.973 268.341 112.048 268.886H110.707C110.605 268.489 110.378 268.136 110.026 267.83C109.677 267.519 109.207 267.364 108.616 267.364C108.094 267.364 107.635 267.5 107.241 267.773C106.851 268.042 106.546 268.422 106.327 268.915C106.111 269.403 106.003 269.977 106.003 270.636C106.003 271.311 106.109 271.898 106.321 272.398C106.537 272.898 106.84 273.286 107.23 273.562C107.624 273.839 108.086 273.977 108.616 273.977C108.965 273.977 109.281 273.917 109.565 273.795C109.849 273.674 110.09 273.5 110.287 273.273C110.484 273.045 110.624 272.773 110.707 272.455H112.048C111.973 272.97 111.785 273.434 111.486 273.847C111.19 274.256 110.798 274.581 110.31 274.824C109.825 275.062 109.26 275.182 108.616 275.182ZM117.554 275.182C116.766 275.182 116.075 274.994 115.48 274.619C114.889 274.244 114.427 273.72 114.094 273.045C113.764 272.371 113.599 271.583 113.599 270.682C113.599 269.773 113.764 268.979 114.094 268.301C114.427 267.623 114.889 267.097 115.48 266.722C116.075 266.347 116.766 266.159 117.554 266.159C118.342 266.159 119.031 266.347 119.622 266.722C120.217 267.097 120.679 267.623 121.009 268.301C121.342 268.979 121.509 269.773 121.509 270.682C121.509 271.583 121.342 272.371 121.009 273.045C120.679 273.72 120.217 274.244 119.622 274.619C119.031 274.994 118.342 275.182 117.554 275.182ZM117.554 273.977C118.152 273.977 118.645 273.824 119.031 273.517C119.418 273.21 119.704 272.807 119.889 272.307C120.075 271.807 120.168 271.265 120.168 270.682C120.168 270.098 120.075 269.555 119.889 269.051C119.704 268.547 119.418 268.14 119.031 267.83C118.645 267.519 118.152 267.364 117.554 267.364C116.955 267.364 116.463 267.519 116.077 267.83C115.69 268.14 115.404 268.547 115.219 269.051C115.033 269.555 114.94 270.098 114.94 270.682C114.94 271.265 115.033 271.807 115.219 272.307C115.404 272.807 115.69 273.21 116.077 273.517C116.463 273.824 116.955 273.977 117.554 273.977ZM124.896 269.75V275H123.555V266.273H124.851V267.636H124.964C125.169 267.193 125.48 266.837 125.896 266.568C126.313 266.295 126.851 266.159 127.51 266.159C128.101 266.159 128.618 266.28 129.061 266.523C129.504 266.761 129.849 267.125 130.095 267.614C130.341 268.098 130.464 268.712 130.464 269.455V275H129.124V269.545C129.124 268.86 128.946 268.326 128.589 267.943C128.233 267.557 127.745 267.364 127.124 267.364C126.696 267.364 126.313 267.456 125.976 267.642C125.643 267.828 125.379 268.098 125.186 268.455C124.993 268.811 124.896 269.242 124.896 269.75ZM136.71 266.273V267.409H132.188V266.273H136.71ZM133.506 264.182H134.847V272.5C134.847 272.879 134.902 273.163 135.011 273.352C135.125 273.538 135.269 273.663 135.443 273.727C135.621 273.788 135.809 273.818 136.006 273.818C136.153 273.818 136.275 273.811 136.369 273.795C136.464 273.777 136.54 273.761 136.597 273.75L136.869 274.955C136.778 274.989 136.652 275.023 136.489 275.057C136.326 275.095 136.119 275.114 135.869 275.114C135.491 275.114 135.119 275.032 134.756 274.869C134.396 274.706 134.097 274.458 133.858 274.125C133.623 273.792 133.506 273.371 133.506 272.864V264.182ZM141.295 275.205C140.742 275.205 140.241 275.1 139.79 274.892C139.339 274.68 138.981 274.375 138.716 273.977C138.451 273.576 138.318 273.091 138.318 272.523C138.318 272.023 138.417 271.617 138.614 271.307C138.811 270.992 139.074 270.746 139.403 270.568C139.733 270.39 140.097 270.258 140.494 270.17C140.896 270.08 141.299 270.008 141.705 269.955C142.235 269.886 142.665 269.835 142.994 269.801C143.328 269.763 143.57 269.701 143.722 269.614C143.877 269.527 143.955 269.375 143.955 269.159V269.114C143.955 268.553 143.801 268.117 143.494 267.807C143.191 267.496 142.731 267.341 142.114 267.341C141.473 267.341 140.972 267.481 140.608 267.761C140.244 268.042 139.989 268.341 139.841 268.659L138.568 268.205C138.795 267.674 139.098 267.261 139.477 266.966C139.86 266.667 140.277 266.458 140.727 266.341C141.182 266.22 141.629 266.159 142.068 266.159C142.348 266.159 142.67 266.193 143.034 266.261C143.402 266.326 143.756 266.46 144.097 266.665C144.441 266.869 144.727 267.178 144.955 267.591C145.182 268.004 145.295 268.557 145.295 269.25V275H143.955V273.818H143.886C143.795 274.008 143.644 274.21 143.432 274.426C143.22 274.642 142.938 274.826 142.585 274.977C142.233 275.129 141.803 275.205 141.295 275.205ZM141.5 274C142.03 274 142.477 273.896 142.841 273.688C143.208 273.479 143.485 273.21 143.67 272.881C143.86 272.551 143.955 272.205 143.955 271.841V270.614C143.898 270.682 143.773 270.744 143.58 270.801C143.39 270.854 143.17 270.902 142.92 270.943C142.674 270.981 142.434 271.015 142.199 271.045C141.968 271.072 141.78 271.095 141.636 271.114C141.288 271.159 140.962 271.233 140.659 271.335C140.36 271.434 140.117 271.583 139.932 271.784C139.75 271.981 139.659 272.25 139.659 272.591C139.659 273.057 139.831 273.409 140.176 273.648C140.525 273.883 140.966 274 141.5 274ZM151.288 275.182C150.47 275.182 149.766 274.989 149.175 274.602C148.584 274.216 148.129 273.684 147.811 273.006C147.493 272.328 147.334 271.553 147.334 270.682C147.334 269.795 147.497 269.013 147.822 268.335C148.152 267.653 148.61 267.121 149.197 266.739C149.788 266.352 150.478 266.159 151.266 266.159C151.879 266.159 152.432 266.273 152.925 266.5C153.417 266.727 153.821 267.045 154.135 267.455C154.449 267.864 154.644 268.341 154.72 268.886H153.379C153.277 268.489 153.05 268.136 152.697 267.83C152.349 267.519 151.879 267.364 151.288 267.364C150.766 267.364 150.307 267.5 149.913 267.773C149.523 268.042 149.218 268.422 148.999 268.915C148.783 269.403 148.675 269.977 148.675 270.636C148.675 271.311 148.781 271.898 148.993 272.398C149.209 272.898 149.512 273.286 149.902 273.562C150.296 273.839 150.758 273.977 151.288 273.977C151.637 273.977 151.953 273.917 152.237 273.795C152.521 273.674 152.762 273.5 152.959 273.273C153.156 273.045 153.296 272.773 153.379 272.455H154.72C154.644 272.97 154.457 273.434 154.158 273.847C153.862 274.256 153.47 274.581 152.982 274.824C152.497 275.062 151.932 275.182 151.288 275.182ZM160.476 266.273V267.409H155.953V266.273H160.476ZM157.271 264.182H158.612V272.5C158.612 272.879 158.667 273.163 158.777 273.352C158.891 273.538 159.035 273.663 159.209 273.727C159.387 273.788 159.574 273.818 159.771 273.818C159.919 273.818 160.04 273.811 160.135 273.795C160.23 273.777 160.305 273.761 160.362 273.75L160.635 274.955C160.544 274.989 160.417 275.023 160.254 275.057C160.091 275.095 159.885 275.114 159.635 275.114C159.256 275.114 158.885 275.032 158.521 274.869C158.161 274.706 157.862 274.458 157.624 274.125C157.389 273.792 157.271 273.371 157.271 272.864V264.182ZM168.334 263.364V275H166.993V263.364H168.334ZM170.79 275V266.273H172.131V275H170.79ZM171.472 264.818C171.21 264.818 170.985 264.729 170.795 264.551C170.61 264.373 170.517 264.159 170.517 263.909C170.517 263.659 170.61 263.445 170.795 263.267C170.985 263.089 171.21 263 171.472 263C171.733 263 171.956 263.089 172.142 263.267C172.331 263.445 172.426 263.659 172.426 263.909C172.426 264.159 172.331 264.373 172.142 264.551C171.956 264.729 171.733 264.818 171.472 264.818ZM180.768 268.227L179.564 268.568C179.488 268.367 179.376 268.172 179.229 267.983C179.085 267.79 178.888 267.631 178.638 267.506C178.388 267.381 178.068 267.318 177.678 267.318C177.143 267.318 176.698 267.441 176.342 267.688C175.99 267.93 175.814 268.239 175.814 268.614C175.814 268.947 175.935 269.21 176.178 269.403C176.42 269.597 176.799 269.758 177.314 269.886L178.609 270.205C179.39 270.394 179.971 270.684 180.354 271.074C180.736 271.46 180.928 271.958 180.928 272.568C180.928 273.068 180.784 273.515 180.496 273.909C180.212 274.303 179.814 274.614 179.303 274.841C178.791 275.068 178.196 275.182 177.518 275.182C176.628 275.182 175.892 274.989 175.308 274.602C174.725 274.216 174.356 273.652 174.2 272.909L175.473 272.591C175.594 273.061 175.823 273.413 176.161 273.648C176.501 273.883 176.946 274 177.496 274C178.121 274 178.617 273.867 178.984 273.602C179.356 273.333 179.541 273.011 179.541 272.636C179.541 272.333 179.435 272.08 179.223 271.875C179.011 271.667 178.685 271.511 178.246 271.409L176.791 271.068C175.992 270.879 175.405 270.585 175.03 270.188C174.659 269.786 174.473 269.284 174.473 268.682C174.473 268.189 174.611 267.754 174.888 267.375C175.168 266.996 175.549 266.699 176.03 266.483C176.515 266.267 177.064 266.159 177.678 266.159C178.541 266.159 179.219 266.348 179.712 266.727C180.208 267.106 180.56 267.606 180.768 268.227ZM186.741 266.273V267.409H182.219V266.273H186.741ZM183.537 264.182H184.878V272.5C184.878 272.879 184.933 273.163 185.043 273.352C185.156 273.538 185.3 273.663 185.474 273.727C185.652 273.788 185.84 273.818 186.037 273.818C186.185 273.818 186.306 273.811 186.401 273.795C186.495 273.777 186.571 273.761 186.628 273.75L186.901 274.955C186.81 274.989 186.683 275.023 186.52 275.057C186.357 275.095 186.151 275.114 185.901 275.114C185.522 275.114 185.151 275.032 184.787 274.869C184.427 274.706 184.128 274.458 183.889 274.125C183.654 273.792 183.537 273.371 183.537 272.864V264.182ZM195.827 275.205C195.274 275.205 194.772 275.1 194.321 274.892C193.87 274.68 193.512 274.375 193.247 273.977C192.982 273.576 192.849 273.091 192.849 272.523C192.849 272.023 192.948 271.617 193.145 271.307C193.342 270.992 193.605 270.746 193.935 270.568C194.264 270.39 194.628 270.258 195.026 270.17C195.427 270.08 195.83 270.008 196.236 269.955C196.766 269.886 197.196 269.835 197.526 269.801C197.859 269.763 198.101 269.701 198.253 269.614C198.408 269.527 198.486 269.375 198.486 269.159V269.114C198.486 268.553 198.332 268.117 198.026 267.807C197.723 267.496 197.262 267.341 196.645 267.341C196.005 267.341 195.503 267.481 195.139 267.761C194.776 268.042 194.52 268.341 194.372 268.659L193.099 268.205C193.327 267.674 193.63 267.261 194.009 266.966C194.391 266.667 194.808 266.458 195.259 266.341C195.713 266.22 196.16 266.159 196.599 266.159C196.88 266.159 197.202 266.193 197.565 266.261C197.933 266.326 198.287 266.46 198.628 266.665C198.973 266.869 199.259 267.178 199.486 267.591C199.713 268.004 199.827 268.557 199.827 269.25V275H198.486V273.818H198.418C198.327 274.008 198.175 274.21 197.963 274.426C197.751 274.642 197.469 274.826 197.116 274.977C196.764 275.129 196.334 275.205 195.827 275.205ZM196.031 274C196.562 274 197.009 273.896 197.372 273.688C197.74 273.479 198.016 273.21 198.202 272.881C198.391 272.551 198.486 272.205 198.486 271.841V270.614C198.429 270.682 198.304 270.744 198.111 270.801C197.921 270.854 197.702 270.902 197.452 270.943C197.205 270.981 196.965 271.015 196.73 271.045C196.499 271.072 196.312 271.095 196.168 271.114C195.819 271.159 195.493 271.233 195.19 271.335C194.891 271.434 194.649 271.583 194.463 271.784C194.281 271.981 194.19 272.25 194.19 272.591C194.19 273.057 194.363 273.409 194.707 273.648C195.056 273.883 195.497 274 196.031 274ZM203.615 269.75V275H202.274V266.273H203.57V267.636H203.683C203.888 267.193 204.198 266.837 204.615 266.568C205.032 266.295 205.57 266.159 206.229 266.159C206.82 266.159 207.337 266.28 207.78 266.523C208.223 266.761 208.568 267.125 208.814 267.614C209.06 268.098 209.183 268.712 209.183 269.455V275H207.842V269.545C207.842 268.86 207.664 268.326 207.308 267.943C206.952 267.557 206.464 267.364 205.842 267.364C205.414 267.364 205.032 267.456 204.695 267.642C204.361 267.828 204.098 268.098 203.905 268.455C203.712 268.811 203.615 269.242 203.615 269.75ZM214.929 275.182C214.202 275.182 213.56 274.998 213.003 274.631C212.446 274.259 212.01 273.737 211.696 273.062C211.382 272.384 211.224 271.583 211.224 270.659C211.224 269.742 211.382 268.947 211.696 268.273C212.01 267.598 212.448 267.078 213.009 266.71C213.569 266.343 214.217 266.159 214.952 266.159C215.52 266.159 215.969 266.254 216.298 266.443C216.632 266.629 216.885 266.841 217.06 267.08C217.238 267.314 217.376 267.508 217.474 267.659H217.588V263.364H218.929V275H217.634V273.659H217.474C217.376 273.818 217.236 274.019 217.054 274.261C216.872 274.5 216.613 274.714 216.276 274.903C215.938 275.089 215.49 275.182 214.929 275.182ZM215.111 273.977C215.649 273.977 216.103 273.837 216.474 273.557C216.846 273.273 217.128 272.881 217.321 272.381C217.514 271.877 217.611 271.295 217.611 270.636C217.611 269.985 217.516 269.415 217.327 268.926C217.137 268.434 216.857 268.051 216.486 267.778C216.115 267.502 215.656 267.364 215.111 267.364C214.543 267.364 214.069 267.509 213.69 267.801C213.315 268.089 213.033 268.481 212.844 268.977C212.658 269.47 212.565 270.023 212.565 270.636C212.565 271.258 212.66 271.822 212.849 272.33C213.043 272.833 213.327 273.235 213.702 273.534C214.08 273.83 214.55 273.977 215.111 273.977ZM226.071 275V266.273H227.366V267.591H227.457C227.616 267.159 227.904 266.809 228.321 266.54C228.738 266.271 229.207 266.136 229.73 266.136C229.829 266.136 229.952 266.138 230.099 266.142C230.247 266.146 230.359 266.152 230.435 266.159V267.523C230.389 267.511 230.285 267.494 230.122 267.472C229.963 267.445 229.795 267.432 229.616 267.432C229.192 267.432 228.813 267.521 228.48 267.699C228.151 267.873 227.889 268.116 227.696 268.426C227.507 268.733 227.412 269.083 227.412 269.477V275H226.071ZM235.418 275.182C234.577 275.182 233.851 274.996 233.241 274.625C232.635 274.25 232.168 273.727 231.838 273.057C231.512 272.383 231.349 271.598 231.349 270.705C231.349 269.811 231.512 269.023 231.838 268.341C232.168 267.655 232.626 267.121 233.213 266.739C233.804 266.352 234.493 266.159 235.281 266.159C235.736 266.159 236.185 266.235 236.628 266.386C237.071 266.538 237.474 266.784 237.838 267.125C238.202 267.462 238.491 267.909 238.707 268.466C238.923 269.023 239.031 269.708 239.031 270.523V271.091H232.304V269.932H237.668C237.668 269.439 237.569 269 237.372 268.614C237.179 268.227 236.902 267.922 236.543 267.699C236.187 267.475 235.766 267.364 235.281 267.364C234.747 267.364 234.285 267.496 233.895 267.761C233.509 268.023 233.211 268.364 233.003 268.784C232.795 269.205 232.69 269.655 232.69 270.136V270.909C232.69 271.568 232.804 272.127 233.031 272.585C233.262 273.04 233.582 273.386 233.991 273.625C234.401 273.86 234.876 273.977 235.418 273.977C235.77 273.977 236.088 273.928 236.372 273.83C236.66 273.727 236.908 273.576 237.116 273.375C237.325 273.17 237.486 272.917 237.599 272.614L238.895 272.977C238.759 273.417 238.529 273.803 238.207 274.136C237.885 274.466 237.488 274.723 237.014 274.909C236.541 275.091 236.009 275.182 235.418 275.182ZM243.639 275.205C243.086 275.205 242.584 275.1 242.134 274.892C241.683 274.68 241.325 274.375 241.06 273.977C240.795 273.576 240.662 273.091 240.662 272.523C240.662 272.023 240.76 271.617 240.957 271.307C241.154 270.992 241.418 270.746 241.747 270.568C242.077 270.39 242.44 270.258 242.838 270.17C243.24 270.08 243.643 270.008 244.048 269.955C244.579 269.886 245.009 269.835 245.338 269.801C245.671 269.763 245.914 269.701 246.065 269.614C246.221 269.527 246.298 269.375 246.298 269.159V269.114C246.298 268.553 246.145 268.117 245.838 267.807C245.535 267.496 245.075 267.341 244.457 267.341C243.817 267.341 243.315 267.481 242.952 267.761C242.588 268.042 242.332 268.341 242.185 268.659L240.912 268.205C241.139 267.674 241.442 267.261 241.821 266.966C242.204 266.667 242.62 266.458 243.071 266.341C243.526 266.22 243.973 266.159 244.412 266.159C244.692 266.159 245.014 266.193 245.378 266.261C245.745 266.326 246.099 266.46 246.44 266.665C246.785 266.869 247.071 267.178 247.298 267.591C247.526 268.004 247.639 268.557 247.639 269.25V275H246.298V273.818H246.23C246.139 274.008 245.988 274.21 245.776 274.426C245.563 274.642 245.281 274.826 244.929 274.977C244.577 275.129 244.147 275.205 243.639 275.205ZM243.844 274C244.374 274 244.821 273.896 245.185 273.688C245.552 273.479 245.829 273.21 246.014 272.881C246.204 272.551 246.298 272.205 246.298 271.841V270.614C246.241 270.682 246.116 270.744 245.923 270.801C245.734 270.854 245.514 270.902 245.264 270.943C245.018 270.981 244.777 271.015 244.543 271.045C244.312 271.072 244.124 271.095 243.98 271.114C243.632 271.159 243.306 271.233 243.003 271.335C242.704 271.434 242.461 271.583 242.276 271.784C242.094 271.981 242.003 272.25 242.003 272.591C242.003 273.057 242.175 273.409 242.52 273.648C242.868 273.883 243.31 274 243.844 274ZM253.632 275.182C252.814 275.182 252.109 274.989 251.518 274.602C250.928 274.216 250.473 273.684 250.155 273.006C249.837 272.328 249.678 271.553 249.678 270.682C249.678 269.795 249.84 269.013 250.166 268.335C250.496 267.653 250.954 267.121 251.541 266.739C252.132 266.352 252.821 266.159 253.609 266.159C254.223 266.159 254.776 266.273 255.268 266.5C255.761 266.727 256.164 267.045 256.479 267.455C256.793 267.864 256.988 268.341 257.064 268.886H255.723C255.621 268.489 255.393 268.136 255.041 267.83C254.693 267.519 254.223 267.364 253.632 267.364C253.109 267.364 252.651 267.5 252.257 267.773C251.867 268.042 251.562 268.422 251.342 268.915C251.126 269.403 251.018 269.977 251.018 270.636C251.018 271.311 251.125 271.898 251.337 272.398C251.553 272.898 251.856 273.286 252.246 273.562C252.64 273.839 253.102 273.977 253.632 273.977C253.981 273.977 254.297 273.917 254.581 273.795C254.865 273.674 255.106 273.5 255.303 273.273C255.5 273.045 255.64 272.773 255.723 272.455H257.064C256.988 272.97 256.801 273.434 256.501 273.847C256.206 274.256 255.814 274.581 255.325 274.824C254.84 275.062 254.276 275.182 253.632 275.182ZM260.365 269.75V275H259.024V263.364H260.365V267.636H260.479C260.683 267.186 260.99 266.828 261.399 266.562C261.812 266.294 262.361 266.159 263.047 266.159C263.642 266.159 264.162 266.278 264.609 266.517C265.056 266.752 265.403 267.114 265.649 267.602C265.899 268.087 266.024 268.705 266.024 269.455V275H264.683V269.545C264.683 268.852 264.503 268.316 264.143 267.938C263.787 267.555 263.293 267.364 262.661 267.364C262.221 267.364 261.827 267.456 261.479 267.642C261.134 267.828 260.861 268.098 260.661 268.455C260.464 268.811 260.365 269.242 260.365 269.75ZM276.523 275.182C275.735 275.182 275.044 274.994 274.449 274.619C273.858 274.244 273.396 273.72 273.062 273.045C272.733 272.371 272.568 271.583 272.568 270.682C272.568 269.773 272.733 268.979 273.062 268.301C273.396 267.623 273.858 267.097 274.449 266.722C275.044 266.347 275.735 266.159 276.523 266.159C277.311 266.159 278 266.347 278.591 266.722C279.186 267.097 279.648 267.623 279.977 268.301C280.311 268.979 280.477 269.773 280.477 270.682C280.477 271.583 280.311 272.371 279.977 273.045C279.648 273.72 279.186 274.244 278.591 274.619C278 274.994 277.311 275.182 276.523 275.182ZM276.523 273.977C277.121 273.977 277.614 273.824 278 273.517C278.386 273.21 278.672 272.807 278.858 272.307C279.044 271.807 279.136 271.265 279.136 270.682C279.136 270.098 279.044 269.555 278.858 269.051C278.672 268.547 278.386 268.14 278 267.83C277.614 267.519 277.121 267.364 276.523 267.364C275.924 267.364 275.432 267.519 275.045 267.83C274.659 268.14 274.373 268.547 274.188 269.051C274.002 269.555 273.909 270.098 273.909 270.682C273.909 271.265 274.002 271.807 274.188 272.307C274.373 272.807 274.659 273.21 275.045 273.517C275.432 273.824 275.924 273.977 276.523 273.977ZM288.024 271.432V266.273H289.365V275H288.024V273.523H287.933C287.729 273.966 287.411 274.343 286.979 274.653C286.547 274.96 286.001 275.114 285.342 275.114C284.797 275.114 284.312 274.994 283.888 274.756C283.464 274.513 283.13 274.15 282.888 273.665C282.645 273.176 282.524 272.561 282.524 271.818V266.273H283.865V271.727C283.865 272.364 284.043 272.871 284.399 273.25C284.759 273.629 285.217 273.818 285.774 273.818C286.107 273.818 286.446 273.733 286.791 273.562C287.14 273.392 287.431 273.131 287.666 272.778C287.905 272.426 288.024 271.977 288.024 271.432ZM295.616 266.273V267.409H291.094V266.273H295.616ZM292.412 264.182H293.753V272.5C293.753 272.879 293.808 273.163 293.918 273.352C294.031 273.538 294.175 273.663 294.349 273.727C294.527 273.788 294.715 273.818 294.912 273.818C295.06 273.818 295.181 273.811 295.276 273.795C295.37 273.777 295.446 273.761 295.503 273.75L295.776 274.955C295.685 274.989 295.558 275.023 295.395 275.057C295.232 275.095 295.026 275.114 294.776 275.114C294.397 275.114 294.026 275.032 293.662 274.869C293.302 274.706 293.003 274.458 292.764 274.125C292.529 273.792 292.412 273.371 292.412 272.864V264.182ZM305.929 266.273V267.409H301.406V266.273H305.929ZM302.724 264.182H304.065V272.5C304.065 272.879 304.12 273.163 304.23 273.352C304.344 273.538 304.488 273.663 304.662 273.727C304.84 273.788 305.027 273.818 305.224 273.818C305.372 273.818 305.493 273.811 305.588 273.795C305.683 273.777 305.759 273.761 305.815 273.75L306.088 274.955C305.997 274.989 305.87 275.023 305.707 275.057C305.545 275.095 305.338 275.114 305.088 275.114C304.709 275.114 304.338 275.032 303.974 274.869C303.615 274.706 303.315 274.458 303.077 274.125C302.842 273.792 302.724 273.371 302.724 272.864V264.182ZM311.398 275.182C310.61 275.182 309.919 274.994 309.324 274.619C308.733 274.244 308.271 273.72 307.938 273.045C307.608 272.371 307.443 271.583 307.443 270.682C307.443 269.773 307.608 268.979 307.938 268.301C308.271 267.623 308.733 267.097 309.324 266.722C309.919 266.347 310.61 266.159 311.398 266.159C312.186 266.159 312.875 266.347 313.466 266.722C314.061 267.097 314.523 267.623 314.852 268.301C315.186 268.979 315.352 269.773 315.352 270.682C315.352 271.583 315.186 272.371 314.852 273.045C314.523 273.72 314.061 274.244 313.466 274.619C312.875 274.994 312.186 275.182 311.398 275.182ZM311.398 273.977C311.996 273.977 312.489 273.824 312.875 273.517C313.261 273.21 313.547 272.807 313.733 272.307C313.919 271.807 314.011 271.265 314.011 270.682C314.011 270.098 313.919 269.555 313.733 269.051C313.547 268.547 313.261 268.14 312.875 267.83C312.489 267.519 311.996 267.364 311.398 267.364C310.799 267.364 310.307 267.519 309.92 267.83C309.534 268.14 309.248 268.547 309.062 269.051C308.877 269.555 308.784 270.098 308.784 270.682C308.784 271.265 308.877 271.807 309.062 272.307C309.248 272.807 309.534 273.21 309.92 273.517C310.307 273.824 310.799 273.977 311.398 273.977ZM325.445 275.182C324.657 275.182 323.965 274.994 323.371 274.619C322.78 274.244 322.318 273.72 321.984 273.045C321.655 272.371 321.49 271.583 321.49 270.682C321.49 269.773 321.655 268.979 321.984 268.301C322.318 267.623 322.78 267.097 323.371 266.722C323.965 266.347 324.657 266.159 325.445 266.159C326.232 266.159 326.922 266.347 327.513 266.722C328.107 267.097 328.57 267.623 328.899 268.301C329.232 268.979 329.399 269.773 329.399 270.682C329.399 271.583 329.232 272.371 328.899 273.045C328.57 273.72 328.107 274.244 327.513 274.619C326.922 274.994 326.232 275.182 325.445 275.182ZM325.445 273.977C326.043 273.977 326.536 273.824 326.922 273.517C327.308 273.21 327.594 272.807 327.78 272.307C327.965 271.807 328.058 271.265 328.058 270.682C328.058 270.098 327.965 269.555 327.78 269.051C327.594 268.547 327.308 268.14 326.922 267.83C326.536 267.519 326.043 267.364 325.445 267.364C324.846 267.364 324.354 267.519 323.967 267.83C323.581 268.14 323.295 268.547 323.109 269.051C322.924 269.555 322.831 270.098 322.831 270.682C322.831 271.265 322.924 271.807 323.109 272.307C323.295 272.807 323.581 273.21 323.967 273.517C324.354 273.824 324.846 273.977 325.445 273.977ZM336.946 271.432V266.273H338.287V275H336.946V273.523H336.855C336.651 273.966 336.332 274.343 335.901 274.653C335.469 274.96 334.923 275.114 334.264 275.114C333.719 275.114 333.234 274.994 332.81 274.756C332.385 274.513 332.052 274.15 331.81 273.665C331.567 273.176 331.446 272.561 331.446 271.818V266.273H332.787V271.727C332.787 272.364 332.965 272.871 333.321 273.25C333.681 273.629 334.139 273.818 334.696 273.818C335.029 273.818 335.368 273.733 335.713 273.562C336.062 273.392 336.353 273.131 336.588 272.778C336.827 272.426 336.946 271.977 336.946 271.432ZM340.743 275V266.273H342.038V267.591H342.129C342.288 267.159 342.576 266.809 342.993 266.54C343.41 266.271 343.879 266.136 344.402 266.136C344.5 266.136 344.624 266.138 344.771 266.142C344.919 266.146 345.031 266.152 345.107 266.159V267.523C345.061 267.511 344.957 267.494 344.794 267.472C344.635 267.445 344.466 267.432 344.288 267.432C343.864 267.432 343.485 267.521 343.152 267.699C342.822 267.873 342.561 268.116 342.368 268.426C342.179 268.733 342.084 269.083 342.084 269.477V275H340.743ZM25.7955 294.205C25.2424 294.205 24.7405 294.1 24.2898 293.892C23.839 293.68 23.4811 293.375 23.2159 292.977C22.9508 292.576 22.8182 292.091 22.8182 291.523C22.8182 291.023 22.9167 290.617 23.1136 290.307C23.3106 289.992 23.5739 289.746 23.9034 289.568C24.233 289.39 24.5966 289.258 24.9943 289.17C25.3958 289.08 25.7992 289.008 26.2045 288.955C26.7348 288.886 27.1648 288.835 27.4943 288.801C27.8277 288.763 28.0701 288.701 28.2216 288.614C28.3769 288.527 28.4545 288.375 28.4545 288.159V288.114C28.4545 287.553 28.3011 287.117 27.9943 286.807C27.6913 286.496 27.2311 286.341 26.6136 286.341C25.9735 286.341 25.4716 286.481 25.108 286.761C24.7443 287.042 24.4886 287.341 24.3409 287.659L23.0682 287.205C23.2955 286.674 23.5985 286.261 23.9773 285.966C24.3598 285.667 24.7765 285.458 25.2273 285.341C25.6818 285.22 26.1288 285.159 26.5682 285.159C26.8485 285.159 27.1705 285.193 27.5341 285.261C27.9015 285.326 28.2557 285.46 28.5966 285.665C28.9413 285.869 29.2273 286.178 29.4545 286.591C29.6818 287.004 29.7955 287.557 29.7955 288.25V294H28.4545V292.818H28.3864C28.2955 293.008 28.1439 293.21 27.9318 293.426C27.7197 293.642 27.4375 293.826 27.0852 293.977C26.733 294.129 26.303 294.205 25.7955 294.205ZM26 293C26.5303 293 26.9773 292.896 27.3409 292.688C27.7083 292.479 27.9848 292.21 28.1705 291.881C28.3598 291.551 28.4545 291.205 28.4545 290.841V289.614C28.3977 289.682 28.2727 289.744 28.0795 289.801C27.8902 289.854 27.6705 289.902 27.4205 289.943C27.1742 289.981 26.9337 290.015 26.6989 290.045C26.4678 290.072 26.2803 290.095 26.1364 290.114C25.7879 290.159 25.4621 290.233 25.1591 290.335C24.8598 290.434 24.6174 290.583 24.4318 290.784C24.25 290.981 24.1591 291.25 24.1591 291.591C24.1591 292.057 24.3314 292.409 24.6761 292.648C25.0246 292.883 25.4659 293 26 293ZM35.7656 297.455C35.1179 297.455 34.5611 297.371 34.0952 297.205C33.6293 297.042 33.241 296.826 32.9304 296.557C32.6236 296.292 32.3793 296.008 32.1974 295.705L33.2656 294.955C33.3868 295.114 33.5402 295.295 33.7259 295.5C33.9115 295.708 34.1652 295.888 34.4872 296.04C34.813 296.195 35.2391 296.273 35.7656 296.273C36.4702 296.273 37.0516 296.102 37.5099 295.761C37.9683 295.42 38.1974 294.886 38.1974 294.159V292.386H38.0838C37.9853 292.545 37.8452 292.742 37.6634 292.977C37.4853 293.208 37.2277 293.415 36.8906 293.597C36.5573 293.775 36.1065 293.864 35.5384 293.864C34.8338 293.864 34.2012 293.697 33.6406 293.364C33.0838 293.03 32.6425 292.545 32.3168 291.909C31.9948 291.273 31.8338 290.5 31.8338 289.591C31.8338 288.697 31.991 287.919 32.3054 287.256C32.6198 286.589 33.0573 286.074 33.6179 285.71C34.1785 285.343 34.8262 285.159 35.5611 285.159C36.1293 285.159 36.58 285.254 36.9134 285.443C37.2505 285.629 37.508 285.841 37.6861 286.08C37.8679 286.314 38.008 286.508 38.1065 286.659H38.2429V285.273H39.5384V294.25C39.5384 295 39.3679 295.61 39.027 296.08C38.6899 296.553 38.2353 296.9 37.6634 297.119C37.0952 297.343 36.4626 297.455 35.7656 297.455ZM35.7202 292.659C36.258 292.659 36.7126 292.536 37.0838 292.29C37.455 292.044 37.7372 291.689 37.9304 291.227C38.1236 290.765 38.2202 290.212 38.2202 289.568C38.2202 288.939 38.1255 288.384 37.9361 287.903C37.7467 287.422 37.4664 287.045 37.0952 286.773C36.724 286.5 36.2656 286.364 35.7202 286.364C35.152 286.364 34.6785 286.508 34.2997 286.795C33.9247 287.083 33.6425 287.47 33.4531 287.955C33.2675 288.439 33.1747 288.977 33.1747 289.568C33.1747 290.174 33.2694 290.71 33.4588 291.176C33.652 291.638 33.9361 292.002 34.3111 292.267C34.6899 292.528 35.1596 292.659 35.7202 292.659ZM45.652 294.182C44.8111 294.182 44.0857 293.996 43.4759 293.625C42.8698 293.25 42.402 292.727 42.0724 292.057C41.7467 291.383 41.5838 290.598 41.5838 289.705C41.5838 288.811 41.7467 288.023 42.0724 287.341C42.402 286.655 42.8603 286.121 43.4474 285.739C44.0384 285.352 44.7277 285.159 45.5156 285.159C45.9702 285.159 46.419 285.235 46.8622 285.386C47.3054 285.538 47.7088 285.784 48.0724 286.125C48.4361 286.462 48.7259 286.909 48.9418 287.466C49.1577 288.023 49.2656 288.708 49.2656 289.523V290.091H42.5384V288.932H47.902C47.902 288.439 47.8035 288 47.6065 287.614C47.4134 287.227 47.1368 286.922 46.777 286.699C46.4209 286.475 46.0005 286.364 45.5156 286.364C44.9815 286.364 44.5194 286.496 44.1293 286.761C43.7429 287.023 43.4455 287.364 43.2372 287.784C43.0289 288.205 42.9247 288.655 42.9247 289.136V289.909C42.9247 290.568 43.0384 291.127 43.2656 291.585C43.4967 292.04 43.8168 292.386 44.2259 292.625C44.6349 292.86 45.1103 292.977 45.652 292.977C46.0043 292.977 46.3224 292.928 46.6065 292.83C46.8944 292.727 47.1425 292.576 47.3509 292.375C47.5592 292.17 47.7202 291.917 47.8338 291.614L49.1293 291.977C48.9929 292.417 48.7637 292.803 48.4418 293.136C48.1198 293.466 47.7221 293.723 47.2486 293.909C46.7751 294.091 46.2429 294.182 45.652 294.182ZM52.6463 288.75V294H51.3054V285.273H52.6009V286.636H52.7145C52.919 286.193 53.2296 285.837 53.6463 285.568C54.063 285.295 54.6009 285.159 55.2599 285.159C55.8509 285.159 56.3679 285.28 56.8111 285.523C57.2543 285.761 57.599 286.125 57.8452 286.614C58.0914 287.098 58.2145 287.712 58.2145 288.455V294H56.8736V288.545C56.8736 287.86 56.6955 287.326 56.3395 286.943C55.9834 286.557 55.4948 286.364 54.8736 286.364C54.4455 286.364 54.063 286.456 53.7259 286.642C53.3925 286.828 53.1293 287.098 52.9361 287.455C52.7429 287.811 52.6463 288.242 52.6463 288.75ZM64.4602 285.273V286.409H59.9375V285.273H64.4602ZM61.2557 283.182H62.5966V291.5C62.5966 291.879 62.6515 292.163 62.7614 292.352C62.875 292.538 63.0189 292.663 63.1932 292.727C63.3712 292.788 63.5587 292.818 63.7557 292.818C63.9034 292.818 64.0246 292.811 64.1193 292.795C64.214 292.777 64.2898 292.761 64.3466 292.75L64.6193 293.955C64.5284 293.989 64.4015 294.023 64.2386 294.057C64.0758 294.095 63.8693 294.114 63.6193 294.114C63.2405 294.114 62.8693 294.032 62.5057 293.869C62.1458 293.706 61.8466 293.458 61.608 293.125C61.3731 292.792 61.2557 292.371 61.2557 291.864V283.182ZM67.4545 294.091C67.1742 294.091 66.9337 293.991 66.733 293.79C66.5322 293.589 66.4318 293.348 66.4318 293.068C66.4318 292.788 66.5322 292.547 66.733 292.347C66.9337 292.146 67.1742 292.045 67.4545 292.045C67.7348 292.045 67.9754 292.146 68.1761 292.347C68.3769 292.547 68.4773 292.788 68.4773 293.068C68.4773 293.254 68.4299 293.424 68.3352 293.58C68.2443 293.735 68.1212 293.86 67.9659 293.955C67.8144 294.045 67.6439 294.091 67.4545 294.091Z" fill="#232323"/>
</svg>
