<svg width="90" height="166" viewBox="0 0 90 166" fill="none" xmlns="http://www.w3.org/2000/svg">
<path d="M13.4659 9H11.7045C11.6004 8.49337 11.4181 8.0483 11.1577 7.66477C10.902 7.28125 10.5895 6.95928 10.2202 6.69886C9.85559 6.43371 9.45076 6.23485 9.00568 6.10227C8.56061 5.9697 8.09659 5.90341 7.61364 5.90341C6.73295 5.90341 5.93513 6.12595 5.22017 6.57102C4.50994 7.0161 3.94413 7.67188 3.52273 8.53835C3.10606 9.40483 2.89773 10.4678 2.89773 11.7273C2.89773 12.9867 3.10606 14.0497 3.52273 14.9162C3.94413 15.7827 4.50994 16.4384 5.22017 16.8835C5.93513 17.3286 6.73295 17.5511 7.61364 17.5511C8.09659 17.5511 8.56061 17.4848 9.00568 17.3523C9.45076 17.2197 9.85559 17.0232 10.2202 16.7628C10.5895 16.4976 10.902 16.1733 11.1577 15.7898C11.4181 15.4015 11.6004 14.9564 11.7045 14.4545H13.4659C13.3333 15.1979 13.0919 15.8632 12.7415 16.4503C12.3911 17.0374 11.9555 17.5369 11.4347 17.9489C10.9138 18.3561 10.3291 18.6662 9.6804 18.8793C9.03646 19.0923 8.34754 19.1989 7.61364 19.1989C6.37311 19.1989 5.26989 18.8958 4.30398 18.2898C3.33807 17.6837 2.57813 16.822 2.02415 15.7045C1.47017 14.5871 1.19318 13.2614 1.19318 11.7273C1.19318 10.1932 1.47017 8.86742 2.02415 7.75C2.57813 6.63258 3.33807 5.77083 4.30398 5.16477C5.26989 4.55871 6.37311 4.25568 7.61364 4.25568C8.34754 4.25568 9.03646 4.36222 9.6804 4.57528C10.3291 4.78835 10.9138 5.10085 11.4347 5.51278C11.9555 5.91998 12.3911 6.41714 12.7415 7.00426C13.0919 7.58665 13.3333 8.25189 13.4659 9ZM20.5167 19.2273C19.5318 19.2273 18.6677 18.9929 17.9244 18.5241C17.1857 18.0554 16.6081 17.3996 16.1914 16.5568C15.7795 15.714 15.5735 14.7292 15.5735 13.6023C15.5735 12.4659 15.7795 11.474 16.1914 10.6264C16.6081 9.77888 17.1857 9.12074 17.9244 8.65199C18.6677 8.18324 19.5318 7.94886 20.5167 7.94886C21.5015 7.94886 22.3633 8.18324 23.1019 8.65199C23.8453 9.12074 24.4229 9.77888 24.8349 10.6264C25.2515 11.474 25.4599 12.4659 25.4599 13.6023C25.4599 14.7292 25.2515 15.714 24.8349 16.5568C24.4229 17.3996 23.8453 18.0554 23.1019 18.5241C22.3633 18.9929 21.5015 19.2273 20.5167 19.2273ZM20.5167 17.7216C21.2648 17.7216 21.8803 17.5298 22.3633 17.1463C22.8462 16.7628 23.2037 16.2585 23.4357 15.6335C23.6677 15.0085 23.7837 14.3314 23.7837 13.6023C23.7837 12.8731 23.6677 12.1937 23.4357 11.5639C23.2037 10.9342 22.8462 10.4252 22.3633 10.0369C21.8803 9.64867 21.2648 9.45455 20.5167 9.45455C19.7686 9.45455 19.1531 9.64867 18.6701 10.0369C18.1871 10.4252 17.8297 10.9342 17.5977 11.5639C17.3656 12.1937 17.2496 12.8731 17.2496 13.6023C17.2496 14.3314 17.3656 15.0085 17.5977 15.6335C17.8297 16.2585 18.1871 16.7628 18.6701 17.1463C19.1531 17.5298 19.7686 17.7216 20.5167 17.7216ZM28.0185 19V8.09091H29.6378V9.79545H29.7798C30.0071 9.21307 30.3741 8.76089 30.8807 8.43892C31.3873 8.11222 31.9957 7.94886 32.706 7.94886C33.4257 7.94886 34.0246 8.11222 34.5028 8.43892C34.9858 8.76089 35.3622 9.21307 35.6321 9.79545H35.7457C36.0251 9.23201 36.4441 8.78456 37.0028 8.45312C37.5616 8.11695 38.2315 7.94886 39.0128 7.94886C39.9882 7.94886 40.786 8.25426 41.4062 8.86506C42.0265 9.47112 42.3366 10.4157 42.3366 11.6989V19H40.6605V11.6989C40.6605 10.8939 40.4403 10.3187 40 9.97301C39.5597 9.62737 39.0412 9.45455 38.4446 9.45455C37.6776 9.45455 37.0833 9.68655 36.6619 10.1506C36.2405 10.6098 36.0298 11.1922 36.0298 11.8977V19H34.3253V11.5284C34.3253 10.9081 34.1241 10.4086 33.7216 10.0298C33.3191 9.64631 32.8007 9.45455 32.1662 9.45455C31.7306 9.45455 31.3234 9.57055 30.9446 9.80256C30.5705 10.0346 30.2675 10.3565 30.0355 10.7685C29.8082 11.1757 29.6946 11.6468 29.6946 12.1818V19H28.0185ZM45.4013 23.0909V8.09091H47.0206V9.82386H47.2195C47.3426 9.63447 47.513 9.39299 47.7308 9.09943C47.9534 8.80114 48.2706 8.53598 48.6825 8.30398C49.0992 8.06723 49.6626 7.94886 50.3729 7.94886C51.2914 7.94886 52.1011 8.1785 52.8018 8.63778C53.5026 9.09706 54.0495 9.74811 54.4425 10.5909C54.8355 11.4337 55.032 12.428 55.032 13.5739C55.032 14.7292 54.8355 15.7306 54.4425 16.5781C54.0495 17.4209 53.505 18.0743 52.8089 18.5384C52.1129 18.9976 51.3104 19.2273 50.4013 19.2273C49.7005 19.2273 49.1394 19.1113 48.718 18.8793C48.2966 18.6425 47.9723 18.375 47.745 18.0767C47.5178 17.7737 47.3426 17.5227 47.2195 17.3239H47.0774V23.0909H45.4013ZM47.049 13.5455C47.049 14.3693 47.1697 15.0961 47.4112 15.7259C47.6527 16.3509 48.0054 16.8409 48.4695 17.196C48.9335 17.5464 49.5017 17.7216 50.174 17.7216C50.8748 17.7216 51.4595 17.5369 51.9283 17.1676C52.4018 16.7936 52.7569 16.2917 52.9936 15.6619C53.2351 15.0275 53.3558 14.322 53.3558 13.5455C53.3558 12.7784 53.2375 12.0871 53.0007 11.4716C52.7687 10.8513 52.416 10.3613 51.9425 10.0014C51.4737 9.63684 50.8842 9.45455 50.174 9.45455C49.4922 9.45455 48.9193 9.62737 48.4553 9.97301C47.9912 10.3139 47.6409 10.7921 47.4041 11.4077C47.1674 12.0185 47.049 12.7311 47.049 13.5455ZM60.799 19.2557C60.1077 19.2557 59.4804 19.1255 58.9169 18.8651C58.3535 18.5999 57.906 18.2188 57.5746 17.7216C57.2431 17.2197 57.0774 16.6136 57.0774 15.9034C57.0774 15.2784 57.2005 14.7718 57.4467 14.3835C57.6929 13.9905 58.022 13.6828 58.4339 13.4602C58.8459 13.2377 59.3004 13.072 59.7976 12.9631C60.2995 12.8494 60.8037 12.7595 61.3104 12.6932C61.9732 12.608 62.5107 12.544 62.9226 12.5014C63.3393 12.4541 63.6423 12.3759 63.8317 12.267C64.0258 12.1581 64.1229 11.9687 64.1229 11.6989V11.642C64.1229 10.9413 63.9311 10.3968 63.5476 10.0085C63.1688 9.62027 62.5935 9.42614 61.8217 9.42614C61.0215 9.42614 60.3942 9.60133 59.9396 9.9517C59.4851 10.3021 59.1655 10.6761 58.9808 11.0739L57.3899 10.5057C57.674 9.8428 58.0528 9.3267 58.5263 8.95739C59.0045 8.58333 59.5253 8.32292 60.0888 8.17614C60.657 8.02462 61.2157 7.94886 61.7649 7.94886C62.1153 7.94886 62.5178 7.99148 62.9723 8.0767C63.4316 8.1572 63.8743 8.32528 64.3004 8.58097C64.7313 8.83665 65.0888 9.22254 65.3729 9.73864C65.657 10.2547 65.799 10.946 65.799 11.8125V19H64.1229V17.5227H64.0376C63.924 17.7595 63.7346 18.0128 63.4695 18.2827C63.2043 18.5526 62.8516 18.7822 62.4112 18.9716C61.9709 19.161 61.4335 19.2557 60.799 19.2557ZM61.0547 17.75C61.7176 17.75 62.2763 17.6198 62.7308 17.3594C63.1901 17.099 63.5357 16.7628 63.7678 16.3509C64.0045 15.9389 64.1229 15.5057 64.1229 15.0511V13.517C64.0518 13.6023 63.8956 13.6804 63.6541 13.7514C63.4174 13.8177 63.1428 13.8769 62.8303 13.929C62.5225 13.9763 62.2218 14.0189 61.9283 14.0568C61.6394 14.09 61.4051 14.1184 61.2251 14.142C60.7895 14.1989 60.3823 14.2912 60.0036 14.419C59.6295 14.5421 59.3265 14.7292 59.0945 14.9801C58.8672 15.2263 58.7536 15.5625 58.7536 15.9886C58.7536 16.571 58.969 17.0114 59.3999 17.3097C59.8355 17.6032 60.3871 17.75 61.0547 17.75ZM70.5344 12.4375V19H68.8583V8.09091H70.4776V9.79545H70.6197C70.8754 9.24148 71.2636 8.7964 71.7844 8.46023C72.3053 8.11932 72.9776 7.94886 73.8015 7.94886C74.5401 7.94886 75.1864 8.10038 75.7404 8.40341C76.2944 8.7017 76.7253 9.15625 77.033 9.76705C77.3408 10.3731 77.4947 11.1402 77.4947 12.0682V19H75.8185V12.1818C75.8185 11.3248 75.596 10.6572 75.1509 10.179C74.7058 9.69602 74.0951 9.45455 73.3185 9.45455C72.7835 9.45455 72.3053 9.57055 71.8839 9.80256C71.4672 10.0346 71.1381 10.3731 70.8967 10.8182C70.6552 11.2633 70.5344 11.803 70.5344 12.4375ZM81.2464 23.0909C80.9624 23.0909 80.709 23.0672 80.4865 23.0199C80.264 22.9773 80.1101 22.9347 80.0249 22.892L80.451 21.4148C80.8582 21.5189 81.218 21.5568 81.5305 21.5284C81.843 21.5 82.12 21.3603 82.3615 21.1094C82.6077 20.8632 82.8326 20.4631 83.0362 19.9091L83.3487 19.0568L79.3146 8.09091H81.1328L84.1442 16.7841H84.2578L87.2692 8.09091H89.0874L84.4567 20.5909C84.2483 21.1544 83.9903 21.6207 83.6825 21.9901C83.3748 22.3641 83.0173 22.6411 82.6101 22.821C82.2076 23.0009 81.7531 23.0909 81.2464 23.0909Z" fill="white"/>
<path d="M1.23295 67V56.8182H2.46591V61.3523H7.89489V56.8182H9.12784V67H7.89489V62.446H2.46591V67H1.23295ZM14.5394 67.1591C13.85 67.1591 13.2451 66.995 12.7248 66.6669C12.2077 66.3388 11.8034 65.8797 11.5117 65.2898C11.2234 64.6998 11.0792 64.0104 11.0792 63.2216C11.0792 62.4261 11.2234 61.7318 11.5117 61.1385C11.8034 60.5452 12.2077 60.0845 12.7248 59.7564C13.2451 59.4283 13.85 59.2642 14.5394 59.2642C15.2288 59.2642 15.832 59.4283 16.3491 59.7564C16.8694 60.0845 17.2738 60.5452 17.5621 61.1385C17.8538 61.7318 17.9996 62.4261 17.9996 63.2216C17.9996 64.0104 17.8538 64.6998 17.5621 65.2898C17.2738 65.8797 16.8694 66.3388 16.3491 66.6669C15.832 66.995 15.2288 67.1591 14.5394 67.1591ZM14.5394 66.1051C15.0631 66.1051 15.494 65.9709 15.832 65.7024C16.1701 65.4339 16.4203 65.081 16.5827 64.6435C16.7451 64.206 16.8263 63.732 16.8263 63.2216C16.8263 62.7112 16.7451 62.2356 16.5827 61.7947C16.4203 61.3539 16.1701 60.9976 15.832 60.7259C15.494 60.4541 15.0631 60.3182 14.5394 60.3182C14.0157 60.3182 13.5849 60.4541 13.2468 60.7259C12.9087 60.9976 12.6585 61.3539 12.4961 61.7947C12.3337 62.2356 12.2525 62.7112 12.2525 63.2216C12.2525 63.732 12.3337 64.206 12.4961 64.6435C12.6585 65.081 12.9087 65.4339 13.2468 65.7024C13.5849 65.9709 14.0157 66.1051 14.5394 66.1051ZM19.7907 67V59.3636H20.9242V60.5568H21.0236C21.1827 60.1491 21.4396 59.8326 21.7942 59.6072C22.1489 59.3786 22.5748 59.2642 23.0719 59.2642C23.5757 59.2642 23.995 59.3786 24.3297 59.6072C24.6678 59.8326 24.9313 60.1491 25.1202 60.5568H25.1998C25.3953 60.1624 25.6886 59.8492 26.0797 59.6172C26.4708 59.3819 26.9398 59.2642 27.4867 59.2642C28.1694 59.2642 28.7279 59.478 29.1621 59.9055C29.5963 60.3298 29.8134 60.991 29.8134 61.8892V67H28.6401V61.8892C28.6401 61.3258 28.486 60.9231 28.1777 60.6811C27.8695 60.4392 27.5066 60.3182 27.089 60.3182C26.552 60.3182 26.1361 60.4806 25.8411 60.8054C25.5461 61.1269 25.3986 61.5346 25.3986 62.0284V67H24.2054V61.7699C24.2054 61.3357 24.0646 60.986 23.7828 60.7209C23.5011 60.4524 23.1382 60.3182 22.6941 60.3182C22.3891 60.3182 22.1041 60.3994 21.839 60.5618C21.5771 60.7242 21.365 60.9496 21.2026 61.2379C21.0435 61.523 20.964 61.8527 20.964 62.2273V67H19.7907ZM35.1603 67.1591C34.4245 67.1591 33.7898 66.9967 33.2562 66.6719C32.7259 66.3438 32.3166 65.8864 32.0282 65.2997C31.7432 64.7098 31.6007 64.0237 31.6007 63.2415C31.6007 62.4593 31.7432 61.7699 32.0282 61.1733C32.3166 60.5734 32.7176 60.1061 33.2314 59.7713C33.7484 59.4332 34.3516 59.2642 35.041 59.2642C35.4387 59.2642 35.8315 59.3305 36.2193 59.4631C36.6071 59.5956 36.9601 59.8111 37.2782 60.1094C37.5964 60.4044 37.85 60.7955 38.0389 61.2827C38.2278 61.7699 38.3223 62.3698 38.3223 63.0824V63.5795H32.4359V62.5653H37.1291C37.1291 62.1345 37.0429 61.75 36.8706 61.4119C36.7015 61.0739 36.4596 60.8071 36.1447 60.6115C35.8332 60.416 35.4653 60.3182 35.041 60.3182C34.5737 60.3182 34.1693 60.4342 33.8279 60.6662C33.4899 60.8949 33.2297 61.1932 33.0474 61.5611C32.8651 61.929 32.774 62.3234 32.774 62.7443V63.4205C32.774 63.9972 32.8734 64.486 33.0723 64.8871C33.2744 65.2848 33.5545 65.5881 33.9125 65.7969C34.2704 66.0024 34.6864 66.1051 35.1603 66.1051C35.4686 66.1051 35.747 66.062 35.9956 65.9759C36.2475 65.8864 36.4645 65.7538 36.6468 65.5781C36.8291 65.3991 36.97 65.1771 37.0694 64.9119L38.2029 65.2301C38.0836 65.6146 37.8831 65.9527 37.6014 66.2443C37.3197 66.5327 36.9717 66.758 36.5574 66.9205C36.1431 67.0795 35.6774 67.1591 35.1603 67.1591Z" fill="white"/>
<path d="M1.65057 99H0.357955L4.09659 88.8182H5.36932L9.10795 99H7.81534L4.77273 90.429H4.69318L1.65057 99ZM2.12784 95.0227H7.33807V96.1165H2.12784V95.0227ZM10.6939 99V88.8182H11.8672V92.5767H11.9666C12.0528 92.4441 12.1721 92.2751 12.3246 92.0696C12.4804 91.8608 12.7024 91.6752 12.9908 91.5128C13.2824 91.3471 13.6768 91.2642 14.174 91.2642C14.817 91.2642 15.3838 91.425 15.8743 91.7464C16.3648 92.0679 16.7476 92.5237 17.0227 93.1136C17.2978 93.7036 17.4354 94.3996 17.4354 95.2017C17.4354 96.0104 17.2978 96.7114 17.0227 97.3047C16.7476 97.8946 16.3665 98.352 15.8793 98.6768C15.392 98.9983 14.8303 99.1591 14.1939 99.1591C13.7034 99.1591 13.3106 99.0779 13.0156 98.9155C12.7206 98.7498 12.4936 98.5625 12.3345 98.3537C12.1754 98.1416 12.0528 97.9659 11.9666 97.8267H11.8274V99H10.6939ZM11.8473 95.1818C11.8473 95.7585 11.9318 96.2673 12.1009 96.7081C12.2699 97.1456 12.5168 97.4886 12.8416 97.7372C13.1664 97.9825 13.5642 98.1051 14.0348 98.1051C14.5253 98.1051 14.9347 97.9759 15.2628 97.7173C15.5942 97.4555 15.8428 97.1042 16.0085 96.6634C16.1776 96.2192 16.2621 95.7254 16.2621 95.1818C16.2621 94.6449 16.1792 94.161 16.0135 93.7301C15.8511 93.2959 15.6042 92.9529 15.2727 92.701C14.9446 92.4458 14.532 92.3182 14.0348 92.3182C13.5575 92.3182 13.1565 92.4392 12.8317 92.6811C12.5069 92.9197 12.2616 93.2545 12.0959 93.6854C11.9302 94.1129 11.8473 94.6117 11.8473 95.1818ZM22.3324 99.1591C21.643 99.1591 21.0381 98.995 20.5178 98.6669C20.0007 98.3388 19.5964 97.8797 19.3047 97.2898C19.0163 96.6998 18.8722 96.0104 18.8722 95.2216C18.8722 94.4261 19.0163 93.7318 19.3047 93.1385C19.5964 92.5452 20.0007 92.0845 20.5178 91.7564C21.0381 91.4283 21.643 91.2642 22.3324 91.2642C23.0218 91.2642 23.625 91.4283 24.142 91.7564C24.6624 92.0845 25.0668 92.5452 25.3551 93.1385C25.6468 93.7318 25.7926 94.4261 25.7926 95.2216C25.7926 96.0104 25.6468 96.6998 25.3551 97.2898C25.0668 97.8797 24.6624 98.3388 24.142 98.6669C23.625 98.995 23.0218 99.1591 22.3324 99.1591ZM22.3324 98.1051C22.8561 98.1051 23.2869 97.9709 23.625 97.7024C23.9631 97.4339 24.2133 97.081 24.3757 96.6435C24.5381 96.206 24.6193 95.732 24.6193 95.2216C24.6193 94.7112 24.5381 94.2356 24.3757 93.7947C24.2133 93.3539 23.9631 92.9976 23.625 92.7259C23.2869 92.4541 22.8561 92.3182 22.3324 92.3182C21.8087 92.3182 21.3778 92.4541 21.0398 92.7259C20.7017 92.9976 20.4515 93.3539 20.2891 93.7947C20.1267 94.2356 20.0455 94.7112 20.0455 95.2216C20.0455 95.732 20.1267 96.206 20.2891 96.6435C20.4515 97.081 20.7017 97.4339 21.0398 97.7024C21.3778 97.9709 21.8087 98.1051 22.3324 98.1051ZM32.3961 95.8778V91.3636H33.5694V99H32.3961V97.7074H32.3166C32.1376 98.0952 31.8592 98.425 31.4814 98.6967C31.1035 98.9652 30.6262 99.0994 30.0495 99.0994C29.5723 99.0994 29.148 98.995 28.7768 98.7862C28.4056 98.5741 28.1139 98.2559 27.9018 97.8317C27.6897 97.4041 27.5836 96.8655 27.5836 96.2159V91.3636H28.7569V96.1364C28.7569 96.6932 28.9127 97.1373 29.2243 97.4688C29.5391 97.8002 29.9402 97.9659 30.4274 97.9659C30.719 97.9659 31.0157 97.8913 31.3173 97.7422C31.6222 97.593 31.8774 97.3643 32.0829 97.0561C32.2917 96.7479 32.3961 96.3551 32.3961 95.8778ZM39.0394 91.3636V92.358H35.082V91.3636H39.0394ZM36.2354 89.5341H37.4087V96.8125C37.4087 97.1439 37.4568 97.3925 37.5529 97.5582C37.6523 97.7206 37.7783 97.83 37.9308 97.8864C38.0865 97.9394 38.2506 97.9659 38.4229 97.9659C38.5522 97.9659 38.6583 97.9593 38.7411 97.946C38.824 97.9295 38.8903 97.9162 38.94 97.9062L39.1786 98.9602C39.0991 98.9901 38.988 99.0199 38.8455 99.0497C38.703 99.0829 38.5224 99.0994 38.3036 99.0994C37.9722 99.0994 37.6474 99.0282 37.3292 98.8857C37.0143 98.7431 36.7525 98.526 36.5437 98.2344C36.3382 97.9427 36.2354 97.5748 36.2354 97.1307V89.5341Z" fill="white"/>
<path d="M1.23295 131V120.818H4.6733C5.46875 120.818 6.12169 120.954 6.6321 121.226C7.14252 121.494 7.52036 121.864 7.76562 122.335C8.01089 122.805 8.13352 123.34 8.13352 123.94C8.13352 124.54 8.01089 125.072 7.76562 125.536C7.52036 126 7.14418 126.365 6.63707 126.63C6.12997 126.892 5.48201 127.023 4.69318 127.023H1.90909V125.909H4.65341C5.19697 125.909 5.63447 125.83 5.96591 125.67C6.30066 125.511 6.54261 125.286 6.69176 124.994C6.84422 124.699 6.92045 124.348 6.92045 123.94C6.92045 123.533 6.84422 123.176 6.69176 122.871C6.5393 122.567 6.29569 122.331 5.96094 122.165C5.62618 121.996 5.18371 121.912 4.63352 121.912H2.46591V131H1.23295ZM6.02557 126.426L8.53125 131H7.09943L4.63352 126.426H6.02557ZM13.1486 131.159C12.4128 131.159 11.7781 130.997 11.2445 130.672C10.7142 130.344 10.3049 129.886 10.0165 129.3C9.73147 128.71 9.58896 128.024 9.58896 127.241C9.58896 126.459 9.73147 125.77 10.0165 125.173C10.3049 124.573 10.7059 124.106 11.2196 123.771C11.7367 123.433 12.3399 123.264 13.0293 123.264C13.427 123.264 13.8198 123.33 14.2076 123.463C14.5953 123.596 14.9483 123.811 15.2665 124.109C15.5847 124.404 15.8382 124.795 16.0272 125.283C16.2161 125.77 16.3105 126.37 16.3105 127.082V127.58H10.4242V126.565H15.1174C15.1174 126.134 15.0312 125.75 14.8588 125.412C14.6898 125.074 14.4479 124.807 14.133 124.612C13.8214 124.416 13.4535 124.318 13.0293 124.318C12.562 124.318 12.1576 124.434 11.8162 124.666C11.4782 124.895 11.218 125.193 11.0357 125.561C10.8534 125.929 10.7623 126.323 10.7623 126.744V127.42C10.7623 127.997 10.8617 128.486 11.0605 128.887C11.2627 129.285 11.5428 129.588 11.9007 129.797C12.2587 130.002 12.6747 130.105 13.1486 130.105C13.4569 130.105 13.7353 130.062 13.9838 129.976C14.2357 129.886 14.4528 129.754 14.6351 129.578C14.8174 129.399 14.9583 129.177 15.0577 128.912L16.1912 129.23C16.0719 129.615 15.8714 129.953 15.5897 130.244C15.3079 130.533 14.9599 130.758 14.5456 130.92C14.1313 131.08 13.6657 131.159 13.1486 131.159ZM23.5044 125.074L22.4505 125.372C22.3842 125.196 22.2864 125.026 22.1571 124.86C22.0312 124.691 21.8588 124.552 21.6401 124.442C21.4213 124.333 21.1413 124.278 20.7999 124.278C20.3326 124.278 19.9431 124.386 19.6316 124.602C19.3233 124.814 19.1692 125.084 19.1692 125.412C19.1692 125.704 19.2753 125.934 19.4874 126.103C19.6995 126.272 20.031 126.413 20.4817 126.526L21.6152 126.804C22.298 126.97 22.8068 127.223 23.1415 127.565C23.4763 127.903 23.6436 128.339 23.6436 128.872C23.6436 129.31 23.5177 129.701 23.2658 130.045C23.0172 130.39 22.6692 130.662 22.2218 130.861C21.7743 131.06 21.254 131.159 20.6607 131.159C19.8818 131.159 19.2372 130.99 18.7267 130.652C18.2163 130.314 17.8932 129.82 17.7573 129.17L18.8709 128.892C18.977 129.303 19.1775 129.611 19.4725 129.817C19.7708 130.022 20.1602 130.125 20.6408 130.125C21.1877 130.125 21.6219 130.009 21.9434 129.777C22.2682 129.542 22.4306 129.26 22.4306 128.932C22.4306 128.667 22.3378 128.445 22.1522 128.266C21.9666 128.083 21.6815 127.947 21.2971 127.858L20.0243 127.56C19.325 127.394 18.8113 127.137 18.4831 126.789C18.1583 126.438 17.9959 125.999 17.9959 125.472C17.9959 125.041 18.1169 124.66 18.3588 124.328C18.6041 123.997 18.9372 123.737 19.3581 123.548C19.7824 123.359 20.263 123.264 20.7999 123.264C21.5556 123.264 22.1489 123.43 22.5797 123.761C23.0139 124.093 23.3221 124.53 23.5044 125.074ZM28.5121 131.159C27.8227 131.159 27.2178 130.995 26.6974 130.667C26.1804 130.339 25.776 129.88 25.4844 129.29C25.196 128.7 25.0518 128.01 25.0518 127.222C25.0518 126.426 25.196 125.732 25.4844 125.138C25.776 124.545 26.1804 124.085 26.6974 123.756C27.2178 123.428 27.8227 123.264 28.5121 123.264C29.2015 123.264 29.8047 123.428 30.3217 123.756C30.8421 124.085 31.2464 124.545 31.5348 125.138C31.8265 125.732 31.9723 126.426 31.9723 127.222C31.9723 128.01 31.8265 128.7 31.5348 129.29C31.2464 129.88 30.8421 130.339 30.3217 130.667C29.8047 130.995 29.2015 131.159 28.5121 131.159ZM28.5121 130.105C29.0357 130.105 29.4666 129.971 29.8047 129.702C30.1428 129.434 30.393 129.081 30.5554 128.643C30.7178 128.206 30.799 127.732 30.799 127.222C30.799 126.711 30.7178 126.236 30.5554 125.795C30.393 125.354 30.1428 124.998 29.8047 124.726C29.4666 124.454 29.0357 124.318 28.5121 124.318C27.9884 124.318 27.5575 124.454 27.2195 124.726C26.8814 124.998 26.6312 125.354 26.4688 125.795C26.3063 126.236 26.2251 126.711 26.2251 127.222C26.2251 127.732 26.3063 128.206 26.4688 128.643C26.6312 129.081 26.8814 129.434 27.2195 129.702C27.5575 129.971 27.9884 130.105 28.5121 130.105ZM38.5758 127.878V123.364H39.7491V131H38.5758V129.707H38.4963C38.3173 130.095 38.0389 130.425 37.661 130.697C37.2832 130.965 36.8059 131.099 36.2292 131.099C35.752 131.099 35.3277 130.995 34.9565 130.786C34.5853 130.574 34.2936 130.256 34.0815 129.832C33.8694 129.404 33.7633 128.866 33.7633 128.216V123.364H34.9366V128.136C34.9366 128.693 35.0924 129.137 35.4039 129.469C35.7188 129.8 36.1199 129.966 36.6071 129.966C36.8987 129.966 37.1954 129.891 37.497 129.742C37.8019 129.593 38.0571 129.364 38.2626 129.056C38.4714 128.748 38.5758 128.355 38.5758 127.878ZM41.8981 131V123.364H43.0316V124.517H43.1112C43.2504 124.139 43.5022 123.833 43.8668 123.597C44.2314 123.362 44.6424 123.244 45.0998 123.244C45.186 123.244 45.2937 123.246 45.4229 123.249C45.5522 123.253 45.65 123.258 45.7163 123.264V124.457C45.6765 124.447 45.5853 124.433 45.4428 124.413C45.3036 124.389 45.1561 124.378 45.0004 124.378C44.6291 124.378 44.2977 124.456 44.006 124.612C43.7177 124.764 43.489 124.976 43.32 125.248C43.1542 125.516 43.0714 125.823 43.0714 126.168V131H41.8981ZM49.9769 131.159C49.261 131.159 48.6445 130.99 48.1275 130.652C47.6104 130.314 47.2127 129.848 46.9343 129.255C46.6559 128.662 46.5167 127.984 46.5167 127.222C46.5167 126.446 46.6592 125.762 46.9442 125.168C47.2326 124.572 47.6336 124.106 48.1474 123.771C48.6644 123.433 49.2676 123.264 49.957 123.264C50.494 123.264 50.9779 123.364 51.4087 123.562C51.8396 123.761 52.1926 124.04 52.4677 124.398C52.7428 124.756 52.9135 125.173 52.9798 125.651H51.8065C51.717 125.303 51.5181 124.994 51.2099 124.726C50.9049 124.454 50.494 124.318 49.9769 124.318C49.5195 124.318 49.1185 124.437 48.7738 124.676C48.4324 124.911 48.1656 125.245 47.9734 125.675C47.7844 126.103 47.69 126.605 47.69 127.182C47.69 127.772 47.7828 128.286 47.9684 128.723C48.1573 129.161 48.4225 129.5 48.7638 129.742C49.1085 129.984 49.5129 130.105 49.9769 130.105C50.2818 130.105 50.5586 130.052 50.8072 129.946C51.0558 129.84 51.2662 129.688 51.4386 129.489C51.6109 129.29 51.7335 129.051 51.8065 128.773H52.9798C52.9135 129.223 52.7494 129.629 52.4876 129.991C52.229 130.349 51.886 130.634 51.4585 130.846C51.0342 131.055 50.5404 131.159 49.9769 131.159ZM57.8967 131.159C57.1609 131.159 56.5262 130.997 55.9925 130.672C55.4622 130.344 55.0529 129.886 54.7646 129.3C54.4795 128.71 54.337 128.024 54.337 127.241C54.337 126.459 54.4795 125.77 54.7646 125.173C55.0529 124.573 55.454 124.106 55.9677 123.771C56.4847 123.433 57.0879 123.264 57.7773 123.264C58.1751 123.264 58.5678 123.33 58.9556 123.463C59.3434 123.596 59.6964 123.811 60.0146 124.109C60.3327 124.404 60.5863 124.795 60.7752 125.283C60.9641 125.77 61.0586 126.37 61.0586 127.082V127.58H55.1722V126.565H59.8654C59.8654 126.134 59.7792 125.75 59.6069 125.412C59.4379 125.074 59.1959 124.807 58.881 124.612C58.5695 124.416 58.2016 124.318 57.7773 124.318C57.31 124.318 56.9057 124.434 56.5643 124.666C56.2262 124.895 55.966 125.193 55.7837 125.561C55.6014 125.929 55.5103 126.323 55.5103 126.744V127.42C55.5103 127.997 55.6097 128.486 55.8086 128.887C56.0108 129.285 56.2908 129.588 56.6488 129.797C57.0067 130.002 57.4227 130.105 57.8967 130.105C58.2049 130.105 58.4833 130.062 58.7319 129.976C58.9838 129.886 59.2009 129.754 59.3832 129.578C59.5655 129.399 59.7063 129.177 59.8058 128.912L60.9393 129.23C60.82 129.615 60.6194 129.953 60.3377 130.244C60.056 130.533 59.708 130.758 59.2937 130.92C58.8794 131.08 58.4137 131.159 57.8967 131.159ZM68.2525 125.074L67.1985 125.372C67.1322 125.196 67.0344 125.026 66.9052 124.86C66.7792 124.691 66.6069 124.552 66.3881 124.442C66.1694 124.333 65.8893 124.278 65.5479 124.278C65.0806 124.278 64.6912 124.386 64.3796 124.602C64.0714 124.814 63.9173 125.084 63.9173 125.412C63.9173 125.704 64.0233 125.934 64.2354 126.103C64.4476 126.272 64.779 126.413 65.2298 126.526L66.3633 126.804C67.046 126.97 67.5548 127.223 67.8896 127.565C68.2243 127.903 68.3917 128.339 68.3917 128.872C68.3917 129.31 68.2657 129.701 68.0138 130.045C67.7653 130.39 67.4173 130.662 66.9698 130.861C66.5224 131.06 66.002 131.159 65.4087 131.159C64.6299 131.159 63.9852 130.99 63.4748 130.652C62.9644 130.314 62.6412 129.82 62.5053 129.17L63.619 128.892C63.725 129.303 63.9255 129.611 64.2205 129.817C64.5188 130.022 64.9083 130.125 65.3888 130.125C65.9357 130.125 66.3699 130.009 66.6914 129.777C67.0162 129.542 67.1786 129.26 67.1786 128.932C67.1786 128.667 67.0858 128.445 66.9002 128.266C66.7146 128.083 66.4296 127.947 66.0451 127.858L64.7724 127.56C64.073 127.394 63.5593 127.137 63.2312 126.789C62.9064 126.438 62.744 125.999 62.744 125.472C62.744 125.041 62.8649 124.66 63.1069 124.328C63.3522 123.997 63.6853 123.737 64.1062 123.548C64.5304 123.359 65.011 123.264 65.5479 123.264C66.3036 123.264 66.8969 123.43 67.3278 123.761C67.762 124.093 68.0702 124.53 68.2525 125.074Z" fill="white"/>
<path d="M9.42614 156H8.19318C8.12027 155.645 7.99266 155.334 7.81037 155.065C7.63139 154.797 7.41264 154.571 7.15412 154.389C6.89891 154.204 6.61553 154.064 6.30398 153.972C5.99242 153.879 5.66761 153.832 5.32955 153.832C4.71307 153.832 4.15459 153.988 3.65412 154.3C3.15696 154.611 2.76089 155.07 2.46591 155.677C2.17424 156.283 2.02841 157.027 2.02841 157.909C2.02841 158.791 2.17424 159.535 2.46591 160.141C2.76089 160.748 3.15696 161.207 3.65412 161.518C4.15459 161.83 4.71307 161.986 5.32955 161.986C5.66761 161.986 5.99242 161.939 6.30398 161.847C6.61553 161.754 6.89891 161.616 7.15412 161.434C7.41264 161.248 7.63139 161.021 7.81037 160.753C7.99266 160.481 8.12027 160.17 8.19318 159.818H9.42614C9.33333 160.339 9.1643 160.804 8.91903 161.215C8.67377 161.626 8.36885 161.976 8.00426 162.264C7.63968 162.549 7.23035 162.766 6.77628 162.915C6.32552 163.065 5.84328 163.139 5.32955 163.139C4.46117 163.139 3.68892 162.927 3.01278 162.503C2.33665 162.079 1.80469 161.475 1.4169 160.693C1.02912 159.911 0.835227 158.983 0.835227 157.909C0.835227 156.835 1.02912 155.907 1.4169 155.125C1.80469 154.343 2.33665 153.74 3.01278 153.315C3.68892 152.891 4.46117 152.679 5.32955 152.679C5.84328 152.679 6.32552 152.754 6.77628 152.903C7.23035 153.052 7.63968 153.271 8.00426 153.559C8.36885 153.844 8.67377 154.192 8.91903 154.603C9.1643 155.011 9.33333 155.476 9.42614 156ZM14.3617 163.159C13.6723 163.159 13.0674 162.995 12.5471 162.667C12.03 162.339 11.6257 161.88 11.334 161.29C11.0456 160.7 10.9015 160.01 10.9015 159.222C10.9015 158.426 11.0456 157.732 11.334 157.138C11.6257 156.545 12.03 156.085 12.5471 155.756C13.0674 155.428 13.6723 155.264 14.3617 155.264C15.0511 155.264 15.6543 155.428 16.1713 155.756C16.6917 156.085 17.0961 156.545 17.3844 157.138C17.6761 157.732 17.8219 158.426 17.8219 159.222C17.8219 160.01 17.6761 160.7 17.3844 161.29C17.0961 161.88 16.6917 162.339 16.1713 162.667C15.6543 162.995 15.0511 163.159 14.3617 163.159ZM14.3617 162.105C14.8854 162.105 15.3162 161.971 15.6543 161.702C15.9924 161.434 16.2426 161.081 16.405 160.643C16.5674 160.206 16.6486 159.732 16.6486 159.222C16.6486 158.711 16.5674 158.236 16.405 157.795C16.2426 157.354 15.9924 156.998 15.6543 156.726C15.3162 156.454 14.8854 156.318 14.3617 156.318C13.838 156.318 13.4071 156.454 13.0691 156.726C12.731 156.998 12.4808 157.354 12.3184 157.795C12.156 158.236 12.0748 158.711 12.0748 159.222C12.0748 159.732 12.156 160.206 12.3184 160.643C12.4808 161.081 12.731 161.434 13.0691 161.702C13.4071 161.971 13.838 162.105 14.3617 162.105ZM20.7862 158.406V163H19.6129V155.364H20.7464V156.557H20.8459C21.0249 156.169 21.2966 155.857 21.6612 155.622C22.0258 155.384 22.4964 155.264 23.0732 155.264C23.5902 155.264 24.0426 155.37 24.4304 155.582C24.8182 155.791 25.1198 156.109 25.3352 156.537C25.5507 156.961 25.6584 157.498 25.6584 158.148V163H24.4851V158.227C24.4851 157.627 24.3293 157.16 24.0178 156.825C23.7062 156.487 23.2786 156.318 22.7351 156.318C22.3606 156.318 22.0258 156.399 21.7308 156.562C21.4392 156.724 21.2088 156.961 21.0398 157.273C20.8707 157.584 20.7862 157.962 20.7862 158.406ZM31.1234 155.364V156.358H27.166V155.364H31.1234ZM28.3194 153.534H29.4927V160.812C29.4927 161.144 29.5408 161.393 29.6369 161.558C29.7363 161.721 29.8623 161.83 30.0147 161.886C30.1705 161.939 30.3346 161.966 30.5069 161.966C30.6362 161.966 30.7422 161.959 30.8251 161.946C30.908 161.929 30.9743 161.916 31.024 161.906L31.2626 162.96C31.1831 162.99 31.072 163.02 30.9295 163.05C30.787 163.083 30.6064 163.099 30.3876 163.099C30.0562 163.099 29.7314 163.028 29.4132 162.886C29.0983 162.743 28.8365 162.526 28.6277 162.234C28.4222 161.943 28.3194 161.575 28.3194 161.131V153.534ZM35.1355 163.179C34.6516 163.179 34.2124 163.088 33.818 162.906C33.4236 162.72 33.1104 162.453 32.8784 162.105C32.6464 161.754 32.5304 161.33 32.5304 160.832C32.5304 160.395 32.6165 160.04 32.7889 159.768C32.9612 159.493 33.1916 159.278 33.4799 159.122C33.7683 158.966 34.0865 158.85 34.4345 158.774C34.7858 158.695 35.1388 158.632 35.4934 158.585C35.9574 158.526 36.3336 158.481 36.622 158.451C36.9136 158.418 37.1258 158.363 37.2583 158.287C37.3942 158.211 37.4622 158.078 37.4622 157.889V157.849C37.4622 157.359 37.3279 156.978 37.0595 156.706C36.7943 156.434 36.3916 156.298 35.8514 156.298C35.2913 156.298 34.8521 156.421 34.5339 156.666C34.2157 156.911 33.992 157.173 33.8627 157.452L32.7491 157.054C32.948 156.59 33.2131 156.229 33.5446 155.97C33.8793 155.708 34.2439 155.526 34.6383 155.423C35.036 155.317 35.4271 155.264 35.8116 155.264C36.0569 155.264 36.3386 155.294 36.6568 155.354C36.9783 155.41 37.2882 155.528 37.5865 155.707C37.8881 155.886 38.1383 156.156 38.3372 156.517C38.536 156.878 38.6355 157.362 38.6355 157.969V163H37.4622V161.966H37.4025C37.323 162.132 37.1904 162.309 37.0048 162.498C36.8192 162.687 36.5723 162.848 36.264 162.98C35.9558 163.113 35.5796 163.179 35.1355 163.179ZM35.3145 162.125C35.7785 162.125 36.1696 162.034 36.4877 161.852C36.8092 161.669 37.0512 161.434 37.2136 161.146C37.3793 160.857 37.4622 160.554 37.4622 160.236V159.162C37.4125 159.222 37.3031 159.276 37.1341 159.326C36.9683 159.372 36.7761 159.414 36.5574 159.45C36.3419 159.483 36.1315 159.513 35.926 159.54C35.7238 159.563 35.5597 159.583 35.4338 159.599C35.1288 159.639 34.8438 159.704 34.5787 159.793C34.3168 159.879 34.1047 160.01 33.9423 160.186C33.7832 160.358 33.7037 160.594 33.7037 160.892C33.7037 161.3 33.8545 161.608 34.1561 161.817C34.461 162.022 34.8471 162.125 35.3145 162.125ZM43.8793 163.159C43.1634 163.159 42.5469 162.99 42.0298 162.652C41.5128 162.314 41.1151 161.848 40.8366 161.255C40.5582 160.662 40.419 159.984 40.419 159.222C40.419 158.446 40.5616 157.762 40.8466 157.168C41.1349 156.572 41.536 156.106 42.0497 155.771C42.5668 155.433 43.17 155.264 43.8594 155.264C44.3963 155.264 44.8802 155.364 45.3111 155.562C45.742 155.761 46.0949 156.04 46.37 156.398C46.6451 156.756 46.8158 157.173 46.8821 157.651H45.7088C45.6193 157.303 45.4205 156.994 45.1122 156.726C44.8073 156.454 44.3963 156.318 43.8793 156.318C43.4219 156.318 43.0208 156.437 42.6761 156.676C42.3348 156.911 42.0679 157.245 41.8757 157.675C41.6868 158.103 41.5923 158.605 41.5923 159.182C41.5923 159.772 41.6851 160.286 41.8707 160.723C42.0597 161.161 42.3248 161.5 42.6662 161.742C43.0109 161.984 43.4152 162.105 43.8793 162.105C44.1842 162.105 44.4609 162.052 44.7095 161.946C44.9581 161.84 45.1686 161.688 45.3409 161.489C45.5133 161.29 45.6359 161.051 45.7088 160.773H46.8821C46.8158 161.223 46.6518 161.629 46.3899 161.991C46.1314 162.349 45.7884 162.634 45.3608 162.846C44.9366 163.055 44.4427 163.159 43.8793 163.159ZM51.9183 155.364V156.358H47.9609V155.364H51.9183ZM49.1143 153.534H50.2876V160.812C50.2876 161.144 50.3357 161.393 50.4318 161.558C50.5313 161.721 50.6572 161.83 50.8097 161.886C50.9654 161.939 51.1295 161.966 51.3018 161.966C51.4311 161.966 51.5372 161.959 51.62 161.946C51.7029 161.929 51.7692 161.916 51.8189 161.906L52.0575 162.96C51.978 162.99 51.867 163.02 51.7244 163.05C51.5819 163.083 51.4013 163.099 51.1825 163.099C50.8511 163.099 50.5263 163.028 50.2081 162.886C49.8932 162.743 49.6314 162.526 49.4226 162.234C49.2171 161.943 49.1143 161.575 49.1143 161.131V153.534Z" fill="white"/>
</svg>
