<svg width="318" height="70" viewBox="0 0 318 70" fill="none" xmlns="http://www.w3.org/2000/svg">
<rect width="68.575" height="70" rx="30" fill="white"/>
<path d="M38.9071 31.1714L56.9893 10H52.7036L37.0071 28.3821L24.4643 10H10L28.9643 37.8L10 60H14.2857L30.8643 40.5857L44.1107 60H58.575L38.9071 31.1714ZM33.0393 38.0429L31.1179 35.275L15.8286 13.25H22.4107L34.7464 31.025L36.6679 33.7929L52.7071 56.9H46.125L33.0393 38.0429Z" fill="#232323"/>
<rect x="81.575" width="69.9832" height="70" rx="30" fill="white"/>
<path d="M134.234 17.3159C130.738 13.8216 126.285 11.4424 121.437 10.4792C116.589 9.51593 111.564 10.0119 106.998 11.9043C102.432 13.7968 98.5293 17.0007 95.784 21.111C93.0388 25.2213 91.574 30.0533 91.575 34.9961C91.575 41.6253 94.2076 47.9833 98.894 52.6721C103.58 57.3609 109.937 59.9967 116.566 60C119.847 60.0014 123.096 59.3601 126.13 58.1124C129.154 56.8358 131.905 54.9903 134.234 52.6762C136.556 50.3546 138.398 47.5983 139.655 44.5647C140.911 41.5311 141.558 38.2796 141.558 34.9961C141.558 31.7125 140.911 28.461 139.655 25.4274C138.398 22.3938 136.556 19.6375 134.234 17.3159ZM132.472 50.8894C128.873 54.5036 124.151 56.7848 119.083 57.3574V40.8475H123.815C124.482 40.8475 125.122 40.5823 125.594 40.1104C126.066 39.6384 126.331 38.9982 126.331 38.3307C126.331 37.6633 126.066 37.0231 125.594 36.5511C125.122 36.0792 124.482 35.814 123.815 35.814H119.083V28.9181C119.083 28.2506 119.348 27.6105 119.82 27.1385C120.292 26.6665 120.932 26.4013 121.6 26.4013H124.62C125.287 26.4013 125.928 26.1362 126.4 25.6642C126.872 25.1922 127.137 24.5521 127.137 23.8846C127.137 23.2171 126.872 22.577 126.4 22.105C125.928 21.633 125.287 21.3678 124.62 21.3678H120.341C118.673 21.3678 117.072 22.0307 115.892 23.2107C114.712 24.3906 114.05 25.991 114.05 27.6597V35.814H109.343C108.676 35.814 108.036 36.0792 107.564 36.5511C107.092 37.0231 106.826 37.6633 106.826 38.3307C106.826 38.9982 107.092 39.6384 107.564 40.1104C108.036 40.5823 108.676 40.8475 109.343 40.8475H114.05V57.3574C109.376 56.8242 104.987 54.836 101.505 51.6737C98.0219 48.5115 95.6207 44.3349 94.6401 39.7341C93.6595 35.1332 94.1492 30.3405 96.04 26.033C97.9308 21.7255 101.127 18.1209 105.177 15.7283C109.228 13.3358 113.927 12.2762 118.612 12.6992C123.298 13.1222 127.731 15.0065 131.288 18.0858C134.844 21.1652 137.343 25.2841 138.432 29.8606C139.52 34.4371 139.144 39.2399 137.355 43.5908C136.215 46.317 134.557 48.7958 132.472 50.8894Z" fill="#232323"/>
<rect x="164.558" width="70" height="70" rx="30" fill="white"/>
<path d="M220.708 13.7302C217.958 10.9519 214.682 8.74917 211.071 7.25032C207.46 5.75148 203.588 4.98656 199.678 5.00018C183.298 5.00018 169.948 18.3501 169.948 34.7301C169.948 39.9801 171.328 45.0801 173.908 49.58L169.708 65L185.458 60.86C189.808 63.23 194.698 64.49 199.678 64.49C216.058 64.49 229.408 51.14 229.408 34.7601C229.408 26.8101 226.318 19.3401 220.708 13.7302ZM199.678 59.45C195.238 59.45 190.888 58.25 187.078 56L186.178 55.46L176.818 57.92L179.308 48.8L178.708 47.8701C176.241 43.931 174.932 39.3778 174.928 34.7301C174.928 21.1101 186.028 10.0102 199.648 10.0102C206.248 10.0102 212.458 12.5902 217.108 17.2701C219.411 19.562 221.235 22.2881 222.476 25.2904C223.717 28.2927 224.35 31.5114 224.338 34.7601C224.398 48.3801 213.298 59.45 199.678 59.45ZM213.238 40.9701C212.488 40.6101 208.828 38.8101 208.168 38.5401C207.478 38.3001 206.998 38.1801 206.488 38.9001C205.978 39.6501 204.568 41.3301 204.148 41.8101C203.728 42.3201 203.278 42.3801 202.528 41.9901C201.778 41.6301 199.378 40.8201 196.558 38.3001C194.338 36.3201 192.868 33.8901 192.418 33.1401C191.998 32.3901 192.358 32.0001 192.748 31.6101C193.078 31.2801 193.498 30.7401 193.858 30.3201C194.218 29.9001 194.368 29.5701 194.608 29.0901C194.848 28.5801 194.728 28.1601 194.548 27.8001C194.368 27.4401 192.868 23.7801 192.268 22.2801C191.668 20.8401 191.038 21.0201 190.588 20.9901H189.148C188.638 20.9901 187.858 21.1701 187.168 21.9201C186.508 22.6701 184.588 24.4701 184.588 28.1301C184.588 31.7901 187.258 35.3301 187.618 35.8101C187.978 36.3201 192.868 43.8201 200.308 47.0301C202.078 47.8101 203.458 48.2601 204.538 48.59C206.308 49.16 207.928 49.07 209.218 48.89C210.658 48.68 213.628 47.0901 214.228 45.3501C214.858 43.6101 214.858 42.1401 214.648 41.8101C214.438 41.4801 213.988 41.3301 213.238 40.9701Z" fill="#232323"/>
<rect x="247.558" width="70" height="70" rx="30" fill="white"/>
<path d="M272.058 10H293.058C301.058 10 307.558 16.5 307.558 24.5V45.5C307.558 49.3456 306.03 53.0338 303.311 55.7531C300.592 58.4723 296.904 60 293.058 60H272.058C264.058 60 257.558 53.5 257.558 45.5V24.5C257.558 20.6544 259.086 16.9662 261.805 14.247C264.524 11.5277 268.212 10 272.058 10ZM271.558 15C269.171 15 266.882 15.9482 265.194 17.636C263.506 19.3239 262.558 21.6131 262.558 24V46C262.558 50.975 266.583 55 271.558 55H293.558C295.945 55 298.234 54.0518 299.922 52.364C301.61 50.6761 302.558 48.3869 302.558 46V24C302.558 19.025 298.533 15 293.558 15H271.558ZM295.683 18.75C296.512 18.75 297.307 19.0792 297.893 19.6653C298.479 20.2513 298.808 21.0462 298.808 21.875C298.808 22.7038 298.479 23.4987 297.893 24.0847C297.307 24.6708 296.512 25 295.683 25C294.854 25 294.059 24.6708 293.473 24.0847C292.887 23.4987 292.558 22.7038 292.558 21.875C292.558 21.0462 292.887 20.2513 293.473 19.6653C294.059 19.0792 294.854 18.75 295.683 18.75ZM282.558 22.5C285.873 22.5 289.053 23.817 291.397 26.1612C293.741 28.5054 295.058 31.6848 295.058 35C295.058 38.3152 293.741 41.4946 291.397 43.8388C289.053 46.183 285.873 47.5 282.558 47.5C279.243 47.5 276.063 46.183 273.719 43.8388C271.375 41.4946 270.058 38.3152 270.058 35C270.058 31.6848 271.375 28.5054 273.719 26.1612C276.063 23.817 279.243 22.5 282.558 22.5ZM282.558 27.5C280.569 27.5 278.661 28.2902 277.255 29.6967C275.848 31.1032 275.058 33.0109 275.058 35C275.058 36.9891 275.848 38.8968 277.255 40.3033C278.661 41.7098 280.569 42.5 282.558 42.5C284.547 42.5 286.455 41.7098 287.861 40.3033C289.268 38.8968 290.058 36.9891 290.058 35C290.058 33.0109 289.268 31.1032 287.861 29.6967C286.455 28.2902 284.547 27.5 282.558 27.5Z" fill="#232323"/>
</svg>
