<svg width="249" height="98" viewBox="0 0 249 98" fill="none" xmlns="http://www.w3.org/2000/svg">
<path d="M11.7614 29V14.4545H16.6761C17.8172 14.4545 18.75 14.6605 19.4744 15.0724C20.2036 15.4796 20.7434 16.0312 21.0938 16.7273C21.4441 17.4233 21.6193 18.1998 21.6193 19.0568C21.6193 19.9138 21.4441 20.6927 21.0938 21.3935C20.7481 22.0942 20.2131 22.6529 19.4886 23.0696C18.7642 23.4815 17.8362 23.6875 16.7045 23.6875H13.1818V22.125H16.6477C17.429 22.125 18.0563 21.9901 18.5298 21.7202C19.0033 21.4503 19.3466 21.0857 19.5597 20.6264C19.7775 20.1624 19.8864 19.6392 19.8864 19.0568C19.8864 18.4744 19.7775 17.9536 19.5597 17.4943C19.3466 17.035 19.0009 16.6752 18.5227 16.4148C18.0445 16.1496 17.41 16.017 16.6193 16.017H13.5227V29H11.7614ZM25.9055 22.4375V29H24.2294V14.4545H25.9055V19.7955H26.0476C26.3033 19.232 26.6868 18.7846 27.1982 18.4531C27.7143 18.117 28.4008 17.9489 29.2578 17.9489C30.0012 17.9489 30.6522 18.098 31.2109 18.3963C31.7696 18.6899 32.2029 19.142 32.5107 19.7528C32.8232 20.3589 32.9794 21.1307 32.9794 22.0682V29H31.3033V22.1818C31.3033 21.3153 31.0784 20.6454 30.6286 20.1719C30.1835 19.6937 29.5656 19.4545 28.7749 19.4545C28.2256 19.4545 27.7332 19.5705 27.2976 19.8026C26.8667 20.0346 26.5258 20.3731 26.2749 20.8182C26.0286 21.2633 25.9055 21.803 25.9055 22.4375ZM40.4776 29.2273C39.4928 29.2273 38.6287 28.9929 37.8853 28.5241C37.1467 28.0554 36.569 27.3996 36.1523 26.5568C35.7404 25.714 35.5344 24.7292 35.5344 23.6023C35.5344 22.4659 35.7404 21.474 36.1523 20.6264C36.569 19.7789 37.1467 19.1207 37.8853 18.652C38.6287 18.1832 39.4928 17.9489 40.4776 17.9489C41.4625 17.9489 42.3242 18.1832 43.0629 18.652C43.8062 19.1207 44.3839 19.7789 44.7958 20.6264C45.2125 21.474 45.4208 22.4659 45.4208 23.6023C45.4208 24.7292 45.2125 25.714 44.7958 26.5568C44.3839 27.3996 43.8062 28.0554 43.0629 28.5241C42.3242 28.9929 41.4625 29.2273 40.4776 29.2273ZM40.4776 27.7216C41.2257 27.7216 41.8413 27.5298 42.3242 27.1463C42.8072 26.7628 43.1647 26.2585 43.3967 25.6335C43.6287 25.0085 43.7447 24.3314 43.7447 23.6023C43.7447 22.8731 43.6287 22.1937 43.3967 21.5639C43.1647 20.9342 42.8072 20.4252 42.3242 20.0369C41.8413 19.6487 41.2257 19.4545 40.4776 19.4545C39.7295 19.4545 39.114 19.6487 38.631 20.0369C38.1481 20.4252 37.7906 20.9342 37.5586 21.5639C37.3266 22.1937 37.2106 22.8731 37.2106 23.6023C37.2106 24.3314 37.3266 25.0085 37.5586 25.6335C37.7906 26.2585 38.1481 26.7628 38.631 27.1463C39.114 27.5298 39.7295 27.7216 40.4776 27.7216ZM49.6555 22.4375V29H47.9794V18.0909H49.5987V19.7955H49.7408C49.9964 19.2415 50.3847 18.7964 50.9055 18.4602C51.4264 18.1193 52.0987 17.9489 52.9226 17.9489C53.6612 17.9489 54.3075 18.1004 54.8615 18.4034C55.4155 18.7017 55.8464 19.1562 56.1541 19.767C56.4619 20.3731 56.6158 21.1402 56.6158 22.0682V29H54.9396V22.1818C54.9396 21.3248 54.7171 20.6572 54.272 20.179C53.8269 19.696 53.2161 19.4545 52.4396 19.4545C51.9046 19.4545 51.4264 19.5705 51.005 19.8026C50.5883 20.0346 50.2592 20.3731 50.0178 20.8182C49.7763 21.2633 49.6555 21.803 49.6555 22.4375ZM64.2525 29.2273C63.2013 29.2273 62.2946 28.9953 61.5323 28.5312C60.7747 28.0625 60.19 27.4091 59.7781 26.571C59.3709 25.7282 59.1673 24.7481 59.1673 23.6307C59.1673 22.5133 59.3709 21.5284 59.7781 20.6761C60.19 19.8191 60.7629 19.1515 61.4968 18.6733C62.2354 18.1903 63.0972 17.9489 64.082 17.9489C64.6502 17.9489 65.2113 18.0436 65.7653 18.233C66.3192 18.4223 66.8235 18.7301 67.2781 19.1562C67.7326 19.5777 68.0948 20.1364 68.3647 20.8324C68.6346 21.5284 68.7695 22.3854 68.7695 23.4034V24.1136H60.3604V22.6648H67.065C67.065 22.0492 66.9419 21.5 66.6957 21.017C66.4542 20.5341 66.1085 20.1529 65.6587 19.8736C65.2137 19.5942 64.6881 19.4545 64.082 19.4545C63.4144 19.4545 62.8368 19.6203 62.3491 19.9517C61.8661 20.2784 61.4944 20.7045 61.234 21.2301C60.9736 21.7557 60.8434 22.3191 60.8434 22.9205V23.8864C60.8434 24.7102 60.9854 25.4086 61.2695 25.9815C61.5584 26.5497 61.9585 26.983 62.4698 27.2812C62.9812 27.5748 63.5754 27.7216 64.2525 27.7216C64.6928 27.7216 65.0906 27.66 65.4457 27.5369C65.8055 27.4091 66.1156 27.2197 66.3761 26.9688C66.6365 26.7131 66.8377 26.3958 66.9798 26.017L68.5991 26.4716C68.4286 27.0208 68.1422 27.5038 67.7397 27.9205C67.3372 28.3324 66.8401 28.6544 66.2482 28.8864C65.6564 29.1136 64.9911 29.2273 64.2525 29.2273ZM88.7056 14.4545V29H87.0011L79.0749 17.5795H78.9329V29H77.1715V14.4545H78.8761L86.8306 25.9034H86.9727V14.4545H88.7056ZM98.8778 24.5398V18.0909H100.554V29H98.8778V27.1534H98.7642C98.5085 27.7074 98.1108 28.1785 97.571 28.5668C97.0313 28.9503 96.3494 29.142 95.5256 29.142C94.8438 29.142 94.2377 28.9929 93.7074 28.6946C93.1771 28.3916 92.7604 27.937 92.4574 27.331C92.1544 26.7202 92.0028 25.9508 92.0028 25.0227V18.0909H93.679V24.9091C93.679 25.7045 93.9015 26.339 94.3466 26.8125C94.7964 27.286 95.3693 27.5227 96.0653 27.5227C96.482 27.5227 96.9058 27.4162 97.3366 27.2031C97.7723 26.9901 98.1368 26.6634 98.4304 26.223C98.7287 25.7827 98.8778 25.2216 98.8778 24.5398ZM103.624 29V18.0909H105.243V19.7955H105.385C105.613 19.2131 105.98 18.7609 106.486 18.4389C106.993 18.1122 107.601 17.9489 108.311 17.9489C109.031 17.9489 109.63 18.1122 110.108 18.4389C110.591 18.7609 110.968 19.2131 111.238 19.7955H111.351C111.631 19.232 112.05 18.7846 112.608 18.4531C113.167 18.117 113.837 17.9489 114.618 17.9489C115.594 17.9489 116.391 18.2543 117.012 18.8651C117.632 19.4711 117.942 20.4157 117.942 21.6989V29H116.266V21.6989C116.266 20.8939 116.046 20.3187 115.605 19.973C115.165 19.6274 114.647 19.4545 114.05 19.4545C113.283 19.4545 112.689 19.6866 112.267 20.1506C111.846 20.6098 111.635 21.1922 111.635 21.8977V29H109.931V21.5284C109.931 20.9081 109.73 20.4086 109.327 20.0298C108.925 19.6463 108.406 19.4545 107.772 19.4545C107.336 19.4545 106.929 19.5705 106.55 19.8026C106.176 20.0346 105.873 20.3565 105.641 20.7685C105.414 21.1757 105.3 21.6468 105.3 22.1818V29H103.624ZM121.234 29V14.4545H122.91V19.8239H123.052C123.175 19.6345 123.346 19.393 123.564 19.0994C123.786 18.8011 124.103 18.536 124.515 18.304C124.932 18.0672 125.495 17.9489 126.206 17.9489C127.124 17.9489 127.934 18.1785 128.635 18.6378C129.335 19.0971 129.882 19.7481 130.275 20.5909C130.668 21.4337 130.865 22.428 130.865 23.5739C130.865 24.7292 130.668 25.7306 130.275 26.5781C129.882 27.4209 129.338 28.0743 128.642 28.5384C127.946 28.9976 127.143 29.2273 126.234 29.2273C125.533 29.2273 124.972 29.1113 124.551 28.8793C124.129 28.6425 123.805 28.375 123.578 28.0767C123.35 27.7737 123.175 27.5227 123.052 27.3239H122.853V29H121.234ZM122.882 23.5455C122.882 24.3693 123.002 25.0961 123.244 25.7259C123.485 26.3509 123.838 26.8409 124.302 27.196C124.766 27.5464 125.334 27.7216 126.007 27.7216C126.708 27.7216 127.292 27.5369 127.761 27.1676C128.234 26.7936 128.59 26.2917 128.826 25.6619C129.068 25.0275 129.189 24.322 129.189 23.5455C129.189 22.7784 129.07 22.0871 128.833 21.4716C128.601 20.8513 128.249 20.3613 127.775 20.0014C127.306 19.6368 126.717 19.4545 126.007 19.4545C125.325 19.4545 124.752 19.6274 124.288 19.973C123.824 20.3139 123.474 20.7921 123.237 21.4077C123 22.0185 122.882 22.7311 122.882 23.5455ZM138.002 29.2273C136.951 29.2273 136.045 28.9953 135.282 28.5312C134.525 28.0625 133.94 27.4091 133.528 26.571C133.121 25.7282 132.917 24.7481 132.917 23.6307C132.917 22.5133 133.121 21.5284 133.528 20.6761C133.94 19.8191 134.513 19.1515 135.247 18.6733C135.985 18.1903 136.847 17.9489 137.832 17.9489C138.4 17.9489 138.961 18.0436 139.515 18.233C140.069 18.4223 140.574 18.7301 141.028 19.1562C141.483 19.5777 141.845 20.1364 142.115 20.8324C142.385 21.5284 142.52 22.3854 142.52 23.4034V24.1136H134.11V22.6648H140.815C140.815 22.0492 140.692 21.5 140.446 21.017C140.204 20.5341 139.859 20.1529 139.409 19.8736C138.964 19.5942 138.438 19.4545 137.832 19.4545C137.164 19.4545 136.587 19.6203 136.099 19.9517C135.616 20.2784 135.244 20.7045 134.984 21.2301C134.724 21.7557 134.593 22.3191 134.593 22.9205V23.8864C134.593 24.7102 134.735 25.4086 135.02 25.9815C135.308 26.5497 135.708 26.983 136.22 27.2812C136.731 27.5748 137.325 27.7216 138.002 27.7216C138.443 27.7216 138.841 27.66 139.196 27.5369C139.556 27.4091 139.866 27.2197 140.126 26.9688C140.386 26.7131 140.588 26.3958 140.73 26.017L142.349 26.4716C142.179 27.0208 141.892 27.5038 141.49 27.9205C141.087 28.3324 140.59 28.6544 139.998 28.8864C139.406 29.1136 138.741 29.2273 138.002 29.2273ZM145.069 29V18.0909H146.689V19.7386H146.802C147.001 19.1989 147.361 18.7609 147.882 18.4247C148.403 18.0885 148.99 17.9205 149.643 17.9205C149.766 17.9205 149.92 17.9228 150.105 17.9276C150.289 17.9323 150.429 17.9394 150.524 17.9489V19.6534C150.467 19.6392 150.337 19.6179 150.133 19.5895C149.934 19.5563 149.724 19.5398 149.501 19.5398C148.971 19.5398 148.497 19.651 148.081 19.8736C147.669 20.0914 147.342 20.3944 147.1 20.7827C146.864 21.1662 146.745 21.6042 146.745 22.0966V29H145.069Z" fill="white"/>
<path d="M4.05682 66.2102V59.6477H5.17045V66.2102H4.05682ZM1.33239 63.4858V62.3722H7.89489V63.4858H1.33239ZM9.80398 68V67.1051L13.1648 63.4261C13.5592 62.9953 13.884 62.6207 14.1392 62.3026C14.3944 61.9811 14.5833 61.6795 14.706 61.3977C14.8319 61.1127 14.8949 60.8144 14.8949 60.5028C14.8949 60.1449 14.8087 59.835 14.6364 59.5732C14.4673 59.3113 14.2353 59.1091 13.9403 58.9666C13.6454 58.8241 13.3139 58.7528 12.946 58.7528C12.5549 58.7528 12.2135 58.834 11.9219 58.9964C11.6335 59.1555 11.4098 59.3793 11.2507 59.6676C11.0949 59.956 11.017 60.294 11.017 60.6818H9.84375C9.84375 60.0852 9.9813 59.5616 10.2564 59.1108C10.5315 58.66 10.906 58.3087 11.38 58.0568C11.8572 57.8049 12.3925 57.679 12.9858 57.679C13.5824 57.679 14.111 57.8049 14.5717 58.0568C15.0324 58.3087 15.3937 58.6484 15.6555 59.076C15.9174 59.5036 16.0483 59.9792 16.0483 60.5028C16.0483 60.8774 15.9804 61.2436 15.8445 61.6016C15.7119 61.9562 15.4799 62.3523 15.1484 62.7898C14.8203 63.224 14.3646 63.7543 13.7812 64.3807L11.4943 66.8267V66.9062H16.2273V68H9.80398ZM21.7209 68.1392C21.0646 68.1392 20.4796 68.0265 19.9659 67.8011C19.4555 67.5758 19.0495 67.2625 18.7479 66.8615C18.4496 66.4571 18.2872 65.9882 18.2607 65.4545H19.5135C19.54 65.7827 19.6527 66.0661 19.8516 66.3047C20.0504 66.54 20.3106 66.7223 20.6321 66.8516C20.9536 66.9808 21.3099 67.0455 21.701 67.0455C22.1385 67.0455 22.5263 66.9692 22.8643 66.8168C23.2024 66.6643 23.4676 66.4522 23.6598 66.1804C23.852 65.9086 23.9482 65.5938 23.9482 65.2358C23.9482 64.8613 23.8554 64.5315 23.6697 64.2464C23.4841 63.9581 23.2124 63.7327 22.8544 63.5703C22.4964 63.4079 22.0589 63.3267 21.5419 63.3267H20.7266V62.233H21.5419C21.9463 62.233 22.3009 62.16 22.6058 62.0142C22.9141 61.8684 23.1544 61.6629 23.3267 61.3977C23.5024 61.1326 23.5902 60.821 23.5902 60.4631C23.5902 60.1184 23.514 59.8184 23.3615 59.5632C23.209 59.308 22.9936 59.1091 22.7152 58.9666C22.4401 58.8241 22.1153 58.7528 21.7408 58.7528C21.3894 58.7528 21.058 58.8175 20.7464 58.9467C20.4382 59.0727 20.1863 59.2566 19.9908 59.4986C19.7952 59.7372 19.6892 60.0256 19.6726 60.3636H18.4794C18.4993 59.83 18.66 59.3627 18.9616 58.9616C19.2633 58.5573 19.6577 58.2424 20.1449 58.017C20.6354 57.7917 21.174 57.679 21.7607 57.679C22.3904 57.679 22.9306 57.8066 23.3814 58.0618C23.8321 58.3137 24.1785 58.6468 24.4205 59.0611C24.6624 59.4754 24.7834 59.9228 24.7834 60.4034C24.7834 60.9768 24.6326 61.4657 24.331 61.87C24.0327 62.2744 23.6267 62.5545 23.1129 62.7102V62.7898C23.7559 62.8958 24.258 63.1693 24.6193 63.6101C24.9806 64.0476 25.1612 64.5895 25.1612 65.2358C25.1612 65.7893 25.0104 66.2865 24.7088 66.7273C24.4105 67.1648 24.0028 67.5095 23.4858 67.7614C22.9688 68.0133 22.3804 68.1392 21.7209 68.1392ZM26.956 65.9119V64.8977L31.4304 57.8182H32.1662V59.3892H31.669L28.2884 64.7386V64.8182H34.3139V65.9119H26.956ZM31.7486 68V65.6037V65.1314V57.8182H32.9219V68H31.7486ZM36.4952 68L41.0492 58.9915V58.9119H35.7992V57.8182H42.3219V58.9716L37.7878 68H36.4952ZM47.2773 68.1392C46.5283 68.1392 45.8903 67.9354 45.3633 67.5277C44.8363 67.1167 44.4336 66.5218 44.1552 65.7429C43.8768 64.9607 43.7376 64.0161 43.7376 62.9091C43.7376 61.8087 43.8768 60.8691 44.1552 60.0902C44.4369 59.308 44.8413 58.7114 45.3683 58.3004C45.8986 57.8861 46.5349 57.679 47.2773 57.679C48.0198 57.679 48.6545 57.8861 49.1815 58.3004C49.7118 58.7114 50.1161 59.308 50.3945 60.0902C50.6763 60.8691 50.8171 61.8087 50.8171 62.9091C50.8171 64.0161 50.6779 64.9607 50.3995 65.7429C50.1211 66.5218 49.7184 67.1167 49.1914 67.5277C48.6644 67.9354 48.0264 68.1392 47.2773 68.1392ZM47.2773 67.0455C48.0198 67.0455 48.5965 66.6875 49.0075 65.9716C49.4184 65.2557 49.6239 64.2348 49.6239 62.9091C49.6239 62.0275 49.5295 61.2768 49.3406 60.657C49.1549 60.0372 48.8865 59.5649 48.5352 59.2401C48.1871 58.9152 47.7679 58.7528 47.2773 58.7528C46.5415 58.7528 45.9665 59.1158 45.5522 59.8416C45.1379 60.5642 44.9308 61.5866 44.9308 62.9091C44.9308 63.7907 45.0236 64.5398 45.2092 65.1562C45.3948 65.7727 45.6616 66.2417 46.0096 66.5632C46.3609 66.8847 46.7835 67.0455 47.2773 67.0455ZM56.1467 68.1392C55.4904 68.1392 54.9054 68.0265 54.3917 67.8011C53.8813 67.5758 53.4753 67.2625 53.1737 66.8615C52.8754 66.4571 52.7129 65.9882 52.6864 65.4545H53.9393C53.9658 65.7827 54.0785 66.0661 54.2773 66.3047C54.4762 66.54 54.7364 66.7223 55.0579 66.8516C55.3794 66.9808 55.7357 67.0455 56.1268 67.0455C56.5643 67.0455 56.9521 66.9692 57.2901 66.8168C57.6282 66.6643 57.8933 66.4522 58.0856 66.1804C58.2778 65.9086 58.3739 65.5938 58.3739 65.2358C58.3739 64.8613 58.2811 64.5315 58.0955 64.2464C57.9099 63.9581 57.6381 63.7327 57.2802 63.5703C56.9222 63.4079 56.4847 63.3267 55.9677 63.3267H55.1523V62.233H55.9677C56.372 62.233 56.7267 62.16 57.0316 62.0142C57.3398 61.8684 57.5801 61.6629 57.7525 61.3977C57.9281 61.1326 58.016 60.821 58.016 60.4631C58.016 60.1184 57.9397 59.8184 57.7873 59.5632C57.6348 59.308 57.4194 59.1091 57.141 58.9666C56.8659 58.8241 56.5411 58.7528 56.1665 58.7528C55.8152 58.7528 55.4838 58.8175 55.1722 58.9467C54.864 59.0727 54.6121 59.2566 54.4165 59.4986C54.221 59.7372 54.1149 60.0256 54.0984 60.3636H52.9052C52.9251 59.83 53.0858 59.3627 53.3874 58.9616C53.689 58.5573 54.0835 58.2424 54.5707 58.017C55.0612 57.7917 55.5998 57.679 56.1864 57.679C56.8162 57.679 57.3564 57.8066 57.8072 58.0618C58.2579 58.3137 58.6043 58.6468 58.8462 59.0611C59.0882 59.4754 59.2092 59.9228 59.2092 60.4034C59.2092 60.9768 59.0584 61.4657 58.7567 61.87C58.4585 62.2744 58.0524 62.5545 57.5387 62.7102V62.7898C58.1817 62.8958 58.6838 63.1693 59.0451 63.6101C59.4064 64.0476 59.587 64.5895 59.587 65.2358C59.587 65.7893 59.4362 66.2865 59.1346 66.7273C58.8363 67.1648 58.4286 67.5095 57.9116 67.7614C57.3945 68.0133 56.8062 68.1392 56.1467 68.1392ZM61.6204 68V67.1051L64.9812 63.4261C65.3756 62.9953 65.7004 62.6207 65.9556 62.3026C66.2108 61.9811 66.3997 61.6795 66.5224 61.3977C66.6483 61.1127 66.7113 60.8144 66.7113 60.5028C66.7113 60.1449 66.6251 59.835 66.4528 59.5732C66.2837 59.3113 66.0517 59.1091 65.7567 58.9666C65.4618 58.8241 65.1303 58.7528 64.7624 58.7528C64.3713 58.7528 64.0299 58.834 63.7383 58.9964C63.4499 59.1555 63.2262 59.3793 63.0671 59.6676C62.9113 59.956 62.8335 60.294 62.8335 60.6818H61.6602C61.6602 60.0852 61.7977 59.5616 62.0728 59.1108C62.3479 58.66 62.7224 58.3087 63.1964 58.0568C63.6737 57.8049 64.2089 57.679 64.8022 57.679C65.3988 57.679 65.9274 57.8049 66.3881 58.0568C66.8488 58.3087 67.2101 58.6484 67.4719 59.076C67.7338 59.5036 67.8647 59.9792 67.8647 60.5028C67.8647 60.8774 67.7968 61.2436 67.6609 61.6016C67.5283 61.9562 67.2963 62.3523 66.9648 62.7898C66.6367 63.224 66.181 63.7543 65.5977 64.3807L63.3107 66.8267V66.9062H68.0437V68H61.6204ZM70.4151 68L74.9691 58.9915V58.9119H69.7191V57.8182H76.2418V58.9716L71.7077 68H70.4151ZM81.1401 68.1392C80.5568 68.1392 80.0314 68.0232 79.5641 67.7912C79.0968 67.5592 78.7222 67.241 78.4405 66.8366C78.1588 66.4323 78.0047 65.9716 77.9782 65.4545H79.1713C79.2177 65.9152 79.4266 66.2964 79.7978 66.598C80.1723 66.8963 80.6197 67.0455 81.1401 67.0455C81.5577 67.0455 81.9289 66.9477 82.2537 66.7521C82.5819 66.5566 82.8387 66.2881 83.0243 65.9467C83.2132 65.602 83.3077 65.2126 83.3077 64.7784C83.3077 64.3343 83.2099 63.9382 83.0144 63.5902C82.8221 63.2389 82.557 62.9621 82.2189 62.7599C81.8809 62.5578 81.4947 62.455 81.0605 62.4517C80.749 62.4484 80.4292 62.4964 80.101 62.5959C79.7729 62.692 79.5028 62.8163 79.2907 62.9688L78.1373 62.8295L78.7537 57.8182H84.0435V58.9119H79.7878L79.4299 61.9148H79.4895C79.6983 61.7491 79.9602 61.6115 80.275 61.5021C80.5899 61.3928 80.918 61.3381 81.2594 61.3381C81.8825 61.3381 82.4377 61.4872 82.9249 61.7855C83.4154 62.0805 83.7999 62.4848 84.0783 62.9986C84.36 63.5123 84.5009 64.099 84.5009 64.7585C84.5009 65.4081 84.3551 65.9882 84.0634 66.4986C83.775 67.0057 83.3773 67.4067 82.8702 67.7017C82.3631 67.9934 81.7864 68.1392 81.1401 68.1392ZM89.7372 68.1392C89.0545 68.1392 88.4512 68.0182 87.9276 67.7763C87.4072 67.531 87.0012 67.1946 86.7095 66.767C86.4179 66.3362 86.2737 65.8456 86.277 65.2955C86.2737 64.8646 86.3582 64.4669 86.5305 64.1023C86.7029 63.7344 86.9382 63.4278 87.2365 63.1825C87.5381 62.9339 87.8745 62.7765 88.2457 62.7102V62.6506C87.7585 62.5246 87.3707 62.2512 87.0824 61.8303C86.794 61.406 86.6515 60.9238 86.6548 60.3835C86.6515 59.8665 86.7824 59.4041 87.0476 58.9964C87.3127 58.5888 87.6773 58.2673 88.1413 58.032C88.6087 57.7966 89.1406 57.679 89.7372 57.679C90.3272 57.679 90.8542 57.7966 91.3182 58.032C91.7822 58.2673 92.1468 58.5888 92.4119 58.9964C92.6804 59.4041 92.8163 59.8665 92.8196 60.3835C92.8163 60.9238 92.6688 61.406 92.3771 61.8303C92.0888 62.2512 91.706 62.5246 91.2287 62.6506V62.7102C91.5966 62.7765 91.928 62.9339 92.223 63.1825C92.518 63.4278 92.7533 63.7344 92.929 64.1023C93.1046 64.4669 93.1941 64.8646 93.1974 65.2955C93.1941 65.8456 93.045 66.3362 92.75 66.767C92.4583 67.1946 92.0523 67.531 91.532 67.7763C91.0149 68.0182 90.4167 68.1392 89.7372 68.1392ZM89.7372 67.0455C90.1979 67.0455 90.5956 66.9709 90.9304 66.8217C91.2652 66.6726 91.5237 66.4621 91.706 66.1903C91.8883 65.9186 91.9811 65.6004 91.9844 65.2358C91.9811 64.8513 91.8816 64.5116 91.6861 64.2166C91.4905 63.9216 91.2237 63.6896 90.8857 63.5206C90.5509 63.3516 90.1681 63.267 89.7372 63.267C89.303 63.267 88.9152 63.3516 88.5739 63.5206C88.2358 63.6896 87.969 63.9216 87.7734 64.2166C87.5812 64.5116 87.4867 64.8513 87.4901 65.2358C87.4867 65.6004 87.5746 65.9186 87.7536 66.1903C87.9358 66.4621 88.196 66.6726 88.5341 66.8217C88.8722 66.9709 89.2732 67.0455 89.7372 67.0455ZM89.7372 62.2131C90.1018 62.2131 90.425 62.1402 90.7067 61.9943C90.9917 61.8485 91.2154 61.6446 91.3778 61.3828C91.5402 61.121 91.6231 60.8144 91.6264 60.4631C91.6231 60.1184 91.5419 59.8184 91.3828 59.5632C91.2237 59.3047 91.0033 59.1058 90.7216 58.9666C90.4399 58.8241 90.1117 58.7528 89.7372 58.7528C89.3561 58.7528 89.023 58.8241 88.7379 58.9666C88.4529 59.1058 88.2325 59.3047 88.0767 59.5632C87.9209 59.8184 87.8447 60.1184 87.848 60.4631C87.8447 60.8144 87.9226 61.121 88.0817 61.3828C88.2441 61.6446 88.4678 61.8485 88.7528 61.9943C89.0379 62.1402 89.366 62.2131 89.7372 62.2131ZM95.1028 68V67.1051L98.4636 63.4261C98.858 62.9953 99.1828 62.6207 99.438 62.3026C99.6932 61.9811 99.8822 61.6795 100.005 61.3977C100.131 61.1127 100.194 60.8144 100.194 60.5028C100.194 60.1449 100.108 59.835 99.9352 59.5732C99.7662 59.3113 99.5342 59.1091 99.2392 58.9666C98.9442 58.8241 98.6127 58.7528 98.2449 58.7528C97.8538 58.7528 97.5124 58.834 97.2207 58.9964C96.9324 59.1555 96.7086 59.3793 96.5495 59.6676C96.3938 59.956 96.3159 60.294 96.3159 60.6818H95.1426C95.1426 60.0852 95.2801 59.5616 95.5552 59.1108C95.8303 58.66 96.2048 58.3087 96.6788 58.0568C97.1561 57.8049 97.6913 57.679 98.2846 57.679C98.8812 57.679 99.4099 57.8049 99.8706 58.0568C100.331 58.3087 100.693 58.6484 100.954 59.076C101.216 59.5036 101.347 59.9792 101.347 60.5028C101.347 60.8774 101.279 61.2436 101.143 61.6016C101.011 61.9562 100.779 62.3523 100.447 62.7898C100.119 63.224 99.6634 63.7543 99.0801 64.3807L96.7931 66.8267V66.9062H101.526V68H95.1028ZM106.9 68.1392C106.151 68.1392 105.513 67.9354 104.986 67.5277C104.459 67.1167 104.057 66.5218 103.778 65.7429C103.5 64.9607 103.361 64.0161 103.361 62.9091C103.361 61.8087 103.5 60.8691 103.778 60.0902C104.06 59.308 104.464 58.7114 104.991 58.3004C105.522 57.8861 106.158 57.679 106.9 57.679C107.643 57.679 108.278 57.8861 108.805 58.3004C109.335 58.7114 109.739 59.308 110.018 60.0902C110.299 60.8691 110.44 61.8087 110.44 62.9091C110.44 64.0161 110.301 64.9607 110.023 65.7429C109.744 66.5218 109.341 67.1167 108.814 67.5277C108.287 67.9354 107.649 68.1392 106.9 68.1392ZM106.9 67.0455C107.643 67.0455 108.22 66.6875 108.631 65.9716C109.041 65.2557 109.247 64.2348 109.247 62.9091C109.247 62.0275 109.153 61.2768 108.964 60.657C108.778 60.0372 108.51 59.5649 108.158 59.2401C107.81 58.9152 107.391 58.7528 106.9 58.7528C106.165 58.7528 105.59 59.1158 105.175 59.8416C104.761 60.5642 104.554 61.5866 104.554 62.9091C104.554 63.7907 104.647 64.5398 104.832 65.1562C105.018 65.7727 105.285 66.2417 105.633 66.5632C105.984 66.8847 106.407 67.0455 106.9 67.0455ZM115.77 68.1392C115.113 68.1392 114.528 68.0265 114.015 67.8011C113.504 67.5758 113.098 67.2625 112.797 66.8615C112.498 66.4571 112.336 65.9882 112.309 65.4545H113.562C113.589 65.7827 113.702 66.0661 113.9 66.3047C114.099 66.54 114.359 66.7223 114.681 66.8516C115.002 66.9808 115.359 67.0455 115.75 67.0455C116.187 67.0455 116.575 66.9692 116.913 66.8168C117.251 66.6643 117.516 66.4522 117.709 66.1804C117.901 65.9086 117.997 65.5938 117.997 65.2358C117.997 64.8613 117.904 64.5315 117.719 64.2464C117.533 63.9581 117.261 63.7327 116.903 63.5703C116.545 63.4079 116.108 63.3267 115.591 63.3267H114.775V62.233H115.591C115.995 62.233 116.35 62.16 116.655 62.0142C116.963 61.8684 117.203 61.6629 117.376 61.3977C117.551 61.1326 117.639 60.821 117.639 60.4631C117.639 60.1184 117.563 59.8184 117.41 59.5632C117.258 59.308 117.042 59.1091 116.764 58.9666C116.489 58.8241 116.164 58.7528 115.79 58.7528C115.438 58.7528 115.107 58.8175 114.795 58.9467C114.487 59.0727 114.235 59.2566 114.04 59.4986C113.844 59.7372 113.738 60.0256 113.721 60.3636H112.528C112.548 59.83 112.709 59.3627 113.01 58.9616C113.312 58.5573 113.706 58.2424 114.194 58.017C114.684 57.7917 115.223 57.679 115.809 57.679C116.439 57.679 116.979 57.8066 117.43 58.0618C117.881 58.3137 118.227 58.6468 118.469 59.0611C118.711 59.4754 118.832 59.9228 118.832 60.4034C118.832 60.9768 118.681 61.4657 118.38 61.87C118.081 62.2744 117.675 62.5545 117.162 62.7102V62.7898C117.805 62.8958 118.307 63.1693 118.668 63.6101C119.029 64.0476 119.21 64.5895 119.21 65.2358C119.21 65.7893 119.059 66.2865 118.758 66.7273C118.459 67.1648 118.052 67.5095 117.535 67.7614C117.018 68.0133 116.429 68.1392 115.77 68.1392ZM122.699 66.608L122.619 67.1449C122.563 67.5227 122.477 67.9271 122.361 68.358C122.248 68.7888 122.13 69.1948 122.008 69.576C121.885 69.9571 121.784 70.2604 121.705 70.4858H120.81C120.853 70.2737 120.909 69.9936 120.979 69.6456C121.048 69.2976 121.118 68.9081 121.188 68.4773C121.26 68.0497 121.32 67.6122 121.366 67.1648L121.426 66.608H122.699ZM131.793 66.2102V59.6477H132.907V66.2102H131.793ZM129.069 63.4858V62.3722H135.631V63.4858H129.069ZM137.54 68V67.1051L140.901 63.4261C141.296 62.9953 141.62 62.6207 141.876 62.3026C142.131 61.9811 142.32 61.6795 142.442 61.3977C142.568 61.1127 142.631 60.8144 142.631 60.5028C142.631 60.1449 142.545 59.835 142.373 59.5732C142.204 59.3113 141.972 59.1091 141.677 58.9666C141.382 58.8241 141.05 58.7528 140.682 58.7528C140.291 58.7528 139.95 58.834 139.658 58.9964C139.37 59.1555 139.146 59.3793 138.987 59.6676C138.831 59.956 138.753 60.294 138.753 60.6818H137.58C137.58 60.0852 137.718 59.5616 137.993 59.1108C138.268 58.66 138.642 58.3087 139.116 58.0568C139.594 57.8049 140.129 57.679 140.722 57.679C141.319 57.679 141.847 57.8049 142.308 58.0568C142.769 58.3087 143.13 58.6484 143.392 59.076C143.654 59.5036 143.785 59.9792 143.785 60.5028C143.785 60.8774 143.717 61.2436 143.581 61.6016C143.448 61.9562 143.216 62.3523 142.885 62.7898C142.557 63.224 142.101 63.7543 141.518 64.3807L139.231 66.8267V66.9062H143.964V68H137.54ZM149.457 68.1392C148.801 68.1392 148.216 68.0265 147.702 67.8011C147.192 67.5758 146.786 67.2625 146.484 66.8615C146.186 66.4571 146.023 65.9882 145.997 65.4545H147.25C147.276 65.7827 147.389 66.0661 147.588 66.3047C147.787 66.54 148.047 66.7223 148.368 66.8516C148.69 66.9808 149.046 67.0455 149.437 67.0455C149.875 67.0455 150.263 66.9692 150.601 66.8168C150.939 66.6643 151.204 66.4522 151.396 66.1804C151.588 65.9086 151.684 65.5938 151.684 65.2358C151.684 64.8613 151.592 64.5315 151.406 64.2464C151.22 63.9581 150.949 63.7327 150.591 63.5703C150.233 63.4079 149.795 63.3267 149.278 63.3267H148.463V62.233H149.278C149.683 62.233 150.037 62.16 150.342 62.0142C150.65 61.8684 150.891 61.6629 151.063 61.3977C151.239 61.1326 151.327 60.821 151.327 60.4631C151.327 60.1184 151.25 59.8184 151.098 59.5632C150.945 59.308 150.73 59.1091 150.452 58.9666C150.176 58.8241 149.852 58.7528 149.477 58.7528C149.126 58.7528 148.794 58.8175 148.483 58.9467C148.175 59.0727 147.923 59.2566 147.727 59.4986C147.532 59.7372 147.425 60.0256 147.409 60.3636H146.216C146.236 59.83 146.396 59.3627 146.698 58.9616C147 58.5573 147.394 58.2424 147.881 58.017C148.372 57.7917 148.91 57.679 149.497 57.679C150.127 57.679 150.667 57.8066 151.118 58.0618C151.568 58.3137 151.915 58.6468 152.157 59.0611C152.399 59.4754 152.52 59.9228 152.52 60.4034C152.52 60.9768 152.369 61.4657 152.067 61.87C151.769 62.2744 151.363 62.5545 150.849 62.7102V62.7898C151.492 62.8958 151.994 63.1693 152.356 63.6101C152.717 64.0476 152.898 64.5895 152.898 65.2358C152.898 65.7893 152.747 66.2865 152.445 66.7273C152.147 67.1648 151.739 67.5095 151.222 67.7614C150.705 68.0133 150.117 68.1392 149.457 68.1392ZM154.692 65.9119V64.8977L159.167 57.8182H159.903V59.3892H159.405L156.025 64.7386V64.8182H162.05V65.9119H154.692ZM159.485 68V65.6037V65.1314V57.8182H160.658V68H159.485ZM167.175 68.1392C166.492 68.1392 165.889 68.0182 165.365 67.7763C164.845 67.531 164.439 67.1946 164.147 66.767C163.855 66.3362 163.711 65.8456 163.714 65.2955C163.711 64.8646 163.796 64.4669 163.968 64.1023C164.14 63.7344 164.376 63.4278 164.674 63.1825C164.976 62.9339 165.312 62.7765 165.683 62.7102V62.6506C165.196 62.5246 164.808 62.2512 164.52 61.8303C164.232 61.406 164.089 60.9238 164.092 60.3835C164.089 59.8665 164.22 59.4041 164.485 58.9964C164.75 58.5888 165.115 58.2673 165.579 58.032C166.046 57.7966 166.578 57.679 167.175 57.679C167.765 57.679 168.292 57.7966 168.756 58.032C169.22 58.2673 169.584 58.5888 169.849 58.9964C170.118 59.4041 170.254 59.8665 170.257 60.3835C170.254 60.9238 170.106 61.406 169.815 61.8303C169.526 62.2512 169.143 62.5246 168.666 62.6506V62.7102C169.034 62.7765 169.366 62.9339 169.661 63.1825C169.955 63.4278 170.191 63.7344 170.366 64.1023C170.542 64.4669 170.632 64.8646 170.635 65.2955C170.632 65.8456 170.482 66.3362 170.188 66.767C169.896 67.1946 169.49 67.531 168.969 67.7763C168.452 68.0182 167.854 68.1392 167.175 68.1392ZM167.175 67.0455C167.635 67.0455 168.033 66.9709 168.368 66.8217C168.703 66.6726 168.961 66.4621 169.143 66.1903C169.326 65.9186 169.419 65.6004 169.422 65.2358C169.419 64.8513 169.319 64.5116 169.124 64.2166C168.928 63.9216 168.661 63.6896 168.323 63.5206C167.988 63.3516 167.606 63.267 167.175 63.267C166.741 63.267 166.353 63.3516 166.011 63.5206C165.673 63.6896 165.406 63.9216 165.211 64.2166C165.019 64.5116 164.924 64.8513 164.928 65.2358C164.924 65.6004 165.012 65.9186 165.191 66.1903C165.373 66.4621 165.634 66.6726 165.972 66.8217C166.31 66.9709 166.711 67.0455 167.175 67.0455ZM167.175 62.2131C167.539 62.2131 167.862 62.1402 168.144 61.9943C168.429 61.8485 168.653 61.6446 168.815 61.3828C168.978 61.121 169.061 60.8144 169.064 60.4631C169.061 60.1184 168.979 59.8184 168.82 59.5632C168.661 59.3047 168.441 59.1058 168.159 58.9666C167.877 58.8241 167.549 58.7528 167.175 58.7528C166.794 58.7528 166.46 58.8241 166.175 58.9666C165.89 59.1058 165.67 59.3047 165.514 59.5632C165.358 59.8184 165.282 60.1184 165.286 60.4631C165.282 60.8144 165.36 61.121 165.519 61.3828C165.682 61.6446 165.905 61.8485 166.19 61.9943C166.475 62.1402 166.804 62.2131 167.175 62.2131ZM176.12 57.8182V68H174.887V59.1108H174.827L172.341 60.7614V59.5085L174.887 57.8182H176.12ZM178.809 65.9119V64.8977L183.284 57.8182H184.02V59.3892H183.523L180.142 64.7386V64.8182H186.167V65.9119H178.809ZM183.602 68V65.6037V65.1314V57.8182H184.775V68H183.602ZM191.471 68.1392C190.815 68.1392 190.23 68.0265 189.716 67.8011C189.205 67.5758 188.799 67.2625 188.498 66.8615C188.2 66.4571 188.037 65.9882 188.011 65.4545H189.263C189.29 65.7827 189.403 66.0661 189.602 66.3047C189.8 66.54 190.061 66.7223 190.382 66.8516C190.704 66.9808 191.06 67.0455 191.451 67.0455C191.888 67.0455 192.276 66.9692 192.614 66.8168C192.952 66.6643 193.218 66.4522 193.41 66.1804C193.602 65.9086 193.698 65.5938 193.698 65.2358C193.698 64.8613 193.605 64.5315 193.42 64.2464C193.234 63.9581 192.962 63.7327 192.604 63.5703C192.246 63.4079 191.809 63.3267 191.292 63.3267H190.477V62.233H191.292C191.696 62.233 192.051 62.16 192.356 62.0142C192.664 61.8684 192.904 61.6629 193.077 61.3977C193.252 61.1326 193.34 60.821 193.34 60.4631C193.34 60.1184 193.264 59.8184 193.112 59.5632C192.959 59.308 192.744 59.1091 192.465 58.9666C192.19 58.8241 191.865 58.7528 191.491 58.7528C191.139 58.7528 190.808 58.8175 190.496 58.9467C190.188 59.0727 189.936 59.2566 189.741 59.4986C189.545 59.7372 189.439 60.0256 189.423 60.3636H188.229C188.249 59.83 188.41 59.3627 188.712 58.9616C189.013 58.5573 189.408 58.2424 189.895 58.017C190.385 57.7917 190.924 57.679 191.511 57.679C192.14 57.679 192.681 57.8066 193.131 58.0618C193.582 58.3137 193.929 58.6468 194.17 59.0611C194.412 59.4754 194.533 59.9228 194.533 60.4034C194.533 60.9768 194.383 61.4657 194.081 61.87C193.783 62.2744 193.377 62.5545 192.863 62.7102V62.7898C193.506 62.8958 194.008 63.1693 194.369 63.6101C194.731 64.0476 194.911 64.5895 194.911 65.2358C194.911 65.7893 194.76 66.2865 194.459 66.7273C194.161 67.1648 193.753 67.5095 193.236 67.7614C192.719 68.0133 192.13 68.1392 191.471 68.1392ZM200.206 68.1392C199.523 68.1392 198.92 68.0182 198.396 67.7763C197.876 67.531 197.47 67.1946 197.178 66.767C196.887 66.3362 196.742 65.8456 196.746 65.2955C196.742 64.8646 196.827 64.4669 196.999 64.1023C197.172 63.7344 197.407 63.4278 197.705 63.1825C198.007 62.9339 198.343 62.7765 198.714 62.7102V62.6506C198.227 62.5246 197.839 62.2512 197.551 61.8303C197.263 61.406 197.12 60.9238 197.124 60.3835C197.12 59.8665 197.251 59.4041 197.516 58.9964C197.781 58.5888 198.146 58.2673 198.61 58.032C199.077 57.7966 199.609 57.679 200.206 57.679C200.796 57.679 201.323 57.7966 201.787 58.032C202.251 58.2673 202.616 58.5888 202.881 58.9964C203.149 59.4041 203.285 59.8665 203.288 60.3835C203.285 60.9238 203.138 61.406 202.846 61.8303C202.558 62.2512 202.175 62.5246 201.697 62.6506V62.7102C202.065 62.7765 202.397 62.9339 202.692 63.1825C202.987 63.4278 203.222 63.7344 203.398 64.1023C203.573 64.4669 203.663 64.8646 203.666 65.2955C203.663 65.8456 203.514 66.3362 203.219 66.767C202.927 67.1946 202.521 67.531 202.001 67.7763C201.484 68.0182 200.885 68.1392 200.206 68.1392ZM200.206 67.0455C200.667 67.0455 201.064 66.9709 201.399 66.8217C201.734 66.6726 201.992 66.4621 202.175 66.1903C202.357 65.9186 202.45 65.6004 202.453 65.2358C202.45 64.8513 202.35 64.5116 202.155 64.2166C201.959 63.9216 201.692 63.6896 201.354 63.5206C201.02 63.3516 200.637 63.267 200.206 63.267C199.772 63.267 199.384 63.3516 199.043 63.5206C198.705 63.6896 198.438 63.9216 198.242 64.2166C198.05 64.5116 197.955 64.8513 197.959 65.2358C197.955 65.6004 198.043 65.9186 198.222 66.1903C198.405 66.4621 198.665 66.6726 199.003 66.8217C199.341 66.9709 199.742 67.0455 200.206 67.0455ZM200.206 62.2131C200.571 62.2131 200.894 62.1402 201.175 61.9943C201.46 61.8485 201.684 61.6446 201.847 61.3828C202.009 61.121 202.092 60.8144 202.095 60.4631C202.092 60.1184 202.011 59.8184 201.852 59.5632C201.692 59.3047 201.472 59.1058 201.19 58.9666C200.909 58.8241 200.58 58.7528 200.206 58.7528C199.825 58.7528 199.492 58.8241 199.207 58.9666C198.922 59.1058 198.701 59.3047 198.545 59.5632C198.39 59.8184 198.313 60.1184 198.317 60.4631C198.313 60.8144 198.391 61.121 198.55 61.3828C198.713 61.6446 198.937 61.8485 199.222 61.9943C199.507 62.1402 199.835 62.2131 200.206 62.2131ZM208.952 68.1392C208.535 68.1326 208.117 68.053 207.699 67.9006C207.282 67.7481 206.901 67.4912 206.556 67.13C206.211 66.7654 205.934 66.2732 205.726 65.6534C205.517 65.0303 205.412 64.2481 205.412 63.3068C205.412 62.4053 205.497 61.6065 205.666 60.9105C205.835 60.2112 206.08 59.6229 206.402 59.1456C206.723 58.665 207.111 58.3004 207.565 58.0518C208.023 57.8033 208.538 57.679 209.111 57.679C209.681 57.679 210.189 57.7933 210.633 58.022C211.08 58.2474 211.445 58.5623 211.726 58.9666C212.008 59.371 212.19 59.8366 212.273 60.3636H211.06C210.948 59.9062 210.729 59.5268 210.404 59.2251C210.079 58.9235 209.648 58.7727 209.111 58.7727C208.323 58.7727 207.701 59.1158 207.247 59.8018C206.796 60.4879 206.569 61.4508 206.566 62.6903H206.645C206.831 62.4086 207.051 62.1683 207.307 61.9695C207.565 61.7673 207.85 61.6115 208.162 61.5021C208.473 61.3928 208.803 61.3381 209.151 61.3381C209.734 61.3381 210.268 61.4839 210.752 61.7756C211.236 62.0639 211.624 62.4633 211.915 62.9737C212.207 63.4808 212.353 64.0625 212.353 64.7188C212.353 65.3485 212.212 65.9252 211.93 66.4489C211.648 66.9692 211.252 67.3835 210.742 67.6918C210.235 67.9967 209.638 68.1458 208.952 68.1392ZM208.952 67.0455C209.37 67.0455 209.744 66.9411 210.076 66.7322C210.411 66.5234 210.674 66.2434 210.866 65.892C211.062 65.5407 211.16 65.1496 211.16 64.7188C211.16 64.2978 211.065 63.915 210.876 63.5703C210.691 63.2223 210.434 62.9455 210.106 62.7401C209.781 62.5346 209.41 62.4318 208.992 62.4318C208.677 62.4318 208.384 62.4948 208.112 62.6207C207.84 62.7434 207.602 62.9124 207.396 63.1278C207.194 63.3433 207.035 63.5902 206.919 63.8686C206.803 64.1437 206.745 64.4337 206.745 64.7386C206.745 65.143 206.839 65.5208 207.028 65.8722C207.22 66.2235 207.482 66.5069 207.814 66.7223C208.148 66.9377 208.528 67.0455 208.952 67.0455ZM217.549 57.679C217.967 57.6823 218.385 57.7618 218.802 57.9176C219.22 58.0734 219.601 58.3319 219.946 58.6932C220.29 59.0511 220.567 59.54 220.776 60.1598C220.985 60.7796 221.089 61.5568 221.089 62.4915C221.089 63.3963 221.003 64.2 220.831 64.9027C220.662 65.602 220.416 66.192 220.095 66.6726C219.777 67.1532 219.389 67.5178 218.931 67.7663C218.477 68.0149 217.964 68.1392 217.39 68.1392C216.82 68.1392 216.311 68.0265 215.864 67.8011C215.42 67.5724 215.055 67.2559 214.77 66.8516C214.489 66.4439 214.308 65.9716 214.228 65.4347H215.441C215.551 65.902 215.768 66.2881 216.093 66.593C216.421 66.8946 216.853 67.0455 217.39 67.0455C218.176 67.0455 218.796 66.7024 219.25 66.0163C219.707 65.3303 219.936 64.3608 219.936 63.108H219.856C219.671 63.3864 219.45 63.6267 219.195 63.8288C218.94 64.031 218.656 64.1868 218.345 64.2962C218.033 64.4055 217.702 64.4602 217.35 64.4602C216.767 64.4602 216.232 64.3161 215.745 64.0277C215.261 63.736 214.873 63.3366 214.581 62.8295C214.293 62.3191 214.149 61.7358 214.149 61.0795C214.149 60.4564 214.288 59.8864 214.566 59.3693C214.848 58.849 215.243 58.4347 215.75 58.1264C216.26 57.8182 216.86 57.669 217.549 57.679ZM217.549 58.7727C217.132 58.7727 216.756 58.8771 216.421 59.0859C216.089 59.2914 215.826 59.5698 215.63 59.9212C215.438 60.2692 215.342 60.6553 215.342 61.0795C215.342 61.5038 215.435 61.8899 215.62 62.2379C215.809 62.5826 216.066 62.8577 216.391 63.0632C216.719 63.2654 217.092 63.3665 217.51 63.3665C217.824 63.3665 218.118 63.3052 218.39 63.1825C218.661 63.0566 218.898 62.8859 219.1 62.6705C219.306 62.4517 219.467 62.2048 219.583 61.9297C219.699 61.6513 219.757 61.3613 219.757 61.0597C219.757 60.6619 219.661 60.2891 219.468 59.9411C219.279 59.593 219.018 59.3113 218.683 59.0959C218.351 58.8804 217.974 58.7727 217.549 58.7727ZM226.286 57.679C226.703 57.6823 227.121 57.7618 227.539 57.9176C227.956 58.0734 228.337 58.3319 228.682 58.6932C229.027 59.0511 229.303 59.54 229.512 60.1598C229.721 60.7796 229.825 61.5568 229.825 62.4915C229.825 63.3963 229.739 64.2 229.567 64.9027C229.398 65.602 229.153 66.192 228.831 66.6726C228.513 67.1532 228.125 67.5178 227.668 67.7663C227.214 68.0149 226.7 68.1392 226.127 68.1392C225.557 68.1392 225.048 68.0265 224.6 67.8011C224.156 67.5724 223.792 67.2559 223.507 66.8516C223.225 66.4439 223.044 65.9716 222.965 65.4347H224.178C224.287 65.902 224.504 66.2881 224.829 66.593C225.157 66.8946 225.59 67.0455 226.127 67.0455C226.912 67.0455 227.532 66.7024 227.986 66.0163C228.443 65.3303 228.672 64.3608 228.672 63.108H228.593C228.407 63.3864 228.186 63.6267 227.931 63.8288C227.676 64.031 227.393 64.1868 227.081 64.2962C226.77 64.4055 226.438 64.4602 226.087 64.4602C225.503 64.4602 224.968 64.3161 224.481 64.0277C223.997 63.736 223.609 63.3366 223.318 62.8295C223.029 62.3191 222.885 61.7358 222.885 61.0795C222.885 60.4564 223.024 59.8864 223.303 59.3693C223.584 58.849 223.979 58.4347 224.486 58.1264C224.996 57.8182 225.596 57.669 226.286 57.679ZM226.286 58.7727C225.868 58.7727 225.492 58.8771 225.157 59.0859C224.826 59.2914 224.562 59.5698 224.367 59.9212C224.174 60.2692 224.078 60.6553 224.078 61.0795C224.078 61.5038 224.171 61.8899 224.357 62.2379C224.546 62.5826 224.802 62.8577 225.127 63.0632C225.455 63.2654 225.828 63.3665 226.246 63.3665C226.561 63.3665 226.854 63.3052 227.126 63.1825C227.398 63.0566 227.635 62.8859 227.837 62.6705C228.042 62.4517 228.203 62.2048 228.319 61.9297C228.435 61.6513 228.493 61.3613 228.493 61.0597C228.493 60.6619 228.397 60.2891 228.205 59.9411C228.016 59.593 227.754 59.3113 227.419 59.0959C227.088 58.8804 226.71 58.7727 226.286 58.7727ZM235.221 68.1392C234.565 68.1392 233.98 68.0265 233.466 67.8011C232.955 67.5758 232.549 67.2625 232.248 66.8615C231.95 66.4571 231.787 65.9882 231.761 65.4545H233.013C233.04 65.7827 233.153 66.0661 233.352 66.3047C233.55 66.54 233.811 66.7223 234.132 66.8516C234.454 66.9808 234.81 67.0455 235.201 67.0455C235.638 67.0455 236.026 66.9692 236.364 66.8168C236.702 66.6643 236.968 66.4522 237.16 66.1804C237.352 65.9086 237.448 65.5938 237.448 65.2358C237.448 64.8613 237.355 64.5315 237.17 64.2464C236.984 63.9581 236.712 63.7327 236.354 63.5703C235.996 63.4079 235.559 63.3267 235.042 63.3267H234.227V62.233H235.042C235.446 62.233 235.801 62.16 236.106 62.0142C236.414 61.8684 236.654 61.6629 236.827 61.3977C237.002 61.1326 237.09 60.821 237.09 60.4631C237.09 60.1184 237.014 59.8184 236.862 59.5632C236.709 59.308 236.494 59.1091 236.215 58.9666C235.94 58.8241 235.615 58.7528 235.241 58.7528C234.889 58.7528 234.558 58.8175 234.246 58.9467C233.938 59.0727 233.686 59.2566 233.491 59.4986C233.295 59.7372 233.189 60.0256 233.173 60.3636H231.979C231.999 59.83 232.16 59.3627 232.462 58.9616C232.763 58.5573 233.158 58.2424 233.645 58.017C234.135 57.7917 234.674 57.679 235.261 57.679C235.89 57.679 236.431 57.8066 236.881 58.0618C237.332 58.3137 237.679 58.6468 237.92 59.0611C238.162 59.4754 238.283 59.9228 238.283 60.4034C238.283 60.9768 238.133 61.4657 237.831 61.87C237.533 62.2744 237.127 62.5545 236.613 62.7102V62.7898C237.256 62.8958 237.758 63.1693 238.119 63.6101C238.481 64.0476 238.661 64.5895 238.661 65.2358C238.661 65.7893 238.51 66.2865 238.209 66.7273C237.911 67.1648 237.503 67.5095 236.986 67.7614C236.469 68.0133 235.88 68.1392 235.221 68.1392ZM243.936 57.679C244.354 57.6823 244.771 57.7618 245.189 57.9176C245.607 58.0734 245.988 58.3319 246.332 58.6932C246.677 59.0511 246.954 59.54 247.163 60.1598C247.371 60.7796 247.476 61.5568 247.476 62.4915C247.476 63.3963 247.39 64.2 247.217 64.9027C247.048 65.602 246.803 66.192 246.482 66.6726C246.163 67.1532 245.776 67.5178 245.318 67.7663C244.864 68.0149 244.35 68.1392 243.777 68.1392C243.207 68.1392 242.698 68.0265 242.251 67.8011C241.807 67.5724 241.442 67.2559 241.157 66.8516C240.875 66.4439 240.695 65.9716 240.615 65.4347H241.828C241.938 65.902 242.155 66.2881 242.479 66.593C242.808 66.8946 243.24 67.0455 243.777 67.0455C244.563 67.0455 245.182 66.7024 245.636 66.0163C246.094 65.3303 246.322 64.3608 246.322 63.108H246.243C246.057 63.3864 245.837 63.6267 245.582 63.8288C245.326 64.031 245.043 64.1868 244.732 64.2962C244.42 64.4055 244.089 64.4602 243.737 64.4602C243.154 64.4602 242.619 64.3161 242.131 64.0277C241.647 63.736 241.26 63.3366 240.968 62.8295C240.68 62.3191 240.536 61.7358 240.536 61.0795C240.536 60.4564 240.675 59.8864 240.953 59.3693C241.235 58.849 241.629 58.4347 242.136 58.1264C242.647 57.8182 243.247 57.669 243.936 57.679ZM243.936 58.7727C243.518 58.7727 243.142 58.8771 242.808 59.0859C242.476 59.2914 242.213 59.5698 242.017 59.9212C241.825 60.2692 241.729 60.6553 241.729 61.0795C241.729 61.5038 241.821 61.8899 242.007 62.2379C242.196 62.5826 242.453 62.8577 242.778 63.0632C243.106 63.2654 243.479 63.3665 243.896 63.3665C244.211 63.3665 244.504 63.3052 244.776 63.1825C245.048 63.0566 245.285 62.8859 245.487 62.6705C245.693 62.4517 245.853 62.2048 245.969 61.9297C246.085 61.6513 246.143 61.3613 246.143 61.0597C246.143 60.6619 246.047 60.2891 245.855 59.9411C245.666 59.593 245.404 59.3113 245.07 59.0959C244.738 58.8804 244.36 58.7727 243.936 58.7727Z" fill="white"/>
<path d="M4.05682 93.2102V86.6477H5.17045V93.2102H4.05682ZM1.33239 90.4858V89.3722H7.89489V90.4858H1.33239ZM9.80398 95V94.1051L13.1648 90.4261C13.5592 89.9953 13.884 89.6207 14.1392 89.3026C14.3944 88.9811 14.5833 88.6795 14.706 88.3977C14.8319 88.1127 14.8949 87.8144 14.8949 87.5028C14.8949 87.1449 14.8087 86.835 14.6364 86.5732C14.4673 86.3113 14.2353 86.1091 13.9403 85.9666C13.6454 85.8241 13.3139 85.7528 12.946 85.7528C12.5549 85.7528 12.2135 85.834 11.9219 85.9964C11.6335 86.1555 11.4098 86.3793 11.2507 86.6676C11.0949 86.956 11.017 87.294 11.017 87.6818H9.84375C9.84375 87.0852 9.9813 86.5616 10.2564 86.1108C10.5315 85.66 10.906 85.3087 11.38 85.0568C11.8572 84.8049 12.3925 84.679 12.9858 84.679C13.5824 84.679 14.111 84.8049 14.5717 85.0568C15.0324 85.3087 15.3937 85.6484 15.6555 86.076C15.9174 86.5036 16.0483 86.9792 16.0483 87.5028C16.0483 87.8774 15.9804 88.2436 15.8445 88.6016C15.7119 88.9562 15.4799 89.3523 15.1484 89.7898C14.8203 90.224 14.3646 90.7543 13.7812 91.3807L11.4943 93.8267V93.9062H16.2273V95H9.80398ZM21.7209 95.1392C21.0646 95.1392 20.4796 95.0265 19.9659 94.8011C19.4555 94.5758 19.0495 94.2625 18.7479 93.8615C18.4496 93.4571 18.2872 92.9882 18.2607 92.4545H19.5135C19.54 92.7827 19.6527 93.0661 19.8516 93.3047C20.0504 93.54 20.3106 93.7223 20.6321 93.8516C20.9536 93.9808 21.3099 94.0455 21.701 94.0455C22.1385 94.0455 22.5263 93.9692 22.8643 93.8168C23.2024 93.6643 23.4676 93.4522 23.6598 93.1804C23.852 92.9086 23.9482 92.5938 23.9482 92.2358C23.9482 91.8613 23.8554 91.5315 23.6697 91.2464C23.4841 90.9581 23.2124 90.7327 22.8544 90.5703C22.4964 90.4079 22.0589 90.3267 21.5419 90.3267H20.7266V89.233H21.5419C21.9463 89.233 22.3009 89.16 22.6058 89.0142C22.9141 88.8684 23.1544 88.6629 23.3267 88.3977C23.5024 88.1326 23.5902 87.821 23.5902 87.4631C23.5902 87.1184 23.514 86.8184 23.3615 86.5632C23.209 86.308 22.9936 86.1091 22.7152 85.9666C22.4401 85.8241 22.1153 85.7528 21.7408 85.7528C21.3894 85.7528 21.058 85.8175 20.7464 85.9467C20.4382 86.0727 20.1863 86.2566 19.9908 86.4986C19.7952 86.7372 19.6892 87.0256 19.6726 87.3636H18.4794C18.4993 86.83 18.66 86.3627 18.9616 85.9616C19.2633 85.5573 19.6577 85.2424 20.1449 85.017C20.6354 84.7917 21.174 84.679 21.7607 84.679C22.3904 84.679 22.9306 84.8066 23.3814 85.0618C23.8321 85.3137 24.1785 85.6468 24.4205 86.0611C24.6624 86.4754 24.7834 86.9228 24.7834 87.4034C24.7834 87.9768 24.6326 88.4657 24.331 88.87C24.0327 89.2744 23.6267 89.5545 23.1129 89.7102V89.7898C23.7559 89.8958 24.258 90.1693 24.6193 90.6101C24.9806 91.0476 25.1612 91.5895 25.1612 92.2358C25.1612 92.7893 25.0104 93.2865 24.7088 93.7273C24.4105 94.1648 24.0028 94.5095 23.4858 94.7614C22.9688 95.0133 22.3804 95.1392 21.7209 95.1392ZM26.956 92.9119V91.8977L31.4304 84.8182H32.1662V86.3892H31.669L28.2884 91.7386V91.8182H34.3139V92.9119H26.956ZM31.7486 95V92.6037V92.1314V84.8182H32.9219V95H31.7486ZM39.4185 84.679C39.8361 84.6823 40.2537 84.7618 40.6713 84.9176C41.089 85.0734 41.4701 85.3319 41.8148 85.6932C42.1595 86.0511 42.4363 86.54 42.6451 87.1598C42.8539 87.7796 42.9583 88.5568 42.9583 89.4915C42.9583 90.3963 42.8721 91.2 42.6998 91.9027C42.5307 92.602 42.2855 93.192 41.964 93.6726C41.6458 94.1532 41.258 94.5178 40.8006 94.7663C40.3465 95.0149 39.8328 95.1392 39.2594 95.1392C38.6893 95.1392 38.1806 95.0265 37.7331 94.8011C37.289 94.5724 36.9244 94.2559 36.6394 93.8516C36.3577 93.4439 36.177 92.9716 36.0975 92.4347H37.3105C37.4199 92.902 37.637 93.2881 37.9618 93.593C38.29 93.8946 38.7225 94.0455 39.2594 94.0455C40.0449 94.0455 40.6647 93.7024 41.1188 93.0163C41.5762 92.3303 41.8049 91.3608 41.8049 90.108H41.7253C41.5397 90.3864 41.3193 90.6267 41.0641 90.8288C40.8089 91.031 40.5255 91.1868 40.214 91.2962C39.9024 91.4055 39.571 91.4602 39.2196 91.4602C38.6363 91.4602 38.101 91.3161 37.6138 91.0277C37.1299 90.736 36.7421 90.3366 36.4505 89.8295C36.1621 89.3191 36.0179 88.7358 36.0179 88.0795C36.0179 87.4564 36.1571 86.8864 36.4355 86.3693C36.7173 85.849 37.1117 85.4347 37.6188 85.1264C38.1292 84.8182 38.7291 84.669 39.4185 84.679ZM39.4185 85.7727C39.0009 85.7727 38.6247 85.8771 38.29 86.0859C37.9585 86.2914 37.695 86.5698 37.4995 86.9212C37.3072 87.2692 37.2111 87.6553 37.2111 88.0795C37.2111 88.5038 37.3039 88.8899 37.4895 89.2379C37.6784 89.5826 37.9353 89.8577 38.2601 90.0632C38.5882 90.2654 38.9611 90.3665 39.3787 90.3665C39.6936 90.3665 39.9869 90.3052 40.2587 90.1825C40.5305 90.0566 40.7675 89.8859 40.9696 89.6705C41.1751 89.4517 41.3359 89.2048 41.4519 88.9297C41.5679 88.6513 41.6259 88.3613 41.6259 88.0597C41.6259 87.6619 41.5298 87.2891 41.3375 86.9411C41.1486 86.593 40.8868 86.3113 40.552 86.0959C40.2206 85.8804 39.8427 85.7727 39.4185 85.7727ZM48.2344 95.1392C47.4853 95.1392 46.8473 94.9354 46.3203 94.5277C45.7933 94.1167 45.3906 93.5218 45.1122 92.7429C44.8338 91.9607 44.6946 91.0161 44.6946 89.9091C44.6946 88.8087 44.8338 87.8691 45.1122 87.0902C45.3939 86.308 45.7983 85.7114 46.3253 85.3004C46.8556 84.8861 47.492 84.679 48.2344 84.679C48.9768 84.679 49.6115 84.8861 50.1385 85.3004C50.6688 85.7114 51.0732 86.308 51.3516 87.0902C51.6333 87.8691 51.7741 88.8087 51.7741 89.9091C51.7741 91.0161 51.6349 91.9607 51.3565 92.7429C51.0781 93.5218 50.6754 94.1167 50.1484 94.5277C49.6214 94.9354 48.9834 95.1392 48.2344 95.1392ZM48.2344 94.0455C48.9768 94.0455 49.5535 93.6875 49.9645 92.9716C50.3755 92.2557 50.581 91.2348 50.581 89.9091C50.581 89.0275 50.4865 88.2768 50.2976 87.657C50.112 87.0372 49.8435 86.5649 49.4922 86.2401C49.1442 85.9152 48.7249 85.7528 48.2344 85.7528C47.4986 85.7528 46.9235 86.1158 46.5092 86.8416C46.0949 87.5642 45.8878 88.5866 45.8878 89.9091C45.8878 90.7907 45.9806 91.5398 46.1662 92.1562C46.3518 92.7727 46.6186 93.2417 46.9666 93.5632C47.3179 93.8847 47.7405 94.0455 48.2344 94.0455ZM53.6634 95V94.1051L57.0241 90.4261C57.4186 89.9953 57.7434 89.6207 57.9986 89.3026C58.2538 88.9811 58.4427 88.6795 58.5653 88.3977C58.6913 88.1127 58.7543 87.8144 58.7543 87.5028C58.7543 87.1449 58.6681 86.835 58.4957 86.5732C58.3267 86.3113 58.0947 86.1091 57.7997 85.9666C57.5047 85.8241 57.1733 85.7528 56.8054 85.7528C56.4143 85.7528 56.0729 85.834 55.7812 85.9964C55.4929 86.1555 55.2692 86.3793 55.1101 86.6676C54.9543 86.956 54.8764 87.294 54.8764 87.6818H53.7031C53.7031 87.0852 53.8407 86.5616 54.1158 86.1108C54.3909 85.66 54.7654 85.3087 55.2393 85.0568C55.7166 84.8049 56.2519 84.679 56.8452 84.679C57.4418 84.679 57.9704 84.8049 58.4311 85.0568C58.8918 85.3087 59.2531 85.6484 59.5149 86.076C59.7768 86.5036 59.9077 86.9792 59.9077 87.5028C59.9077 87.8774 59.8397 88.2436 59.7038 88.6016C59.5713 88.9562 59.3393 89.3523 59.0078 89.7898C58.6797 90.224 58.224 90.7543 57.6406 91.3807L55.3537 93.8267V93.9062H60.0866V95H53.6634ZM65.4609 95.1392C64.7119 95.1392 64.0739 94.9354 63.5469 94.5277C63.0199 94.1167 62.6172 93.5218 62.3388 92.7429C62.0604 91.9607 61.9212 91.0161 61.9212 89.9091C61.9212 88.8087 62.0604 87.8691 62.3388 87.0902C62.6205 86.308 63.0249 85.7114 63.5518 85.3004C64.0821 84.8861 64.7185 84.679 65.4609 84.679C66.2034 84.679 66.8381 84.8861 67.3651 85.3004C67.8954 85.7114 68.2997 86.308 68.5781 87.0902C68.8598 87.8691 69.0007 88.8087 69.0007 89.9091C69.0007 91.0161 68.8615 91.9607 68.5831 92.7429C68.3047 93.5218 67.902 94.1167 67.375 94.5277C66.848 94.9354 66.21 95.1392 65.4609 95.1392ZM65.4609 94.0455C66.2034 94.0455 66.7801 93.6875 67.1911 92.9716C67.602 92.2557 67.8075 91.2348 67.8075 89.9091C67.8075 89.0275 67.7131 88.2768 67.5241 87.657C67.3385 87.0372 67.0701 86.5649 66.7188 86.2401C66.3707 85.9152 65.9515 85.7528 65.4609 85.7528C64.7251 85.7528 64.1501 86.1158 63.7358 86.8416C63.3215 87.5642 63.1143 88.5866 63.1143 89.9091C63.1143 90.7907 63.2071 91.5398 63.3928 92.1562C63.5784 92.7727 63.8452 93.2417 64.1932 93.5632C64.5445 93.8847 64.9671 94.0455 65.4609 94.0455ZM74.2109 95.1392C73.4619 95.1392 72.8239 94.9354 72.2969 94.5277C71.7699 94.1167 71.3672 93.5218 71.0888 92.7429C70.8104 91.9607 70.6712 91.0161 70.6712 89.9091C70.6712 88.8087 70.8104 87.8691 71.0888 87.0902C71.3705 86.308 71.7749 85.7114 72.3018 85.3004C72.8321 84.8861 73.4685 84.679 74.2109 84.679C74.9534 84.679 75.5881 84.8861 76.1151 85.3004C76.6454 85.7114 77.0497 86.308 77.3281 87.0902C77.6098 87.8691 77.7507 88.8087 77.7507 89.9091C77.7507 91.0161 77.6115 91.9607 77.3331 92.7429C77.0547 93.5218 76.652 94.1167 76.125 94.5277C75.598 94.9354 74.96 95.1392 74.2109 95.1392ZM74.2109 94.0455C74.9534 94.0455 75.5301 93.6875 75.9411 92.9716C76.352 92.2557 76.5575 91.2348 76.5575 89.9091C76.5575 89.0275 76.4631 88.2768 76.2741 87.657C76.0885 87.0372 75.8201 86.5649 75.4688 86.2401C75.1207 85.9152 74.7015 85.7528 74.2109 85.7528C73.4751 85.7528 72.9001 86.1158 72.4858 86.8416C72.0715 87.5642 71.8643 88.5866 71.8643 89.9091C71.8643 90.7907 71.9571 91.5398 72.1428 92.1562C72.3284 92.7727 72.5952 93.2417 72.9432 93.5632C73.2945 93.8847 73.7171 94.0455 74.2109 94.0455ZM79.4013 92.9119V91.8977L83.8757 84.8182H84.6115V86.3892H84.1143L80.7337 91.7386V91.8182H86.7592V92.9119H79.4013ZM84.1939 95V92.6037V92.1314V84.8182H85.3672V95H84.1939ZM91.8638 84.679C92.2814 84.6823 92.699 84.7618 93.1167 84.9176C93.5343 85.0734 93.9154 85.3319 94.2601 85.6932C94.6048 86.0511 94.8816 86.54 95.0904 87.1598C95.2992 87.7796 95.4036 88.5568 95.4036 89.4915C95.4036 90.3963 95.3174 91.2 95.1451 91.9027C94.976 92.602 94.7308 93.192 94.4093 93.6726C94.0911 94.1532 93.7033 94.5178 93.2459 94.7663C92.7918 95.0149 92.2781 95.1392 91.7047 95.1392C91.1346 95.1392 90.6259 95.0265 90.1784 94.8011C89.7343 94.5724 89.3697 94.2559 89.0847 93.8516C88.803 93.4439 88.6223 92.9716 88.5428 92.4347H89.7559C89.8652 92.902 90.0823 93.2881 90.4071 93.593C90.7353 93.8946 91.1678 94.0455 91.7047 94.0455C92.4902 94.0455 93.11 93.7024 93.5641 93.0163C94.0215 92.3303 94.2502 91.3608 94.2502 90.108H94.1706C93.985 90.3864 93.7646 90.6267 93.5094 90.8288C93.2542 91.031 92.9708 91.1868 92.6593 91.2962C92.3477 91.4055 92.0163 91.4602 91.665 91.4602C91.0816 91.4602 90.5463 91.3161 90.0591 91.0277C89.5752 90.736 89.1874 90.3366 88.8958 89.8295C88.6074 89.3191 88.4632 88.7358 88.4632 88.0795C88.4632 87.4564 88.6025 86.8864 88.8809 86.3693C89.1626 85.849 89.557 85.4347 90.0641 85.1264C90.5745 84.8182 91.1744 84.669 91.8638 84.679ZM91.8638 85.7727C91.4462 85.7727 91.07 85.8771 90.7353 86.0859C90.4038 86.2914 90.1403 86.5698 89.9448 86.9212C89.7525 87.2692 89.6564 87.6553 89.6564 88.0795C89.6564 88.5038 89.7492 88.8899 89.9348 89.2379C90.1238 89.5826 90.3806 89.8577 90.7054 90.0632C91.0336 90.2654 91.4064 90.3665 91.824 90.3665C92.1389 90.3665 92.4322 90.3052 92.704 90.1825C92.9758 90.0566 93.2128 89.8859 93.415 89.6705C93.6204 89.4517 93.7812 89.2048 93.8972 88.9297C94.0132 88.6513 94.0712 88.3613 94.0712 88.0597C94.0712 87.6619 93.9751 87.2891 93.7828 86.9411C93.5939 86.593 93.3321 86.3113 92.9973 86.0959C92.6659 85.8804 92.2881 85.7727 91.8638 85.7727ZM100.938 84.8182V95H99.7053V86.1108H99.6456L97.1598 87.7614V86.5085L99.7053 84.8182H100.938ZM107.188 95.1392C106.438 95.1392 105.8 94.9354 105.273 94.5277C104.746 94.1167 104.344 93.5218 104.065 92.7429C103.787 91.9607 103.648 91.0161 103.648 89.9091C103.648 88.8087 103.787 87.8691 104.065 87.0902C104.347 86.308 104.751 85.7114 105.278 85.3004C105.809 84.8861 106.445 84.679 107.188 84.679C107.93 84.679 108.565 84.8861 109.092 85.3004C109.622 85.7114 110.026 86.308 110.305 87.0902C110.586 87.8691 110.727 88.8087 110.727 89.9091C110.727 91.0161 110.588 91.9607 110.31 92.7429C110.031 93.5218 109.629 94.1167 109.102 94.5277C108.575 94.9354 107.937 95.1392 107.188 95.1392ZM107.188 94.0455C107.93 94.0455 108.507 93.6875 108.918 92.9716C109.329 92.2557 109.534 91.2348 109.534 89.9091C109.534 89.0275 109.44 88.2768 109.251 87.657C109.065 87.0372 108.797 86.5649 108.445 86.2401C108.097 85.9152 107.678 85.7528 107.188 85.7528C106.452 85.7528 105.877 86.1158 105.462 86.8416C105.048 87.5642 104.841 88.5866 104.841 89.9091C104.841 90.7907 104.934 91.5398 105.119 92.1562C105.305 92.7727 105.572 93.2417 105.92 93.5632C106.271 93.8847 106.694 94.0455 107.188 94.0455ZM115.798 95.1392C115.215 95.1392 114.69 95.0232 114.222 94.7912C113.755 94.5592 113.38 94.241 113.099 93.8366C112.817 93.4323 112.663 92.9716 112.636 92.4545H113.83C113.876 92.9152 114.085 93.2964 114.456 93.598C114.83 93.8963 115.278 94.0455 115.798 94.0455C116.216 94.0455 116.587 93.9477 116.912 93.7521C117.24 93.5566 117.497 93.2881 117.683 92.9467C117.871 92.602 117.966 92.2126 117.966 91.7784C117.966 91.3343 117.868 90.9382 117.673 90.5902C117.48 90.2389 117.215 89.9621 116.877 89.7599C116.539 89.5578 116.153 89.455 115.719 89.4517C115.407 89.4484 115.087 89.4964 114.759 89.5959C114.431 89.692 114.161 89.8163 113.949 89.9688L112.795 89.8295L113.412 84.8182H118.702V85.9119H114.446L114.088 88.9148H114.148C114.357 88.7491 114.618 88.6115 114.933 88.5021C115.248 88.3928 115.576 88.3381 115.918 88.3381C116.541 88.3381 117.096 88.4872 117.583 88.7855C118.074 89.0805 118.458 89.4848 118.737 89.9986C119.018 90.5123 119.159 91.099 119.159 91.7585C119.159 92.4081 119.013 92.9882 118.722 93.4986C118.433 94.0057 118.036 94.4067 117.528 94.7017C117.021 94.9934 116.445 95.1392 115.798 95.1392ZM122.521 93.608L122.442 94.1449C122.385 94.5227 122.299 94.9271 122.183 95.358C122.07 95.7888 121.953 96.1948 121.83 96.576C121.707 96.9571 121.606 97.2604 121.527 97.4858H120.632C120.675 97.2737 120.731 96.9936 120.801 96.6456C120.871 96.2976 120.94 95.9081 121.01 95.4773C121.083 95.0497 121.142 94.6122 121.189 94.1648L121.248 93.608H122.521ZM131.615 93.2102V86.6477H132.729V93.2102H131.615ZM128.891 90.4858V89.3722H135.453V90.4858H128.891ZM137.363 95V94.1051L140.723 90.4261C141.118 89.9953 141.443 89.6207 141.698 89.3026C141.953 88.9811 142.142 88.6795 142.265 88.3977C142.391 88.1127 142.453 87.8144 142.453 87.5028C142.453 87.1449 142.367 86.835 142.195 86.5732C142.026 86.3113 141.794 86.1091 141.499 85.9666C141.204 85.8241 140.873 85.7528 140.505 85.7528C140.114 85.7528 139.772 85.834 139.48 85.9964C139.192 86.1555 138.968 86.3793 138.809 86.6676C138.654 86.956 138.576 87.294 138.576 87.6818H137.402C137.402 87.0852 137.54 86.5616 137.815 86.1108C138.09 85.66 138.465 85.3087 138.939 85.0568C139.416 84.8049 139.951 84.679 140.544 84.679C141.141 84.679 141.67 84.8049 142.13 85.0568C142.591 85.3087 142.952 85.6484 143.214 86.076C143.476 86.5036 143.607 86.9792 143.607 87.5028C143.607 87.8774 143.539 88.2436 143.403 88.6016C143.27 88.9562 143.038 89.3523 142.707 89.7898C142.379 90.224 141.923 90.7543 141.34 91.3807L139.053 93.8267V93.9062H143.786V95H137.363ZM149.279 95.1392C148.623 95.1392 148.038 95.0265 147.525 94.8011C147.014 94.5758 146.608 94.2625 146.306 93.8615C146.008 93.4571 145.846 92.9882 145.819 92.4545H147.072C147.099 92.7827 147.211 93.0661 147.41 93.3047C147.609 93.54 147.869 93.7223 148.191 93.8516C148.512 93.9808 148.868 94.0455 149.26 94.0455C149.697 94.0455 150.085 93.9692 150.423 93.8168C150.761 93.6643 151.026 93.4522 151.218 93.1804C151.411 92.9086 151.507 92.5938 151.507 92.2358C151.507 91.8613 151.414 91.5315 151.228 91.2464C151.043 90.9581 150.771 90.7327 150.413 90.5703C150.055 90.4079 149.618 90.3267 149.1 90.3267H148.285V89.233H149.1C149.505 89.233 149.859 89.16 150.164 89.0142C150.473 88.8684 150.713 88.6629 150.885 88.3977C151.061 88.1326 151.149 87.821 151.149 87.4631C151.149 87.1184 151.073 86.8184 150.92 86.5632C150.768 86.308 150.552 86.1091 150.274 85.9666C149.999 85.8241 149.674 85.7528 149.299 85.7528C148.948 85.7528 148.617 85.8175 148.305 85.9467C147.997 86.0727 147.745 86.2566 147.549 86.4986C147.354 86.7372 147.248 87.0256 147.231 87.3636H146.038C146.058 86.83 146.219 86.3627 146.52 85.9616C146.822 85.5573 147.216 85.2424 147.703 85.017C148.194 84.7917 148.733 84.679 149.319 84.679C149.949 84.679 150.489 84.8066 150.94 85.0618C151.391 85.3137 151.737 85.6468 151.979 86.0611C152.221 86.4754 152.342 86.9228 152.342 87.4034C152.342 87.9768 152.191 88.4657 151.89 88.87C151.591 89.2744 151.185 89.5545 150.672 89.7102V89.7898C151.315 89.8958 151.817 90.1693 152.178 90.6101C152.539 91.0476 152.72 91.5895 152.72 92.2358C152.72 92.7893 152.569 93.2865 152.267 93.7273C151.969 94.1648 151.561 94.5095 151.044 94.7614C150.527 95.0133 149.939 95.1392 149.279 95.1392ZM154.515 92.9119V91.8977L158.989 84.8182H159.725V86.3892H159.228L155.847 91.7386V91.8182H161.873V92.9119H154.515ZM159.307 95V92.6037V92.1314V84.8182H160.48V95H159.307ZM164.054 95L168.608 85.9915V85.9119H163.358V84.8182H169.881V85.9716L165.346 95H164.054ZM174.836 95.1392C174.087 95.1392 173.449 94.9354 172.922 94.5277C172.395 94.1167 171.992 93.5218 171.714 92.7429C171.435 91.9607 171.296 91.0161 171.296 89.9091C171.296 88.8087 171.435 87.8691 171.714 87.0902C171.996 86.308 172.4 85.7114 172.927 85.3004C173.457 84.8861 174.094 84.679 174.836 84.679C175.578 84.679 176.213 84.8861 176.74 85.3004C177.27 85.7114 177.675 86.308 177.953 87.0902C178.235 87.8691 178.376 88.8087 178.376 89.9091C178.376 91.0161 178.237 91.9607 177.958 92.7429C177.68 93.5218 177.277 94.1167 176.75 94.5277C176.223 94.9354 175.585 95.1392 174.836 95.1392ZM174.836 94.0455C175.578 94.0455 176.155 93.6875 176.566 92.9716C176.977 92.2557 177.183 91.2348 177.183 89.9091C177.183 89.0275 177.088 88.2768 176.899 87.657C176.714 87.0372 176.445 86.5649 176.094 86.2401C175.746 85.9152 175.326 85.7528 174.836 85.7528C174.1 85.7528 173.525 86.1158 173.111 86.8416C172.696 87.5642 172.489 88.5866 172.489 89.9091C172.489 90.7907 172.582 91.5398 172.768 92.1562C172.953 92.7727 173.22 93.2417 173.568 93.5632C173.92 93.8847 174.342 94.0455 174.836 94.0455ZM183.844 84.8182V95H182.612V86.1108H182.552L180.066 87.7614V86.5085L182.612 84.8182H183.844ZM186.534 92.9119V91.8977L191.009 84.8182H191.744V86.3892H191.247L187.866 91.7386V91.8182H193.892V92.9119H186.534ZM191.327 95V92.6037V92.1314V84.8182H192.5V95H191.327ZM199.136 95.1392C198.718 95.1326 198.301 95.053 197.883 94.9006C197.465 94.7481 197.084 94.4912 196.74 94.13C196.395 93.7654 196.118 93.2732 195.909 92.6534C195.7 92.0303 195.596 91.2481 195.596 90.3068C195.596 89.4053 195.681 88.6065 195.85 87.9105C196.019 87.2112 196.264 86.6229 196.585 86.1456C196.907 85.665 197.295 85.3004 197.749 85.0518C198.206 84.8033 198.722 84.679 199.295 84.679C199.865 84.679 200.372 84.7933 200.816 85.022C201.264 85.2474 201.628 85.5623 201.91 85.9666C202.192 86.371 202.374 86.8366 202.457 87.3636H201.244C201.131 86.9062 200.912 86.5268 200.588 86.2251C200.263 85.9235 199.832 85.7727 199.295 85.7727C198.506 85.7727 197.885 86.1158 197.431 86.8018C196.98 87.4879 196.753 88.4508 196.749 89.6903H196.829C197.015 89.4086 197.235 89.1683 197.49 88.9695C197.749 88.7673 198.034 88.6115 198.345 88.5021C198.657 88.3928 198.987 88.3381 199.335 88.3381C199.918 88.3381 200.452 88.4839 200.936 88.7756C201.419 89.0639 201.807 89.4633 202.099 89.9737C202.391 90.4808 202.536 91.0625 202.536 91.7188C202.536 92.3485 202.396 92.9252 202.114 93.4489C201.832 93.9692 201.436 94.3835 200.926 94.6918C200.419 94.9967 199.822 95.1458 199.136 95.1392ZM199.136 94.0455C199.553 94.0455 199.928 93.9411 200.259 93.7322C200.594 93.5234 200.858 93.2434 201.05 92.892C201.245 92.5407 201.343 92.1496 201.343 91.7188C201.343 91.2978 201.249 90.915 201.06 90.5703C200.874 90.2223 200.617 89.9455 200.289 89.7401C199.964 89.5346 199.593 89.4318 199.176 89.4318C198.861 89.4318 198.567 89.4948 198.296 89.6207C198.024 89.7434 197.785 89.9124 197.58 90.1278C197.378 90.3433 197.218 90.5902 197.102 90.8686C196.986 91.1437 196.928 91.4337 196.928 91.7386C196.928 92.143 197.023 92.5208 197.212 92.8722C197.404 93.2235 197.666 93.5069 197.997 93.7223C198.332 93.9377 198.712 94.0455 199.136 94.0455ZM207.812 95.1392C207.063 95.1392 206.425 94.9354 205.898 94.5277C205.371 94.1167 204.969 93.5218 204.69 92.7429C204.412 91.9607 204.273 91.0161 204.273 89.9091C204.273 88.8087 204.412 87.8691 204.69 87.0902C204.972 86.308 205.376 85.7114 205.903 85.3004C206.434 84.8861 207.07 84.679 207.812 84.679C208.555 84.679 209.19 84.8861 209.717 85.3004C210.247 85.7114 210.651 86.308 210.93 87.0902C211.211 87.8691 211.352 88.8087 211.352 89.9091C211.352 91.0161 211.213 91.9607 210.935 92.7429C210.656 93.5218 210.254 94.1167 209.727 94.5277C209.2 94.9354 208.562 95.1392 207.812 95.1392ZM207.812 94.0455C208.555 94.0455 209.132 93.6875 209.543 92.9716C209.954 92.2557 210.159 91.2348 210.159 89.9091C210.159 89.0275 210.065 88.2768 209.876 87.657C209.69 87.0372 209.422 86.5649 209.07 86.2401C208.722 85.9152 208.303 85.7528 207.812 85.7528C207.077 85.7528 206.502 86.1158 206.087 86.8416C205.673 87.5642 205.466 88.5866 205.466 89.9091C205.466 90.7907 205.559 91.5398 205.744 92.1562C205.93 92.7727 206.197 93.2417 206.545 93.5632C206.896 93.8847 207.319 94.0455 207.812 94.0455ZM213.003 92.9119V91.8977L217.477 84.8182H218.213V86.3892H217.716L214.335 91.7386V91.8182H220.361V92.9119H213.003ZM217.795 95V92.6037V92.1314V84.8182H218.969V95H217.795ZM225.667 84.8182V95H224.434V86.1108H224.374L221.888 87.7614V86.5085L224.434 84.8182H225.667ZM232.175 84.8182V95H230.942V86.1108H230.882L228.396 87.7614V86.5085L230.942 84.8182H232.175ZM238.682 84.8182V95H237.449V86.1108H237.39L234.904 87.7614V86.5085L237.449 84.8182H238.682Z" fill="white"/>
</svg>
