<svg width="289" height="98" viewBox="0 0 289 98" fill="none" xmlns="http://www.w3.org/2000/svg">
<path d="M12.358 29H10.5114L15.8523 14.4545H17.6705L23.0114 29H21.1648L16.8182 16.7557H16.7045L12.358 29ZM13.0398 23.3182H20.483V24.8807H13.0398V23.3182ZM29.169 29.2273C28.2599 29.2273 27.4574 28.9976 26.7614 28.5384C26.0653 28.0743 25.5208 27.4209 25.1278 26.5781C24.7348 25.7306 24.5384 24.7292 24.5384 23.5739C24.5384 22.428 24.7348 21.4337 25.1278 20.5909C25.5208 19.7481 26.0677 19.0971 26.7685 18.6378C27.4692 18.1785 28.2789 17.9489 29.1974 17.9489C29.9077 17.9489 30.4688 18.0672 30.8807 18.304C31.2973 18.536 31.6146 18.8011 31.8324 19.0994C32.0549 19.393 32.2277 19.6345 32.3509 19.8239H32.4929V14.4545H34.169V29H32.5497V27.3239H32.3509C32.2277 27.5227 32.0526 27.7737 31.8253 28.0767C31.598 28.375 31.2737 28.6425 30.8523 28.8793C30.4309 29.1113 29.8698 29.2273 29.169 29.2273ZM29.3963 27.7216C30.0687 27.7216 30.6368 27.5464 31.1009 27.196C31.5649 26.8409 31.9176 26.3509 32.1591 25.7259C32.4006 25.0961 32.5213 24.3693 32.5213 23.5455C32.5213 22.7311 32.4029 22.0185 32.1662 21.4077C31.9295 20.7921 31.5791 20.3139 31.1151 19.973C30.651 19.6274 30.0781 19.4545 29.3963 19.4545C28.6861 19.4545 28.0942 19.6368 27.6207 20.0014C27.152 20.3613 26.7992 20.8513 26.5625 21.4716C26.3305 22.0871 26.2145 22.7784 26.2145 23.5455C26.2145 24.322 26.3329 25.0275 26.5696 25.6619C26.8111 26.2917 27.1662 26.7936 27.6349 27.1676C28.1084 27.5369 28.6955 27.7216 29.3963 27.7216ZM41.5909 29.2273C40.6818 29.2273 39.8793 28.9976 39.1832 28.5384C38.4872 28.0743 37.9427 27.4209 37.5497 26.5781C37.1567 25.7306 36.9602 24.7292 36.9602 23.5739C36.9602 22.428 37.1567 21.4337 37.5497 20.5909C37.9427 19.7481 38.4896 19.0971 39.1903 18.6378C39.8911 18.1785 40.7008 17.9489 41.6193 17.9489C42.3295 17.9489 42.8906 18.0672 43.3026 18.304C43.7192 18.536 44.0365 18.8011 44.2543 19.0994C44.4768 19.393 44.6496 19.6345 44.7727 19.8239H44.9148V14.4545H46.5909V29H44.9716V27.3239H44.7727C44.6496 27.5227 44.4744 27.7737 44.2472 28.0767C44.0199 28.375 43.6955 28.6425 43.2741 28.8793C42.8527 29.1113 42.2917 29.2273 41.5909 29.2273ZM41.8182 27.7216C42.4905 27.7216 43.0587 27.5464 43.5227 27.196C43.9867 26.8409 44.3395 26.3509 44.581 25.7259C44.8224 25.0961 44.9432 24.3693 44.9432 23.5455C44.9432 22.7311 44.8248 22.0185 44.5881 21.4077C44.3513 20.7921 44.0009 20.3139 43.5369 19.973C43.0729 19.6274 42.5 19.4545 41.8182 19.4545C41.108 19.4545 40.5161 19.6368 40.0426 20.0014C39.5739 20.3613 39.2211 20.8513 38.9844 21.4716C38.7524 22.0871 38.6364 22.7784 38.6364 23.5455C38.6364 24.322 38.7547 25.0275 38.9915 25.6619C39.233 26.2917 39.5881 26.7936 40.0568 27.1676C40.5303 27.5369 41.1174 27.7216 41.8182 27.7216ZM49.8935 29V18.0909H51.5128V19.7386H51.6264C51.8253 19.1989 52.1851 18.7609 52.706 18.4247C53.2268 18.0885 53.8139 17.9205 54.4673 17.9205C54.5904 17.9205 54.7443 17.9228 54.929 17.9276C55.1136 17.9323 55.2533 17.9394 55.348 17.9489V19.6534C55.2912 19.6392 55.161 19.6179 54.9574 19.5895C54.7585 19.5563 54.5478 19.5398 54.3253 19.5398C53.795 19.5398 53.3215 19.651 52.9048 19.8736C52.4929 20.0914 52.1662 20.3944 51.9247 20.7827C51.688 21.1662 51.5696 21.6042 51.5696 22.0966V29H49.8935ZM61.5767 29.2273C60.5256 29.2273 59.6188 28.9953 58.8565 28.5312C58.099 28.0625 57.5142 27.4091 57.1023 26.571C56.6951 25.7282 56.4915 24.7481 56.4915 23.6307C56.4915 22.5133 56.6951 21.5284 57.1023 20.6761C57.5142 19.8191 58.0871 19.1515 58.821 18.6733C59.5597 18.1903 60.4214 17.9489 61.4062 17.9489C61.9744 17.9489 62.5355 18.0436 63.0895 18.233C63.6435 18.4223 64.1477 18.7301 64.6023 19.1562C65.0568 19.5777 65.419 20.1364 65.6889 20.8324C65.9588 21.5284 66.0938 22.3854 66.0938 23.4034V24.1136H57.6847V22.6648H64.3892C64.3892 22.0492 64.2661 21.5 64.0199 21.017C63.7784 20.5341 63.4328 20.1529 62.983 19.8736C62.5379 19.5942 62.0123 19.4545 61.4062 19.4545C60.7386 19.4545 60.161 19.6203 59.6733 19.9517C59.1903 20.2784 58.8187 20.7045 58.5582 21.2301C58.2978 21.7557 58.1676 22.3191 58.1676 22.9205V23.8864C58.1676 24.7102 58.3097 25.4086 58.5938 25.9815C58.8826 26.5497 59.2827 26.983 59.794 27.2812C60.3054 27.5748 60.8996 27.7216 61.5767 27.7216C62.017 27.7216 62.4148 27.66 62.7699 27.5369C63.1297 27.4091 63.4399 27.2197 63.7003 26.9688C63.9607 26.7131 64.1619 26.3958 64.304 26.017L65.9233 26.4716C65.7528 27.0208 65.4664 27.5038 65.0639 27.9205C64.6615 28.3324 64.1643 28.6544 63.5724 28.8864C62.9806 29.1136 62.3153 29.2273 61.5767 29.2273ZM76.3707 20.5341L74.8651 20.9602C74.7704 20.7093 74.6307 20.4654 74.446 20.2287C74.2661 19.9872 74.0199 19.7884 73.7074 19.6321C73.3949 19.4759 72.9948 19.3977 72.5071 19.3977C71.8395 19.3977 71.2831 19.5516 70.8381 19.8594C70.3977 20.1624 70.1776 20.5483 70.1776 21.017C70.1776 21.4337 70.3291 21.7628 70.6321 22.0043C70.9351 22.2457 71.4086 22.447 72.0526 22.608L73.6719 23.0057C74.6473 23.2424 75.3741 23.6046 75.8523 24.0923C76.3305 24.5753 76.5696 25.1979 76.5696 25.9602C76.5696 26.5852 76.3897 27.1439 76.0298 27.6364C75.6747 28.1288 75.1776 28.517 74.5384 28.8011C73.8991 29.0852 73.1558 29.2273 72.3082 29.2273C71.1955 29.2273 70.2746 28.9858 69.5455 28.5028C68.8163 28.0199 68.3546 27.3144 68.1605 26.3864L69.7514 25.9886C69.9029 26.5758 70.1894 27.0161 70.6108 27.3097C71.0369 27.6032 71.5933 27.75 72.2798 27.75C73.0611 27.75 73.6813 27.5843 74.1406 27.2528C74.6046 26.9167 74.8366 26.5142 74.8366 26.0455C74.8366 25.6667 74.7041 25.3494 74.4389 25.0938C74.1738 24.8333 73.7666 24.6392 73.2173 24.5114L71.3991 24.0852C70.4001 23.8485 69.6662 23.4815 69.1974 22.9844C68.7334 22.4825 68.5014 21.8551 68.5014 21.1023C68.5014 20.4867 68.6742 19.9422 69.0199 19.4688C69.3703 18.9953 69.8461 18.6236 70.4474 18.3537C71.0535 18.0838 71.7401 17.9489 72.5071 17.9489C73.5866 17.9489 74.4342 18.1856 75.0497 18.6591C75.67 19.1326 76.1103 19.7576 76.3707 20.5341ZM86.82 20.5341L85.3143 20.9602C85.2196 20.7093 85.0799 20.4654 84.8952 20.2287C84.7153 19.9872 84.4691 19.7884 84.1566 19.6321C83.8441 19.4759 83.444 19.3977 82.9563 19.3977C82.2887 19.3977 81.7324 19.5516 81.2873 19.8594C80.8469 20.1624 80.6268 20.5483 80.6268 21.017C80.6268 21.4337 80.7783 21.7628 81.0813 22.0043C81.3844 22.2457 81.8578 22.447 82.5018 22.608L84.1211 23.0057C85.0965 23.2424 85.8233 23.6046 86.3015 24.0923C86.7797 24.5753 87.0188 25.1979 87.0188 25.9602C87.0188 26.5852 86.8389 27.1439 86.479 27.6364C86.1239 28.1288 85.6268 28.517 84.9876 28.8011C84.3484 29.0852 83.605 29.2273 82.7575 29.2273C81.6448 29.2273 80.7238 28.9858 79.9947 28.5028C79.2655 28.0199 78.8039 27.3144 78.6097 26.3864L80.2006 25.9886C80.3522 26.5758 80.6386 27.0161 81.06 27.3097C81.4862 27.6032 82.0425 27.75 82.729 27.75C83.5103 27.75 84.1306 27.5843 84.5898 27.2528C85.0539 26.9167 85.2859 26.5142 85.2859 26.0455C85.2859 25.6667 85.1533 25.3494 84.8881 25.0938C84.623 24.8333 84.2158 24.6392 83.6665 24.5114L81.8484 24.0852C80.8493 23.8485 80.1154 23.4815 79.6467 22.9844C79.1826 22.4825 78.9506 21.8551 78.9506 21.1023C78.9506 20.4867 79.1235 19.9422 79.4691 19.4688C79.8195 18.9953 80.2953 18.6236 80.8967 18.3537C81.5027 18.0838 82.1893 17.9489 82.9563 17.9489C84.0359 17.9489 84.8834 18.1856 85.4989 18.6591C86.1192 19.1326 86.5595 19.7576 86.82 20.5341Z" fill="white"/>
<path d="M10.6761 58.9119V57.8182H18.3125V58.9119H15.1108V68H13.8778V58.9119H10.6761ZM21.2296 63.4062V68H20.0563V57.8182H21.2296V61.5568H21.329C21.508 61.1624 21.7765 60.8492 22.1344 60.6172C22.4957 60.3819 22.9763 60.2642 23.5762 60.2642C24.0965 60.2642 24.5523 60.3686 24.9434 60.5774C25.3345 60.7829 25.6377 61.0994 25.8532 61.527C26.0719 61.9512 26.1813 62.4915 26.1813 63.1477V68H25.008V63.2273C25.008 62.6207 24.8506 62.1518 24.5357 61.8203C24.2241 61.4856 23.7916 61.3182 23.2381 61.3182C22.8536 61.3182 22.5089 61.3994 22.204 61.5618C21.9024 61.7242 21.6638 61.9612 21.4881 62.2727C21.3158 62.5843 21.2296 62.9621 21.2296 63.4062ZM31.5295 68.1591C30.7937 68.1591 30.159 67.9967 29.6254 67.6719C29.0951 67.3438 28.6857 66.8864 28.3974 66.2997C28.1123 65.7098 27.9698 65.0237 27.9698 64.2415C27.9698 63.4593 28.1123 62.7699 28.3974 62.1733C28.6857 61.5734 29.0868 61.1061 29.6005 60.7713C30.1175 60.4332 30.7208 60.2642 31.4102 60.2642C31.8079 60.2642 32.2006 60.3305 32.5884 60.4631C32.9762 60.5956 33.3292 60.8111 33.6474 61.1094C33.9656 61.4044 34.2191 61.7955 34.408 62.2827C34.5969 62.7699 34.6914 63.3698 34.6914 64.0824V64.5795H28.805V63.5653H33.4982C33.4982 63.1345 33.4121 62.75 33.2397 62.4119C33.0707 62.0739 32.8287 61.8071 32.5138 61.6115C32.2023 61.416 31.8344 61.3182 31.4102 61.3182C30.9428 61.3182 30.5385 61.4342 30.1971 61.6662C29.859 61.8949 29.5988 62.1932 29.4165 62.5611C29.2343 62.929 29.1431 63.3234 29.1431 63.7443V64.4205C29.1431 64.9972 29.2425 65.486 29.4414 65.8871C29.6436 66.2848 29.9237 66.5881 30.2816 66.7969C30.6396 67.0024 31.0555 67.1051 31.5295 67.1051C31.8377 67.1051 32.1161 67.062 32.3647 66.9759C32.6166 66.8864 32.8337 66.7538 33.016 66.5781C33.1983 66.3991 33.3391 66.1771 33.4386 65.9119L34.5721 66.2301C34.4528 66.6146 34.2522 66.9527 33.9705 67.2443C33.6888 67.5327 33.3408 67.758 32.9265 67.9205C32.5122 68.0795 32.0465 68.1591 31.5295 68.1591ZM48.766 61H47.533C47.4601 60.6454 47.3325 60.3338 47.1502 60.0653C46.9712 59.7969 46.7525 59.5715 46.494 59.3892C46.2388 59.2036 45.9554 59.0644 45.6438 58.9716C45.3323 58.8788 45.0075 58.8324 44.6694 58.8324C44.0529 58.8324 43.4944 58.9882 42.994 59.2997C42.4968 59.6113 42.1007 60.0703 41.8058 60.6768C41.5141 61.2834 41.3683 62.0275 41.3683 62.9091C41.3683 63.7907 41.5141 64.5348 41.8058 65.1413C42.1007 65.7479 42.4968 66.2069 42.994 66.5185C43.4944 66.83 44.0529 66.9858 44.6694 66.9858C45.0075 66.9858 45.3323 66.9394 45.6438 66.8466C45.9554 66.7538 46.2388 66.6162 46.494 66.4339C46.7525 66.2483 46.9712 66.0213 47.1502 65.7528C47.3325 65.4811 47.4601 65.1695 47.533 64.8182H48.766C48.6732 65.3385 48.5041 65.8042 48.2589 66.2152C48.0136 66.6262 47.7087 66.9759 47.3441 67.2642C46.9795 67.5492 46.5702 67.7663 46.1161 67.9155C45.6654 68.0646 45.1831 68.1392 44.6694 68.1392C43.801 68.1392 43.0288 67.9271 42.3526 67.5028C41.6765 67.0786 41.1445 66.4754 40.7567 65.6932C40.369 64.911 40.1751 63.983 40.1751 62.9091C40.1751 61.8352 40.369 60.9072 40.7567 60.125C41.1445 59.3428 41.6765 58.7396 42.3526 58.3153C43.0288 57.8911 43.801 57.679 44.6694 57.679C45.1831 57.679 45.6654 57.7536 46.1161 57.9027C46.5702 58.0518 46.9795 58.2706 47.3441 58.5589C47.7087 58.844 48.0136 59.192 48.2589 59.603C48.5041 60.0107 48.6732 60.4763 48.766 61ZM50.5993 68V60.3636H51.7725V68H50.5993ZM51.1958 59.0909C50.9672 59.0909 50.7699 59.013 50.6042 58.8572C50.4418 58.7015 50.3606 58.5142 50.3606 58.2955C50.3606 58.0767 50.4418 57.8894 50.6042 57.7337C50.7699 57.5779 50.9672 57.5 51.1958 57.5C51.4245 57.5 51.6201 57.5779 51.7825 57.7337C51.9482 57.8894 52.0311 58.0767 52.0311 58.2955C52.0311 58.5142 51.9482 58.7015 51.7825 58.8572C51.6201 59.013 51.4245 59.0909 51.1958 59.0909ZM57.2425 60.3636V61.358H53.2852V60.3636H57.2425ZM54.4386 58.5341H55.6119V65.8125C55.6119 66.1439 55.6599 66.3925 55.756 66.5582C55.8555 66.7206 55.9814 66.83 56.1339 66.8864C56.2897 66.9394 56.4537 66.9659 56.6261 66.9659C56.7553 66.9659 56.8614 66.9593 56.9442 66.946C57.0271 66.9295 57.0934 66.9162 57.1431 66.9062L57.3817 67.9602C57.3022 67.9901 57.1912 68.0199 57.0487 68.0497C56.9061 68.0829 56.7255 68.0994 56.5067 68.0994C56.1753 68.0994 55.8505 68.0282 55.5323 67.8857C55.2174 67.7431 54.9556 67.526 54.7468 67.2344C54.5413 66.9427 54.4386 66.5748 54.4386 66.1307V58.5341ZM59.7631 70.8636C59.5643 70.8636 59.387 70.8471 59.2312 70.8139C59.0754 70.7841 58.9677 70.7543 58.908 70.7244L59.2063 69.6903C59.4914 69.7633 59.7433 69.7898 59.962 69.7699C60.1808 69.75 60.3746 69.6522 60.5437 69.4766C60.716 69.3042 60.8735 69.0241 61.016 68.6364L61.2347 68.0398L58.4109 60.3636H59.6836L61.7915 66.4489H61.8711L63.979 60.3636H65.2518L62.0103 69.1136C61.8645 69.508 61.6838 69.8345 61.4684 70.093C61.253 70.3549 61.0027 70.5488 60.7177 70.6747C60.436 70.8007 60.1178 70.8636 59.7631 70.8636ZM73.8402 68.1591C73.1508 68.1591 72.5459 67.995 72.0256 67.6669C71.5085 67.3388 71.1042 66.8797 70.8125 66.2898C70.5241 65.6998 70.38 65.0104 70.38 64.2216C70.38 63.4261 70.5241 62.7318 70.8125 62.1385C71.1042 61.5452 71.5085 61.0845 72.0256 60.7564C72.5459 60.4283 73.1508 60.2642 73.8402 60.2642C74.5296 60.2642 75.1328 60.4283 75.6499 60.7564C76.1702 61.0845 76.5746 61.5452 76.8629 62.1385C77.1546 62.7318 77.3004 63.4261 77.3004 64.2216C77.3004 65.0104 77.1546 65.6998 76.8629 66.2898C76.5746 66.8797 76.1702 67.3388 75.6499 67.6669C75.1328 67.995 74.5296 68.1591 73.8402 68.1591ZM73.8402 67.1051C74.3639 67.1051 74.7947 66.9709 75.1328 66.7024C75.4709 66.4339 75.7211 66.081 75.8835 65.6435C76.0459 65.206 76.1271 64.732 76.1271 64.2216C76.1271 63.7112 76.0459 63.2356 75.8835 62.7947C75.7211 62.3539 75.4709 61.9976 75.1328 61.7259C74.7947 61.4541 74.3639 61.3182 73.8402 61.3182C73.3165 61.3182 72.8857 61.4541 72.5476 61.7259C72.2095 61.9976 71.9593 62.3539 71.7969 62.7947C71.6345 63.2356 71.5533 63.7112 71.5533 64.2216C71.5533 64.732 71.6345 65.206 71.7969 65.6435C71.9593 66.081 72.2095 66.4339 72.5476 66.7024C72.8857 66.9709 73.3165 67.1051 73.8402 67.1051ZM82.492 60.3636V61.358H78.3755V60.3636H82.492ZM79.6085 68V59.3097C79.6085 58.8722 79.7112 58.5076 79.9167 58.2159C80.1222 57.9242 80.389 57.7055 80.7172 57.5597C81.0453 57.4138 81.3916 57.3409 81.7562 57.3409C82.0446 57.3409 82.2799 57.3641 82.4622 57.4105C82.6445 57.4569 82.7804 57.5 82.8699 57.5398L82.5318 58.554C82.4721 58.5341 82.3893 58.5092 82.2832 58.4794C82.1805 58.4496 82.0446 58.4347 81.8755 58.4347C81.4877 58.4347 81.2077 58.5324 81.0353 58.728C80.8663 58.9235 80.7818 59.2102 80.7818 59.5881V68H79.6085ZM88.233 68V57.8182H91.6733C92.4688 57.8182 93.1217 57.9541 93.6321 58.2259C94.1425 58.4943 94.5204 58.8639 94.7656 59.3345C95.0109 59.8052 95.1335 60.3404 95.1335 60.9403C95.1335 61.5402 95.0109 62.0722 94.7656 62.5362C94.5204 63.0002 94.1442 63.3648 93.6371 63.63C93.13 63.8918 92.482 64.0227 91.6932 64.0227H88.9091V62.9091H91.6534C92.197 62.9091 92.6345 62.8295 92.9659 62.6705C93.3007 62.5114 93.5426 62.286 93.6918 61.9943C93.8442 61.6993 93.9205 61.348 93.9205 60.9403C93.9205 60.5327 93.8442 60.1764 93.6918 59.8714C93.5393 59.5665 93.2957 59.3312 92.9609 59.1655C92.6262 58.9964 92.1837 58.9119 91.6335 58.9119H89.4659V68H88.233ZM93.0256 63.4261L95.5312 68H94.0994L91.6335 63.4261H93.0256ZM100.149 68.1591C99.4128 68.1591 98.7781 67.9967 98.2445 67.6719C97.7142 67.3438 97.3049 66.8864 97.0165 66.2997C96.7315 65.7098 96.589 65.0237 96.589 64.2415C96.589 63.4593 96.7315 62.7699 97.0165 62.1733C97.3049 61.5734 97.7059 61.1061 98.2196 60.7713C98.7367 60.4332 99.3399 60.2642 100.029 60.2642C100.427 60.2642 100.82 60.3305 101.208 60.4631C101.595 60.5956 101.948 60.8111 102.267 61.1094C102.585 61.4044 102.838 61.7955 103.027 62.2827C103.216 62.7699 103.311 63.3698 103.311 64.0824V64.5795H97.4242V63.5653H102.117C102.117 63.1345 102.031 62.75 101.859 62.4119C101.69 62.0739 101.448 61.8071 101.133 61.6115C100.821 61.416 100.454 61.3182 100.029 61.3182C99.562 61.3182 99.1576 61.4342 98.8162 61.6662C98.4782 61.8949 98.218 62.1932 98.0357 62.5611C97.8534 62.929 97.7623 63.3234 97.7623 63.7443V64.4205C97.7623 64.9972 97.8617 65.486 98.0605 65.8871C98.2627 66.2848 98.5428 66.5881 98.9007 66.7969C99.2587 67.0024 99.6747 67.1051 100.149 67.1051C100.457 67.1051 100.735 67.062 100.984 66.9759C101.236 66.8864 101.453 66.7538 101.635 66.5781C101.817 66.3991 101.958 66.1771 102.058 65.9119L103.191 66.2301C103.072 66.6146 102.871 66.9527 102.59 67.2443C102.308 67.5327 101.96 67.758 101.546 67.9205C101.131 68.0795 100.666 68.1591 100.149 68.1591ZM108.496 60.3636V61.358H104.379V60.3636H108.496ZM105.612 68V59.3097C105.612 58.8722 105.715 58.5076 105.921 58.2159C106.126 57.9242 106.393 57.7055 106.721 57.5597C107.049 57.4138 107.396 57.3409 107.76 57.3409C108.048 57.3409 108.284 57.3641 108.466 57.4105C108.648 57.4569 108.784 57.5 108.874 57.5398L108.536 58.554C108.476 58.5341 108.393 58.5092 108.287 58.4794C108.184 58.4496 108.048 58.4347 107.879 58.4347C107.492 58.4347 107.212 58.5324 107.039 58.728C106.87 58.9235 106.786 59.2102 106.786 59.5881V68H105.612ZM114.953 64.8778V60.3636H116.126V68H114.953V66.7074H114.873C114.694 67.0952 114.416 67.425 114.038 67.6967C113.66 67.9652 113.183 68.0994 112.606 68.0994C112.129 68.0994 111.705 67.995 111.333 67.7862C110.962 67.5741 110.671 67.2559 110.458 66.8317C110.246 66.4041 110.14 65.8655 110.14 65.2159V60.3636H111.314V65.1364C111.314 65.6932 111.469 66.1373 111.781 66.4688C112.096 66.8002 112.497 66.9659 112.984 66.9659C113.276 66.9659 113.572 66.8913 113.874 66.7422C114.179 66.593 114.434 66.3643 114.64 66.0561C114.848 65.7479 114.953 65.3551 114.953 64.8778ZM121.357 71.0227C120.791 71.0227 120.303 70.9498 119.896 70.804C119.488 70.6615 119.148 70.4725 118.877 70.2372C118.608 70.0052 118.394 69.7566 118.235 69.4915L119.17 68.8352C119.276 68.9744 119.41 69.1335 119.573 69.3125C119.735 69.4948 119.957 69.6522 120.239 69.7848C120.524 69.9207 120.897 69.9886 121.357 69.9886C121.974 69.9886 122.483 69.8395 122.884 69.5412C123.285 69.2429 123.485 68.7756 123.485 68.1392V66.5881H123.386C123.3 66.7273 123.177 66.8996 123.018 67.1051C122.862 67.3073 122.637 67.4879 122.342 67.647C122.05 67.8028 121.656 67.8807 121.159 67.8807C120.542 67.8807 119.989 67.7348 119.498 67.4432C119.011 67.1515 118.625 66.7273 118.34 66.1705C118.058 65.6136 117.917 64.9375 117.917 64.142C117.917 63.3598 118.055 62.6787 118.33 62.0987C118.605 61.5154 118.988 61.0646 119.478 60.7464C119.969 60.425 120.535 60.2642 121.178 60.2642C121.676 60.2642 122.07 60.3471 122.362 60.5128C122.657 60.6752 122.882 60.8608 123.038 61.0696C123.197 61.2751 123.32 61.4441 123.406 61.5767H123.525V60.3636H124.659V68.2188C124.659 68.875 124.509 69.4086 124.211 69.8196C123.916 70.2339 123.518 70.5372 123.018 70.7294C122.521 70.925 121.967 71.0227 121.357 71.0227ZM121.318 66.8267C121.788 66.8267 122.186 66.719 122.511 66.5036C122.836 66.2881 123.083 65.9782 123.252 65.5739C123.421 65.1695 123.505 64.6856 123.505 64.1222C123.505 63.572 123.422 63.0864 123.257 62.6655C123.091 62.2446 122.846 61.9148 122.521 61.6761C122.196 61.4375 121.795 61.3182 121.318 61.3182C120.82 61.3182 120.406 61.4441 120.075 61.696C119.747 61.9479 119.5 62.286 119.334 62.7102C119.172 63.1345 119.09 63.6051 119.09 64.1222C119.09 64.6525 119.173 65.1214 119.339 65.5291C119.508 65.9335 119.757 66.2517 120.085 66.4837C120.416 66.7124 120.827 66.8267 121.318 66.8267ZM130.008 68.1591C129.272 68.1591 128.637 67.9967 128.104 67.6719C127.574 67.3438 127.164 66.8864 126.876 66.2997C126.591 65.7098 126.448 65.0237 126.448 64.2415C126.448 63.4593 126.591 62.7699 126.876 62.1733C127.164 61.5734 127.565 61.1061 128.079 60.7713C128.596 60.4332 129.199 60.2642 129.889 60.2642C130.286 60.2642 130.679 60.3305 131.067 60.4631C131.455 60.5956 131.808 60.8111 132.126 61.1094C132.444 61.4044 132.698 61.7955 132.887 62.2827C133.075 62.7699 133.17 63.3698 133.17 64.0824V64.5795H127.284V63.5653H131.977C131.977 63.1345 131.891 62.75 131.718 62.4119C131.549 62.0739 131.307 61.8071 130.992 61.6115C130.681 61.416 130.313 61.3182 129.889 61.3182C129.421 61.3182 129.017 61.4342 128.676 61.6662C128.338 61.8949 128.077 62.1932 127.895 62.5611C127.713 62.929 127.622 63.3234 127.622 63.7443V64.4205C127.622 64.9972 127.721 65.486 127.92 65.8871C128.122 66.2848 128.402 66.5881 128.76 66.7969C129.118 67.0024 129.534 67.1051 130.008 67.1051C130.316 67.1051 130.595 67.062 130.843 66.9759C131.095 66.8864 131.312 66.7538 131.494 66.5781C131.677 66.3991 131.818 66.1771 131.917 65.9119L133.051 66.2301C132.931 66.6146 132.731 66.9527 132.449 67.2443C132.167 67.5327 131.819 67.758 131.405 67.9205C130.991 68.0795 130.525 68.1591 130.008 68.1591ZM138.156 68.1591C137.421 68.1591 136.786 67.9967 136.252 67.6719C135.722 67.3438 135.313 66.8864 135.024 66.2997C134.739 65.7098 134.597 65.0237 134.597 64.2415C134.597 63.4593 134.739 62.7699 135.024 62.1733C135.313 61.5734 135.714 61.1061 136.227 60.7713C136.744 60.4332 137.348 60.2642 138.037 60.2642C138.435 60.2642 138.828 60.3305 139.215 60.4631C139.603 60.5956 139.956 60.8111 140.274 61.1094C140.593 61.4044 140.846 61.7955 141.035 62.2827C141.224 62.7699 141.318 63.3698 141.318 64.0824V64.5795H135.432V63.5653H140.125C140.125 63.1345 140.039 62.75 139.867 62.4119C139.698 62.0739 139.456 61.8071 139.141 61.6115C138.829 61.416 138.461 61.3182 138.037 61.3182C137.57 61.3182 137.165 61.4342 136.824 61.6662C136.486 61.8949 136.226 62.1932 136.044 62.5611C135.861 62.929 135.77 63.3234 135.77 63.7443V64.4205C135.77 64.9972 135.869 65.486 136.068 65.8871C136.271 66.2848 136.551 66.5881 136.909 66.7969C137.267 67.0024 137.682 67.1051 138.156 67.1051C138.465 67.1051 138.743 67.062 138.992 66.9759C139.244 66.8864 139.461 66.7538 139.643 66.5781C139.825 66.3991 139.966 66.1771 140.066 65.9119L141.199 66.2301C141.08 66.6146 140.879 66.9527 140.597 67.2443C140.316 67.5327 139.968 67.758 139.553 67.9205C139.139 68.0795 138.673 68.1591 138.156 68.1591ZM144.853 66.608L144.774 67.1449C144.717 67.5227 144.631 67.9271 144.515 68.358C144.402 68.7888 144.285 69.1948 144.162 69.576C144.039 69.9571 143.938 70.2604 143.859 70.4858H142.964C143.007 70.2737 143.063 69.9936 143.133 69.6456C143.203 69.2976 143.272 68.9081 143.342 68.4773C143.415 68.0497 143.474 67.6122 143.521 67.1648L143.58 66.608H144.853ZM144.137 62.4119C143.892 62.4119 143.682 62.3241 143.506 62.1484C143.33 61.9728 143.242 61.7623 143.242 61.517C143.242 61.2718 143.33 61.0613 143.506 60.8857C143.682 60.71 143.892 60.6222 144.137 60.6222C144.383 60.6222 144.593 60.71 144.769 60.8857C144.944 61.0613 145.032 61.2718 145.032 61.517C145.032 61.6795 144.991 61.8286 144.908 61.9645C144.828 62.1004 144.721 62.2098 144.585 62.2926C144.452 62.3722 144.303 62.4119 144.137 62.4119ZM159.197 57.8182V68H158.004L152.456 60.0057H152.357V68H151.124V57.8182H152.317L157.885 65.8324H157.984V57.8182H159.197ZM164.608 68.1591C163.918 68.1591 163.314 67.995 162.793 67.6669C162.276 67.3388 161.872 66.8797 161.58 66.2898C161.292 65.6998 161.148 65.0104 161.148 64.2216C161.148 63.4261 161.292 62.7318 161.58 62.1385C161.872 61.5452 162.276 61.0845 162.793 60.7564C163.314 60.4283 163.918 60.2642 164.608 60.2642C165.297 60.2642 165.9 60.4283 166.417 60.7564C166.938 61.0845 167.342 61.5452 167.631 62.1385C167.922 62.7318 168.068 63.4261 168.068 64.2216C168.068 65.0104 167.922 65.6998 167.631 66.2898C167.342 66.8797 166.938 67.3388 166.417 67.6669C165.9 67.995 165.297 68.1591 164.608 68.1591ZM164.608 67.1051C165.131 67.1051 165.562 66.9709 165.9 66.7024C166.238 66.4339 166.489 66.081 166.651 65.6435C166.814 65.206 166.895 64.732 166.895 64.2216C166.895 63.7112 166.814 63.2356 166.651 62.7947C166.489 62.3539 166.238 61.9976 165.9 61.7259C165.562 61.4541 165.131 61.3182 164.608 61.3182C164.084 61.3182 163.653 61.4541 163.315 61.7259C162.977 61.9976 162.727 62.3539 162.564 62.7947C162.402 63.2356 162.321 63.7112 162.321 64.2216C162.321 64.732 162.402 65.206 162.564 65.6435C162.727 66.081 162.977 66.4339 163.315 66.7024C163.653 66.9709 164.084 67.1051 164.608 67.1051ZM177.356 57.8182V68H176.123V59.1108H176.064L173.578 60.7614V59.5085L176.123 57.8182H177.356ZM180.046 65.9119V64.8977L184.52 57.8182H185.256V59.3892H184.759L181.378 64.7386V64.8182H187.404V65.9119H180.046ZM184.838 68V65.6037V65.1314V57.8182H186.012V68H184.838ZM190.558 66.608L190.479 67.1449C190.422 67.5227 190.336 67.9271 190.22 68.358C190.107 68.7888 189.99 69.1948 189.867 69.576C189.745 69.9571 189.643 70.2604 189.564 70.4858H188.669C188.712 70.2737 188.768 69.9936 188.838 69.6456C188.908 69.2976 188.977 68.9081 189.047 68.4773C189.12 68.0497 189.179 67.6122 189.226 67.1648L189.286 66.608H190.558ZM202.397 60.3636C202.337 59.8598 202.095 59.4688 201.671 59.1903C201.247 58.9119 200.726 58.7727 200.11 58.7727C199.659 58.7727 199.265 58.8456 198.927 58.9915C198.592 59.1373 198.33 59.3378 198.141 59.593C197.956 59.8482 197.863 60.1383 197.863 60.4631C197.863 60.7348 197.927 60.9685 198.057 61.1641C198.189 61.3563 198.358 61.517 198.564 61.6463C198.769 61.7723 198.985 61.8767 199.21 61.9595C199.435 62.0391 199.643 62.1037 199.831 62.1534L200.866 62.4318C201.131 62.5014 201.426 62.5975 201.751 62.7202C202.079 62.8428 202.392 63.0102 202.69 63.2223C202.992 63.4311 203.24 63.6996 203.436 64.0277C203.631 64.3558 203.729 64.7585 203.729 65.2358C203.729 65.786 203.585 66.2831 203.297 66.7273C203.012 67.1714 202.594 67.5244 202.044 67.7862C201.497 68.0481 200.832 68.179 200.05 68.179C199.321 68.179 198.69 68.0613 198.156 67.826C197.626 67.5907 197.208 67.2625 196.903 66.8416C196.602 66.4207 196.431 65.9318 196.391 65.375H197.664C197.697 65.7595 197.826 66.0777 198.052 66.3295C198.28 66.5781 198.569 66.7637 198.917 66.8864C199.268 67.0057 199.646 67.0653 200.05 67.0653C200.521 67.0653 200.943 66.9891 201.318 66.8366C201.693 66.6809 201.989 66.4654 202.208 66.1903C202.427 65.9119 202.536 65.5871 202.536 65.2159C202.536 64.8778 202.442 64.6027 202.253 64.3906C202.064 64.1785 201.815 64.0062 201.507 63.8736C201.199 63.741 200.866 63.625 200.508 63.5256L199.255 63.1676C198.459 62.9389 197.83 62.6125 197.366 62.1882C196.902 61.764 196.67 61.2088 196.67 60.5227C196.67 59.9527 196.824 59.4555 197.132 59.0312C197.443 58.6037 197.861 58.2723 198.385 58.0369C198.912 57.7983 199.5 57.679 200.15 57.679C200.806 57.679 201.389 57.7966 201.9 58.032C202.41 58.264 202.814 58.5821 203.113 58.9865C203.414 59.3909 203.573 59.8499 203.59 60.3636H202.397ZM208.918 60.3636V61.358H204.961V60.3636H208.918ZM206.114 58.5341H207.288V65.8125C207.288 66.1439 207.336 66.3925 207.432 66.5582C207.531 66.7206 207.657 66.83 207.81 66.8864C207.965 66.9394 208.129 66.9659 208.302 66.9659C208.431 66.9659 208.537 66.9593 208.62 66.946C208.703 66.9295 208.769 66.9162 208.819 66.9062L209.058 67.9602C208.978 67.9901 208.867 68.0199 208.724 68.0497C208.582 68.0829 208.401 68.0994 208.183 68.0994C207.851 68.0994 207.526 68.0282 207.208 67.8857C206.893 67.7431 206.631 67.526 206.423 67.2344C206.217 66.9427 206.114 66.5748 206.114 66.1307V58.5341ZM212.93 68.179C212.446 68.179 212.007 68.0878 211.613 67.9055C211.219 67.7199 210.905 67.4531 210.673 67.1051C210.441 66.7538 210.325 66.3295 210.325 65.8324C210.325 65.3949 210.411 65.0402 210.584 64.7685C210.756 64.4934 210.987 64.2779 211.275 64.1222C211.563 63.9664 211.881 63.8504 212.229 63.7741C212.581 63.6946 212.934 63.6316 213.288 63.5852C213.752 63.5256 214.129 63.4808 214.417 63.451C214.709 63.4179 214.921 63.3632 215.053 63.2869C215.189 63.2107 215.257 63.0781 215.257 62.8892V62.8494C215.257 62.3589 215.123 61.9777 214.854 61.706C214.589 61.4342 214.187 61.2983 213.646 61.2983C213.086 61.2983 212.647 61.4209 212.329 61.6662C212.011 61.9115 211.787 62.1733 211.658 62.4517L210.544 62.054C210.743 61.59 211.008 61.2287 211.339 60.9702C211.674 60.7083 212.039 60.526 212.433 60.4233C212.831 60.3172 213.222 60.2642 213.607 60.2642C213.852 60.2642 214.134 60.294 214.452 60.3537C214.773 60.41 215.083 60.5277 215.381 60.7067C215.683 60.8857 215.933 61.1558 216.132 61.517C216.331 61.8783 216.43 62.3622 216.43 62.9688V68H215.257V66.9659H215.197C215.118 67.1316 214.985 67.3089 214.8 67.4979C214.614 67.6868 214.367 67.8475 214.059 67.9801C213.751 68.1127 213.375 68.179 212.93 68.179ZM213.109 67.125C213.573 67.125 213.964 67.0339 214.283 66.8516C214.604 66.6693 214.846 66.4339 215.009 66.1456C215.174 65.8572 215.257 65.554 215.257 65.2358V64.1619C215.207 64.2216 215.098 64.2763 214.929 64.326C214.763 64.3724 214.571 64.4138 214.352 64.4503C214.137 64.4834 213.926 64.5133 213.721 64.5398C213.519 64.563 213.355 64.5829 213.229 64.5994C212.924 64.6392 212.639 64.7038 212.374 64.7933C212.112 64.8795 211.9 65.0104 211.737 65.1861C211.578 65.3584 211.499 65.5937 211.499 65.892C211.499 66.2997 211.649 66.608 211.951 66.8168C212.256 67.0223 212.642 67.125 213.109 67.125ZM221.893 60.3636V61.358H217.936V60.3636H221.893ZM219.089 58.5341H220.262V65.8125C220.262 66.1439 220.31 66.3925 220.406 66.5582C220.506 66.7206 220.632 66.83 220.784 66.8864C220.94 66.9394 221.104 66.9659 221.276 66.9659C221.406 66.9659 221.512 66.9593 221.595 66.946C221.677 66.9295 221.744 66.9162 221.794 66.9062L222.032 67.9602C221.953 67.9901 221.842 68.0199 221.699 68.0497C221.557 68.0829 221.376 68.0994 221.157 68.0994C220.826 68.0994 220.501 68.0282 220.183 67.8857C219.868 67.7431 219.606 67.526 219.397 67.2344C219.192 66.9427 219.089 66.5748 219.089 66.1307V58.5341ZM223.658 68V60.3636H224.831V68H223.658ZM224.254 59.0909C224.026 59.0909 223.829 59.013 223.663 58.8572C223.5 58.7015 223.419 58.5142 223.419 58.2955C223.419 58.0767 223.5 57.8894 223.663 57.7337C223.829 57.5779 224.026 57.5 224.254 57.5C224.483 57.5 224.679 57.5779 224.841 57.7337C225.007 57.8894 225.09 58.0767 225.09 58.2955C225.09 58.5142 225.007 58.7015 224.841 58.8572C224.679 59.013 224.483 59.0909 224.254 59.0909ZM230.082 68.1591C229.393 68.1591 228.788 67.995 228.268 67.6669C227.751 67.3388 227.346 66.8797 227.055 66.2898C226.766 65.6998 226.622 65.0104 226.622 64.2216C226.622 63.4261 226.766 62.7318 227.055 62.1385C227.346 61.5452 227.751 61.0845 228.268 60.7564C228.788 60.4283 229.393 60.2642 230.082 60.2642C230.772 60.2642 231.375 60.4283 231.892 60.7564C232.412 61.0845 232.817 61.5452 233.105 62.1385C233.397 62.7318 233.543 63.4261 233.543 64.2216C233.543 65.0104 233.397 65.6998 233.105 66.2898C232.817 66.8797 232.412 67.3388 231.892 67.6669C231.375 67.995 230.772 68.1591 230.082 68.1591ZM230.082 67.1051C230.606 67.1051 231.037 66.9709 231.375 66.7024C231.713 66.4339 231.963 66.081 232.126 65.6435C232.288 65.206 232.369 64.732 232.369 64.2216C232.369 63.7112 232.288 63.2356 232.126 62.7947C231.963 62.3539 231.713 61.9976 231.375 61.7259C231.037 61.4541 230.606 61.3182 230.082 61.3182C229.559 61.3182 229.128 61.4541 228.79 61.7259C228.452 61.9976 228.201 62.3539 228.039 62.7947C227.877 63.2356 227.795 63.7112 227.795 64.2216C227.795 64.732 227.877 65.206 228.039 65.6435C228.201 66.081 228.452 66.4339 228.79 66.7024C229.128 66.9709 229.559 67.1051 230.082 67.1051ZM236.507 63.4062V68H235.334V60.3636H236.467V61.5568H236.567C236.746 61.169 237.017 60.8575 237.382 60.6222C237.747 60.3835 238.217 60.2642 238.794 60.2642C239.311 60.2642 239.763 60.3703 240.151 60.5824C240.539 60.7912 240.84 61.1094 241.056 61.5369C241.271 61.9612 241.379 62.4981 241.379 63.1477V68H240.206V63.2273C240.206 62.6274 240.05 62.16 239.738 61.8253C239.427 61.4872 238.999 61.3182 238.456 61.3182C238.081 61.3182 237.747 61.3994 237.452 61.5618C237.16 61.7242 236.93 61.9612 236.76 62.2727C236.591 62.5843 236.507 62.9621 236.507 63.4062ZM11.233 85V74.8182H14.6733C15.4688 74.8182 16.1217 74.9541 16.6321 75.2259C17.1425 75.4943 17.5204 75.8639 17.7656 76.3345C18.0109 76.8052 18.1335 77.3404 18.1335 77.9403C18.1335 78.5402 18.0109 79.0722 17.7656 79.5362C17.5204 80.0002 17.1442 80.3648 16.6371 80.63C16.13 80.8918 15.482 81.0227 14.6932 81.0227H11.9091V79.9091H14.6534C15.197 79.9091 15.6345 79.8295 15.9659 79.6705C16.3007 79.5114 16.5426 79.286 16.6918 78.9943C16.8442 78.6993 16.9205 78.348 16.9205 77.9403C16.9205 77.5327 16.8442 77.1764 16.6918 76.8714C16.5393 76.5665 16.2957 76.3312 15.9609 76.1655C15.6262 75.9964 15.1837 75.9119 14.6335 75.9119H12.4659V85H11.233ZM16.0256 80.4261L18.5312 85H17.0994L14.6335 80.4261H16.0256ZM23.0492 85.1591C22.3598 85.1591 21.7549 84.995 21.2346 84.6669C20.7175 84.3388 20.3132 83.8797 20.0215 83.2898C19.7331 82.6998 19.589 82.0104 19.589 81.2216C19.589 80.4261 19.7331 79.7318 20.0215 79.1385C20.3132 78.5452 20.7175 78.0845 21.2346 77.7564C21.7549 77.4283 22.3598 77.2642 23.0492 77.2642C23.7386 77.2642 24.3418 77.4283 24.8588 77.7564C25.3792 78.0845 25.7836 78.5452 26.0719 79.1385C26.3636 79.7318 26.5094 80.4261 26.5094 81.2216C26.5094 82.0104 26.3636 82.6998 26.0719 83.2898C25.7836 83.8797 25.3792 84.3388 24.8588 84.6669C24.3418 84.995 23.7386 85.1591 23.0492 85.1591ZM23.0492 84.1051C23.5729 84.1051 24.0037 83.9709 24.3418 83.7024C24.6799 83.4339 24.9301 83.081 25.0925 82.6435C25.2549 82.206 25.3361 81.732 25.3361 81.2216C25.3361 80.7112 25.2549 80.2356 25.0925 79.7947C24.9301 79.3539 24.6799 78.9976 24.3418 78.7259C24.0037 78.4541 23.5729 78.3182 23.0492 78.3182C22.5255 78.3182 22.0946 78.4541 21.7566 78.7259C21.4185 78.9976 21.1683 79.3539 21.0059 79.7947C20.8435 80.2356 20.7623 80.7112 20.7623 81.2216C20.7623 81.732 20.8435 82.206 21.0059 82.6435C21.1683 83.081 21.4185 83.4339 21.7566 83.7024C22.0946 83.9709 22.5255 84.1051 23.0492 84.1051ZM30.5476 85.179C30.0637 85.179 29.6245 85.0878 29.2301 84.9055C28.8357 84.7199 28.5225 84.4531 28.2905 84.1051C28.0585 83.7538 27.9425 83.3295 27.9425 82.8324C27.9425 82.3949 28.0286 82.0402 28.201 81.7685C28.3733 81.4934 28.6037 81.2779 28.892 81.1222C29.1804 80.9664 29.4986 80.8504 29.8466 80.7741C30.1979 80.6946 30.5509 80.6316 30.9055 80.5852C31.3696 80.5256 31.7457 80.4808 32.0341 80.451C32.3258 80.4179 32.5379 80.3632 32.6705 80.2869C32.8063 80.2107 32.8743 80.0781 32.8743 79.8892V79.8494C32.8743 79.3589 32.7401 78.9777 32.4716 78.706C32.2064 78.4342 31.8037 78.2983 31.2635 78.2983C30.7034 78.2983 30.2642 78.4209 29.946 78.6662C29.6278 78.9115 29.4041 79.1733 29.2749 79.4517L28.1612 79.054C28.3601 78.59 28.6252 78.2287 28.9567 77.9702C29.2914 77.7083 29.656 77.526 30.0504 77.4233C30.4482 77.3172 30.8393 77.2642 31.2237 77.2642C31.469 77.2642 31.7507 77.294 32.0689 77.3537C32.3904 77.41 32.7003 77.5277 32.9986 77.7067C33.3002 77.8857 33.5504 78.1558 33.7493 78.517C33.9482 78.8783 34.0476 79.3622 34.0476 79.9688V85H32.8743V83.9659H32.8146C32.7351 84.1316 32.6025 84.3089 32.4169 84.4979C32.2313 84.6868 31.9844 84.8475 31.6761 84.9801C31.3679 85.1127 30.9917 85.179 30.5476 85.179ZM30.7266 84.125C31.1906 84.125 31.5817 84.0339 31.8999 83.8516C32.2214 83.6693 32.4633 83.4339 32.6257 83.1456C32.7914 82.8572 32.8743 82.554 32.8743 82.2358V81.1619C32.8246 81.2216 32.7152 81.2763 32.5462 81.326C32.3804 81.3724 32.1882 81.4138 31.9695 81.4503C31.754 81.4834 31.5436 81.5133 31.3381 81.5398C31.1359 81.563 30.9718 81.5829 30.8459 81.5994C30.541 81.6392 30.2559 81.7038 29.9908 81.7933C29.7289 81.8795 29.5168 82.0104 29.3544 82.1861C29.1953 82.3584 29.1158 82.5937 29.1158 82.892C29.1158 83.2997 29.2666 83.608 29.5682 83.8168C29.8731 84.0223 30.2592 84.125 30.7266 84.125ZM39.0726 85.1591C38.4363 85.1591 37.8745 84.9983 37.3873 84.6768C36.9 84.352 36.5189 83.8946 36.2438 83.3047C35.9687 82.7114 35.8311 82.0104 35.8311 81.2017C35.8311 80.3996 35.9687 79.7036 36.2438 79.1136C36.5189 78.5237 36.9017 78.0679 37.3922 77.7464C37.8828 77.425 38.4495 77.2642 39.0925 77.2642C39.5897 77.2642 39.9824 77.3471 40.2708 77.5128C40.5624 77.6752 40.7845 77.8608 40.937 78.0696C41.0927 78.2751 41.2137 78.4441 41.2999 78.5767H41.3993V74.8182H42.5726V85H41.4391V83.8267H41.2999C41.2137 83.9659 41.0911 84.1416 40.932 84.3537C40.7729 84.5625 40.5459 84.7498 40.2509 84.9155C39.9559 85.0779 39.5632 85.1591 39.0726 85.1591ZM39.2317 84.1051C39.7024 84.1051 40.1001 83.9825 40.4249 83.7372C40.7497 83.4886 40.9966 83.1456 41.1657 82.7081C41.3347 82.2673 41.4192 81.7585 41.4192 81.1818C41.4192 80.6117 41.3364 80.1129 41.1706 79.6854C41.0049 79.2545 40.7596 78.9197 40.4348 78.6811C40.11 78.4392 39.709 78.3182 39.2317 78.3182C38.7346 78.3182 38.3203 78.4458 37.9888 78.701C37.6607 78.9529 37.4138 79.2959 37.248 79.7301C37.0856 80.161 37.0044 80.6449 37.0044 81.1818C37.0044 81.7254 37.0873 82.2192 37.253 82.6634C37.4221 83.1042 37.6706 83.4555 37.9988 83.7173C38.3302 83.9759 38.7412 84.1051 39.2317 84.1051ZM46.6344 83.608L46.5549 84.1449C46.4985 84.5227 46.4123 84.9271 46.2963 85.358C46.1837 85.7888 46.066 86.1948 45.9434 86.576C45.8207 86.9571 45.7196 87.2604 45.6401 87.4858H44.7452C44.7883 87.2737 44.8446 86.9936 44.9142 86.6456C44.9838 86.2976 45.0534 85.9081 45.123 85.4773C45.196 85.0497 45.2556 84.6122 45.302 84.1648L45.3617 83.608H46.6344ZM53.3224 85H52.0298L55.7685 74.8182H57.0412L60.7798 85H59.4872L56.4446 76.429H56.3651L53.3224 85ZM53.7997 81.0227H59.0099V82.1165H53.7997V81.0227ZM63.38 74.8182V85H62.2067V74.8182H63.38ZM68.6312 85.1591C67.9418 85.1591 67.3369 84.995 66.8166 84.6669C66.2995 84.3388 65.8952 83.8797 65.6035 83.2898C65.3152 82.6998 65.171 82.0104 65.171 81.2216C65.171 80.4261 65.3152 79.7318 65.6035 79.1385C65.8952 78.5452 66.2995 78.0845 66.8166 77.7564C67.3369 77.4283 67.9418 77.2642 68.6312 77.2642C69.3206 77.2642 69.9238 77.4283 70.4409 77.7564C70.9612 78.0845 71.3656 78.5452 71.6539 79.1385C71.9456 79.7318 72.0914 80.4261 72.0914 81.2216C72.0914 82.0104 71.9456 82.6998 71.6539 83.2898C71.3656 83.8797 70.9612 84.3388 70.4409 84.6669C69.9238 84.995 69.3206 85.1591 68.6312 85.1591ZM68.6312 84.1051C69.1549 84.1051 69.5858 83.9709 69.9238 83.7024C70.2619 83.4339 70.5121 83.081 70.6745 82.6435C70.8369 82.206 70.9181 81.732 70.9181 81.2216C70.9181 80.7112 70.8369 80.2356 70.6745 79.7947C70.5121 79.3539 70.2619 78.9976 69.9238 78.7259C69.5858 78.4541 69.1549 78.3182 68.6312 78.3182C68.1075 78.3182 67.6767 78.4541 67.3386 78.7259C67.0005 78.9976 66.7503 79.3539 66.5879 79.7947C66.4255 80.2356 66.3443 80.7112 66.3443 81.2216C66.3443 81.732 66.4255 82.206 66.5879 82.6435C66.7503 83.081 67.0005 83.4339 67.3386 83.7024C67.6767 83.9709 68.1075 84.1051 68.6312 84.1051ZM75.0558 80.4062V85H73.8825V77.3636H75.016V78.5568H75.1154C75.2944 78.169 75.5662 77.8575 75.9308 77.6222C76.2953 77.3835 76.766 77.2642 77.3427 77.2642C77.8597 77.2642 78.3121 77.3703 78.6999 77.5824C79.0877 77.7912 79.3893 78.1094 79.6048 78.5369C79.8202 78.9612 79.9279 79.4981 79.9279 80.1477V85H78.7546V80.2273C78.7546 79.6274 78.5988 79.16 78.2873 78.8253C77.9757 78.4872 77.5482 78.3182 77.0046 78.3182C76.6301 78.3182 76.2953 78.3994 76.0004 78.5618C75.7087 78.7242 75.4783 78.9612 75.3093 79.2727C75.1403 79.5843 75.0558 79.9621 75.0558 80.4062ZM85.1543 88.0227C84.5875 88.0227 84.1003 87.9498 83.6926 87.804C83.285 87.6615 82.9453 87.4725 82.6735 87.2372C82.405 87.0052 82.1912 86.7566 82.0321 86.4915L82.9668 85.8352C83.0729 85.9744 83.2071 86.1335 83.3695 86.3125C83.5319 86.4948 83.754 86.6522 84.0357 86.7848C84.3207 86.9207 84.6936 86.9886 85.1543 86.9886C85.7708 86.9886 86.2795 86.8395 86.6806 86.5412C87.0816 86.2429 87.2821 85.7756 87.2821 85.1392V83.5881H87.1827C87.0965 83.7273 86.9739 83.8996 86.8148 84.1051C86.659 84.3073 86.4337 84.4879 86.1387 84.647C85.847 84.8028 85.4526 84.8807 84.9554 84.8807C84.339 84.8807 83.7855 84.7348 83.2949 84.4432C82.8077 84.1515 82.4216 83.7273 82.1365 83.1705C81.8548 82.6136 81.714 81.9375 81.714 81.142C81.714 80.3598 81.8515 79.6787 82.1266 79.0987C82.4017 78.5154 82.7845 78.0646 83.275 77.7464C83.7656 77.425 84.3323 77.2642 84.9753 77.2642C85.4725 77.2642 85.8669 77.3471 86.1586 77.5128C86.4535 77.6752 86.6789 77.8608 86.8347 78.0696C86.9938 78.2751 87.1164 78.4441 87.2026 78.5767H87.3219V77.3636H88.4554V85.2188C88.4554 85.875 88.3063 86.4086 88.008 86.8196C87.713 87.2339 87.3153 87.5372 86.8148 87.7294C86.3176 87.925 85.7641 88.0227 85.1543 88.0227ZM85.1145 83.8267C85.5852 83.8267 85.9829 83.719 86.3077 83.5036C86.6325 83.2881 86.8794 82.9782 87.0485 82.5739C87.2175 82.1695 87.302 81.6856 87.302 81.1222C87.302 80.572 87.2192 80.0864 87.0534 79.6655C86.8877 79.2446 86.6425 78.9148 86.3176 78.6761C85.9928 78.4375 85.5918 78.3182 85.1145 78.3182C84.6174 78.3182 84.2031 78.4441 83.8716 78.696C83.5435 78.9479 83.2966 79.286 83.1309 79.7102C82.9685 80.1345 82.8873 80.6051 82.8873 81.1222C82.8873 81.6525 82.9701 82.1214 83.1358 82.5291C83.3049 82.9335 83.5534 83.2517 83.8816 83.4837C84.213 83.7124 84.624 83.8267 85.1145 83.8267ZM94.6998 85V74.8182H98.1401C98.9355 74.8182 99.5885 74.9541 100.099 75.2259C100.609 75.4943 100.987 75.8639 101.232 76.3345C101.478 76.8052 101.6 77.3404 101.6 77.9403C101.6 78.5402 101.478 79.0722 101.232 79.5362C100.987 80.0002 100.611 80.3648 100.104 80.63C99.5968 80.8918 98.9488 81.0227 98.16 81.0227H95.3759V79.9091H98.1202C98.6638 79.9091 99.1013 79.8295 99.4327 79.6705C99.7675 79.5114 100.009 79.286 100.159 78.9943C100.311 78.6993 100.387 78.348 100.387 77.9403C100.387 77.5327 100.311 77.1764 100.159 76.8714C100.006 76.5665 99.7625 76.3312 99.4277 76.1655C99.093 75.9964 98.6505 75.9119 98.1003 75.9119H95.9327V85H94.6998ZM99.4924 80.4261L101.998 85H100.566L98.1003 80.4261H99.4924ZM106.516 85.1591C105.827 85.1591 105.222 84.995 104.701 84.6669C104.184 84.3388 103.78 83.8797 103.488 83.2898C103.2 82.6998 103.056 82.0104 103.056 81.2216C103.056 80.4261 103.2 79.7318 103.488 79.1385C103.78 78.5452 104.184 78.0845 104.701 77.7564C105.222 77.4283 105.827 77.2642 106.516 77.2642C107.205 77.2642 107.809 77.4283 108.326 77.7564C108.846 78.0845 109.25 78.5452 109.539 79.1385C109.83 79.7318 109.976 80.4261 109.976 81.2216C109.976 82.0104 109.83 82.6998 109.539 83.2898C109.25 83.8797 108.846 84.3388 108.326 84.6669C107.809 84.995 107.205 85.1591 106.516 85.1591ZM106.516 84.1051C107.04 84.1051 107.471 83.9709 107.809 83.7024C108.147 83.4339 108.397 83.081 108.559 82.6435C108.722 82.206 108.803 81.732 108.803 81.2216C108.803 80.7112 108.722 80.2356 108.559 79.7947C108.397 79.3539 108.147 78.9976 107.809 78.7259C107.471 78.4541 107.04 78.3182 106.516 78.3182C105.992 78.3182 105.561 78.4541 105.223 78.7259C104.885 78.9976 104.635 79.3539 104.473 79.7947C104.31 80.2356 104.229 80.7112 104.229 81.2216C104.229 81.732 104.31 82.206 104.473 82.6435C104.635 83.081 104.885 83.4339 105.223 83.7024C105.561 83.9709 105.992 84.1051 106.516 84.1051ZM112.249 87.8636C112.051 87.8636 111.873 87.8471 111.718 87.8139C111.562 87.7841 111.454 87.7543 111.394 87.7244L111.693 86.6903C111.978 86.7633 112.23 86.7898 112.448 86.7699C112.667 86.75 112.861 86.6522 113.03 86.4766C113.202 86.3042 113.36 86.0241 113.502 85.6364L113.721 85.0398L110.897 77.3636H112.17L114.278 83.4489H114.357L116.465 77.3636H117.738L114.497 86.1136C114.351 86.508 114.17 86.8345 113.955 87.093C113.739 87.3549 113.489 87.5488 113.204 87.6747C112.922 87.8007 112.604 87.8636 112.249 87.8636ZM121.301 85.179C120.818 85.179 120.378 85.0878 119.984 84.9055C119.59 84.7199 119.276 84.4531 119.044 84.1051C118.812 83.7538 118.696 83.3295 118.696 82.8324C118.696 82.3949 118.783 82.0402 118.955 81.7685C119.127 81.4934 119.358 81.2779 119.646 81.1222C119.934 80.9664 120.252 80.8504 120.6 80.7741C120.952 80.6946 121.305 80.6316 121.659 80.5852C122.123 80.5256 122.5 80.4808 122.788 80.451C123.08 80.4179 123.292 80.3632 123.424 80.2869C123.56 80.2107 123.628 80.0781 123.628 79.8892V79.8494C123.628 79.3589 123.494 78.9777 123.225 78.706C122.96 78.4342 122.558 78.2983 122.017 78.2983C121.457 78.2983 121.018 78.4209 120.7 78.6662C120.382 78.9115 120.158 79.1733 120.029 79.4517L118.915 79.054C119.114 78.59 119.379 78.2287 119.711 77.9702C120.045 77.7083 120.41 77.526 120.804 77.4233C121.202 77.3172 121.593 77.2642 121.978 77.2642C122.223 77.2642 122.505 77.294 122.823 77.3537C123.144 77.41 123.454 77.5277 123.752 77.7067C124.054 77.8857 124.304 78.1558 124.503 78.517C124.702 78.8783 124.801 79.3622 124.801 79.9688V85H123.628V83.9659H123.569C123.489 84.1316 123.356 84.3089 123.171 84.4979C122.985 84.6868 122.738 84.8475 122.43 84.9801C122.122 85.1127 121.746 85.179 121.301 85.179ZM121.48 84.125C121.944 84.125 122.336 84.0339 122.654 83.8516C122.975 83.6693 123.217 83.4339 123.38 83.1456C123.545 82.8572 123.628 82.554 123.628 82.2358V81.1619C123.578 81.2216 123.469 81.2763 123.3 81.326C123.134 81.3724 122.942 81.4138 122.723 81.4503C122.508 81.4834 122.297 81.5133 122.092 81.5398C121.89 81.563 121.726 81.5829 121.6 81.5994C121.295 81.6392 121.01 81.7038 120.745 81.7933C120.483 81.8795 120.271 82.0104 120.108 82.1861C119.949 82.3584 119.87 82.5937 119.87 82.892C119.87 83.2997 120.02 83.608 120.322 83.8168C120.627 84.0223 121.013 84.125 121.48 84.125ZM128.116 74.8182V85H126.943V74.8182H128.116ZM133.586 77.3636V78.358H129.629V77.3636H133.586ZM130.782 75.5341H131.956V82.8125C131.956 83.1439 132.004 83.3925 132.1 83.5582C132.199 83.7206 132.325 83.83 132.478 83.8864C132.633 83.9394 132.797 83.9659 132.97 83.9659C133.099 83.9659 133.205 83.9593 133.288 83.946C133.371 83.9295 133.437 83.9162 133.487 83.9062L133.725 84.9602C133.646 84.9901 133.535 85.0199 133.392 85.0497C133.25 85.0829 133.069 85.0994 132.85 85.0994C132.519 85.0994 132.194 85.0282 131.876 84.8857C131.561 84.7431 131.299 84.526 131.091 84.2344C130.885 83.9427 130.782 83.5748 130.782 83.1307V75.5341ZM138.371 85.1591C137.682 85.1591 137.077 84.995 136.557 84.6669C136.04 84.3388 135.635 83.8797 135.344 83.2898C135.055 82.6998 134.911 82.0104 134.911 81.2216C134.911 80.4261 135.055 79.7318 135.344 79.1385C135.635 78.5452 136.04 78.0845 136.557 77.7564C137.077 77.4283 137.682 77.2642 138.371 77.2642C139.061 77.2642 139.664 77.4283 140.181 77.7564C140.701 78.0845 141.106 78.5452 141.394 79.1385C141.686 79.7318 141.832 80.4261 141.832 81.2216C141.832 82.0104 141.686 82.6998 141.394 83.2898C141.106 83.8797 140.701 84.3388 140.181 84.6669C139.664 84.995 139.061 85.1591 138.371 85.1591ZM138.371 84.1051C138.895 84.1051 139.326 83.9709 139.664 83.7024C140.002 83.4339 140.252 83.081 140.415 82.6435C140.577 82.206 140.658 81.732 140.658 81.2216C140.658 80.7112 140.577 80.2356 140.415 79.7947C140.252 79.3539 140.002 78.9976 139.664 78.7259C139.326 78.4541 138.895 78.3182 138.371 78.3182C137.848 78.3182 137.417 78.4541 137.079 78.7259C136.741 78.9976 136.491 79.3539 136.328 79.7947C136.166 80.2356 136.085 80.7112 136.085 81.2216C136.085 81.732 136.166 82.206 136.328 82.6435C136.491 83.081 136.741 83.4339 137.079 83.7024C137.417 83.9709 137.848 84.1051 138.371 84.1051ZM144.796 80.4062V85H143.623V77.3636H144.756V78.5568H144.856C145.035 78.169 145.306 77.8575 145.671 77.6222C146.036 77.3835 146.506 77.2642 147.083 77.2642C147.6 77.2642 148.052 77.3703 148.44 77.5824C148.828 77.7912 149.13 78.1094 149.345 78.5369C149.56 78.9612 149.668 79.4981 149.668 80.1477V85H148.495V80.2273C148.495 79.6274 148.339 79.16 148.028 78.8253C147.716 78.4872 147.288 78.3182 146.745 78.3182C146.37 78.3182 146.036 78.3994 145.741 78.5618C145.449 78.7242 145.219 78.9612 145.05 79.2727C144.881 79.5843 144.796 79.9621 144.796 80.4062ZM155.909 85V74.8182H157.142V79.3523H162.571V74.8182H163.804V85H162.571V80.446H157.142V85H155.909ZM169.215 85.1591C168.526 85.1591 167.921 84.995 167.401 84.6669C166.884 84.3388 166.479 83.8797 166.188 83.2898C165.899 82.6998 165.755 82.0104 165.755 81.2216C165.755 80.4261 165.899 79.7318 166.188 79.1385C166.479 78.5452 166.884 78.0845 167.401 77.7564C167.921 77.4283 168.526 77.2642 169.215 77.2642C169.905 77.2642 170.508 77.4283 171.025 77.7564C171.545 78.0845 171.95 78.5452 172.238 79.1385C172.53 79.7318 172.675 80.4261 172.675 81.2216C172.675 82.0104 172.53 82.6998 172.238 83.2898C171.95 83.8797 171.545 84.3388 171.025 84.6669C170.508 84.995 169.905 85.1591 169.215 85.1591ZM169.215 84.1051C169.739 84.1051 170.17 83.9709 170.508 83.7024C170.846 83.4339 171.096 83.081 171.259 82.6435C171.421 82.206 171.502 81.732 171.502 81.2216C171.502 80.7112 171.421 80.2356 171.259 79.7947C171.096 79.3539 170.846 78.9976 170.508 78.7259C170.17 78.4541 169.739 78.3182 169.215 78.3182C168.692 78.3182 168.261 78.4541 167.923 78.7259C167.585 78.9976 167.334 79.3539 167.172 79.7947C167.009 80.2356 166.928 80.7112 166.928 81.2216C166.928 81.732 167.009 82.206 167.172 82.6435C167.334 83.081 167.585 83.4339 167.923 83.7024C168.261 83.9709 168.692 84.1051 169.215 84.1051ZM177.787 77.3636V78.358H173.83V77.3636H177.787ZM174.983 75.5341H176.157V82.8125C176.157 83.1439 176.205 83.3925 176.301 83.5582C176.4 83.7206 176.526 83.83 176.679 83.8864C176.835 83.9394 176.999 83.9659 177.171 83.9659C177.3 83.9659 177.406 83.9593 177.489 83.946C177.572 83.9295 177.638 83.9162 177.688 83.9062L177.927 84.9602C177.847 84.9901 177.736 85.0199 177.594 85.0497C177.451 85.0829 177.27 85.0994 177.052 85.0994C176.72 85.0994 176.395 85.0282 176.077 84.8857C175.762 84.7431 175.501 84.526 175.292 84.2344C175.086 83.9427 174.983 83.5748 174.983 83.1307V75.5341ZM182.672 85.1591C181.936 85.1591 181.302 84.9967 180.768 84.6719C180.238 84.3438 179.828 83.8864 179.54 83.2997C179.255 82.7098 179.112 82.0237 179.112 81.2415C179.112 80.4593 179.255 79.7699 179.54 79.1733C179.828 78.5734 180.229 78.1061 180.743 77.7713C181.26 77.4332 181.863 77.2642 182.553 77.2642C182.95 77.2642 183.343 77.3305 183.731 77.4631C184.119 77.5956 184.472 77.8111 184.79 78.1094C185.108 78.4044 185.362 78.7955 185.551 79.2827C185.74 79.7699 185.834 80.3698 185.834 81.0824V81.5795H179.948V80.5653H184.641C184.641 80.1345 184.555 79.75 184.382 79.4119C184.213 79.0739 183.971 78.8071 183.656 78.6115C183.345 78.416 182.977 78.3182 182.553 78.3182C182.085 78.3182 181.681 78.4342 181.34 78.6662C181.002 78.8949 180.741 79.1932 180.559 79.5611C180.377 79.929 180.286 80.3234 180.286 80.7443V81.4205C180.286 81.9972 180.385 82.486 180.584 82.8871C180.786 83.2848 181.066 83.5881 181.424 83.7969C181.782 84.0024 182.198 84.1051 182.672 84.1051C182.98 84.1051 183.259 84.062 183.507 83.9759C183.759 83.8864 183.976 83.7538 184.159 83.5781C184.341 83.3991 184.482 83.1771 184.581 82.9119L185.715 83.2301C185.595 83.6146 185.395 83.9527 185.113 84.2443C184.831 84.5327 184.483 84.758 184.069 84.9205C183.655 85.0795 183.189 85.1591 182.672 85.1591ZM188.792 74.8182V85H187.619V74.8182H188.792ZM192.691 83.608L192.612 84.1449C192.555 84.5227 192.469 84.9271 192.353 85.358C192.24 85.7888 192.123 86.1948 192 86.576C191.877 86.9571 191.776 87.2604 191.697 87.4858H190.802C190.845 87.2737 190.901 86.9936 190.971 86.6456C191.04 86.2976 191.11 85.9081 191.18 85.4773C191.253 85.0497 191.312 84.6122 191.359 84.1648L191.418 83.608H192.691ZM205.922 78C205.812 77.6652 205.668 77.3653 205.489 77.1001C205.314 76.8317 205.103 76.603 204.858 76.4141C204.616 76.2251 204.341 76.081 204.032 75.9815C203.724 75.8821 203.386 75.8324 203.018 75.8324C202.415 75.8324 201.867 75.9882 201.373 76.2997C200.879 76.6113 200.486 77.0703 200.194 77.6768C199.903 78.2834 199.757 79.0275 199.757 79.9091C199.757 80.7907 199.904 81.5348 200.199 82.1413C200.494 82.7479 200.894 83.2069 201.398 83.5185C201.901 83.83 202.468 83.9858 203.098 83.9858C203.681 83.9858 204.195 83.8615 204.639 83.6129C205.086 83.361 205.434 83.0064 205.683 82.549C205.935 82.0883 206.061 81.5464 206.061 80.9233L206.439 81.0028H203.376V79.9091H207.254V81.0028C207.254 81.8414 207.075 82.5705 206.717 83.1903C206.363 83.8101 205.872 84.2907 205.246 84.6321C204.622 84.9702 203.907 85.1392 203.098 85.1392C202.196 85.1392 201.404 84.9271 200.721 84.5028C200.042 84.0786 199.512 83.4754 199.131 82.6932C198.753 81.911 198.564 80.983 198.564 79.9091C198.564 79.1037 198.671 78.3795 198.887 77.7365C199.106 77.0902 199.414 76.54 199.812 76.0859C200.209 75.6319 200.68 75.2839 201.224 75.0419C201.767 74.8 202.365 74.679 203.018 74.679C203.555 74.679 204.056 74.7602 204.52 74.9226C204.987 75.0817 205.403 75.3087 205.768 75.6037C206.135 75.8954 206.442 76.245 206.687 76.6527C206.933 77.0571 207.102 77.5062 207.194 78H205.922ZM209.366 85V74.8182H212.806C213.602 74.8182 214.254 74.9541 214.765 75.2259C215.275 75.4943 215.653 75.8639 215.898 76.3345C216.144 76.8052 216.266 77.3404 216.266 77.9403C216.266 78.5402 216.144 79.0722 215.898 79.5362C215.653 80.0002 215.277 80.3648 214.77 80.63C214.263 80.8918 213.615 81.0227 212.826 81.0227H210.042V79.9091H212.786C213.33 79.9091 213.767 79.8295 214.099 79.6705C214.433 79.5114 214.675 79.286 214.825 78.9943C214.977 78.6993 215.053 78.348 215.053 77.9403C215.053 77.5327 214.977 77.1764 214.825 76.8714C214.672 76.5665 214.429 76.3312 214.094 76.1655C213.759 75.9964 213.317 75.9119 212.766 75.9119H210.599V85H209.366ZM214.158 80.4261L216.664 85H215.232L212.766 80.4261H214.158ZM218.738 85H217.446L221.184 74.8182H222.457L226.196 85H224.903L221.861 76.429H221.781L218.738 85ZM219.216 81.0227H224.426V82.1165H219.216V81.0227ZM229.373 83.608L229.293 84.1449C229.237 84.5227 229.151 84.9271 229.035 85.358C228.922 85.7888 228.804 86.1948 228.682 86.576C228.559 86.9571 228.458 87.2604 228.378 87.4858H227.483C227.527 87.2737 227.583 86.9936 227.653 86.6456C227.722 86.2976 227.792 85.9081 227.861 85.4773C227.934 85.0497 227.994 84.6122 228.04 84.1648L228.1 83.608H229.373ZM236.876 74.8182V85H235.643V74.8182H236.876ZM240.362 74.8182V85H239.189V74.8182H240.362ZM245.614 85.1591C244.924 85.1591 244.319 84.995 243.799 84.6669C243.282 84.3388 242.878 83.8797 242.586 83.2898C242.298 82.6998 242.153 82.0104 242.153 81.2216C242.153 80.4261 242.298 79.7318 242.586 79.1385C242.878 78.5452 243.282 78.0845 243.799 77.7564C244.319 77.4283 244.924 77.2642 245.614 77.2642C246.303 77.2642 246.906 77.4283 247.423 77.7564C247.944 78.0845 248.348 78.5452 248.636 79.1385C248.928 79.7318 249.074 80.4261 249.074 81.2216C249.074 82.0104 248.928 82.6998 248.636 83.2898C248.348 83.8797 247.944 84.3388 247.423 84.6669C246.906 84.995 246.303 85.1591 245.614 85.1591ZM245.614 84.1051C246.137 84.1051 246.568 83.9709 246.906 83.7024C247.244 83.4339 247.495 83.081 247.657 82.6435C247.819 82.206 247.901 81.732 247.901 81.2216C247.901 80.7112 247.819 80.2356 247.657 79.7947C247.495 79.3539 247.244 78.9976 246.906 78.7259C246.568 78.4541 246.137 78.3182 245.614 78.3182C245.09 78.3182 244.659 78.4541 244.321 78.7259C243.983 78.9976 243.733 79.3539 243.57 79.7947C243.408 80.2356 243.327 80.7112 243.327 81.2216C243.327 81.732 243.408 82.206 243.57 82.6435C243.733 83.081 243.983 83.4339 244.321 83.7024C244.659 83.9709 245.09 84.1051 245.614 84.1051ZM250.865 85V77.3636H251.998V78.517H252.078C252.217 78.1392 252.469 77.8326 252.834 77.5973C253.198 77.362 253.609 77.2443 254.067 77.2443C254.153 77.2443 254.26 77.246 254.39 77.2493C254.519 77.2526 254.617 77.2576 254.683 77.2642V78.4574C254.643 78.4474 254.552 78.4325 254.41 78.4126C254.27 78.3894 254.123 78.3778 253.967 78.3778C253.596 78.3778 253.265 78.4557 252.973 78.6115C252.684 78.764 252.456 78.9761 252.287 79.2479C252.121 79.5163 252.038 79.8229 252.038 80.1676V85H250.865ZM256.074 85V77.3636H257.247V85H256.074ZM256.67 76.0909C256.442 76.0909 256.245 76.013 256.079 75.8572C255.916 75.7015 255.835 75.5142 255.835 75.2955C255.835 75.0767 255.916 74.8894 256.079 74.7337C256.245 74.5779 256.442 74.5 256.67 74.5C256.899 74.5 257.095 74.5779 257.257 74.7337C257.423 74.8894 257.506 75.0767 257.506 75.2955C257.506 75.5142 257.423 75.7015 257.257 75.8572C257.095 76.013 256.899 76.0909 256.67 76.0909ZM260.569 80.4062V85H259.396V77.3636H260.53V78.5568H260.629C260.808 78.169 261.08 77.8575 261.444 77.6222C261.809 77.3835 262.28 77.2642 262.856 77.2642C263.373 77.2642 263.826 77.3703 264.214 77.5824C264.601 77.7912 264.903 78.1094 265.118 78.5369C265.334 78.9612 265.442 79.4981 265.442 80.1477V85H264.268V80.2273C264.268 79.6274 264.113 79.16 263.801 78.8253C263.489 78.4872 263.062 78.3182 262.518 78.3182C262.144 78.3182 261.809 78.3994 261.514 78.5618C261.222 78.7242 260.992 78.9612 260.823 79.2727C260.654 79.5843 260.569 79.9621 260.569 80.4062Z" fill="white"/>
</svg>
