<svg width="71" height="70" viewBox="0 0 71 70" fill="none" xmlns="http://www.w3.org/2000/svg">
<rect x="0.558228" width="70" height="70" rx="30" fill="white"/>
<path d="M56.7081 13.7302C53.9577 10.9519 50.6817 8.74917 47.071 7.25032C43.4604 5.75148 39.5875 4.98656 35.6782 5.00018C19.2982 5.00018 5.94825 18.3501 5.94825 34.7301C5.94825 39.9801 7.32825 45.0801 9.90824 49.58L5.70825 65L21.4582 60.86C25.8082 63.23 30.6982 64.49 35.6782 64.49C52.0581 64.49 65.4081 51.14 65.4081 34.7601C65.4081 26.8101 62.3181 19.3401 56.7081 13.7302ZM35.6782 59.45C31.2382 59.45 26.8882 58.25 23.0782 56L22.1782 55.46L12.8182 57.92L15.3082 48.8L14.7082 47.8701C12.2415 43.931 10.9317 39.3778 10.9282 34.7301C10.9282 21.1101 22.0282 10.0102 35.6482 10.0102C42.2481 10.0102 48.4581 12.5902 53.1081 17.2701C55.4106 19.562 57.2352 22.2881 58.4763 25.2904C59.7174 28.2927 60.3502 31.5114 60.3381 34.7601C60.3981 48.3801 49.2981 59.45 35.6782 59.45ZM49.2381 40.9701C48.4881 40.6101 44.8281 38.8101 44.1681 38.5401C43.4781 38.3001 42.9981 38.1801 42.4881 38.9001C41.9781 39.6501 40.5681 41.3301 40.1481 41.8101C39.7281 42.3201 39.2782 42.3801 38.5282 41.9901C37.7782 41.6301 35.3782 40.8201 32.5582 38.3001C30.3382 36.3201 28.8682 33.8901 28.4182 33.1401C27.9982 32.3901 28.3582 32.0001 28.7482 31.6101C29.0782 31.2801 29.4982 30.7401 29.8582 30.3201C30.2182 29.9001 30.3682 29.5701 30.6082 29.0901C30.8482 28.5801 30.7282 28.1601 30.5482 27.8001C30.3682 27.4401 28.8682 23.7801 28.2682 22.2801C27.6682 20.8401 27.0382 21.0201 26.5882 20.9901H25.1482C24.6382 20.9901 23.8582 21.1701 23.1682 21.9201C22.5082 22.6701 20.5882 24.4701 20.5882 28.1301C20.5882 31.7901 23.2582 35.3301 23.6182 35.8101C23.9782 36.3201 28.8682 43.8201 36.3082 47.0301C38.0782 47.8101 39.4582 48.2601 40.5381 48.59C42.3081 49.16 43.9281 49.07 45.2181 48.89C46.6581 48.68 49.6281 47.0901 50.2281 45.3501C50.8581 43.6101 50.8581 42.1401 50.6481 41.8101C50.4381 41.4801 49.9881 41.3301 49.2381 40.9701Z" fill="#232323"/>
</svg>
