<svg width="71" height="70" viewBox="0 0 71 70" fill="none" xmlns="http://www.w3.org/2000/svg">
<rect x="0.574951" width="69.9832" height="70" rx="30" fill="white"/>
<path d="M53.2339 17.3159C49.7381 13.8216 45.2846 11.4424 40.4366 10.4792C35.5886 9.51593 30.5639 10.0119 25.9978 11.9043C21.4317 13.7968 17.5293 17.0007 14.784 21.111C12.0388 25.2213 10.574 30.0533 10.575 34.9961C10.575 41.6253 13.2076 47.9833 17.894 52.6721C22.5804 57.3609 28.937 59.9967 35.5663 60C38.8469 60.0014 42.0959 59.3601 45.13 58.1124C48.1544 56.8358 50.9055 54.9903 53.2339 52.6762C55.556 50.3546 57.3979 47.5983 58.6546 44.5647C59.9114 41.5311 60.5582 38.2796 60.5582 34.9961C60.5582 31.7125 59.9114 28.461 58.6546 25.4274C57.3979 22.3938 55.556 19.6375 53.2339 17.3159ZM51.4722 50.8894C47.8734 54.5036 43.1512 56.7848 38.0831 57.3574V40.8475H42.8146C43.482 40.8475 44.1222 40.5823 44.5942 40.1104C45.0662 39.6384 45.3313 38.9982 45.3313 38.3307C45.3313 37.6633 45.0662 37.0231 44.5942 36.5511C44.1222 36.0792 43.482 35.814 42.8146 35.814H38.0831V28.9181C38.0831 28.2506 38.3482 27.6105 38.8202 27.1385C39.2922 26.6665 39.9323 26.4013 40.5998 26.4013H43.6199C44.2874 26.4013 44.9276 26.1362 45.3995 25.6642C45.8715 25.1922 46.1367 24.5521 46.1367 23.8846C46.1367 23.2171 45.8715 22.577 45.3995 22.105C44.9276 21.633 44.2874 21.3678 43.6199 21.3678H39.3414C37.6727 21.3678 36.0724 22.0307 34.8924 23.2107C33.7125 24.3906 33.0496 25.991 33.0496 27.6597V35.814H28.3432C27.6757 35.814 27.0356 36.0792 26.5636 36.5511C26.0916 37.0231 25.8265 37.6633 25.8265 38.3307C25.8265 38.9982 26.0916 39.6384 26.5636 40.1104C27.0356 40.5823 27.6757 40.8475 28.3432 40.8475H33.0496V57.3574C28.3757 56.8242 23.9874 54.836 20.5047 51.6737C17.0219 48.5115 14.6207 44.3349 13.6401 39.7341C12.6595 35.1332 13.1492 30.3405 15.04 26.033C16.9308 21.7255 20.1271 18.1209 24.1774 15.7283C28.2277 13.3358 32.9273 12.2762 37.6125 12.6992C42.2976 13.1222 46.7315 15.0065 50.2877 18.0858C53.844 21.1652 56.3429 25.2841 57.4316 29.8606C58.5202 34.4371 58.1435 39.2399 56.3547 43.5908C55.2154 46.317 53.5571 48.7958 51.4722 50.8894Z" fill="#232323"/>
</svg>
