<svg width="71" height="70" viewBox="0 0 71 70" fill="none" xmlns="http://www.w3.org/2000/svg">
<rect x="0.558228" width="70" height="70" rx="30" fill="white"/>
<path d="M25.0582 10H46.0582C54.0582 10 60.5582 16.5 60.5582 24.5V45.5C60.5582 49.3456 59.0306 53.0338 56.3113 55.7531C53.592 58.4723 49.9039 60 46.0582 60H25.0582C17.0582 60 10.5582 53.5 10.5582 45.5V24.5C10.5582 20.6544 12.0859 16.9662 14.8052 14.247C17.5245 11.5277 21.2126 10 25.0582 10ZM24.5582 15C22.1713 15 19.8821 15.9482 18.1943 17.636C16.5064 19.3239 15.5582 21.6131 15.5582 24V46C15.5582 50.975 19.5832 55 24.5582 55H46.5582C48.9452 55 51.2344 54.0518 52.9222 52.364C54.61 50.6761 55.5582 48.3869 55.5582 46V24C55.5582 19.025 51.5332 15 46.5582 15H24.5582ZM48.6832 18.75C49.512 18.75 50.3069 19.0792 50.8929 19.6653C51.479 20.2513 51.8082 21.0462 51.8082 21.875C51.8082 22.7038 51.479 23.4987 50.8929 24.0847C50.3069 24.6708 49.512 25 48.6832 25C47.8544 25 47.0596 24.6708 46.4735 24.0847C45.8875 23.4987 45.5582 22.7038 45.5582 21.875C45.5582 21.0462 45.8875 20.2513 46.4735 19.6653C47.0596 19.0792 47.8544 18.75 48.6832 18.75ZM35.5582 22.5C38.8734 22.5 42.0529 23.817 44.3971 26.1612C46.7413 28.5054 48.0582 31.6848 48.0582 35C48.0582 38.3152 46.7413 41.4946 44.3971 43.8388C42.0529 46.183 38.8734 47.5 35.5582 47.5C32.243 47.5 29.0636 46.183 26.7194 43.8388C24.3752 41.4946 23.0582 38.3152 23.0582 35C23.0582 31.6848 24.3752 28.5054 26.7194 26.1612C29.0636 23.817 32.243 22.5 35.5582 22.5ZM35.5582 27.5C33.5691 27.5 31.6614 28.2902 30.2549 29.6967C28.8484 31.1032 28.0582 33.0109 28.0582 35C28.0582 36.9891 28.8484 38.8968 30.2549 40.3033C31.6614 41.7098 33.5691 42.5 35.5582 42.5C37.5474 42.5 39.455 41.7098 40.8615 40.3033C42.2681 38.8968 43.0582 36.9891 43.0582 35C43.0582 33.0109 42.2681 31.1032 40.8615 29.6967C39.455 28.2902 37.5474 27.5 35.5582 27.5Z" fill="#232323"/>
</svg>
